<?xml version="1.0" encoding="utf-8" standalone="no"?>
<!DOCTYPE svg PUBLIC "-//W3C//DTD SVG 1.1//EN"
  "http://www.w3.org/Graphics/SVG/1.1/DTD/svg11.dtd">
<svg xmlns:xlink="http://www.w3.org/1999/xlink" width="453.312812pt" height="337.948125pt" viewBox="0 0 453.312812 337.948125" xmlns="http://www.w3.org/2000/svg" version="1.1">
 <metadata>
  <rdf:RDF xmlns:dc="http://purl.org/dc/elements/1.1/" xmlns:cc="http://creativecommons.org/ns#" xmlns:rdf="http://www.w3.org/1999/02/22-rdf-syntax-ns#">
   <cc:Work>
    <dc:type rdf:resource="http://purl.org/dc/dcmitype/StillImage"/>
    <dc:date>2022-11-15T14:17:23.850357</dc:date>
    <dc:format>image/svg+xml</dc:format>
    <dc:creator>
     <cc:Agent>
      <dc:title>Matplotlib v3.5.3, https://matplotlib.org/</dc:title>
     </cc:Agent>
    </dc:creator>
   </cc:Work>
  </rdf:RDF>
 </metadata>
 <defs>
  <style type="text/css">*{stroke-linejoin: round; stroke-linecap: butt}</style>
 </defs>
 <g id="figure_1">
  <g id="patch_1">
   <path d="M 0 337.948125 
L 453.312812 337.948125 
L 453.312812 0 
L 0 0 
z
" style="fill: #ffffff"/>
  </g>
  <g id="axes_1">
   <g id="patch_2">
    <path d="M 53.282813 261.52 
L 446.112813 261.52 
L 446.112813 7.2 
L 53.282813 7.2 
z
" style="fill: #ffffff"/>
   </g>
   <g id="patch_3">
    <path d="M 55.738 261.52 
L 58.193188 261.52 
L 58.193188 261.52 
L 55.738 261.52 
z
" clip-path="url(#p8f3a992f35)" style="fill: #4477aa; stroke: #000000; stroke-width: 0.5; stroke-linejoin: miter"/>
   </g>
   <g id="patch_4">
    <path d="M 80.289875 261.52 
L 82.745063 261.52 
L 82.745063 261.52 
L 80.289875 261.52 
z
" clip-path="url(#p8f3a992f35)" style="fill: #4477aa; stroke: #000000; stroke-width: 0.5; stroke-linejoin: miter"/>
   </g>
   <g id="patch_5">
    <path d="M 104.84175 261.52 
L 107.296938 261.52 
L 107.296938 261.52 
L 104.84175 261.52 
z
" clip-path="url(#p8f3a992f35)" style="fill: #4477aa; stroke: #000000; stroke-width: 0.5; stroke-linejoin: miter"/>
   </g>
   <g id="patch_6">
    <path d="M 129.393625 261.52 
L 131.848813 261.52 
L 131.848813 261.52 
L 129.393625 261.52 
z
" clip-path="url(#p8f3a992f35)" style="fill: #4477aa; stroke: #000000; stroke-width: 0.5; stroke-linejoin: miter"/>
   </g>
   <g id="patch_7">
    <path d="M 153.9455 261.52 
L 156.400688 261.52 
L 156.400688 261.52 
L 153.9455 261.52 
z
" clip-path="url(#p8f3a992f35)" style="fill: #4477aa; stroke: #000000; stroke-width: 0.5; stroke-linejoin: miter"/>
   </g>
   <g id="patch_8">
    <path d="M 178.497375 261.52 
L 180.952563 261.52 
L 180.952563 210.528521 
L 178.497375 210.528521 
z
" clip-path="url(#p8f3a992f35)" style="fill: #4477aa; stroke: #000000; stroke-width: 0.5; stroke-linejoin: miter"/>
   </g>
   <g id="patch_9">
    <path d="M 203.04925 261.52 
L 205.504438 261.52 
L 205.504438 261.52 
L 203.04925 261.52 
z
" clip-path="url(#p8f3a992f35)" style="fill: #4477aa; stroke: #000000; stroke-width: 0.5; stroke-linejoin: miter"/>
   </g>
   <g id="patch_10">
    <path d="M 227.601125 261.52 
L 230.056313 261.52 
L 230.056313 261.52 
L 227.601125 261.52 
z
" clip-path="url(#p8f3a992f35)" style="fill: #4477aa; stroke: #000000; stroke-width: 0.5; stroke-linejoin: miter"/>
   </g>
   <g id="patch_11">
    <path d="M 252.153 261.52 
L 254.608188 261.52 
L 254.608188 261.52 
L 252.153 261.52 
z
" clip-path="url(#p8f3a992f35)" style="fill: #4477aa; stroke: #000000; stroke-width: 0.5; stroke-linejoin: miter"/>
   </g>
   <g id="patch_12">
    <path d="M 276.704875 261.52 
L 279.160062 261.52 
L 279.160062 261.52 
L 276.704875 261.52 
z
" clip-path="url(#p8f3a992f35)" style="fill: #4477aa; stroke: #000000; stroke-width: 0.5; stroke-linejoin: miter"/>
   </g>
   <g id="patch_13">
    <path d="M 301.25675 261.52 
L 303.711937 261.52 
L 303.711937 261.52 
L 301.25675 261.52 
z
" clip-path="url(#p8f3a992f35)" style="fill: #4477aa; stroke: #000000; stroke-width: 0.5; stroke-linejoin: miter"/>
   </g>
   <g id="patch_14">
    <path d="M 325.808625 261.52 
L 328.263812 261.52 
L 328.263812 83.049825 
L 325.808625 83.049825 
z
" clip-path="url(#p8f3a992f35)" style="fill: #4477aa; stroke: #000000; stroke-width: 0.5; stroke-linejoin: miter"/>
   </g>
   <g id="patch_15">
    <path d="M 350.3605 261.52 
L 352.815687 261.52 
L 352.815687 261.52 
L 350.3605 261.52 
z
" clip-path="url(#p8f3a992f35)" style="fill: #4477aa; stroke: #000000; stroke-width: 0.5; stroke-linejoin: miter"/>
   </g>
   <g id="patch_16">
    <path d="M 374.912375 261.52 
L 377.367562 261.52 
L 377.367562 261.52 
L 374.912375 261.52 
z
" clip-path="url(#p8f3a992f35)" style="fill: #4477aa; stroke: #000000; stroke-width: 0.5; stroke-linejoin: miter"/>
   </g>
   <g id="patch_17">
    <path d="M 399.46425 261.52 
L 401.919437 261.52 
L 401.919437 261.52 
L 399.46425 261.52 
z
" clip-path="url(#p8f3a992f35)" style="fill: #4477aa; stroke: #000000; stroke-width: 0.5; stroke-linejoin: miter"/>
   </g>
   <g id="patch_18">
    <path d="M 424.016125 261.52 
L 426.471312 261.52 
L 426.471312 261.52 
L 424.016125 261.52 
z
" clip-path="url(#p8f3a992f35)" style="fill: #4477aa; stroke: #000000; stroke-width: 0.5; stroke-linejoin: miter"/>
   </g>
   <g id="patch_19">
    <path d="M 58.193188 261.52 
L 60.648375 261.52 
L 60.648375 261.52 
L 58.193188 261.52 
z
" clip-path="url(#p8f3a992f35)" style="fill: #ee6677; stroke: #000000; stroke-width: 0.5; stroke-linejoin: miter"/>
   </g>
   <g id="patch_20">
    <path d="M 82.745063 261.52 
L 85.20025 261.52 
L 85.20025 261.52 
L 82.745063 261.52 
z
" clip-path="url(#p8f3a992f35)" style="fill: #ee6677; stroke: #000000; stroke-width: 0.5; stroke-linejoin: miter"/>
   </g>
   <g id="patch_21">
    <path d="M 107.296938 261.52 
L 109.752125 261.52 
L 109.752125 261.52 
L 107.296938 261.52 
z
" clip-path="url(#p8f3a992f35)" style="fill: #ee6677; stroke: #000000; stroke-width: 0.5; stroke-linejoin: miter"/>
   </g>
   <g id="patch_22">
    <path d="M 131.848813 261.52 
L 134.304 261.52 
L 134.304 261.52 
L 131.848813 261.52 
z
" clip-path="url(#p8f3a992f35)" style="fill: #ee6677; stroke: #000000; stroke-width: 0.5; stroke-linejoin: miter"/>
   </g>
   <g id="patch_23">
    <path d="M 156.400688 261.52 
L 158.855875 261.52 
L 158.855875 261.52 
L 156.400688 261.52 
z
" clip-path="url(#p8f3a992f35)" style="fill: #ee6677; stroke: #000000; stroke-width: 0.5; stroke-linejoin: miter"/>
   </g>
   <g id="patch_24">
    <path d="M 180.952562 261.52 
L 183.40775 261.52 
L 183.40775 261.52 
L 180.952562 261.52 
z
" clip-path="url(#p8f3a992f35)" style="fill: #ee6677; stroke: #000000; stroke-width: 0.5; stroke-linejoin: miter"/>
   </g>
   <g id="patch_25">
    <path d="M 205.504438 261.52 
L 207.959625 261.52 
L 207.959625 261.52 
L 205.504438 261.52 
z
" clip-path="url(#p8f3a992f35)" style="fill: #ee6677; stroke: #000000; stroke-width: 0.5; stroke-linejoin: miter"/>
   </g>
   <g id="patch_26">
    <path d="M 230.056313 261.52 
L 232.5115 261.52 
L 232.5115 261.52 
L 230.056313 261.52 
z
" clip-path="url(#p8f3a992f35)" style="fill: #ee6677; stroke: #000000; stroke-width: 0.5; stroke-linejoin: miter"/>
   </g>
   <g id="patch_27">
    <path d="M 254.608188 261.52 
L 257.063375 261.52 
L 257.063375 261.52 
L 254.608188 261.52 
z
" clip-path="url(#p8f3a992f35)" style="fill: #ee6677; stroke: #000000; stroke-width: 0.5; stroke-linejoin: miter"/>
   </g>
   <g id="patch_28">
    <path d="M 279.160062 261.52 
L 281.61525 261.52 
L 281.61525 261.52 
L 279.160062 261.52 
z
" clip-path="url(#p8f3a992f35)" style="fill: #ee6677; stroke: #000000; stroke-width: 0.5; stroke-linejoin: miter"/>
   </g>
   <g id="patch_29">
    <path d="M 303.711937 261.52 
L 306.167125 261.52 
L 306.167125 261.52 
L 303.711937 261.52 
z
" clip-path="url(#p8f3a992f35)" style="fill: #ee6677; stroke: #000000; stroke-width: 0.5; stroke-linejoin: miter"/>
   </g>
   <g id="patch_30">
    <path d="M 328.263812 261.52 
L 330.719 261.52 
L 330.719 210.528521 
L 328.263812 210.528521 
z
" clip-path="url(#p8f3a992f35)" style="fill: #ee6677; stroke: #000000; stroke-width: 0.5; stroke-linejoin: miter"/>
   </g>
   <g id="patch_31">
    <path d="M 352.815687 261.52 
L 355.270875 261.52 
L 355.270875 261.52 
L 352.815687 261.52 
z
" clip-path="url(#p8f3a992f35)" style="fill: #ee6677; stroke: #000000; stroke-width: 0.5; stroke-linejoin: miter"/>
   </g>
   <g id="patch_32">
    <path d="M 377.367562 261.52 
L 379.82275 261.52 
L 379.82275 261.52 
L 377.367562 261.52 
z
" clip-path="url(#p8f3a992f35)" style="fill: #ee6677; stroke: #000000; stroke-width: 0.5; stroke-linejoin: miter"/>
   </g>
   <g id="patch_33">
    <path d="M 401.919438 261.52 
L 404.374625 261.52 
L 404.374625 261.52 
L 401.919438 261.52 
z
" clip-path="url(#p8f3a992f35)" style="fill: #ee6677; stroke: #000000; stroke-width: 0.5; stroke-linejoin: miter"/>
   </g>
   <g id="patch_34">
    <path d="M 426.471313 261.52 
L 428.9265 261.52 
L 428.9265 261.52 
L 426.471313 261.52 
z
" clip-path="url(#p8f3a992f35)" style="fill: #ee6677; stroke: #000000; stroke-width: 0.5; stroke-linejoin: miter"/>
   </g>
   <g id="patch_35">
    <path d="M 60.648375 261.52 
L 63.103563 261.52 
L 63.103563 261.52 
L 60.648375 261.52 
z
" clip-path="url(#p8f3a992f35)" style="fill: #228833; stroke: #000000; stroke-width: 0.5; stroke-linejoin: miter"/>
   </g>
   <g id="patch_36">
    <path d="M 85.20025 261.52 
L 87.655438 261.52 
L 87.655438 261.52 
L 85.20025 261.52 
z
" clip-path="url(#p8f3a992f35)" style="fill: #228833; stroke: #000000; stroke-width: 0.5; stroke-linejoin: miter"/>
   </g>
   <g id="patch_37">
    <path d="M 109.752125 261.52 
L 112.207313 261.52 
L 112.207313 261.52 
L 109.752125 261.52 
z
" clip-path="url(#p8f3a992f35)" style="fill: #228833; stroke: #000000; stroke-width: 0.5; stroke-linejoin: miter"/>
   </g>
   <g id="patch_38">
    <path d="M 134.304 261.52 
L 136.759188 261.52 
L 136.759188 261.52 
L 134.304 261.52 
z
" clip-path="url(#p8f3a992f35)" style="fill: #228833; stroke: #000000; stroke-width: 0.5; stroke-linejoin: miter"/>
   </g>
   <g id="patch_39">
    <path d="M 158.855875 261.52 
L 161.311063 261.52 
L 161.311063 261.52 
L 158.855875 261.52 
z
" clip-path="url(#p8f3a992f35)" style="fill: #228833; stroke: #000000; stroke-width: 0.5; stroke-linejoin: miter"/>
   </g>
   <g id="patch_40">
    <path d="M 183.40775 261.52 
L 185.862938 261.52 
L 185.862938 261.52 
L 183.40775 261.52 
z
" clip-path="url(#p8f3a992f35)" style="fill: #228833; stroke: #000000; stroke-width: 0.5; stroke-linejoin: miter"/>
   </g>
   <g id="patch_41">
    <path d="M 207.959625 261.52 
L 210.414813 261.52 
L 210.414813 261.52 
L 207.959625 261.52 
z
" clip-path="url(#p8f3a992f35)" style="fill: #228833; stroke: #000000; stroke-width: 0.5; stroke-linejoin: miter"/>
   </g>
   <g id="patch_42">
    <path d="M 232.5115 261.52 
L 234.966688 261.52 
L 234.966688 261.52 
L 232.5115 261.52 
z
" clip-path="url(#p8f3a992f35)" style="fill: #228833; stroke: #000000; stroke-width: 0.5; stroke-linejoin: miter"/>
   </g>
   <g id="patch_43">
    <path d="M 257.063375 261.52 
L 259.518562 261.52 
L 259.518562 261.52 
L 257.063375 261.52 
z
" clip-path="url(#p8f3a992f35)" style="fill: #228833; stroke: #000000; stroke-width: 0.5; stroke-linejoin: miter"/>
   </g>
   <g id="patch_44">
    <path d="M 281.61525 261.52 
L 284.070437 261.52 
L 284.070437 261.52 
L 281.61525 261.52 
z
" clip-path="url(#p8f3a992f35)" style="fill: #228833; stroke: #000000; stroke-width: 0.5; stroke-linejoin: miter"/>
   </g>
   <g id="patch_45">
    <path d="M 306.167125 261.52 
L 308.622312 261.52 
L 308.622312 261.52 
L 306.167125 261.52 
z
" clip-path="url(#p8f3a992f35)" style="fill: #228833; stroke: #000000; stroke-width: 0.5; stroke-linejoin: miter"/>
   </g>
   <g id="patch_46">
    <path d="M 330.719 261.52 
L 333.174188 261.52 
L 333.174188 261.52 
L 330.719 261.52 
z
" clip-path="url(#p8f3a992f35)" style="fill: #228833; stroke: #000000; stroke-width: 0.5; stroke-linejoin: miter"/>
   </g>
   <g id="patch_47">
    <path d="M 355.270875 261.52 
L 357.726063 261.52 
L 357.726063 236.024261 
L 355.270875 236.024261 
z
" clip-path="url(#p8f3a992f35)" style="fill: #228833; stroke: #000000; stroke-width: 0.5; stroke-linejoin: miter"/>
   </g>
   <g id="patch_48">
    <path d="M 379.82275 261.52 
L 382.277938 261.52 
L 382.277938 261.52 
L 379.82275 261.52 
z
" clip-path="url(#p8f3a992f35)" style="fill: #228833; stroke: #000000; stroke-width: 0.5; stroke-linejoin: miter"/>
   </g>
   <g id="patch_49">
    <path d="M 404.374625 261.52 
L 406.829813 261.52 
L 406.829813 261.52 
L 404.374625 261.52 
z
" clip-path="url(#p8f3a992f35)" style="fill: #228833; stroke: #000000; stroke-width: 0.5; stroke-linejoin: miter"/>
   </g>
   <g id="patch_50">
    <path d="M 428.9265 261.52 
L 431.381687 261.52 
L 431.381687 261.52 
L 428.9265 261.52 
z
" clip-path="url(#p8f3a992f35)" style="fill: #228833; stroke: #000000; stroke-width: 0.5; stroke-linejoin: miter"/>
   </g>
   <g id="patch_51">
    <path d="M 63.103563 261.52 
L 65.55875 261.52 
L 65.55875 261.52 
L 63.103563 261.52 
z
" clip-path="url(#p8f3a992f35)" style="fill: #ccbb44; stroke: #000000; stroke-width: 0.5; stroke-linejoin: miter"/>
   </g>
   <g id="patch_52">
    <path d="M 87.655438 261.52 
L 90.110625 261.52 
L 90.110625 261.52 
L 87.655438 261.52 
z
" clip-path="url(#p8f3a992f35)" style="fill: #ccbb44; stroke: #000000; stroke-width: 0.5; stroke-linejoin: miter"/>
   </g>
   <g id="patch_53">
    <path d="M 112.207313 261.52 
L 114.6625 261.52 
L 114.6625 261.52 
L 112.207313 261.52 
z
" clip-path="url(#p8f3a992f35)" style="fill: #ccbb44; stroke: #000000; stroke-width: 0.5; stroke-linejoin: miter"/>
   </g>
   <g id="patch_54">
    <path d="M 136.759188 261.52 
L 139.214375 261.52 
L 139.214375 261.52 
L 136.759188 261.52 
z
" clip-path="url(#p8f3a992f35)" style="fill: #ccbb44; stroke: #000000; stroke-width: 0.5; stroke-linejoin: miter"/>
   </g>
   <g id="patch_55">
    <path d="M 161.311063 261.52 
L 163.76625 261.52 
L 163.76625 261.52 
L 161.311063 261.52 
z
" clip-path="url(#p8f3a992f35)" style="fill: #ccbb44; stroke: #000000; stroke-width: 0.5; stroke-linejoin: miter"/>
   </g>
   <g id="patch_56">
    <path d="M 185.862938 261.52 
L 188.318125 261.52 
L 188.318125 261.52 
L 185.862938 261.52 
z
" clip-path="url(#p8f3a992f35)" style="fill: #ccbb44; stroke: #000000; stroke-width: 0.5; stroke-linejoin: miter"/>
   </g>
   <g id="patch_57">
    <path d="M 210.414813 261.52 
L 212.87 261.52 
L 212.87 261.52 
L 210.414813 261.52 
z
" clip-path="url(#p8f3a992f35)" style="fill: #ccbb44; stroke: #000000; stroke-width: 0.5; stroke-linejoin: miter"/>
   </g>
   <g id="patch_58">
    <path d="M 234.966688 261.52 
L 237.421875 261.52 
L 237.421875 261.52 
L 234.966688 261.52 
z
" clip-path="url(#p8f3a992f35)" style="fill: #ccbb44; stroke: #000000; stroke-width: 0.5; stroke-linejoin: miter"/>
   </g>
   <g id="patch_59">
    <path d="M 259.518563 261.52 
L 261.97375 261.52 
L 261.97375 261.52 
L 259.518563 261.52 
z
" clip-path="url(#p8f3a992f35)" style="fill: #ccbb44; stroke: #000000; stroke-width: 0.5; stroke-linejoin: miter"/>
   </g>
   <g id="patch_60">
    <path d="M 284.070438 261.52 
L 286.525625 261.52 
L 286.525625 261.52 
L 284.070438 261.52 
z
" clip-path="url(#p8f3a992f35)" style="fill: #ccbb44; stroke: #000000; stroke-width: 0.5; stroke-linejoin: miter"/>
   </g>
   <g id="patch_61">
    <path d="M 308.622313 261.52 
L 311.0775 261.52 
L 311.0775 261.52 
L 308.622313 261.52 
z
" clip-path="url(#p8f3a992f35)" style="fill: #ccbb44; stroke: #000000; stroke-width: 0.5; stroke-linejoin: miter"/>
   </g>
   <g id="patch_62">
    <path d="M 333.174188 261.52 
L 335.629375 261.52 
L 335.629375 261.52 
L 333.174188 261.52 
z
" clip-path="url(#p8f3a992f35)" style="fill: #ccbb44; stroke: #000000; stroke-width: 0.5; stroke-linejoin: miter"/>
   </g>
   <g id="patch_63">
    <path d="M 357.726063 261.52 
L 360.18125 261.52 
L 360.18125 261.52 
L 357.726063 261.52 
z
" clip-path="url(#p8f3a992f35)" style="fill: #ccbb44; stroke: #000000; stroke-width: 0.5; stroke-linejoin: miter"/>
   </g>
   <g id="patch_64">
    <path d="M 382.277938 261.52 
L 384.733125 261.52 
L 384.733125 261.52 
L 382.277938 261.52 
z
" clip-path="url(#p8f3a992f35)" style="fill: #ccbb44; stroke: #000000; stroke-width: 0.5; stroke-linejoin: miter"/>
   </g>
   <g id="patch_65">
    <path d="M 406.829813 261.52 
L 409.285 261.52 
L 409.285 261.52 
L 406.829813 261.52 
z
" clip-path="url(#p8f3a992f35)" style="fill: #ccbb44; stroke: #000000; stroke-width: 0.5; stroke-linejoin: miter"/>
   </g>
   <g id="patch_66">
    <path d="M 431.381687 261.52 
L 433.836875 261.52 
L 433.836875 261.52 
L 431.381687 261.52 
z
" clip-path="url(#p8f3a992f35)" style="fill: #ccbb44; stroke: #000000; stroke-width: 0.5; stroke-linejoin: miter"/>
   </g>
   <g id="patch_67">
    <path d="M 65.55875 261.52 
L 68.013937 261.52 
L 68.013937 261.52 
L 65.55875 261.52 
z
" clip-path="url(#p8f3a992f35)" style="fill: #66ccee; stroke: #000000; stroke-width: 0.5; stroke-linejoin: miter"/>
   </g>
   <g id="patch_68">
    <path d="M 90.110625 261.52 
L 92.565813 261.52 
L 92.565813 236.024261 
L 90.110625 236.024261 
z
" clip-path="url(#p8f3a992f35)" style="fill: #66ccee; stroke: #000000; stroke-width: 0.5; stroke-linejoin: miter"/>
   </g>
   <g id="patch_69">
    <path d="M 114.6625 261.52 
L 117.117687 261.52 
L 117.117687 261.52 
L 114.6625 261.52 
z
" clip-path="url(#p8f3a992f35)" style="fill: #66ccee; stroke: #000000; stroke-width: 0.5; stroke-linejoin: miter"/>
   </g>
   <g id="patch_70">
    <path d="M 139.214375 261.52 
L 141.669563 261.52 
L 141.669563 261.52 
L 139.214375 261.52 
z
" clip-path="url(#p8f3a992f35)" style="fill: #66ccee; stroke: #000000; stroke-width: 0.5; stroke-linejoin: miter"/>
   </g>
   <g id="patch_71">
    <path d="M 163.76625 261.52 
L 166.221438 261.52 
L 166.221438 261.52 
L 163.76625 261.52 
z
" clip-path="url(#p8f3a992f35)" style="fill: #66ccee; stroke: #000000; stroke-width: 0.5; stroke-linejoin: miter"/>
   </g>
   <g id="patch_72">
    <path d="M 188.318125 261.52 
L 190.773313 261.52 
L 190.773313 210.528521 
L 188.318125 210.528521 
z
" clip-path="url(#p8f3a992f35)" style="fill: #66ccee; stroke: #000000; stroke-width: 0.5; stroke-linejoin: miter"/>
   </g>
   <g id="patch_73">
    <path d="M 212.87 261.52 
L 215.325188 261.52 
L 215.325188 261.52 
L 212.87 261.52 
z
" clip-path="url(#p8f3a992f35)" style="fill: #66ccee; stroke: #000000; stroke-width: 0.5; stroke-linejoin: miter"/>
   </g>
   <g id="patch_74">
    <path d="M 237.421875 261.52 
L 239.877063 261.52 
L 239.877063 261.52 
L 237.421875 261.52 
z
" clip-path="url(#p8f3a992f35)" style="fill: #66ccee; stroke: #000000; stroke-width: 0.5; stroke-linejoin: miter"/>
   </g>
   <g id="patch_75">
    <path d="M 261.97375 261.52 
L 264.428937 261.52 
L 264.428937 261.52 
L 261.97375 261.52 
z
" clip-path="url(#p8f3a992f35)" style="fill: #66ccee; stroke: #000000; stroke-width: 0.5; stroke-linejoin: miter"/>
   </g>
   <g id="patch_76">
    <path d="M 286.525625 261.52 
L 288.980812 261.52 
L 288.980812 261.52 
L 286.525625 261.52 
z
" clip-path="url(#p8f3a992f35)" style="fill: #66ccee; stroke: #000000; stroke-width: 0.5; stroke-linejoin: miter"/>
   </g>
   <g id="patch_77">
    <path d="M 311.0775 261.52 
L 313.532687 261.52 
L 313.532687 261.52 
L 311.0775 261.52 
z
" clip-path="url(#p8f3a992f35)" style="fill: #66ccee; stroke: #000000; stroke-width: 0.5; stroke-linejoin: miter"/>
   </g>
   <g id="patch_78">
    <path d="M 335.629375 261.52 
L 338.084562 261.52 
L 338.084562 19.310476 
L 335.629375 19.310476 
z
" clip-path="url(#p8f3a992f35)" style="fill: #66ccee; stroke: #000000; stroke-width: 0.5; stroke-linejoin: miter"/>
   </g>
   <g id="patch_79">
    <path d="M 360.18125 261.52 
L 362.636438 261.52 
L 362.636438 261.52 
L 360.18125 261.52 
z
" clip-path="url(#p8f3a992f35)" style="fill: #66ccee; stroke: #000000; stroke-width: 0.5; stroke-linejoin: miter"/>
   </g>
   <g id="patch_80">
    <path d="M 384.733125 261.52 
L 387.188313 261.52 
L 387.188313 261.52 
L 384.733125 261.52 
z
" clip-path="url(#p8f3a992f35)" style="fill: #66ccee; stroke: #000000; stroke-width: 0.5; stroke-linejoin: miter"/>
   </g>
   <g id="patch_81">
    <path d="M 409.285 261.52 
L 411.740188 261.52 
L 411.740188 261.52 
L 409.285 261.52 
z
" clip-path="url(#p8f3a992f35)" style="fill: #66ccee; stroke: #000000; stroke-width: 0.5; stroke-linejoin: miter"/>
   </g>
   <g id="patch_82">
    <path d="M 433.836875 261.52 
L 436.292063 261.52 
L 436.292063 261.52 
L 433.836875 261.52 
z
" clip-path="url(#p8f3a992f35)" style="fill: #66ccee; stroke: #000000; stroke-width: 0.5; stroke-linejoin: miter"/>
   </g>
   <g id="patch_83">
    <path d="M 68.013937 261.52 
L 70.469125 261.52 
L 70.469125 261.52 
L 68.013937 261.52 
z
" clip-path="url(#p8f3a992f35)" style="fill: #aa3377; stroke: #000000; stroke-width: 0.5; stroke-linejoin: miter"/>
   </g>
   <g id="patch_84">
    <path d="M 92.565813 261.52 
L 95.021 261.52 
L 95.021 261.52 
L 92.565813 261.52 
z
" clip-path="url(#p8f3a992f35)" style="fill: #aa3377; stroke: #000000; stroke-width: 0.5; stroke-linejoin: miter"/>
   </g>
   <g id="patch_85">
    <path d="M 117.117688 261.52 
L 119.572875 261.52 
L 119.572875 261.52 
L 117.117688 261.52 
z
" clip-path="url(#p8f3a992f35)" style="fill: #aa3377; stroke: #000000; stroke-width: 0.5; stroke-linejoin: miter"/>
   </g>
   <g id="patch_86">
    <path d="M 141.669563 261.52 
L 144.12475 261.52 
L 144.12475 261.52 
L 141.669563 261.52 
z
" clip-path="url(#p8f3a992f35)" style="fill: #aa3377; stroke: #000000; stroke-width: 0.5; stroke-linejoin: miter"/>
   </g>
   <g id="patch_87">
    <path d="M 166.221438 261.52 
L 168.676625 261.52 
L 168.676625 261.52 
L 166.221438 261.52 
z
" clip-path="url(#p8f3a992f35)" style="fill: #aa3377; stroke: #000000; stroke-width: 0.5; stroke-linejoin: miter"/>
   </g>
   <g id="patch_88">
    <path d="M 190.773313 261.52 
L 193.2285 261.52 
L 193.2285 261.52 
L 190.773313 261.52 
z
" clip-path="url(#p8f3a992f35)" style="fill: #aa3377; stroke: #000000; stroke-width: 0.5; stroke-linejoin: miter"/>
   </g>
   <g id="patch_89">
    <path d="M 215.325188 261.52 
L 217.780375 261.52 
L 217.780375 261.52 
L 215.325188 261.52 
z
" clip-path="url(#p8f3a992f35)" style="fill: #aa3377; stroke: #000000; stroke-width: 0.5; stroke-linejoin: miter"/>
   </g>
   <g id="patch_90">
    <path d="M 239.877063 261.52 
L 242.33225 261.52 
L 242.33225 261.52 
L 239.877063 261.52 
z
" clip-path="url(#p8f3a992f35)" style="fill: #aa3377; stroke: #000000; stroke-width: 0.5; stroke-linejoin: miter"/>
   </g>
   <g id="patch_91">
    <path d="M 264.428938 261.52 
L 266.884125 261.52 
L 266.884125 261.52 
L 264.428938 261.52 
z
" clip-path="url(#p8f3a992f35)" style="fill: #aa3377; stroke: #000000; stroke-width: 0.5; stroke-linejoin: miter"/>
   </g>
   <g id="patch_92">
    <path d="M 288.980813 261.52 
L 291.436 261.52 
L 291.436 261.52 
L 288.980813 261.52 
z
" clip-path="url(#p8f3a992f35)" style="fill: #aa3377; stroke: #000000; stroke-width: 0.5; stroke-linejoin: miter"/>
   </g>
   <g id="patch_93">
    <path d="M 313.532688 261.52 
L 315.987875 261.52 
L 315.987875 261.52 
L 313.532688 261.52 
z
" clip-path="url(#p8f3a992f35)" style="fill: #aa3377; stroke: #000000; stroke-width: 0.5; stroke-linejoin: miter"/>
   </g>
   <g id="patch_94">
    <path d="M 338.084563 261.52 
L 340.53975 261.52 
L 340.53975 248.77213 
L 338.084563 248.77213 
z
" clip-path="url(#p8f3a992f35)" style="fill: #aa3377; stroke: #000000; stroke-width: 0.5; stroke-linejoin: miter"/>
   </g>
   <g id="patch_95">
    <path d="M 362.636438 261.52 
L 365.091625 261.52 
L 365.091625 261.52 
L 362.636438 261.52 
z
" clip-path="url(#p8f3a992f35)" style="fill: #aa3377; stroke: #000000; stroke-width: 0.5; stroke-linejoin: miter"/>
   </g>
   <g id="patch_96">
    <path d="M 387.188313 261.52 
L 389.6435 261.52 
L 389.6435 261.52 
L 387.188313 261.52 
z
" clip-path="url(#p8f3a992f35)" style="fill: #aa3377; stroke: #000000; stroke-width: 0.5; stroke-linejoin: miter"/>
   </g>
   <g id="patch_97">
    <path d="M 411.740188 261.52 
L 414.195375 261.52 
L 414.195375 261.52 
L 411.740188 261.52 
z
" clip-path="url(#p8f3a992f35)" style="fill: #aa3377; stroke: #000000; stroke-width: 0.5; stroke-linejoin: miter"/>
   </g>
   <g id="patch_98">
    <path d="M 436.292063 261.52 
L 438.74725 261.52 
L 438.74725 261.52 
L 436.292063 261.52 
z
" clip-path="url(#p8f3a992f35)" style="fill: #aa3377; stroke: #000000; stroke-width: 0.5; stroke-linejoin: miter"/>
   </g>
   <g id="patch_99">
    <path d="M 70.469125 261.52 
L 72.924312 261.52 
L 72.924312 261.52 
L 70.469125 261.52 
z
" clip-path="url(#p8f3a992f35)" style="fill: #bbbbbb; stroke: #000000; stroke-width: 0.5; stroke-linejoin: miter"/>
   </g>
   <g id="patch_100">
    <path d="M 95.021 261.52 
L 97.476188 261.52 
L 97.476188 261.52 
L 95.021 261.52 
z
" clip-path="url(#p8f3a992f35)" style="fill: #bbbbbb; stroke: #000000; stroke-width: 0.5; stroke-linejoin: miter"/>
   </g>
   <g id="patch_101">
    <path d="M 119.572875 261.52 
L 122.028063 261.52 
L 122.028063 261.52 
L 119.572875 261.52 
z
" clip-path="url(#p8f3a992f35)" style="fill: #bbbbbb; stroke: #000000; stroke-width: 0.5; stroke-linejoin: miter"/>
   </g>
   <g id="patch_102">
    <path d="M 144.12475 261.52 
L 146.579937 261.52 
L 146.579937 261.52 
L 144.12475 261.52 
z
" clip-path="url(#p8f3a992f35)" style="fill: #bbbbbb; stroke: #000000; stroke-width: 0.5; stroke-linejoin: miter"/>
   </g>
   <g id="patch_103">
    <path d="M 168.676625 261.52 
L 171.131812 261.52 
L 171.131812 261.52 
L 168.676625 261.52 
z
" clip-path="url(#p8f3a992f35)" style="fill: #bbbbbb; stroke: #000000; stroke-width: 0.5; stroke-linejoin: miter"/>
   </g>
   <g id="patch_104">
    <path d="M 193.2285 261.52 
L 195.683688 261.52 
L 195.683688 261.52 
L 193.2285 261.52 
z
" clip-path="url(#p8f3a992f35)" style="fill: #bbbbbb; stroke: #000000; stroke-width: 0.5; stroke-linejoin: miter"/>
   </g>
   <g id="patch_105">
    <path d="M 217.780375 261.52 
L 220.235563 261.52 
L 220.235563 261.52 
L 217.780375 261.52 
z
" clip-path="url(#p8f3a992f35)" style="fill: #bbbbbb; stroke: #000000; stroke-width: 0.5; stroke-linejoin: miter"/>
   </g>
   <g id="patch_106">
    <path d="M 242.33225 261.52 
L 244.787438 261.52 
L 244.787438 261.52 
L 242.33225 261.52 
z
" clip-path="url(#p8f3a992f35)" style="fill: #bbbbbb; stroke: #000000; stroke-width: 0.5; stroke-linejoin: miter"/>
   </g>
   <g id="patch_107">
    <path d="M 266.884125 261.52 
L 269.339313 261.52 
L 269.339313 261.52 
L 266.884125 261.52 
z
" clip-path="url(#p8f3a992f35)" style="fill: #bbbbbb; stroke: #000000; stroke-width: 0.5; stroke-linejoin: miter"/>
   </g>
   <g id="patch_108">
    <path d="M 291.436 261.52 
L 293.891188 261.52 
L 293.891188 261.52 
L 291.436 261.52 
z
" clip-path="url(#p8f3a992f35)" style="fill: #bbbbbb; stroke: #000000; stroke-width: 0.5; stroke-linejoin: miter"/>
   </g>
   <g id="patch_109">
    <path d="M 315.987875 261.52 
L 318.443062 261.52 
L 318.443062 261.52 
L 315.987875 261.52 
z
" clip-path="url(#p8f3a992f35)" style="fill: #bbbbbb; stroke: #000000; stroke-width: 0.5; stroke-linejoin: miter"/>
   </g>
   <g id="patch_110">
    <path d="M 340.53975 261.52 
L 342.994937 261.52 
L 342.994937 261.52 
L 340.53975 261.52 
z
" clip-path="url(#p8f3a992f35)" style="fill: #bbbbbb; stroke: #000000; stroke-width: 0.5; stroke-linejoin: miter"/>
   </g>
   <g id="patch_111">
    <path d="M 365.091625 261.52 
L 367.546812 261.52 
L 367.546812 236.024261 
L 365.091625 236.024261 
z
" clip-path="url(#p8f3a992f35)" style="fill: #bbbbbb; stroke: #000000; stroke-width: 0.5; stroke-linejoin: miter"/>
   </g>
   <g id="patch_112">
    <path d="M 389.6435 261.52 
L 392.098687 261.52 
L 392.098687 261.52 
L 389.6435 261.52 
z
" clip-path="url(#p8f3a992f35)" style="fill: #bbbbbb; stroke: #000000; stroke-width: 0.5; stroke-linejoin: miter"/>
   </g>
   <g id="patch_113">
    <path d="M 414.195375 261.52 
L 416.650562 261.52 
L 416.650562 261.52 
L 414.195375 261.52 
z
" clip-path="url(#p8f3a992f35)" style="fill: #bbbbbb; stroke: #000000; stroke-width: 0.5; stroke-linejoin: miter"/>
   </g>
   <g id="patch_114">
    <path d="M 438.74725 261.52 
L 441.202437 261.52 
L 441.202437 261.52 
L 438.74725 261.52 
z
" clip-path="url(#p8f3a992f35)" style="fill: #bbbbbb; stroke: #000000; stroke-width: 0.5; stroke-linejoin: miter"/>
   </g>
   <g id="patch_115">
    <path d="M 72.924312 261.52 
L 75.3795 261.52 
L 75.3795 261.52 
L 72.924312 261.52 
z
" clip-path="url(#p8f3a992f35)" style="stroke: #000000; stroke-width: 0.5; stroke-linejoin: miter"/>
   </g>
   <g id="patch_116">
    <path d="M 97.476188 261.52 
L 99.931375 261.52 
L 99.931375 261.52 
L 97.476188 261.52 
z
" clip-path="url(#p8f3a992f35)" style="stroke: #000000; stroke-width: 0.5; stroke-linejoin: miter"/>
   </g>
   <g id="patch_117">
    <path d="M 122.028063 261.52 
L 124.48325 261.52 
L 124.48325 261.52 
L 122.028063 261.52 
z
" clip-path="url(#p8f3a992f35)" style="stroke: #000000; stroke-width: 0.5; stroke-linejoin: miter"/>
   </g>
   <g id="patch_118">
    <path d="M 146.579938 261.52 
L 149.035125 261.52 
L 149.035125 261.52 
L 146.579938 261.52 
z
" clip-path="url(#p8f3a992f35)" style="stroke: #000000; stroke-width: 0.5; stroke-linejoin: miter"/>
   </g>
   <g id="patch_119">
    <path d="M 171.131813 261.52 
L 173.587 261.52 
L 173.587 261.52 
L 171.131813 261.52 
z
" clip-path="url(#p8f3a992f35)" style="stroke: #000000; stroke-width: 0.5; stroke-linejoin: miter"/>
   </g>
   <g id="patch_120">
    <path d="M 195.683688 261.52 
L 198.138875 261.52 
L 198.138875 261.52 
L 195.683688 261.52 
z
" clip-path="url(#p8f3a992f35)" style="stroke: #000000; stroke-width: 0.5; stroke-linejoin: miter"/>
   </g>
   <g id="patch_121">
    <path d="M 220.235563 261.52 
L 222.69075 261.52 
L 222.69075 261.52 
L 220.235563 261.52 
z
" clip-path="url(#p8f3a992f35)" style="stroke: #000000; stroke-width: 0.5; stroke-linejoin: miter"/>
   </g>
   <g id="patch_122">
    <path d="M 244.787438 261.52 
L 247.242625 261.52 
L 247.242625 261.52 
L 244.787438 261.52 
z
" clip-path="url(#p8f3a992f35)" style="stroke: #000000; stroke-width: 0.5; stroke-linejoin: miter"/>
   </g>
   <g id="patch_123">
    <path d="M 269.339313 261.52 
L 271.7945 261.52 
L 271.7945 261.52 
L 269.339313 261.52 
z
" clip-path="url(#p8f3a992f35)" style="stroke: #000000; stroke-width: 0.5; stroke-linejoin: miter"/>
   </g>
   <g id="patch_124">
    <path d="M 293.891188 261.52 
L 296.346375 261.52 
L 296.346375 261.52 
L 293.891188 261.52 
z
" clip-path="url(#p8f3a992f35)" style="stroke: #000000; stroke-width: 0.5; stroke-linejoin: miter"/>
   </g>
   <g id="patch_125">
    <path d="M 318.443062 261.52 
L 320.89825 261.52 
L 320.89825 261.52 
L 318.443062 261.52 
z
" clip-path="url(#p8f3a992f35)" style="stroke: #000000; stroke-width: 0.5; stroke-linejoin: miter"/>
   </g>
   <g id="patch_126">
    <path d="M 342.994937 261.52 
L 345.450125 261.52 
L 345.450125 261.52 
L 342.994937 261.52 
z
" clip-path="url(#p8f3a992f35)" style="stroke: #000000; stroke-width: 0.5; stroke-linejoin: miter"/>
   </g>
   <g id="patch_127">
    <path d="M 367.546812 261.52 
L 370.002 261.52 
L 370.002 261.52 
L 367.546812 261.52 
z
" clip-path="url(#p8f3a992f35)" style="stroke: #000000; stroke-width: 0.5; stroke-linejoin: miter"/>
   </g>
   <g id="patch_128">
    <path d="M 392.098687 261.52 
L 394.553875 261.52 
L 394.553875 261.52 
L 392.098687 261.52 
z
" clip-path="url(#p8f3a992f35)" style="stroke: #000000; stroke-width: 0.5; stroke-linejoin: miter"/>
   </g>
   <g id="patch_129">
    <path d="M 416.650562 261.52 
L 419.10575 261.52 
L 419.10575 261.52 
L 416.650562 261.52 
z
" clip-path="url(#p8f3a992f35)" style="stroke: #000000; stroke-width: 0.5; stroke-linejoin: miter"/>
   </g>
   <g id="patch_130">
    <path d="M 441.202437 261.52 
L 443.657625 261.52 
L 443.657625 261.52 
L 441.202437 261.52 
z
" clip-path="url(#p8f3a992f35)" style="stroke: #000000; stroke-width: 0.5; stroke-linejoin: miter"/>
   </g>
   <g id="matplotlib.axis_1">
    <g id="xtick_1">
     <g id="line2d_1">
      <defs>
       <path id="me6e1f0c108" d="M 0 0 
L 0 3.5 
" style="stroke: #000000; stroke-width: 0.8"/>
      </defs>
      <g>
       <use xlink:href="#me6e1f0c108" x="65.55875" y="261.52" style="stroke: #000000; stroke-width: 0.8"/>
      </g>
     </g>
     <g id="text_1">
      <text style="font: 10px 'sans-serif'" transform="translate(68.318125 296.374687)rotate(-90)">christ</text>
     </g>
    </g>
    <g id="xtick_2">
     <g id="line2d_2">
      <g>
       <use xlink:href="#me6e1f0c108" x="90.110625" y="261.52" style="stroke: #000000; stroke-width: 0.8"/>
      </g>
     </g>
     <g id="text_2">
      <text style="font: 10px 'sans-serif'" transform="translate(92.87 292.6075)rotate(-90)">engz</text>
     </g>
    </g>
    <g id="xtick_3">
     <g id="line2d_3">
      <g>
       <use xlink:href="#me6e1f0c108" x="114.6625" y="261.52" style="stroke: #000000; stroke-width: 0.8"/>
      </g>
     </g>
     <g id="text_3">
      <text style="font: 10px 'sans-serif'" transform="translate(117.421875 297.085625)rotate(-90)">gamb</text>
     </g>
    </g>
    <g id="xtick_4">
     <g id="line2d_4">
      <g>
       <use xlink:href="#me6e1f0c108" x="139.214375" y="261.52" style="stroke: #000000; stroke-width: 0.8"/>
      </g>
     </g>
     <g id="text_4">
      <text style="font: 10px 'sans-serif'" transform="translate(141.97375 290.537187)rotate(-90)">gqrs</text>
     </g>
    </g>
    <g id="xtick_5">
     <g id="line2d_5">
      <g>
       <use xlink:href="#me6e1f0c108" x="163.76625" y="261.52" style="stroke: #000000; stroke-width: 0.8"/>
      </g>
     </g>
     <g id="text_5">
      <text style="font: 10px 'sans-serif'" transform="translate(166.525625 300.202812)rotate(-90)">hamilt</text>
     </g>
    </g>
    <g id="xtick_6">
     <g id="line2d_6">
      <g>
       <use xlink:href="#me6e1f0c108" x="188.318125" y="261.52" style="stroke: #000000; stroke-width: 0.8"/>
      </g>
     </g>
     <g id="text_6">
      <text style="font: 10px 'sans-serif'" transform="translate(191.0775 286.966875)rotate(-90)">jqrs</text>
     </g>
    </g>
    <g id="xtick_7">
     <g id="line2d_7">
      <g>
       <use xlink:href="#me6e1f0c108" x="212.87" y="261.52" style="stroke: #000000; stroke-width: 0.8"/>
      </g>
     </g>
     <g id="text_7">
      <text style="font: 10px 'sans-serif'" transform="translate(215.629375 285.82)rotate(-90)">kali</text>
     </g>
    </g>
    <g id="xtick_8">
     <g id="line2d_8">
      <g>
       <use xlink:href="#me6e1f0c108" x="237.421875" y="261.52" style="stroke: #000000; stroke-width: 0.8"/>
      </g>
     </g>
     <g id="text_8">
      <text style="font: 10px 'sans-serif'" transform="translate(240.18125 292.42)rotate(-90)">mart</text>
     </g>
    </g>
    <g id="xtick_9">
     <g id="line2d_9">
      <g>
       <use xlink:href="#me6e1f0c108" x="261.97375" y="261.52" style="stroke: #000000; stroke-width: 0.8"/>
      </g>
     </g>
     <g id="text_9">
      <text style="font: 10px 'sans-serif'" transform="translate(264.733125 287.334062)rotate(-90)">nab</text>
     </g>
    </g>
    <g id="xtick_10">
     <g id="line2d_10">
      <g>
       <use xlink:href="#me6e1f0c108" x="286.525625" y="261.52" style="stroke: #000000; stroke-width: 0.8"/>
      </g>
     </g>
     <g id="text_10">
      <text style="font: 10px 'sans-serif'" transform="translate(289.285 280.648125)rotate(-90)">nk</text>
     </g>
    </g>
    <g id="xtick_11">
     <g id="line2d_11">
      <g>
       <use xlink:href="#me6e1f0c108" x="311.0775" y="261.52" style="stroke: #000000; stroke-width: 0.8"/>
      </g>
     </g>
     <g id="text_11">
      <text style="font: 10px 'sans-serif'" transform="translate(313.836875 317.07)rotate(-90)">pan-tomp</text>
     </g>
    </g>
    <g id="xtick_12">
     <g id="line2d_12">
      <g>
       <use xlink:href="#me6e1f0c108" x="335.629375" y="261.52" style="stroke: #000000; stroke-width: 0.8"/>
      </g>
     </g>
     <g id="text_12">
      <text style="font: 10px 'sans-serif'" transform="translate(338.38875 296.574687)rotate(-90)">rdeco</text>
     </g>
    </g>
    <g id="xtick_13">
     <g id="line2d_13">
      <g>
       <use xlink:href="#me6e1f0c108" x="360.18125" y="261.52" style="stroke: #000000; stroke-width: 0.8"/>
      </g>
     </g>
     <g id="text_13">
      <text style="font: 10px 'sans-serif'" transform="translate(362.940625 297.05125)rotate(-90)">rpeak</text>
     </g>
    </g>
    <g id="xtick_14">
     <g id="line2d_14">
      <g>
       <use xlink:href="#me6e1f0c108" x="384.733125" y="261.52" style="stroke: #000000; stroke-width: 0.8"/>
      </g>
     </g>
     <g id="text_14">
      <text style="font: 10px 'sans-serif'" transform="translate(387.4925 308.927812)rotate(-90)">two-avg</text>
     </g>
    </g>
    <g id="xtick_15">
     <g id="line2d_15">
      <g>
       <use xlink:href="#me6e1f0c108" x="409.285" y="261.52" style="stroke: #000000; stroke-width: 0.8"/>
      </g>
     </g>
     <g id="text_15">
      <text style="font: 10px 'sans-serif'" transform="translate(412.044375 294.5825)rotate(-90)">unsw</text>
     </g>
    </g>
    <g id="xtick_16">
     <g id="line2d_16">
      <g>
       <use xlink:href="#me6e1f0c108" x="433.836875" y="261.52" style="stroke: #000000; stroke-width: 0.8"/>
      </g>
     </g>
     <g id="text_16">
      <text style="font: 10px 'sans-serif'" transform="translate(436.59625 292.366875)rotate(-90)">wqrs</text>
     </g>
    </g>
    <g id="text_17">
     <text style="font: 10px 'sans-serif'; text-anchor: middle" x="249.697813" y="328.668437" transform="rotate(-0, 249.697813, 328.668437)">Detector</text>
    </g>
   </g>
   <g id="matplotlib.axis_2">
    <g id="ytick_1">
     <g id="line2d_17">
      <defs>
       <path id="m8aa9d7386e" d="M 0 0 
L -3.5 0 
" style="stroke: #000000; stroke-width: 0.8"/>
      </defs>
      <g>
       <use xlink:href="#m8aa9d7386e" x="53.282813" y="261.52" style="stroke: #000000; stroke-width: 0.8"/>
      </g>
     </g>
     <g id="text_18">
      <text style="font: 10px 'sans-serif'; text-anchor: end" x="46.282813" y="265.319219" transform="rotate(-0, 46.282813, 265.319219)">0.0%</text>
     </g>
    </g>
    <g id="ytick_2">
     <g id="line2d_18">
      <g>
       <use xlink:href="#m8aa9d7386e" x="53.282813" y="210.528521" style="stroke: #000000; stroke-width: 0.8"/>
      </g>
     </g>
     <g id="text_19">
      <text style="font: 10px 'sans-serif'; text-anchor: end" x="46.282813" y="214.32774" transform="rotate(-0, 46.282813, 214.32774)">2.0%</text>
     </g>
    </g>
    <g id="ytick_3">
     <g id="line2d_19">
      <g>
       <use xlink:href="#m8aa9d7386e" x="53.282813" y="159.537043" style="stroke: #000000; stroke-width: 0.8"/>
      </g>
     </g>
     <g id="text_20">
      <text style="font: 10px 'sans-serif'; text-anchor: end" x="46.282813" y="163.336261" transform="rotate(-0, 46.282813, 163.336261)">4.0%</text>
     </g>
    </g>
    <g id="ytick_4">
     <g id="line2d_20">
      <g>
       <use xlink:href="#m8aa9d7386e" x="53.282813" y="108.545564" style="stroke: #000000; stroke-width: 0.8"/>
      </g>
     </g>
     <g id="text_21">
      <text style="font: 10px 'sans-serif'; text-anchor: end" x="46.282813" y="112.344783" transform="rotate(-0, 46.282813, 112.344783)">6.0%</text>
     </g>
    </g>
    <g id="ytick_5">
     <g id="line2d_21">
      <g>
       <use xlink:href="#m8aa9d7386e" x="53.282813" y="57.554085" style="stroke: #000000; stroke-width: 0.8"/>
      </g>
     </g>
     <g id="text_22">
      <text style="font: 10px 'sans-serif'; text-anchor: end" x="46.282813" y="61.353304" transform="rotate(-0, 46.282813, 61.353304)">8.0%</text>
     </g>
    </g>
    <g id="text_23">
     <text style="font: 10px 'sans-serif'; text-anchor: middle" x="14.798438" y="134.36" transform="rotate(-90, 14.798438, 134.36)">Errorrate</text>
    </g>
   </g>
   <g id="patch_131">
    <path d="M 53.282813 261.52 
L 53.282813 7.2 
" style="fill: none; stroke: #000000; stroke-width: 0.8; stroke-linejoin: miter; stroke-linecap: square"/>
   </g>
   <g id="patch_132">
    <path d="M 446.112813 261.52 
L 446.112813 7.2 
" style="fill: none; stroke: #000000; stroke-width: 0.8; stroke-linejoin: miter; stroke-linecap: square"/>
   </g>
   <g id="patch_133">
    <path d="M 53.282813 261.52 
L 446.112813 261.52 
" style="fill: none; stroke: #000000; stroke-width: 0.8; stroke-linejoin: miter; stroke-linecap: square"/>
   </g>
   <g id="patch_134">
    <path d="M 53.282813 7.2 
L 446.112813 7.2 
" style="fill: none; stroke: #000000; stroke-width: 0.8; stroke-linejoin: miter; stroke-linecap: square"/>
   </g>
   <g id="legend_1">
    <g id="text_24">
     <text style="font: 10px 'sans-serif'; text-anchor: start" x="221.266563" y="23.798437" transform="rotate(-0, 221.266563, 23.798437)">Signal Type</text>
    </g>
    <g id="patch_135">
     <path d="M 173.736094 38.476562 
L 193.736094 38.476562 
L 193.736094 31.476562 
L 173.736094 31.476562 
z
" style="fill: #4477aa; stroke: #000000; stroke-width: 0.5; stroke-linejoin: miter"/>
    </g>
    <g id="text_25">
     <text style="font: 10px 'sans-serif'; text-anchor: start" x="201.736094" y="38.476562" transform="rotate(-0, 201.736094, 38.476562)">SR, no noise</text>
    </g>
    <g id="patch_136">
     <path d="M 173.736094 53.154687 
L 193.736094 53.154687 
L 193.736094 46.154687 
L 173.736094 46.154687 
z
" style="fill: #ee6677; stroke: #000000; stroke-width: 0.5; stroke-linejoin: miter"/>
    </g>
    <g id="text_26">
     <text style="font: 10px 'sans-serif'; text-anchor: start" x="201.736094" y="53.154687" transform="rotate(-0, 201.736094, 53.154687)">SR, baseline wander</text>
    </g>
    <g id="patch_137">
     <path d="M 173.736094 67.832812 
L 193.736094 67.832812 
L 193.736094 60.832812 
L 173.736094 60.832812 
z
" style="fill: #228833; stroke: #000000; stroke-width: 0.5; stroke-linejoin: miter"/>
    </g>
    <g id="text_27">
     <text style="font: 10px 'sans-serif'; text-anchor: start" x="201.736094" y="67.832812" transform="rotate(-0, 201.736094, 67.832812)">SR, electrode movement</text>
    </g>
    <g id="patch_138">
     <path d="M 173.736094 82.510937 
L 193.736094 82.510937 
L 193.736094 75.510937 
L 173.736094 75.510937 
z
" style="fill: #ccbb44; stroke: #000000; stroke-width: 0.5; stroke-linejoin: miter"/>
    </g>
    <g id="text_28">
     <text style="font: 10px 'sans-serif'; text-anchor: start" x="201.736094" y="82.510937" transform="rotate(-0, 201.736094, 82.510937)">SR, motion artefacts</text>
    </g>
    <g id="patch_139">
     <path d="M 173.736094 97.189062 
L 193.736094 97.189062 
L 193.736094 90.189062 
L 173.736094 90.189062 
z
" style="fill: #66ccee; stroke: #000000; stroke-width: 0.5; stroke-linejoin: miter"/>
    </g>
    <g id="text_29">
     <text style="font: 10px 'sans-serif'; text-anchor: start" x="201.736094" y="97.189062" transform="rotate(-0, 201.736094, 97.189062)">AF, no noise</text>
    </g>
    <g id="patch_140">
     <path d="M 173.736094 111.867187 
L 193.736094 111.867187 
L 193.736094 104.867187 
L 173.736094 104.867187 
z
" style="fill: #aa3377; stroke: #000000; stroke-width: 0.5; stroke-linejoin: miter"/>
    </g>
    <g id="text_30">
     <text style="font: 10px 'sans-serif'; text-anchor: start" x="201.736094" y="111.867187" transform="rotate(-0, 201.736094, 111.867187)">AF, baseline wander</text>
    </g>
    <g id="patch_141">
     <path d="M 173.736094 126.545312 
L 193.736094 126.545312 
L 193.736094 119.545312 
L 173.736094 119.545312 
z
" style="fill: #bbbbbb; stroke: #000000; stroke-width: 0.5; stroke-linejoin: miter"/>
    </g>
    <g id="text_31">
     <text style="font: 10px 'sans-serif'; text-anchor: start" x="201.736094" y="126.545312" transform="rotate(-0, 201.736094, 126.545312)">AF, electrode movement</text>
    </g>
    <g id="patch_142">
     <path d="M 173.736094 141.223437 
L 193.736094 141.223437 
L 193.736094 134.223437 
L 173.736094 134.223437 
z
" style="stroke: #000000; stroke-width: 0.5; stroke-linejoin: miter"/>
    </g>
    <g id="text_32">
     <text style="font: 10px 'sans-serif'; text-anchor: start" x="201.736094" y="141.223437" transform="rotate(-0, 201.736094, 141.223437)">AF, motion artefacts</text>
    </g>
   </g>
  </g>
 </g>
 <defs>
  <clipPath id="p8f3a992f35">
   <rect x="53.282813" y="7.2" width="392.83" height="254.32"/>
  </clipPath>
 </defs>
</svg>
