<?xml version="1.0" encoding="utf-8" standalone="no"?>
<!DOCTYPE svg PUBLIC "-//W3C//DTD SVG 1.1//EN"
  "http://www.w3.org/Graphics/SVG/1.1/DTD/svg11.dtd">
<svg xmlns:xlink="http://www.w3.org/1999/xlink" width="653.140625pt" height="305.278125pt" viewBox="0 0 653.140625 305.278125" xmlns="http://www.w3.org/2000/svg" version="1.1">
 <metadata>
  <rdf:RDF xmlns:dc="http://purl.org/dc/elements/1.1/" xmlns:cc="http://creativecommons.org/ns#" xmlns:rdf="http://www.w3.org/1999/02/22-rdf-syntax-ns#">
   <cc:Work>
    <dc:type rdf:resource="http://purl.org/dc/dcmitype/StillImage"/>
    <dc:date>2022-12-05T01:08:14.946036</dc:date>
    <dc:format>image/svg+xml</dc:format>
    <dc:creator>
     <cc:Agent>
      <dc:title>Matplotlib v3.5.3, https://matplotlib.org/</dc:title>
     </cc:Agent>
    </dc:creator>
   </cc:Work>
  </rdf:RDF>
 </metadata>
 <defs>
  <style type="text/css">*{stroke-linejoin: round; stroke-linecap: butt}</style>
 </defs>
 <g id="figure_1">
  <g id="patch_1">
   <path d="M 0 305.278125 
L 653.140625 305.278125 
L 653.140625 0 
L 0 0 
z
" style="fill: #ffffff"/>
  </g>
  <g id="axes_1">
   <g id="patch_2">
    <path d="M 20.878125 284.4 
L 578.878125 284.4 
L 578.878125 7.2 
L 20.878125 7.2 
z
" style="fill: #ffffff"/>
   </g>
   <g id="patch_3">
    <path d="M 15.074925 284.4 
L 15.074925 7.2 
L 31.814925 7.2 
L 31.814925 284.4 
z
" clip-path="url(#p594791d3fc)" style="fill: #808080; opacity: 0.25; stroke: #808080; stroke-linejoin: miter"/>
   </g>
   <g id="patch_4">
    <path d="M 101.341725 284.4 
L 101.341725 7.2 
L 118.081725 7.2 
L 118.081725 284.4 
z
" clip-path="url(#p594791d3fc)" style="fill: #808080; opacity: 0.25; stroke: #808080; stroke-linejoin: miter"/>
   </g>
   <g id="patch_5">
    <path d="M 189.394125 284.4 
L 189.394125 7.2 
L 206.134125 7.2 
L 206.134125 284.4 
z
" clip-path="url(#p594791d3fc)" style="fill: #808080; opacity: 0.25; stroke: #808080; stroke-linejoin: miter"/>
   </g>
   <g id="patch_6">
    <path d="M 278.339325 284.4 
L 278.339325 7.2 
L 295.079325 7.2 
L 295.079325 284.4 
z
" clip-path="url(#p594791d3fc)" style="fill: #808080; opacity: 0.25; stroke: #808080; stroke-linejoin: miter"/>
   </g>
   <g id="patch_7">
    <path d="M 362.932125 284.4 
L 362.932125 7.2 
L 379.672125 7.2 
L 379.672125 284.4 
z
" clip-path="url(#p594791d3fc)" style="fill: #808080; opacity: 0.25; stroke: #808080; stroke-linejoin: miter"/>
   </g>
   <g id="patch_8">
    <path d="M 450.984525 284.4 
L 450.984525 7.2 
L 467.724525 7.2 
L 467.724525 284.4 
z
" clip-path="url(#p594791d3fc)" style="fill: #808080; opacity: 0.25; stroke: #808080; stroke-linejoin: miter"/>
   </g>
   <g id="patch_9">
    <path d="M 538.144125 284.4 
L 538.144125 7.2 
L 554.884125 7.2 
L 554.884125 284.4 
z
" clip-path="url(#p594791d3fc)" style="fill: #808080; opacity: 0.25; stroke: #808080; stroke-linejoin: miter"/>
   </g>
   <g id="patch_10">
    <path d="M 624.410925 284.4 
L 624.410925 7.2 
L 641.150925 7.2 
L 641.150925 284.4 
z
" clip-path="url(#p594791d3fc)" style="fill: #808080; opacity: 0.25; stroke: #808080; stroke-linejoin: miter"/>
   </g>
   <g id="patch_11">
    <path d="M 710.677725 284.4 
L 710.677725 7.2 
L 727.417725 7.2 
L 727.417725 284.4 
z
" clip-path="url(#p594791d3fc)" style="fill: #808080; opacity: 0.25; stroke: #808080; stroke-linejoin: miter"/>
   </g>
   <g id="patch_12">
    <path d="M 796.944525 284.4 
L 796.944525 7.2 
L 813.684525 7.2 
L 813.684525 284.4 
z
" clip-path="url(#p594791d3fc)" style="fill: #808080; opacity: 0.25; stroke: #808080; stroke-linejoin: miter"/>
   </g>
   <g id="patch_13">
    <path d="M 884.104125 284.4 
L 884.104125 7.2 
L 900.844125 7.2 
L 900.844125 284.4 
z
" clip-path="url(#p594791d3fc)" style="fill: #808080; opacity: 0.25; stroke: #808080; stroke-linejoin: miter"/>
   </g>
   <g id="patch_14">
    <path d="M 969.589725 284.4 
L 969.589725 7.2 
L 986.329725 7.2 
L 986.329725 284.4 
z
" clip-path="url(#p594791d3fc)" style="fill: #808080; opacity: 0.25; stroke: #808080; stroke-linejoin: miter"/>
   </g>
   <g id="patch_15">
    <path d="M 1055.075325 284.4 
L 1055.075325 7.2 
L 1071.815325 7.2 
L 1071.815325 284.4 
z
" clip-path="url(#p594791d3fc)" style="fill: #808080; opacity: 0.25; stroke: #808080; stroke-linejoin: miter"/>
   </g>
   <g id="patch_16">
    <path d="M 1139.668125 284.4 
L 1139.668125 7.2 
L 1156.408125 7.2 
L 1156.408125 284.4 
z
" clip-path="url(#p594791d3fc)" style="fill: #808080; opacity: 0.25; stroke: #808080; stroke-linejoin: miter"/>
   </g>
   <g id="patch_17">
    <path d="M 1226.827725 284.4 
L 1226.827725 7.2 
L 1243.567725 7.2 
L 1243.567725 284.4 
z
" clip-path="url(#p594791d3fc)" style="fill: #808080; opacity: 0.25; stroke: #808080; stroke-linejoin: miter"/>
   </g>
   <g id="patch_18">
    <path d="M 1313.987325 284.4 
L 1313.987325 7.2 
L 1330.727325 7.2 
L 1330.727325 284.4 
z
" clip-path="url(#p594791d3fc)" style="fill: #808080; opacity: 0.25; stroke: #808080; stroke-linejoin: miter"/>
   </g>
   <g id="patch_19">
    <path d="M 1401.146925 284.4 
L 1401.146925 7.2 
L 1417.886925 7.2 
L 1417.886925 284.4 
z
" clip-path="url(#p594791d3fc)" style="fill: #808080; opacity: 0.25; stroke: #808080; stroke-linejoin: miter"/>
   </g>
   <g id="patch_20">
    <path d="M 1490.092125 284.4 
L 1490.092125 7.2 
L 1506.832125 7.2 
L 1506.832125 284.4 
z
" clip-path="url(#p594791d3fc)" style="fill: #808080; opacity: 0.25; stroke: #808080; stroke-linejoin: miter"/>
   </g>
   <g id="matplotlib.axis_1">
    <g id="xtick_1"/>
    <g id="xtick_2"/>
    <g id="xtick_3"/>
    <g id="xtick_4"/>
    <g id="xtick_5"/>
    <g id="xtick_6"/>
    <g id="text_1">
     <text style="font: 10px 'sans-serif'; text-anchor: middle" x="299.878125" y="295.998438" transform="rotate(-0, 299.878125, 295.998438)">Time (au)</text>
    </g>
   </g>
   <g id="matplotlib.axis_2">
    <g id="ytick_1"/>
    <g id="ytick_2"/>
    <g id="ytick_3"/>
    <g id="ytick_4"/>
    <g id="ytick_5"/>
    <g id="ytick_6"/>
    <g id="ytick_7"/>
    <g id="text_2">
     <text style="font: 10px 'sans-serif'; text-anchor: middle" x="14.798438" y="145.8" transform="rotate(-90, 14.798438, 145.8)">ECG signal (au)</text>
    </g>
   </g>
   <g id="line2d_1">
    <path d="M 20.766525 228.778621 
L 20.878125 228.614819 
L 21.101325 227.417455 
L 21.324525 224.724598 
L 21.659325 217.068064 
L 22.105725 198.965214 
L 22.775325 158.464062 
L 23.333325 127.200594 
L 23.668125 117.464016 
L 23.779725 116.367227 
L 23.891325 116.437605 
L 24.114525 120.129786 
L 24.449325 134.073693 
L 24.895725 164.758693 
L 26.011725 248.43569 
L 26.346525 261.320266 
L 26.569725 265.332196 
L 26.681325 266.071995 
L 26.792925 266.059308 
L 27.016125 264.11756 
L 27.350925 257.778292 
L 28.913325 222.23235 
L 29.359725 218.138181 
L 29.694525 217.069135 
L 29.917725 216.97199 
L 30.140925 217.182699 
L 30.587325 217.577123 
L 30.810525 217.580193 
L 31.145325 217.344072 
L 31.814925 216.822413 
L 32.819325 216.519289 
L 33.265725 215.882204 
L 34.493325 213.965867 
L 35.051325 213.48682 
L 35.609325 213.303865 
L 37.060125 213.082929 
L 37.506525 212.639032 
L 38.734125 211.103694 
L 39.738525 210.402866 
L 40.184925 209.681802 
L 41.747325 206.766227 
L 42.751725 205.3728 
L 43.309725 204.164695 
L 43.979325 202.11425 
L 45.541725 195.900968 
L 46.434525 192.096768 
L 47.662125 185.518558 
L 50.340525 170.899523 
L 51.121725 167.925194 
L 51.791325 166.173282 
L 52.237725 165.562826 
L 52.460925 165.489368 
L 52.684125 165.600567 
L 53.018925 166.1425 
L 53.353725 167.150422 
L 53.800125 169.223225 
L 54.358125 173.082527 
L 55.027725 179.490978 
L 57.148125 201.518291 
L 58.040925 207.431906 
L 59.045325 212.682136 
L 59.714925 215.154511 
L 60.272925 216.392516 
L 61.165725 217.622972 
L 62.839725 219.755158 
L 63.286125 219.818946 
L 63.955725 219.619039 
L 64.625325 219.485389 
L 82.034925 219.586177 
L 82.816125 219.879444 
L 83.262525 219.822046 
L 84.043725 219.60671 
L 84.490125 219.732986 
L 85.382925 220.044396 
L 88.061325 220.398579 
L 88.619325 220.455724 
L 88.954125 220.307686 
L 89.400525 219.848053 
L 90.516525 218.483863 
L 91.967325 217.455011 
L 92.971725 216.013025 
L 93.641325 214.81783 
L 94.087725 213.523813 
L 94.645725 211.073272 
L 95.426925 207.798761 
L 95.761725 207.10228 
L 96.096525 206.884423 
L 96.431325 207.025812 
L 96.989325 207.648638 
L 97.547325 208.517419 
L 97.993725 209.766 
L 98.440125 211.797952 
L 99.444525 216.694794 
L 99.890925 217.779412 
L 100.448925 218.522663 
L 101.564925 219.536919 
L 102.457725 220.13757 
L 104.131725 220.898697 
L 104.801325 221.294005 
L 105.359325 221.582331 
L 105.694125 222.166925 
L 106.028925 223.329088 
L 107.033325 227.829722 
L 107.144925 227.81718 
L 107.256525 227.547382 
L 107.479725 226.029731 
L 107.702925 222.861941 
L 108.037725 214.209303 
L 108.484125 194.360873 
L 109.265325 143.811275 
L 109.823325 115.363793 
L 110.046525 110.702383 
L 110.158125 110.216652 
L 110.269725 111.017593 
L 110.492925 116.470734 
L 110.827725 133.485336 
L 111.385725 177.778345 
L 112.278525 247.515662 
L 112.613325 261.74788 
L 112.948125 267.608276 
L 113.059725 267.904251 
L 113.171325 267.496332 
L 113.394525 264.917619 
L 113.840925 255.111822 
L 115.068525 224.632048 
L 115.514925 218.61536 
L 115.849725 216.350795 
L 116.184525 215.500827 
L 116.407725 215.447111 
L 116.742525 215.803789 
L 117.412125 216.625665 
L 117.746925 216.714504 
L 118.081725 216.516873 
L 118.528125 215.907748 
L 119.532525 214.400459 
L 120.202125 213.945348 
L 120.983325 213.356362 
L 121.764525 212.786343 
L 124.442925 211.257781 
L 125.000925 210.509687 
L 125.782125 209.396466 
L 126.116925 209.242322 
L 126.898125 209.181718 
L 127.232925 208.774827 
L 127.790925 207.548194 
L 128.460525 206.2103 
L 129.688125 204.345642 
L 130.469325 202.261761 
L 131.362125 199.34661 
L 132.254925 195.537603 
L 133.594125 188.855491 
L 136.942125 170.364723 
L 137.946525 167.763129 
L 138.727725 166.03154 
L 139.062525 165.691788 
L 139.285725 165.707296 
L 139.508925 165.956543 
L 139.843725 166.820916 
L 140.290125 168.914941 
L 140.848125 172.861144 
L 141.629325 180.23405 
L 143.526525 199.250607 
L 144.307725 204.719762 
L 145.758525 212.758014 
L 146.316525 214.930226 
L 146.874525 216.158187 
L 147.990525 217.668141 
L 148.771725 218.63245 
L 149.329725 218.991983 
L 151.003725 219.484598 
L 169.975725 219.57886 
L 170.422125 219.805806 
L 170.868525 219.715137 
L 171.761325 219.379016 
L 172.654125 219.433081 
L 173.546925 219.598291 
L 174.774525 219.961451 
L 176.113725 219.78723 
L 176.671725 219.643207 
L 177.118125 219.292197 
L 177.676125 218.445455 
L 178.792125 216.600327 
L 180.242925 215.074008 
L 180.689325 214.791317 
L 181.470525 214.532164 
L 181.805325 214.019971 
L 182.251725 212.650854 
L 183.479325 208.113517 
L 183.814125 207.612375 
L 184.148925 207.441937 
L 184.595325 207.528014 
L 185.153325 207.907822 
L 185.599725 208.430147 
L 185.934525 209.136276 
L 186.380925 210.762457 
L 187.831725 217.223595 
L 188.278125 218.012678 
L 189.059325 218.843435 
L 190.510125 220.141144 
L 191.737725 222.084781 
L 192.072525 222.13503 
L 192.518925 221.906141 
L 193.076925 221.632509 
L 193.300125 221.690202 
L 193.523325 221.919922 
L 193.858125 222.66672 
L 194.304525 224.36219 
L 194.974125 226.819862 
L 195.085725 226.937506 
L 195.197325 226.889602 
L 195.420525 226.133104 
L 195.643725 224.178461 
L 195.978525 218.085898 
L 196.313325 207.072468 
L 196.759725 183.909054 
L 197.987325 112.299747 
L 198.210525 109.236079 
L 198.322125 109.708692 
L 198.545325 114.749045 
L 198.880125 131.799394 
L 199.438125 177.511788 
L 200.330925 249.959663 
L 200.777325 267.921165 
L 201.000525 271.254559 
L 201.112125 271.683027 
L 201.223725 271.394143 
L 201.446925 269.030893 
L 201.893325 259.703102 
L 203.232525 228.052725 
L 203.678925 221.919472 
L 204.013725 219.392407 
L 204.348525 218.294848 
L 204.571725 218.039231 
L 205.352925 217.966124 
L 205.799325 217.466409 
L 206.915325 215.950209 
L 208.924125 214.126669 
L 209.593725 213.971975 
L 209.928525 213.655813 
L 210.374925 212.877976 
L 211.267725 211.24809 
L 211.825725 210.799813 
L 212.383725 210.379948 
L 213.053325 209.516911 
L 214.838925 206.830477 
L 216.401325 204.011173 
L 218.075325 201.358091 
L 218.633325 199.607379 
L 220.418925 192.241777 
L 221.646525 186.431964 
L 224.101725 173.874563 
L 224.994525 169.391335 
L 225.775725 166.616489 
L 226.445325 164.873439 
L 226.780125 164.428381 
L 227.003325 164.364285 
L 227.226525 164.507057 
L 227.561325 165.07698 
L 228.007725 166.409275 
L 228.454125 168.413491 
L 229.012125 172.040859 
L 229.681725 178.086384 
L 232.360125 204.466908 
L 233.141325 209.185366 
L 234.034125 213.369626 
L 234.592125 215.021504 
L 235.038525 215.749974 
L 235.931325 216.968209 
L 237.270525 219.425417 
L 237.828525 219.810145 
L 238.274925 219.867992 
L 238.832925 219.654396 
L 239.390925 219.480152 
L 259.032525 219.374684 
L 259.925325 218.939471 
L 260.260125 219.010865 
L 260.818125 219.435491 
L 261.710925 220.17491 
L 262.268925 220.299261 
L 262.938525 220.427221 
L 264.166125 220.945354 
L 265.393725 220.748519 
L 265.728525 220.684742 
L 266.063325 220.390625 
L 267.402525 218.759161 
L 267.848925 218.707836 
L 268.518525 218.671496 
L 269.076525 218.333651 
L 270.080925 217.668388 
L 270.527325 217.2378 
L 270.862125 216.559299 
L 271.308525 215.021412 
L 272.759325 209.181483 
L 273.094125 208.804368 
L 273.428925 208.810548 
L 273.763725 209.120344 
L 274.210125 209.928905 
L 274.768125 211.444161 
L 275.437725 213.953261 
L 276.665325 218.942956 
L 277.111725 219.794978 
L 277.669725 220.369646 
L 278.785725 221.170839 
L 279.790125 221.582215 
L 280.459725 221.965649 
L 281.129325 222.690907 
L 281.687325 223.219724 
L 282.133725 223.327317 
L 282.580125 223.457146 
L 282.914925 223.899977 
L 283.361325 225.069573 
L 283.807725 226.259592 
L 284.030925 226.435567 
L 284.142525 226.322231 
L 284.365725 225.523678 
L 284.588925 223.692954 
L 284.923725 218.201014 
L 285.258525 208.327332 
L 285.704925 187.302462 
L 286.932525 120.272171 
L 287.155725 117.405577 
L 287.267325 117.912825 
L 287.490525 122.901759 
L 287.825325 139.538769 
L 288.383325 183.408357 
L 289.164525 244.929182 
L 289.610925 265.26798 
L 289.945725 271.339458 
L 290.057325 271.8 
L 290.168925 271.594973 
L 290.392125 269.518419 
L 290.726925 263.486819 
L 292.512525 225.620486 
L 292.958925 221.002949 
L 293.405325 218.590205 
L 293.740125 218.021243 
L 294.967725 217.125091 
L 297.088125 214.31868 
L 297.869325 213.373998 
L 299.320125 212.195925 
L 300.436125 210.947957 
L 300.994125 210.690296 
L 301.440525 210.442224 
L 301.886925 209.873943 
L 303.002925 208.243452 
L 303.560925 207.432533 
L 304.230525 205.936168 
L 306.574125 200.227519 
L 307.801725 197.919976 
L 308.359725 195.843483 
L 310.814925 184.672504 
L 311.596125 180.147343 
L 312.935325 172.275784 
L 313.828125 168.300437 
L 314.497725 166.177734 
L 314.944125 165.381724 
L 315.278925 165.196741 
L 315.502125 165.264827 
L 315.836925 165.632042 
L 316.171725 166.328245 
L 316.618125 167.906101 
L 317.064525 170.465913 
L 317.622525 175.124061 
L 320.858925 205.41057 
L 321.640125 209.963859 
L 322.309725 212.596678 
L 323.314125 215.515929 
L 324.206925 217.67835 
L 324.764925 218.425291 
L 325.322925 218.751069 
L 327.554925 219.487267 
L 343.625325 219.591522 
L 344.629725 220.143176 
L 345.522525 220.251116 
L 346.303725 220.158963 
L 346.861725 219.869157 
L 347.754525 219.320624 
L 348.089325 219.339309 
L 348.535725 219.618081 
L 349.540125 220.404693 
L 349.874925 220.37642 
L 350.321325 220.097478 
L 350.990925 219.352487 
L 351.772125 218.507496 
L 352.218525 218.368981 
L 353.111325 218.300973 
L 354.562125 217.551579 
L 354.896925 217.145636 
L 355.231725 216.357337 
L 355.678125 214.591423 
L 357.017325 208.394631 
L 357.352125 207.855989 
L 357.575325 207.784822 
L 357.910125 208.004828 
L 358.579725 208.965096 
L 359.472525 210.416402 
L 359.918925 211.952281 
L 361.258125 217.65221 
L 361.704525 218.329628 
L 363.713325 220.304217 
L 364.494525 220.825919 
L 366.503325 221.678634 
L 366.838125 221.809148 
L 367.172925 222.215179 
L 367.507725 223.07308 
L 368.065725 225.378482 
L 368.512125 226.920881 
L 368.623725 227.040615 
L 368.735325 226.981519 
L 368.958525 226.154893 
L 369.181725 224.070592 
L 369.516525 217.750796 
L 369.851325 206.702594 
L 370.297725 184.414577 
L 371.413725 122.893118 
L 371.636925 118.163646 
L 371.748525 117.484314 
L 371.860125 117.986383 
L 372.083325 122.546728 
L 372.418125 137.637911 
L 372.976125 178.227643 
L 373.868925 245.150749 
L 374.315325 262.852401 
L 374.538525 266.399129 
L 374.650125 266.97637 
L 374.761725 266.851845 
L 374.984925 264.835073 
L 375.319725 258.688331 
L 376.993725 222.686593 
L 377.440125 218.712144 
L 377.774925 217.355282 
L 378.109725 216.773293 
L 378.556125 216.689058 
L 379.895325 216.698187 
L 380.341725 216.314009 
L 382.685325 213.688486 
L 383.578125 213.133652 
L 384.359325 212.639438 
L 386.814525 210.314214 
L 389.716125 206.657475 
L 390.162525 206.119237 
L 390.720525 205.052704 
L 391.501725 202.95402 
L 392.840925 198.521742 
L 393.845325 194.300508 
L 396.188925 183.328647 
L 398.420925 171.580879 
L 399.090525 169.091423 
L 399.760125 167.378168 
L 400.318125 166.438916 
L 400.652925 166.23148 
L 400.876125 166.288586 
L 401.210925 166.69026 
L 401.545725 167.494765 
L 401.992125 169.343262 
L 402.438525 172.373802 
L 402.996525 177.889622 
L 404.670525 195.732484 
L 405.898125 205.560175 
L 406.679325 210.170235 
L 407.348925 212.814183 
L 408.018525 214.518441 
L 408.799725 216.395857 
L 409.692525 218.743871 
L 410.027325 219.096373 
L 410.362125 219.10348 
L 411.254925 218.866994 
L 411.812925 219.108583 
L 412.594125 219.485009 
L 431.677725 219.591706 
L 432.682125 220.090333 
L 434.244525 220.366467 
L 435.248925 220.274514 
L 435.583725 220.495295 
L 436.699725 221.538048 
L 437.146125 221.500885 
L 438.038925 221.120151 
L 438.596925 220.663854 
L 440.270925 218.972499 
L 441.944925 218.457474 
L 442.502925 217.863212 
L 442.837725 217.218745 
L 443.284125 215.741044 
L 443.953725 212.295205 
L 444.623325 209.163527 
L 444.958125 208.334403 
L 445.292925 208.051474 
L 445.516125 208.107641 
L 445.850925 208.43688 
L 447.078525 210.216785 
L 447.524925 211.271808 
L 447.971325 213.111066 
L 449.087325 218.270834 
L 449.533725 219.201217 
L 449.980125 219.619669 
L 450.649725 219.851594 
L 451.207725 220.082218 
L 451.765725 220.603896 
L 452.993325 221.974568 
L 453.328125 222.03049 
L 453.662925 221.876322 
L 454.890525 221.068326 
L 455.113725 221.244452 
L 455.336925 221.684768 
L 455.671725 222.940109 
L 456.676125 227.95533 
L 456.787725 227.994946 
L 456.899325 227.780607 
L 457.122525 226.396408 
L 457.345725 223.413694 
L 457.680525 215.183576 
L 458.126925 196.250676 
L 458.908125 147.82845 
L 459.466125 119.845404 
L 459.689325 114.853566 
L 459.800925 114.085029 
L 459.912525 114.529119 
L 460.135725 119.073094 
L 460.470525 134.385876 
L 461.028525 175.803284 
L 461.921325 244.009766 
L 462.367725 261.939609 
L 462.590925 265.502561 
L 462.702525 266.062042 
L 462.814125 265.901094 
L 463.037325 263.753111 
L 463.372125 257.266363 
L 464.934525 221.156987 
L 465.269325 217.811029 
L 465.604125 216.346072 
L 465.827325 216.122308 
L 465.938925 216.157804 
L 466.720125 217.13711 
L 466.943325 217.14933 
L 467.278125 216.927875 
L 471.184125 213.119021 
L 472.188525 212.78184 
L 472.746525 212.137065 
L 474.308925 210.006576 
L 474.866925 209.659767 
L 475.313325 209.624923 
L 475.982925 209.690442 
L 476.317725 209.459841 
L 476.764125 208.755558 
L 479.442525 203.015122 
L 481.674525 195.817864 
L 482.455725 192.131342 
L 483.571725 185.712266 
L 484.464525 180.8453 
L 485.915325 173.8283 
L 486.808125 169.591727 
L 487.589325 166.833822 
L 488.147325 165.480583 
L 488.482125 165.132077 
L 488.705325 165.164624 
L 488.928525 165.426006 
L 489.263325 166.247946 
L 489.709725 168.119236 
L 490.267725 171.739126 
L 490.937325 178.074859 
L 492.946125 199.119566 
L 493.727325 204.598638 
L 495.178125 212.23199 
L 495.736125 214.600934 
L 496.294125 215.986615 
L 497.410125 217.719266 
L 498.191325 218.73537 
L 498.749325 219.078402 
L 500.311725 219.456715 
L 500.869725 219.48292 
L 518.725725 219.569243 
L 519.283725 219.866235 
L 519.841725 219.843261 
L 520.734525 219.764429 
L 522.854925 220.010032 
L 523.970925 220.557265 
L 524.752125 220.90697 
L 525.198525 220.832607 
L 525.533325 220.553815 
L 525.979725 219.873898 
L 526.760925 218.658468 
L 527.207325 218.458563 
L 527.988525 218.28017 
L 528.546525 217.793282 
L 529.885725 216.36608 
L 530.220525 215.493593 
L 530.778525 213.213251 
L 531.671325 209.479194 
L 532.006125 208.756101 
L 532.340925 208.48728 
L 532.564125 208.524997 
L 532.898925 208.826785 
L 533.791725 209.848749 
L 534.461325 210.191946 
L 534.684525 210.574363 
L 535.019325 211.714906 
L 535.465725 214.257349 
L 536.246925 218.912946 
L 536.581725 219.968589 
L 536.916525 220.401288 
L 537.362925 220.48915 
L 537.809325 220.619525 
L 538.367325 221.096515 
L 538.925325 221.511996 
L 539.371725 221.593241 
L 540.152925 221.652026 
L 542.050125 222.410329 
L 542.384925 223.129023 
L 542.831325 224.932949 
L 543.724125 229.035737 
L 543.835725 229.131499 
L 543.947325 229.018546 
L 544.170525 227.990457 
L 544.393725 225.579524 
L 544.728525 218.558207 
L 545.063325 206.577904 
L 545.509725 182.643819 
L 546.625725 117.203481 
L 546.848925 112.534538 
L 546.960525 112.052867 
L 547.072125 112.86374 
L 547.295325 118.349469 
L 547.630125 135.4059 
L 548.188125 179.606442 
L 549.080925 249.161673 
L 549.527325 266.370453 
L 549.750525 269.451156 
L 549.862125 269.772146 
L 549.973725 269.383842 
L 550.196925 266.83156 
L 550.643325 257.059081 
L 551.870925 226.526327 
L 552.317325 220.455886 
L 552.652125 218.218138 
L 552.875325 217.595554 
L 553.098525 217.45002 
L 553.544925 217.912061 
L 553.879725 218.109892 
L 554.102925 218.026129 
L 554.437725 217.581133 
L 555.330525 216.072411 
L 555.776925 215.793724 
L 556.446525 215.398884 
L 559.571325 212.648125 
L 560.352525 211.971688 
L 561.245325 210.812523 
L 561.803325 210.232639 
L 563.030925 209.30688 
L 564.370125 207.445364 
L 564.928125 206.922796 
L 565.374525 206.118768 
L 566.825325 202.517323 
L 567.494925 200.325577 
L 569.057325 193.915465 
L 570.619725 186.373947 
L 571.847325 179.347653 
L 572.963325 173.218137 
L 574.637325 166.328129 
L 575.195325 164.831649 
L 575.530125 164.46061 
L 575.753325 164.458899 
L 575.976525 164.662758 
L 576.311325 165.391673 
L 576.646125 166.688222 
L 577.092525 169.402048 
L 577.650525 174.434618 
L 578.989725 189.390637 
L 578.989725 189.390637 
" clip-path="url(#p594791d3fc)" style="fill: none; stroke: #4477aa; stroke-width: 1.5; stroke-linecap: square"/>
   </g>
   <g id="LineCollection_1">
    <path d="M 23.444925 7.2 
L 23.444925 284.4 
" clip-path="url(#p594791d3fc)" style="fill: none; stroke-dasharray: 0.5,0.825; stroke-dashoffset: 0; stroke: #ee6677; stroke-width: 0.5"/>
    <path d="M 109.711725 7.2 
L 109.711725 284.4 
" clip-path="url(#p594791d3fc)" style="fill: none; stroke-dasharray: 0.5,0.825; stroke-dashoffset: 0; stroke: #ee6677; stroke-width: 0.5"/>
    <path d="M 197.764125 7.2 
L 197.764125 284.4 
" clip-path="url(#p594791d3fc)" style="fill: none; stroke-dasharray: 0.5,0.825; stroke-dashoffset: 0; stroke: #ee6677; stroke-width: 0.5"/>
    <path d="M 286.709325 7.2 
L 286.709325 284.4 
" clip-path="url(#p594791d3fc)" style="fill: none; stroke-dasharray: 0.5,0.825; stroke-dashoffset: 0; stroke: #ee6677; stroke-width: 0.5"/>
    <path d="M 371.302125 7.2 
L 371.302125 284.4 
" clip-path="url(#p594791d3fc)" style="fill: none; stroke-dasharray: 0.5,0.825; stroke-dashoffset: 0; stroke: #ee6677; stroke-width: 0.5"/>
    <path d="M 459.354525 7.2 
L 459.354525 284.4 
" clip-path="url(#p594791d3fc)" style="fill: none; stroke-dasharray: 0.5,0.825; stroke-dashoffset: 0; stroke: #ee6677; stroke-width: 0.5"/>
    <path d="M 546.514125 7.2 
L 546.514125 284.4 
" clip-path="url(#p594791d3fc)" style="fill: none; stroke-dasharray: 0.5,0.825; stroke-dashoffset: 0; stroke: #ee6677; stroke-width: 0.5"/>
    <path d="M 632.780925 7.2 
L 632.780925 284.4 
" clip-path="url(#p594791d3fc)" style="fill: none; stroke-dasharray: 0.5,0.825; stroke-dashoffset: 0; stroke: #ee6677; stroke-width: 0.5"/>
    <path clip-path="url(#p594791d3fc)" style="fill: none; stroke-dasharray: 0.5,0.825; stroke-dashoffset: 0; stroke: #ee6677; stroke-width: 0.5"/>
    <path clip-path="url(#p594791d3fc)" style="fill: none; stroke-dasharray: 0.5,0.825; stroke-dashoffset: 0; stroke: #ee6677; stroke-width: 0.5"/>
    <path clip-path="url(#p594791d3fc)" style="fill: none; stroke-dasharray: 0.5,0.825; stroke-dashoffset: 0; stroke: #ee6677; stroke-width: 0.5"/>
    <path clip-path="url(#p594791d3fc)" style="fill: none; stroke-dasharray: 0.5,0.825; stroke-dashoffset: 0; stroke: #ee6677; stroke-width: 0.5"/>
    <path clip-path="url(#p594791d3fc)" style="fill: none; stroke-dasharray: 0.5,0.825; stroke-dashoffset: 0; stroke: #ee6677; stroke-width: 0.5"/>
    <path clip-path="url(#p594791d3fc)" style="fill: none; stroke-dasharray: 0.5,0.825; stroke-dashoffset: 0; stroke: #ee6677; stroke-width: 0.5"/>
    <path clip-path="url(#p594791d3fc)" style="fill: none; stroke-dasharray: 0.5,0.825; stroke-dashoffset: 0; stroke: #ee6677; stroke-width: 0.5"/>
    <path clip-path="url(#p594791d3fc)" style="fill: none; stroke-dasharray: 0.5,0.825; stroke-dashoffset: 0; stroke: #ee6677; stroke-width: 0.5"/>
    <path clip-path="url(#p594791d3fc)" style="fill: none; stroke-dasharray: 0.5,0.825; stroke-dashoffset: 0; stroke: #ee6677; stroke-width: 0.5"/>
    <path clip-path="url(#p594791d3fc)" style="fill: none; stroke-dasharray: 0.5,0.825; stroke-dashoffset: 0; stroke: #ee6677; stroke-width: 0.5"/>
   </g>
   <g id="line2d_2">
    <defs>
     <path id="mf0b3da099a" d="M 0 4.242641 
L 2.545584 0 
L 0 -4.242641 
L -2.545584 0 
z
" style="stroke: #ff0000; stroke-linejoin: miter"/>
    </defs>
    <g clip-path="url(#p594791d3fc)">
     <use xlink:href="#mf0b3da099a" x="-1" y="151.138872" style="fill: #ff0000; stroke: #ff0000; stroke-linejoin: miter"/>
     <use xlink:href="#mf0b3da099a" x="24.672525" y="148.074044" style="fill: #ff0000; stroke: #ff0000; stroke-linejoin: miter"/>
     <use xlink:href="#mf0b3da099a" x="111.050925" y="149.526226" style="fill: #ff0000; stroke: #ff0000; stroke-linejoin: miter"/>
     <use xlink:href="#mf0b3da099a" x="199.103325" y="148.254265" style="fill: #ff0000; stroke: #ff0000; stroke-linejoin: miter"/>
     <use xlink:href="#mf0b3da099a" x="288.160125" y="164.385778" style="fill: #ff0000; stroke: #ff0000; stroke-linejoin: miter"/>
     <use xlink:href="#mf0b3da099a" x="372.641325" y="152.182241" style="fill: #ff0000; stroke: #ff0000; stroke-linejoin: miter"/>
     <use xlink:href="#mf0b3da099a" x="460.693725" y="149.21333" style="fill: #ff0000; stroke: #ff0000; stroke-linejoin: miter"/>
     <use xlink:href="#mf0b3da099a" x="547.853325" y="151.438932" style="fill: #ff0000; stroke: #ff0000; stroke-linejoin: miter"/>
     <use xlink:href="#mf0b3da099a" x="634.120125" y="151.718761" style="fill: #ff0000; stroke: #ff0000; stroke-linejoin: miter"/>
     <use xlink:href="#mf0b3da099a" x="720.386925" y="156.139529" style="fill: #ff0000; stroke: #ff0000; stroke-linejoin: miter"/>
     <use xlink:href="#mf0b3da099a" x="806.765325" y="161.558593" style="fill: #ff0000; stroke: #ff0000; stroke-linejoin: miter"/>
     <use xlink:href="#mf0b3da099a" x="893.813325" y="158.332856" style="fill: #ff0000; stroke: #ff0000; stroke-linejoin: miter"/>
     <use xlink:href="#mf0b3da099a" x="979.298925" y="153.736678" style="fill: #ff0000; stroke: #ff0000; stroke-linejoin: miter"/>
     <use xlink:href="#mf0b3da099a" x="1064.672925" y="148.261877" style="fill: #ff0000; stroke: #ff0000; stroke-linejoin: miter"/>
     <use xlink:href="#mf0b3da099a" x="1149.377325" y="150.792621" style="fill: #ff0000; stroke: #ff0000; stroke-linejoin: miter"/>
     <use xlink:href="#mf0b3da099a" x="1236.648525" y="159.675932" style="fill: #ff0000; stroke: #ff0000; stroke-linejoin: miter"/>
     <use xlink:href="#mf0b3da099a" x="1323.696525" y="158.834603" style="fill: #ff0000; stroke: #ff0000; stroke-linejoin: miter"/>
     <use xlink:href="#mf0b3da099a" x="1410.744525" y="149.461136" style="fill: #ff0000; stroke: #ff0000; stroke-linejoin: miter"/>
     <use xlink:href="#mf0b3da099a" x="1499.801325" y="151.91879" style="fill: #ff0000; stroke: #ff0000; stroke-linejoin: miter"/>
    </g>
   </g>
   <g id="line2d_3">
    <defs>
     <path id="m41bdeed45e" d="M 0 4.242641 
L 2.545584 0 
L 0 -4.242641 
L -2.545584 0 
z
" style="stroke: #0000ff; stroke-linejoin: miter"/>
    </defs>
    <g clip-path="url(#p594791d3fc)">
     <use xlink:href="#m41bdeed45e" x="-1" y="137.426083" style="fill: #0000ff; stroke: #0000ff; stroke-linejoin: miter"/>
     <use xlink:href="#m41bdeed45e" x="23.779725" y="116.367227" style="fill: #0000ff; stroke: #0000ff; stroke-linejoin: miter"/>
     <use xlink:href="#m41bdeed45e" x="52.349325" y="165.502836" style="fill: #0000ff; stroke: #0000ff; stroke-linejoin: miter"/>
     <use xlink:href="#m41bdeed45e" x="110.158125" y="110.216652" style="fill: #0000ff; stroke: #0000ff; stroke-linejoin: miter"/>
     <use xlink:href="#m41bdeed45e" x="139.062525" y="165.691788" style="fill: #0000ff; stroke: #0000ff; stroke-linejoin: miter"/>
     <use xlink:href="#m41bdeed45e" x="198.210525" y="109.236079" style="fill: #0000ff; stroke: #0000ff; stroke-linejoin: miter"/>
     <use xlink:href="#m41bdeed45e" x="227.003325" y="164.364285" style="fill: #0000ff; stroke: #0000ff; stroke-linejoin: miter"/>
     <use xlink:href="#m41bdeed45e" x="287.155725" y="117.405577" style="fill: #0000ff; stroke: #0000ff; stroke-linejoin: miter"/>
     <use xlink:href="#m41bdeed45e" x="315.278925" y="165.196741" style="fill: #0000ff; stroke: #0000ff; stroke-linejoin: miter"/>
     <use xlink:href="#m41bdeed45e" x="371.748525" y="117.484314" style="fill: #0000ff; stroke: #0000ff; stroke-linejoin: miter"/>
     <use xlink:href="#m41bdeed45e" x="400.652925" y="166.23148" style="fill: #0000ff; stroke: #0000ff; stroke-linejoin: miter"/>
     <use xlink:href="#m41bdeed45e" x="459.800925" y="114.085029" style="fill: #0000ff; stroke: #0000ff; stroke-linejoin: miter"/>
     <use xlink:href="#m41bdeed45e" x="488.482125" y="165.132077" style="fill: #0000ff; stroke: #0000ff; stroke-linejoin: miter"/>
     <use xlink:href="#m41bdeed45e" x="546.960525" y="112.052867" style="fill: #0000ff; stroke: #0000ff; stroke-linejoin: miter"/>
     <use xlink:href="#m41bdeed45e" x="575.641725" y="164.434715" style="fill: #0000ff; stroke: #0000ff; stroke-linejoin: miter"/>
     <use xlink:href="#m41bdeed45e" x="633.227325" y="109.43774" style="fill: #0000ff; stroke: #0000ff; stroke-linejoin: miter"/>
     <use xlink:href="#m41bdeed45e" x="661.685325" y="163.880032" style="fill: #0000ff; stroke: #0000ff; stroke-linejoin: miter"/>
     <use xlink:href="#m41bdeed45e" x="719.382525" y="113.205037" style="fill: #0000ff; stroke: #0000ff; stroke-linejoin: miter"/>
     <use xlink:href="#m41bdeed45e" x="748.063725" y="163.38091" style="fill: #0000ff; stroke: #0000ff; stroke-linejoin: miter"/>
     <use xlink:href="#m41bdeed45e" x="805.760925" y="120.851212" style="fill: #0000ff; stroke: #0000ff; stroke-linejoin: miter"/>
     <use xlink:href="#m41bdeed45e" x="834.330525" y="165.301186" style="fill: #0000ff; stroke: #0000ff; stroke-linejoin: miter"/>
     <use xlink:href="#m41bdeed45e" x="892.920525" y="122.4072" style="fill: #0000ff; stroke: #0000ff; stroke-linejoin: miter"/>
     <use xlink:href="#m41bdeed45e" x="921.155325" y="163.781401" style="fill: #0000ff; stroke: #0000ff; stroke-linejoin: miter"/>
     <use xlink:href="#m41bdeed45e" x="978.406125" y="118.116189" style="fill: #0000ff; stroke: #0000ff; stroke-linejoin: miter"/>
     <use xlink:href="#m41bdeed45e" x="1006.752525" y="165.145259" style="fill: #0000ff; stroke: #0000ff; stroke-linejoin: miter"/>
     <use xlink:href="#m41bdeed45e" x="1063.780125" y="113.491349" style="fill: #0000ff; stroke: #0000ff; stroke-linejoin: miter"/>
     <use xlink:href="#m41bdeed45e" x="1092.014925" y="163.602843" style="fill: #0000ff; stroke: #0000ff; stroke-linejoin: miter"/>
     <use xlink:href="#m41bdeed45e" x="1148.484525" y="110.074037" style="fill: #0000ff; stroke: #0000ff; stroke-linejoin: miter"/>
     <use xlink:href="#m41bdeed45e" x="1177.165725" y="164.052607" style="fill: #0000ff; stroke: #0000ff; stroke-linejoin: miter"/>
     <use xlink:href="#m41bdeed45e" x="1235.644125" y="113.813469" style="fill: #0000ff; stroke: #0000ff; stroke-linejoin: miter"/>
     <use xlink:href="#m41bdeed45e" x="1264.213725" y="166.529506" style="fill: #0000ff; stroke: #0000ff; stroke-linejoin: miter"/>
     <use xlink:href="#m41bdeed45e" x="1322.692125" y="119.311554" style="fill: #0000ff; stroke: #0000ff; stroke-linejoin: miter"/>
     <use xlink:href="#m41bdeed45e" x="1351.373325" y="164.131592" style="fill: #0000ff; stroke: #0000ff; stroke-linejoin: miter"/>
     <use xlink:href="#m41bdeed45e" x="1409.851725" y="117.16222" style="fill: #0000ff; stroke: #0000ff; stroke-linejoin: miter"/>
     <use xlink:href="#m41bdeed45e" x="1438.867725" y="164.791387" style="fill: #0000ff; stroke: #0000ff; stroke-linejoin: miter"/>
     <use xlink:href="#m41bdeed45e" x="1498.908525" y="113.388117" style="fill: #0000ff; stroke: #0000ff; stroke-linejoin: miter"/>
     <use xlink:href="#m41bdeed45e" x="1527.589725" y="164.807916" style="fill: #0000ff; stroke: #0000ff; stroke-linejoin: miter"/>
     <use xlink:href="#m41bdeed45e" x="1573.010925" y="209.169023" style="fill: #0000ff; stroke: #0000ff; stroke-linejoin: miter"/>
    </g>
   </g>
   <g id="patch_21">
    <path d="M 20.878125 284.4 
L 20.878125 7.2 
" style="fill: none; stroke: #000000; stroke-width: 0.8; stroke-linejoin: miter; stroke-linecap: square"/>
   </g>
   <g id="patch_22">
    <path d="M 578.878125 284.4 
L 578.878125 7.2 
" style="fill: none; stroke: #000000; stroke-width: 0.8; stroke-linejoin: miter; stroke-linecap: square"/>
   </g>
   <g id="patch_23">
    <path d="M 20.878125 284.4 
L 578.878125 284.4 
" style="fill: none; stroke: #000000; stroke-width: 0.8; stroke-linejoin: miter; stroke-linecap: square"/>
   </g>
   <g id="patch_24">
    <path d="M 20.878125 7.2 
L 578.878125 7.2 
" style="fill: none; stroke: #000000; stroke-width: 0.8; stroke-linejoin: miter; stroke-linecap: square"/>
   </g>
   <g id="legend_1">
    <g id="text_3">
     <text style="font: 10px 'sans-serif'; text-anchor: start" x="590.422656" y="23.798438" transform="rotate(-0, 590.422656, 23.798438)">Algorithm</text>
    </g>
    <g id="line2d_4">
     <g>
      <use xlink:href="#mf0b3da099a" x="597.878125" y="34.976563" style="fill: #ff0000; stroke: #ff0000; stroke-linejoin: miter"/>
     </g>
    </g>
    <g id="text_4">
     <text style="font: 10px 'sans-serif'; text-anchor: start" x="615.878125" y="38.476563" transform="rotate(-0, 615.878125, 38.476563)">unsw</text>
    </g>
    <g id="line2d_5">
     <g>
      <use xlink:href="#m41bdeed45e" x="597.878125" y="49.654688" style="fill: #0000ff; stroke: #0000ff; stroke-linejoin: miter"/>
     </g>
    </g>
    <g id="text_5">
     <text style="font: 10px 'sans-serif'; text-anchor: start" x="615.878125" y="53.154688" transform="rotate(-0, 615.878125, 53.154688)">nk</text>
    </g>
   </g>
  </g>
 </g>
 <defs>
  <clipPath id="p594791d3fc">
   <rect x="20.878125" y="7.2" width="558" height="277.2"/>
  </clipPath>
 </defs>
</svg>
