<?xml version="1.0" encoding="utf-8" standalone="no"?>
<!DOCTYPE svg PUBLIC "-//W3C//DTD SVG 1.1//EN"
  "http://www.w3.org/Graphics/SVG/1.1/DTD/svg11.dtd">
<svg xmlns:xlink="http://www.w3.org/1999/xlink" width="460.8pt" height="345.6pt" viewBox="0 0 460.8 345.6" xmlns="http://www.w3.org/2000/svg" version="1.1">
 <metadata>
  <rdf:RDF xmlns:dc="http://purl.org/dc/elements/1.1/" xmlns:cc="http://creativecommons.org/ns#" xmlns:rdf="http://www.w3.org/1999/02/22-rdf-syntax-ns#">
   <cc:Work>
    <dc:type rdf:resource="http://purl.org/dc/dcmitype/StillImage"/>
    <dc:date>2024-01-04T04:40:01.077966</dc:date>
    <dc:format>image/svg+xml</dc:format>
    <dc:creator>
     <cc:Agent>
      <dc:title>Matplotlib v3.5.3, https://matplotlib.org/</dc:title>
     </cc:Agent>
    </dc:creator>
   </cc:Work>
  </rdf:RDF>
 </metadata>
 <defs>
  <style type="text/css">*{stroke-linejoin: round; stroke-linecap: butt}</style>
 </defs>
 <g id="figure_1">
  <g id="patch_1">
   <path d="M 0 345.6 
L 460.8 345.6 
L 460.8 0 
L 0 0 
z
" style="fill: #ffffff"/>
  </g>
  <g id="axes_1">
   <g id="patch_2">
    <path d="M 54.02 303.64 
L 450 303.64 
L 450 10.8 
L 54.02 10.8 
z
" style="fill: #ffffff"/>
   </g>
   <g id="PathCollection_1">
    <defs>
     <path id="C0_0_33999a0f2e" d="M 0 3 
C 0.795609 3 1.55874 2.683901 2.12132 2.12132 
C 2.683901 1.55874 3 0.795609 3 -0 
C 3 -0.795609 2.683901 -1.55874 2.12132 -2.12132 
C 1.55874 -2.683901 0.795609 -3 0 -3 
C -0.795609 -3 -1.55874 -2.683901 -2.12132 -2.12132 
C -2.683901 -1.55874 -3 -0.795609 -3 0 
C -3 0.795609 -2.683901 1.55874 -2.12132 2.12132 
C -1.55874 2.683901 -0.795609 3 0 3 
z
"/>
    </defs>
    <g clip-path="url(#pdb4a637538)">
     <use xlink:href="#C0_0_33999a0f2e" x="368.899281" y="290.329091" style="fill: #4477aa; stroke: #ffffff; stroke-width: 0.48"/>
    </g>
    <g clip-path="url(#pdb4a637538)">
     <use xlink:href="#C0_0_33999a0f2e" x="174.563404" y="209.951562" style="fill: #ee6677; stroke: #ffffff; stroke-width: 0.48"/>
    </g>
    <g clip-path="url(#pdb4a637538)">
     <use xlink:href="#C0_0_33999a0f2e" x="73.633881" y="24.110909" style="fill: #228833; stroke: #ffffff; stroke-width: 0.48"/>
    </g>
    <g clip-path="url(#pdb4a637538)">
     <use xlink:href="#C0_0_33999a0f2e" x="245.799094" y="276.50938" style="fill: #ccbb44; stroke: #ffffff; stroke-width: 0.48"/>
    </g>
    <g clip-path="url(#pdb4a637538)">
     <use xlink:href="#C0_0_33999a0f2e" x="95.338541" y="290.329091" style="fill: #66ccee; stroke: #ffffff; stroke-width: 0.48"/>
    </g>
    <g clip-path="url(#pdb4a637538)">
     <use xlink:href="#C0_0_33999a0f2e" x="75.042951" y="284.087604" style="fill: #aa3377; stroke: #ffffff; stroke-width: 0.48"/>
    </g>
    <g clip-path="url(#pdb4a637538)">
     <use xlink:href="#C0_0_33999a0f2e" x="74.365694" y="290.329091" style="fill: #bbbbbb; stroke: #ffffff; stroke-width: 0.48"/>
    </g>
    <g clip-path="url(#pdb4a637538)">
     <use xlink:href="#C0_0_33999a0f2e" x="76.458802" y="290.329091" style="fill: #77aadd; stroke: #ffffff; stroke-width: 0.48"/>
    </g>
    <g clip-path="url(#pdb4a637538)">
     <use xlink:href="#C0_0_33999a0f2e" x="105.918073" y="290.329091" style="fill: #ee8866; stroke: #ffffff; stroke-width: 0.48"/>
    </g>
    <g clip-path="url(#pdb4a637538)">
     <use xlink:href="#C0_0_33999a0f2e" x="74.980014" y="290.329091" style="fill: #eedd88; stroke: #ffffff; stroke-width: 0.48"/>
    </g>
    <g clip-path="url(#pdb4a637538)">
     <use xlink:href="#C0_0_33999a0f2e" x="73.710514" y="290.329091" style="fill: #ffaabb; stroke: #ffffff; stroke-width: 0.48"/>
    </g>
    <g clip-path="url(#pdb4a637538)">
     <use xlink:href="#C0_0_33999a0f2e" x="75.126181" y="279.605195" style="fill: #99ddff; stroke: #ffffff; stroke-width: 0.48"/>
    </g>
    <g clip-path="url(#pdb4a637538)">
     <use xlink:href="#C0_0_33999a0f2e" x="72.019091" y="273.351322" style="fill: #44bb99; stroke: #ffffff; stroke-width: 0.48"/>
    </g>
    <g clip-path="url(#pdb4a637538)">
     <use xlink:href="#C0_0_33999a0f2e" x="83.48108" y="290.329091" style="fill: #bbcc33; stroke: #ffffff; stroke-width: 0.48"/>
    </g>
    <g clip-path="url(#pdb4a637538)">
     <use xlink:href="#C0_0_33999a0f2e" x="118.201644" y="290.329091" style="fill: #aaaa00; stroke: #ffffff; stroke-width: 0.48"/>
    </g>
    <g clip-path="url(#pdb4a637538)">
     <use xlink:href="#C0_0_33999a0f2e" x="432.000909" y="290.329091" style="fill: #dddddd; stroke: #ffffff; stroke-width: 0.48"/>
    </g>
   </g>
   <g id="PathCollection_2"/>
   <g id="PathCollection_3"/>
   <g id="PathCollection_4"/>
   <g id="PathCollection_5"/>
   <g id="PathCollection_6"/>
   <g id="PathCollection_7"/>
   <g id="PathCollection_8"/>
   <g id="PathCollection_9"/>
   <g id="PathCollection_10"/>
   <g id="PathCollection_11"/>
   <g id="PathCollection_12"/>
   <g id="PathCollection_13"/>
   <g id="PathCollection_14"/>
   <g id="PathCollection_15"/>
   <g id="PathCollection_16"/>
   <g id="PathCollection_17"/>
   <g id="matplotlib.axis_1">
    <g id="xtick_1">
     <g id="line2d_1">
      <defs>
       <path id="m55a3fc20aa" d="M 0 0 
L 0 3.5 
" style="stroke: #000000; stroke-width: 0.8"/>
      </defs>
      <g>
       <use xlink:href="#m55a3fc20aa" x="70.058613" y="303.64" style="stroke: #000000; stroke-width: 0.8"/>
      </g>
     </g>
     <g id="text_1">
      <text style="font: 10px 'sans-serif'; text-anchor: middle" x="70.058613" y="318.238437" transform="rotate(-0, 70.058613, 318.238437)">0</text>
     </g>
    </g>
    <g id="xtick_2">
     <g id="line2d_2">
      <g>
       <use xlink:href="#m55a3fc20aa" x="115.828213" y="303.64" style="stroke: #000000; stroke-width: 0.8"/>
      </g>
     </g>
     <g id="text_2">
      <text style="font: 10px 'sans-serif'; text-anchor: middle" x="115.828213" y="318.238437" transform="rotate(-0, 115.828213, 318.238437)">25</text>
     </g>
    </g>
    <g id="xtick_3">
     <g id="line2d_3">
      <g>
       <use xlink:href="#m55a3fc20aa" x="161.597812" y="303.64" style="stroke: #000000; stroke-width: 0.8"/>
      </g>
     </g>
     <g id="text_3">
      <text style="font: 10px 'sans-serif'; text-anchor: middle" x="161.597812" y="318.238437" transform="rotate(-0, 161.597812, 318.238437)">50</text>
     </g>
    </g>
    <g id="xtick_4">
     <g id="line2d_4">
      <g>
       <use xlink:href="#m55a3fc20aa" x="207.367412" y="303.64" style="stroke: #000000; stroke-width: 0.8"/>
      </g>
     </g>
     <g id="text_4">
      <text style="font: 10px 'sans-serif'; text-anchor: middle" x="207.367412" y="318.238437" transform="rotate(-0, 207.367412, 318.238437)">75</text>
     </g>
    </g>
    <g id="xtick_5">
     <g id="line2d_5">
      <g>
       <use xlink:href="#m55a3fc20aa" x="253.137012" y="303.64" style="stroke: #000000; stroke-width: 0.8"/>
      </g>
     </g>
     <g id="text_5">
      <text style="font: 10px 'sans-serif'; text-anchor: middle" x="253.137012" y="318.238437" transform="rotate(-0, 253.137012, 318.238437)">100</text>
     </g>
    </g>
    <g id="xtick_6">
     <g id="line2d_6">
      <g>
       <use xlink:href="#m55a3fc20aa" x="298.906611" y="303.64" style="stroke: #000000; stroke-width: 0.8"/>
      </g>
     </g>
     <g id="text_6">
      <text style="font: 10px 'sans-serif'; text-anchor: middle" x="298.906611" y="318.238437" transform="rotate(-0, 298.906611, 318.238437)">125</text>
     </g>
    </g>
    <g id="xtick_7">
     <g id="line2d_7">
      <g>
       <use xlink:href="#m55a3fc20aa" x="344.676211" y="303.64" style="stroke: #000000; stroke-width: 0.8"/>
      </g>
     </g>
     <g id="text_7">
      <text style="font: 10px 'sans-serif'; text-anchor: middle" x="344.676211" y="318.238437" transform="rotate(-0, 344.676211, 318.238437)">150</text>
     </g>
    </g>
    <g id="xtick_8">
     <g id="line2d_8">
      <g>
       <use xlink:href="#m55a3fc20aa" x="390.445811" y="303.64" style="stroke: #000000; stroke-width: 0.8"/>
      </g>
     </g>
     <g id="text_8">
      <text style="font: 10px 'sans-serif'; text-anchor: middle" x="390.445811" y="318.238437" transform="rotate(-0, 390.445811, 318.238437)">175</text>
     </g>
    </g>
    <g id="xtick_9">
     <g id="line2d_9">
      <g>
       <use xlink:href="#m55a3fc20aa" x="436.21541" y="303.64" style="stroke: #000000; stroke-width: 0.8"/>
      </g>
     </g>
     <g id="text_9">
      <text style="font: 10px 'sans-serif'; text-anchor: middle" x="436.21541" y="318.238437" transform="rotate(-0, 436.21541, 318.238437)">200</text>
     </g>
    </g>
    <g id="text_10">
     <text style="font: 10px 'sans-serif'; text-anchor: middle" x="252.01" y="331.916562" transform="rotate(-0, 252.01, 331.916562)">runtime</text>
    </g>
   </g>
   <g id="matplotlib.axis_2">
    <g id="ytick_1">
     <g id="line2d_10">
      <defs>
       <path id="mb2d95e9190" d="M 0 0 
L -3.5 0 
" style="stroke: #000000; stroke-width: 0.8"/>
      </defs>
      <g>
       <use xlink:href="#mb2d95e9190" x="54.02" y="290.329091" style="stroke: #000000; stroke-width: 0.8"/>
      </g>
     </g>
     <g id="text_11">
      <text style="font: 10px 'sans-serif'; text-anchor: end" x="47.02" y="294.12831" transform="rotate(-0, 47.02, 294.12831)">0.00</text>
     </g>
    </g>
    <g id="ytick_2">
     <g id="line2d_11">
      <g>
       <use xlink:href="#mb2d95e9190" x="54.02" y="254.766087" style="stroke: #000000; stroke-width: 0.8"/>
      </g>
     </g>
     <g id="text_12">
      <text style="font: 10px 'sans-serif'; text-anchor: end" x="47.02" y="258.565305" transform="rotate(-0, 47.02, 258.565305)">0.05</text>
     </g>
    </g>
    <g id="ytick_3">
     <g id="line2d_12">
      <g>
       <use xlink:href="#mb2d95e9190" x="54.02" y="219.203082" style="stroke: #000000; stroke-width: 0.8"/>
      </g>
     </g>
     <g id="text_13">
      <text style="font: 10px 'sans-serif'; text-anchor: end" x="47.02" y="223.002301" transform="rotate(-0, 47.02, 223.002301)">0.10</text>
     </g>
    </g>
    <g id="ytick_4">
     <g id="line2d_13">
      <g>
       <use xlink:href="#mb2d95e9190" x="54.02" y="183.640078" style="stroke: #000000; stroke-width: 0.8"/>
      </g>
     </g>
     <g id="text_14">
      <text style="font: 10px 'sans-serif'; text-anchor: end" x="47.02" y="187.439297" transform="rotate(-0, 47.02, 187.439297)">0.15</text>
     </g>
    </g>
    <g id="ytick_5">
     <g id="line2d_14">
      <g>
       <use xlink:href="#mb2d95e9190" x="54.02" y="148.077074" style="stroke: #000000; stroke-width: 0.8"/>
      </g>
     </g>
     <g id="text_15">
      <text style="font: 10px 'sans-serif'; text-anchor: end" x="47.02" y="151.876293" transform="rotate(-0, 47.02, 151.876293)">0.20</text>
     </g>
    </g>
    <g id="ytick_6">
     <g id="line2d_15">
      <g>
       <use xlink:href="#mb2d95e9190" x="54.02" y="112.51407" style="stroke: #000000; stroke-width: 0.8"/>
      </g>
     </g>
     <g id="text_16">
      <text style="font: 10px 'sans-serif'; text-anchor: end" x="47.02" y="116.313288" transform="rotate(-0, 47.02, 116.313288)">0.25</text>
     </g>
    </g>
    <g id="ytick_7">
     <g id="line2d_16">
      <g>
       <use xlink:href="#mb2d95e9190" x="54.02" y="76.951065" style="stroke: #000000; stroke-width: 0.8"/>
      </g>
     </g>
     <g id="text_17">
      <text style="font: 10px 'sans-serif'; text-anchor: end" x="47.02" y="80.750284" transform="rotate(-0, 47.02, 80.750284)">0.30</text>
     </g>
    </g>
    <g id="ytick_8">
     <g id="line2d_17">
      <g>
       <use xlink:href="#mb2d95e9190" x="54.02" y="41.388061" style="stroke: #000000; stroke-width: 0.8"/>
      </g>
     </g>
     <g id="text_18">
      <text style="font: 10px 'sans-serif'; text-anchor: end" x="47.02" y="45.18728" transform="rotate(-0, 47.02, 45.18728)">0.35</text>
     </g>
    </g>
    <g id="text_19">
     <text style="font: 10px 'sans-serif'; text-anchor: middle" x="18.674688" y="157.22" transform="rotate(-90, 18.674688, 157.22)">failed</text>
    </g>
   </g>
   <g id="patch_3">
    <path d="M 54.02 303.64 
L 54.02 10.8 
" style="fill: none; stroke: #000000; stroke-width: 0.8; stroke-linejoin: miter; stroke-linecap: square"/>
   </g>
   <g id="patch_4">
    <path d="M 450 303.64 
L 450 10.8 
" style="fill: none; stroke: #000000; stroke-width: 0.8; stroke-linejoin: miter; stroke-linecap: square"/>
   </g>
   <g id="patch_5">
    <path d="M 54.02 303.64 
L 450 303.64 
" style="fill: none; stroke: #000000; stroke-width: 0.8; stroke-linejoin: miter; stroke-linecap: square"/>
   </g>
   <g id="patch_6">
    <path d="M 54.02 10.8 
L 450 10.8 
" style="fill: none; stroke: #000000; stroke-width: 0.8; stroke-linejoin: miter; stroke-linecap: square"/>
   </g>
   <g id="legend_1">
    <g id="patch_7">
     <path d="M 362.45 268.328125 
L 443 268.328125 
Q 445 268.328125 445 266.328125 
L 445 17.8 
Q 445 15.8 443 15.8 
L 362.45 15.8 
Q 360.45 15.8 360.45 17.8 
L 360.45 266.328125 
Q 360.45 268.328125 362.45 268.328125 
z
" style="fill: #ffffff; opacity: 0.8; stroke: #cccccc; stroke-linejoin: miter"/>
    </g>
    <g id="text_20">
     <text style="font: 10px 'sans-serif'; text-anchor: start" x="381.613281" y="27.398438" transform="rotate(-0, 381.613281, 27.398438)">detector</text>
    </g>
    <g id="PathCollection_18">
     <defs>
      <path id="meb976ea3d0" d="M 0 3 
C 0.795609 3 1.55874 2.683901 2.12132 2.12132 
C 2.683901 1.55874 3 0.795609 3 0 
C 3 -0.795609 2.683901 -1.55874 2.12132 -2.12132 
C 1.55874 -2.683901 0.795609 -3 0 -3 
C -0.795609 -3 -1.55874 -2.683901 -2.12132 -2.12132 
C -2.683901 -1.55874 -3 -0.795609 -3 0 
C -3 0.795609 -2.683901 1.55874 -2.12132 2.12132 
C -1.55874 2.683901 -0.795609 3 0 3 
z
" style="stroke: #4477aa"/>
     </defs>
     <g>
      <use xlink:href="#meb976ea3d0" x="374.45" y="39.451563" style="fill: #4477aa; stroke: #4477aa"/>
     </g>
    </g>
    <g id="text_21">
     <text style="font: 10px 'sans-serif'; text-anchor: start" x="392.45" y="42.076563" transform="rotate(-0, 392.45, 42.076563)">christ</text>
    </g>
    <g id="PathCollection_19">
     <defs>
      <path id="m555068635a" d="M 0 3 
C 0.795609 3 1.55874 2.683901 2.12132 2.12132 
C 2.683901 1.55874 3 0.795609 3 0 
C 3 -0.795609 2.683901 -1.55874 2.12132 -2.12132 
C 1.55874 -2.683901 0.795609 -3 0 -3 
C -0.795609 -3 -1.55874 -2.683901 -2.12132 -2.12132 
C -2.683901 -1.55874 -3 -0.795609 -3 0 
C -3 0.795609 -2.683901 1.55874 -2.12132 2.12132 
C -1.55874 2.683901 -0.795609 3 0 3 
z
" style="stroke: #ee6677"/>
     </defs>
     <g>
      <use xlink:href="#m555068635a" x="374.45" y="54.129688" style="fill: #ee6677; stroke: #ee6677"/>
     </g>
    </g>
    <g id="text_22">
     <text style="font: 10px 'sans-serif'; text-anchor: start" x="392.45" y="56.754688" transform="rotate(-0, 392.45, 56.754688)">engz</text>
    </g>
    <g id="PathCollection_20">
     <defs>
      <path id="m6843ddccbd" d="M 0 3 
C 0.795609 3 1.55874 2.683901 2.12132 2.12132 
C 2.683901 1.55874 3 0.795609 3 0 
C 3 -0.795609 2.683901 -1.55874 2.12132 -2.12132 
C 1.55874 -2.683901 0.795609 -3 0 -3 
C -0.795609 -3 -1.55874 -2.683901 -2.12132 -2.12132 
C -2.683901 -1.55874 -3 -0.795609 -3 0 
C -3 0.795609 -2.683901 1.55874 -2.12132 2.12132 
C -1.55874 2.683901 -0.795609 3 0 3 
z
" style="stroke: #228833"/>
     </defs>
     <g>
      <use xlink:href="#m6843ddccbd" x="374.45" y="68.807813" style="fill: #228833; stroke: #228833"/>
     </g>
    </g>
    <g id="text_23">
     <text style="font: 10px 'sans-serif'; text-anchor: start" x="392.45" y="71.432813" transform="rotate(-0, 392.45, 71.432813)">gamb</text>
    </g>
    <g id="PathCollection_21">
     <defs>
      <path id="m6c236ae8bc" d="M 0 3 
C 0.795609 3 1.55874 2.683901 2.12132 2.12132 
C 2.683901 1.55874 3 0.795609 3 0 
C 3 -0.795609 2.683901 -1.55874 2.12132 -2.12132 
C 1.55874 -2.683901 0.795609 -3 0 -3 
C -0.795609 -3 -1.55874 -2.683901 -2.12132 -2.12132 
C -2.683901 -1.55874 -3 -0.795609 -3 0 
C -3 0.795609 -2.683901 1.55874 -2.12132 2.12132 
C -1.55874 2.683901 -0.795609 3 0 3 
z
" style="stroke: #ccbb44"/>
     </defs>
     <g>
      <use xlink:href="#m6c236ae8bc" x="374.45" y="83.485938" style="fill: #ccbb44; stroke: #ccbb44"/>
     </g>
    </g>
    <g id="text_24">
     <text style="font: 10px 'sans-serif'; text-anchor: start" x="392.45" y="86.110938" transform="rotate(-0, 392.45, 86.110938)">gqrs</text>
    </g>
    <g id="PathCollection_22">
     <defs>
      <path id="m29cea6a8ff" d="M 0 3 
C 0.795609 3 1.55874 2.683901 2.12132 2.12132 
C 2.683901 1.55874 3 0.795609 3 0 
C 3 -0.795609 2.683901 -1.55874 2.12132 -2.12132 
C 1.55874 -2.683901 0.795609 -3 0 -3 
C -0.795609 -3 -1.55874 -2.683901 -2.12132 -2.12132 
C -2.683901 -1.55874 -3 -0.795609 -3 0 
C -3 0.795609 -2.683901 1.55874 -2.12132 2.12132 
C -1.55874 2.683901 -0.795609 3 0 3 
z
" style="stroke: #66ccee"/>
     </defs>
     <g>
      <use xlink:href="#m29cea6a8ff" x="374.45" y="98.164063" style="fill: #66ccee; stroke: #66ccee"/>
     </g>
    </g>
    <g id="text_25">
     <text style="font: 10px 'sans-serif'; text-anchor: start" x="392.45" y="100.789063" transform="rotate(-0, 392.45, 100.789063)">hamilt</text>
    </g>
    <g id="PathCollection_23">
     <defs>
      <path id="m966ad44e91" d="M 0 3 
C 0.795609 3 1.55874 2.683901 2.12132 2.12132 
C 2.683901 1.55874 3 0.795609 3 0 
C 3 -0.795609 2.683901 -1.55874 2.12132 -2.12132 
C 1.55874 -2.683901 0.795609 -3 0 -3 
C -0.795609 -3 -1.55874 -2.683901 -2.12132 -2.12132 
C -2.683901 -1.55874 -3 -0.795609 -3 0 
C -3 0.795609 -2.683901 1.55874 -2.12132 2.12132 
C -1.55874 2.683901 -0.795609 3 0 3 
z
" style="stroke: #aa3377"/>
     </defs>
     <g>
      <use xlink:href="#m966ad44e91" x="374.45" y="112.842188" style="fill: #aa3377; stroke: #aa3377"/>
     </g>
    </g>
    <g id="text_26">
     <text style="font: 10px 'sans-serif'; text-anchor: start" x="392.45" y="115.467188" transform="rotate(-0, 392.45, 115.467188)">jqrs</text>
    </g>
    <g id="PathCollection_24">
     <defs>
      <path id="m91e81b53b9" d="M 0 3 
C 0.795609 3 1.55874 2.683901 2.12132 2.12132 
C 2.683901 1.55874 3 0.795609 3 0 
C 3 -0.795609 2.683901 -1.55874 2.12132 -2.12132 
C 1.55874 -2.683901 0.795609 -3 0 -3 
C -0.795609 -3 -1.55874 -2.683901 -2.12132 -2.12132 
C -2.683901 -1.55874 -3 -0.795609 -3 0 
C -3 0.795609 -2.683901 1.55874 -2.12132 2.12132 
C -1.55874 2.683901 -0.795609 3 0 3 
z
" style="stroke: #bbbbbb"/>
     </defs>
     <g>
      <use xlink:href="#m91e81b53b9" x="374.45" y="127.520313" style="fill: #bbbbbb; stroke: #bbbbbb"/>
     </g>
    </g>
    <g id="text_27">
     <text style="font: 10px 'sans-serif'; text-anchor: start" x="392.45" y="130.145313" transform="rotate(-0, 392.45, 130.145313)">kali</text>
    </g>
    <g id="PathCollection_25">
     <defs>
      <path id="m63413586b4" d="M 0 3 
C 0.795609 3 1.55874 2.683901 2.12132 2.12132 
C 2.683901 1.55874 3 0.795609 3 0 
C 3 -0.795609 2.683901 -1.55874 2.12132 -2.12132 
C 1.55874 -2.683901 0.795609 -3 0 -3 
C -0.795609 -3 -1.55874 -2.683901 -2.12132 -2.12132 
C -2.683901 -1.55874 -3 -0.795609 -3 0 
C -3 0.795609 -2.683901 1.55874 -2.12132 2.12132 
C -1.55874 2.683901 -0.795609 3 0 3 
z
" style="stroke: #77aadd"/>
     </defs>
     <g>
      <use xlink:href="#m63413586b4" x="374.45" y="142.198438" style="fill: #77aadd; stroke: #77aadd"/>
     </g>
    </g>
    <g id="text_28">
     <text style="font: 10px 'sans-serif'; text-anchor: start" x="392.45" y="144.823438" transform="rotate(-0, 392.45, 144.823438)">mart</text>
    </g>
    <g id="PathCollection_26">
     <defs>
      <path id="mcf3864753f" d="M 0 3 
C 0.795609 3 1.55874 2.683901 2.12132 2.12132 
C 2.683901 1.55874 3 0.795609 3 0 
C 3 -0.795609 2.683901 -1.55874 2.12132 -2.12132 
C 1.55874 -2.683901 0.795609 -3 0 -3 
C -0.795609 -3 -1.55874 -2.683901 -2.12132 -2.12132 
C -2.683901 -1.55874 -3 -0.795609 -3 0 
C -3 0.795609 -2.683901 1.55874 -2.12132 2.12132 
C -1.55874 2.683901 -0.795609 3 0 3 
z
" style="stroke: #ee8866"/>
     </defs>
     <g>
      <use xlink:href="#mcf3864753f" x="374.45" y="156.876563" style="fill: #ee8866; stroke: #ee8866"/>
     </g>
    </g>
    <g id="text_29">
     <text style="font: 10px 'sans-serif'; text-anchor: start" x="392.45" y="159.501563" transform="rotate(-0, 392.45, 159.501563)">nab</text>
    </g>
    <g id="PathCollection_27">
     <defs>
      <path id="md50644f394" d="M 0 3 
C 0.795609 3 1.55874 2.683901 2.12132 2.12132 
C 2.683901 1.55874 3 0.795609 3 0 
C 3 -0.795609 2.683901 -1.55874 2.12132 -2.12132 
C 1.55874 -2.683901 0.795609 -3 0 -3 
C -0.795609 -3 -1.55874 -2.683901 -2.12132 -2.12132 
C -2.683901 -1.55874 -3 -0.795609 -3 0 
C -3 0.795609 -2.683901 1.55874 -2.12132 2.12132 
C -1.55874 2.683901 -0.795609 3 0 3 
z
" style="stroke: #eedd88"/>
     </defs>
     <g>
      <use xlink:href="#md50644f394" x="374.45" y="171.554688" style="fill: #eedd88; stroke: #eedd88"/>
     </g>
    </g>
    <g id="text_30">
     <text style="font: 10px 'sans-serif'; text-anchor: start" x="392.45" y="174.179688" transform="rotate(-0, 392.45, 174.179688)">nk</text>
    </g>
    <g id="PathCollection_28">
     <defs>
      <path id="m4bdb462db6" d="M 0 3 
C 0.795609 3 1.55874 2.683901 2.12132 2.12132 
C 2.683901 1.55874 3 0.795609 3 0 
C 3 -0.795609 2.683901 -1.55874 2.12132 -2.12132 
C 1.55874 -2.683901 0.795609 -3 0 -3 
C -0.795609 -3 -1.55874 -2.683901 -2.12132 -2.12132 
C -2.683901 -1.55874 -3 -0.795609 -3 0 
C -3 0.795609 -2.683901 1.55874 -2.12132 2.12132 
C -1.55874 2.683901 -0.795609 3 0 3 
z
" style="stroke: #ffaabb"/>
     </defs>
     <g>
      <use xlink:href="#m4bdb462db6" x="374.45" y="186.232813" style="fill: #ffaabb; stroke: #ffaabb"/>
     </g>
    </g>
    <g id="text_31">
     <text style="font: 10px 'sans-serif'; text-anchor: start" x="392.45" y="188.857813" transform="rotate(-0, 392.45, 188.857813)">pan-tomp</text>
    </g>
    <g id="PathCollection_29">
     <defs>
      <path id="m197504a088" d="M 0 3 
C 0.795609 3 1.55874 2.683901 2.12132 2.12132 
C 2.683901 1.55874 3 0.795609 3 0 
C 3 -0.795609 2.683901 -1.55874 2.12132 -2.12132 
C 1.55874 -2.683901 0.795609 -3 0 -3 
C -0.795609 -3 -1.55874 -2.683901 -2.12132 -2.12132 
C -2.683901 -1.55874 -3 -0.795609 -3 0 
C -3 0.795609 -2.683901 1.55874 -2.12132 2.12132 
C -1.55874 2.683901 -0.795609 3 0 3 
z
" style="stroke: #99ddff"/>
     </defs>
     <g>
      <use xlink:href="#m197504a088" x="374.45" y="200.910938" style="fill: #99ddff; stroke: #99ddff"/>
     </g>
    </g>
    <g id="text_32">
     <text style="font: 10px 'sans-serif'; text-anchor: start" x="392.45" y="203.535938" transform="rotate(-0, 392.45, 203.535938)">rdeco</text>
    </g>
    <g id="PathCollection_30">
     <defs>
      <path id="m7727bd6138" d="M 0 3 
C 0.795609 3 1.55874 2.683901 2.12132 2.12132 
C 2.683901 1.55874 3 0.795609 3 0 
C 3 -0.795609 2.683901 -1.55874 2.12132 -2.12132 
C 1.55874 -2.683901 0.795609 -3 0 -3 
C -0.795609 -3 -1.55874 -2.683901 -2.12132 -2.12132 
C -2.683901 -1.55874 -3 -0.795609 -3 0 
C -3 0.795609 -2.683901 1.55874 -2.12132 2.12132 
C -1.55874 2.683901 -0.795609 3 0 3 
z
" style="stroke: #44bb99"/>
     </defs>
     <g>
      <use xlink:href="#m7727bd6138" x="374.45" y="215.589063" style="fill: #44bb99; stroke: #44bb99"/>
     </g>
    </g>
    <g id="text_33">
     <text style="font: 10px 'sans-serif'; text-anchor: start" x="392.45" y="218.214063" transform="rotate(-0, 392.45, 218.214063)">rpeak</text>
    </g>
    <g id="PathCollection_31">
     <defs>
      <path id="m5809362784" d="M 0 3 
C 0.795609 3 1.55874 2.683901 2.12132 2.12132 
C 2.683901 1.55874 3 0.795609 3 0 
C 3 -0.795609 2.683901 -1.55874 2.12132 -2.12132 
C 1.55874 -2.683901 0.795609 -3 0 -3 
C -0.795609 -3 -1.55874 -2.683901 -2.12132 -2.12132 
C -2.683901 -1.55874 -3 -0.795609 -3 0 
C -3 0.795609 -2.683901 1.55874 -2.12132 2.12132 
C -1.55874 2.683901 -0.795609 3 0 3 
z
" style="stroke: #bbcc33"/>
     </defs>
     <g>
      <use xlink:href="#m5809362784" x="374.45" y="230.267188" style="fill: #bbcc33; stroke: #bbcc33"/>
     </g>
    </g>
    <g id="text_34">
     <text style="font: 10px 'sans-serif'; text-anchor: start" x="392.45" y="232.892188" transform="rotate(-0, 392.45, 232.892188)">two-avg</text>
    </g>
    <g id="PathCollection_32">
     <defs>
      <path id="m29109e81cf" d="M 0 3 
C 0.795609 3 1.55874 2.683901 2.12132 2.12132 
C 2.683901 1.55874 3 0.795609 3 0 
C 3 -0.795609 2.683901 -1.55874 2.12132 -2.12132 
C 1.55874 -2.683901 0.795609 -3 0 -3 
C -0.795609 -3 -1.55874 -2.683901 -2.12132 -2.12132 
C -2.683901 -1.55874 -3 -0.795609 -3 0 
C -3 0.795609 -2.683901 1.55874 -2.12132 2.12132 
C -1.55874 2.683901 -0.795609 3 0 3 
z
" style="stroke: #aaaa00"/>
     </defs>
     <g>
      <use xlink:href="#m29109e81cf" x="374.45" y="244.945313" style="fill: #aaaa00; stroke: #aaaa00"/>
     </g>
    </g>
    <g id="text_35">
     <text style="font: 10px 'sans-serif'; text-anchor: start" x="392.45" y="247.570313" transform="rotate(-0, 392.45, 247.570313)">unsw</text>
    </g>
    <g id="PathCollection_33">
     <defs>
      <path id="medb058ceac" d="M 0 3 
C 0.795609 3 1.55874 2.683901 2.12132 2.12132 
C 2.683901 1.55874 3 0.795609 3 0 
C 3 -0.795609 2.683901 -1.55874 2.12132 -2.12132 
C 1.55874 -2.683901 0.795609 -3 0 -3 
C -0.795609 -3 -1.55874 -2.683901 -2.12132 -2.12132 
C -2.683901 -1.55874 -3 -0.795609 -3 0 
C -3 0.795609 -2.683901 1.55874 -2.12132 2.12132 
C -1.55874 2.683901 -0.795609 3 0 3 
z
" style="stroke: #dddddd"/>
     </defs>
     <g>
      <use xlink:href="#medb058ceac" x="374.45" y="259.623438" style="fill: #dddddd; stroke: #dddddd"/>
     </g>
    </g>
    <g id="text_36">
     <text style="font: 10px 'sans-serif'; text-anchor: start" x="392.45" y="262.248438" transform="rotate(-0, 392.45, 262.248438)">wqrs</text>
    </g>
   </g>
  </g>
 </g>
 <defs>
  <clipPath id="pdb4a637538">
   <rect x="54.02" y="10.8" width="395.98" height="292.84"/>
  </clipPath>
 </defs>
</svg>
