<?xml version="1.0" encoding="utf-8" standalone="no"?>
<!DOCTYPE svg PUBLIC "-//W3C//DTD SVG 1.1//EN"
  "http://www.w3.org/Graphics/SVG/1.1/DTD/svg11.dtd">
<svg xmlns:xlink="http://www.w3.org/1999/xlink" width="460.8pt" height="345.6pt" viewBox="0 0 460.8 345.6" xmlns="http://www.w3.org/2000/svg" version="1.1">
 <metadata>
  <rdf:RDF xmlns:dc="http://purl.org/dc/elements/1.1/" xmlns:cc="http://creativecommons.org/ns#" xmlns:rdf="http://www.w3.org/1999/02/22-rdf-syntax-ns#">
   <cc:Work>
    <dc:type rdf:resource="http://purl.org/dc/dcmitype/StillImage"/>
    <dc:date>2022-12-04T18:21:09.599035</dc:date>
    <dc:format>image/svg+xml</dc:format>
    <dc:creator>
     <cc:Agent>
      <dc:title>Matplotlib v3.5.3, https://matplotlib.org/</dc:title>
     </cc:Agent>
    </dc:creator>
   </cc:Work>
  </rdf:RDF>
 </metadata>
 <defs>
  <style type="text/css">*{stroke-linejoin: round; stroke-linecap: butt}</style>
 </defs>
 <g id="figure_1">
  <g id="patch_1">
   <path d="M 0 345.6 
L 460.8 345.6 
L 460.8 0 
L 0 0 
z
" style="fill: #ffffff"/>
  </g>
  <g id="axes_1">
   <g id="patch_2">
    <path d="M 54.02 265.12 
L 450 265.12 
L 450 10.8 
L 54.02 10.8 
z
" style="fill: #ffffff"/>
   </g>
   <g id="patch_3">
    <path d="M 56.494875 265.12 
L 60.454675 265.12 
L 60.454675 265.12 
L 56.494875 265.12 
z
" clip-path="url(#p2b4968e257)" style="fill: #4477aa; stroke: #000000; stroke-width: 0.5; stroke-linejoin: miter"/>
   </g>
   <g id="patch_4">
    <path d="M 81.243625 265.12 
L 85.203425 265.12 
L 85.203425 264.913441 
L 81.243625 264.913441 
z
" clip-path="url(#p2b4968e257)" style="fill: #4477aa; stroke: #000000; stroke-width: 0.5; stroke-linejoin: miter"/>
   </g>
   <g id="patch_5">
    <path d="M 105.992375 265.12 
L 109.952175 265.12 
L 109.952175 265.12 
L 105.992375 265.12 
z
" clip-path="url(#p2b4968e257)" style="fill: #4477aa; stroke: #000000; stroke-width: 0.5; stroke-linejoin: miter"/>
   </g>
   <g id="patch_6">
    <path d="M 130.741125 265.12 
L 134.700925 265.12 
L 134.700925 265.12 
L 130.741125 265.12 
z
" clip-path="url(#p2b4968e257)" style="fill: #4477aa; stroke: #000000; stroke-width: 0.5; stroke-linejoin: miter"/>
   </g>
   <g id="patch_7">
    <path d="M 155.489875 265.12 
L 159.449675 265.12 
L 159.449675 265.12 
L 155.489875 265.12 
z
" clip-path="url(#p2b4968e257)" style="fill: #4477aa; stroke: #000000; stroke-width: 0.5; stroke-linejoin: miter"/>
   </g>
   <g id="patch_8">
    <path d="M 180.238625 265.12 
L 184.198425 265.12 
L 184.198425 265.12 
L 180.238625 265.12 
z
" clip-path="url(#p2b4968e257)" style="fill: #4477aa; stroke: #000000; stroke-width: 0.5; stroke-linejoin: miter"/>
   </g>
   <g id="patch_9">
    <path d="M 204.987375 265.12 
L 208.947175 265.12 
L 208.947175 265.12 
L 204.987375 265.12 
z
" clip-path="url(#p2b4968e257)" style="fill: #4477aa; stroke: #000000; stroke-width: 0.5; stroke-linejoin: miter"/>
   </g>
   <g id="patch_10">
    <path d="M 229.736125 265.12 
L 233.695925 265.12 
L 233.695925 265.12 
L 229.736125 265.12 
z
" clip-path="url(#p2b4968e257)" style="fill: #4477aa; stroke: #000000; stroke-width: 0.5; stroke-linejoin: miter"/>
   </g>
   <g id="patch_11">
    <path d="M 254.484875 265.12 
L 258.444675 265.12 
L 258.444675 265.12 
L 254.484875 265.12 
z
" clip-path="url(#p2b4968e257)" style="fill: #4477aa; stroke: #000000; stroke-width: 0.5; stroke-linejoin: miter"/>
   </g>
   <g id="patch_12">
    <path d="M 279.233625 265.12 
L 283.193425 265.12 
L 283.193425 265.12 
L 279.233625 265.12 
z
" clip-path="url(#p2b4968e257)" style="fill: #4477aa; stroke: #000000; stroke-width: 0.5; stroke-linejoin: miter"/>
   </g>
   <g id="patch_13">
    <path d="M 303.982375 265.12 
L 307.942175 265.12 
L 307.942175 265.12 
L 303.982375 265.12 
z
" clip-path="url(#p2b4968e257)" style="fill: #4477aa; stroke: #000000; stroke-width: 0.5; stroke-linejoin: miter"/>
   </g>
   <g id="patch_14">
    <path d="M 328.731125 265.12 
L 332.690925 265.12 
L 332.690925 265.12 
L 328.731125 265.12 
z
" clip-path="url(#p2b4968e257)" style="fill: #4477aa; stroke: #000000; stroke-width: 0.5; stroke-linejoin: miter"/>
   </g>
   <g id="patch_15">
    <path d="M 353.479875 265.12 
L 357.439675 265.12 
L 357.439675 264.982294 
L 353.479875 264.982294 
z
" clip-path="url(#p2b4968e257)" style="fill: #4477aa; stroke: #000000; stroke-width: 0.5; stroke-linejoin: miter"/>
   </g>
   <g id="patch_16">
    <path d="M 378.228625 265.12 
L 382.188425 265.12 
L 382.188425 265.12 
L 378.228625 265.12 
z
" clip-path="url(#p2b4968e257)" style="fill: #4477aa; stroke: #000000; stroke-width: 0.5; stroke-linejoin: miter"/>
   </g>
   <g id="patch_17">
    <path d="M 402.977375 265.12 
L 406.937175 265.12 
L 406.937175 265.12 
L 402.977375 265.12 
z
" clip-path="url(#p2b4968e257)" style="fill: #4477aa; stroke: #000000; stroke-width: 0.5; stroke-linejoin: miter"/>
   </g>
   <g id="patch_18">
    <path d="M 427.726125 265.12 
L 431.685925 265.12 
L 431.685925 265.12 
L 427.726125 265.12 
z
" clip-path="url(#p2b4968e257)" style="fill: #4477aa; stroke: #000000; stroke-width: 0.5; stroke-linejoin: miter"/>
   </g>
   <g id="patch_19">
    <path d="M 60.454675 265.12 
L 64.414475 265.12 
L 64.414475 265.12 
L 60.454675 265.12 
z
" clip-path="url(#p2b4968e257)" style="fill: #ee6677; stroke: #000000; stroke-width: 0.5; stroke-linejoin: miter"/>
   </g>
   <g id="patch_20">
    <path d="M 85.203425 265.12 
L 89.163225 265.12 
L 89.163225 261.170642 
L 85.203425 261.170642 
z
" clip-path="url(#p2b4968e257)" style="fill: #ee6677; stroke: #000000; stroke-width: 0.5; stroke-linejoin: miter"/>
   </g>
   <g id="patch_21">
    <path d="M 109.952175 265.12 
L 113.911975 265.12 
L 113.911975 265.12 
L 109.952175 265.12 
z
" clip-path="url(#p2b4968e257)" style="fill: #ee6677; stroke: #000000; stroke-width: 0.5; stroke-linejoin: miter"/>
   </g>
   <g id="patch_22">
    <path d="M 134.700925 265.12 
L 138.660725 265.12 
L 138.660725 265.12 
L 134.700925 265.12 
z
" clip-path="url(#p2b4968e257)" style="fill: #ee6677; stroke: #000000; stroke-width: 0.5; stroke-linejoin: miter"/>
   </g>
   <g id="patch_23">
    <path d="M 159.449675 265.12 
L 163.409475 265.12 
L 163.409475 265.12 
L 159.449675 265.12 
z
" clip-path="url(#p2b4968e257)" style="fill: #ee6677; stroke: #000000; stroke-width: 0.5; stroke-linejoin: miter"/>
   </g>
   <g id="patch_24">
    <path d="M 184.198425 265.12 
L 188.158225 265.12 
L 188.158225 265.12 
L 184.198425 265.12 
z
" clip-path="url(#p2b4968e257)" style="fill: #ee6677; stroke: #000000; stroke-width: 0.5; stroke-linejoin: miter"/>
   </g>
   <g id="patch_25">
    <path d="M 208.947175 265.12 
L 212.906975 265.12 
L 212.906975 265.12 
L 208.947175 265.12 
z
" clip-path="url(#p2b4968e257)" style="fill: #ee6677; stroke: #000000; stroke-width: 0.5; stroke-linejoin: miter"/>
   </g>
   <g id="patch_26">
    <path d="M 233.695925 265.12 
L 237.655725 265.12 
L 237.655725 265.12 
L 233.695925 265.12 
z
" clip-path="url(#p2b4968e257)" style="fill: #ee6677; stroke: #000000; stroke-width: 0.5; stroke-linejoin: miter"/>
   </g>
   <g id="patch_27">
    <path d="M 258.444675 265.12 
L 262.404475 265.12 
L 262.404475 265.12 
L 258.444675 265.12 
z
" clip-path="url(#p2b4968e257)" style="fill: #ee6677; stroke: #000000; stroke-width: 0.5; stroke-linejoin: miter"/>
   </g>
   <g id="patch_28">
    <path d="M 283.193425 265.12 
L 287.153225 265.12 
L 287.153225 265.12 
L 283.193425 265.12 
z
" clip-path="url(#p2b4968e257)" style="fill: #ee6677; stroke: #000000; stroke-width: 0.5; stroke-linejoin: miter"/>
   </g>
   <g id="patch_29">
    <path d="M 307.942175 265.12 
L 311.901975 265.12 
L 311.901975 265.12 
L 307.942175 265.12 
z
" clip-path="url(#p2b4968e257)" style="fill: #ee6677; stroke: #000000; stroke-width: 0.5; stroke-linejoin: miter"/>
   </g>
   <g id="patch_30">
    <path d="M 332.690925 265.12 
L 336.650725 265.12 
L 336.650725 265.12 
L 332.690925 265.12 
z
" clip-path="url(#p2b4968e257)" style="fill: #ee6677; stroke: #000000; stroke-width: 0.5; stroke-linejoin: miter"/>
   </g>
   <g id="patch_31">
    <path d="M 357.439675 265.12 
L 361.399475 265.12 
L 361.399475 265.12 
L 357.439675 265.12 
z
" clip-path="url(#p2b4968e257)" style="fill: #ee6677; stroke: #000000; stroke-width: 0.5; stroke-linejoin: miter"/>
   </g>
   <g id="patch_32">
    <path d="M 382.188425 265.12 
L 386.148225 265.12 
L 386.148225 265.12 
L 382.188425 265.12 
z
" clip-path="url(#p2b4968e257)" style="fill: #ee6677; stroke: #000000; stroke-width: 0.5; stroke-linejoin: miter"/>
   </g>
   <g id="patch_33">
    <path d="M 406.937175 265.12 
L 410.896975 265.12 
L 410.896975 265.12 
L 406.937175 265.12 
z
" clip-path="url(#p2b4968e257)" style="fill: #ee6677; stroke: #000000; stroke-width: 0.5; stroke-linejoin: miter"/>
   </g>
   <g id="patch_34">
    <path d="M 431.685925 265.12 
L 435.645725 265.12 
L 435.645725 265.12 
L 431.685925 265.12 
z
" clip-path="url(#p2b4968e257)" style="fill: #ee6677; stroke: #000000; stroke-width: 0.5; stroke-linejoin: miter"/>
   </g>
   <g id="patch_35">
    <path d="M 64.414475 265.12 
L 68.374275 265.12 
L 68.374275 265.12 
L 64.414475 265.12 
z
" clip-path="url(#p2b4968e257)" style="fill: #228833; stroke: #000000; stroke-width: 0.5; stroke-linejoin: miter"/>
   </g>
   <g id="patch_36">
    <path d="M 89.163225 265.12 
L 93.123025 265.12 
L 93.123025 265.12 
L 89.163225 265.12 
z
" clip-path="url(#p2b4968e257)" style="fill: #228833; stroke: #000000; stroke-width: 0.5; stroke-linejoin: miter"/>
   </g>
   <g id="patch_37">
    <path d="M 113.911975 265.12 
L 117.871775 265.12 
L 117.871775 265.12 
L 113.911975 265.12 
z
" clip-path="url(#p2b4968e257)" style="fill: #228833; stroke: #000000; stroke-width: 0.5; stroke-linejoin: miter"/>
   </g>
   <g id="patch_38">
    <path d="M 138.660725 265.12 
L 142.620525 265.12 
L 142.620525 265.12 
L 138.660725 265.12 
z
" clip-path="url(#p2b4968e257)" style="fill: #228833; stroke: #000000; stroke-width: 0.5; stroke-linejoin: miter"/>
   </g>
   <g id="patch_39">
    <path d="M 163.409475 265.12 
L 167.369275 265.12 
L 167.369275 265.12 
L 163.409475 265.12 
z
" clip-path="url(#p2b4968e257)" style="fill: #228833; stroke: #000000; stroke-width: 0.5; stroke-linejoin: miter"/>
   </g>
   <g id="patch_40">
    <path d="M 188.158225 265.12 
L 192.118025 265.12 
L 192.118025 237.598735 
L 188.158225 237.598735 
z
" clip-path="url(#p2b4968e257)" style="fill: #228833; stroke: #000000; stroke-width: 0.5; stroke-linejoin: miter"/>
   </g>
   <g id="patch_41">
    <path d="M 212.906975 265.12 
L 216.866775 265.12 
L 216.866775 265.12 
L 212.906975 265.12 
z
" clip-path="url(#p2b4968e257)" style="fill: #228833; stroke: #000000; stroke-width: 0.5; stroke-linejoin: miter"/>
   </g>
   <g id="patch_42">
    <path d="M 237.655725 265.12 
L 241.615525 265.12 
L 241.615525 265.12 
L 237.655725 265.12 
z
" clip-path="url(#p2b4968e257)" style="fill: #228833; stroke: #000000; stroke-width: 0.5; stroke-linejoin: miter"/>
   </g>
   <g id="patch_43">
    <path d="M 262.404475 265.12 
L 266.364275 265.12 
L 266.364275 265.12 
L 262.404475 265.12 
z
" clip-path="url(#p2b4968e257)" style="fill: #228833; stroke: #000000; stroke-width: 0.5; stroke-linejoin: miter"/>
   </g>
   <g id="patch_44">
    <path d="M 287.153225 265.12 
L 291.113025 265.12 
L 291.113025 265.12 
L 287.153225 265.12 
z
" clip-path="url(#p2b4968e257)" style="fill: #228833; stroke: #000000; stroke-width: 0.5; stroke-linejoin: miter"/>
   </g>
   <g id="patch_45">
    <path d="M 311.901975 265.12 
L 315.861775 265.12 
L 315.861775 265.12 
L 311.901975 265.12 
z
" clip-path="url(#p2b4968e257)" style="fill: #228833; stroke: #000000; stroke-width: 0.5; stroke-linejoin: miter"/>
   </g>
   <g id="patch_46">
    <path d="M 336.650725 265.12 
L 340.610525 265.12 
L 340.610525 265.12 
L 336.650725 265.12 
z
" clip-path="url(#p2b4968e257)" style="fill: #228833; stroke: #000000; stroke-width: 0.5; stroke-linejoin: miter"/>
   </g>
   <g id="patch_47">
    <path d="M 361.399475 265.12 
L 365.359275 265.12 
L 365.359275 264.498051 
L 361.399475 264.498051 
z
" clip-path="url(#p2b4968e257)" style="fill: #228833; stroke: #000000; stroke-width: 0.5; stroke-linejoin: miter"/>
   </g>
   <g id="patch_48">
    <path d="M 386.148225 265.12 
L 390.108025 265.12 
L 390.108025 265.12 
L 386.148225 265.12 
z
" clip-path="url(#p2b4968e257)" style="fill: #228833; stroke: #000000; stroke-width: 0.5; stroke-linejoin: miter"/>
   </g>
   <g id="patch_49">
    <path d="M 410.896975 265.12 
L 414.856775 265.12 
L 414.856775 265.12 
L 410.896975 265.12 
z
" clip-path="url(#p2b4968e257)" style="fill: #228833; stroke: #000000; stroke-width: 0.5; stroke-linejoin: miter"/>
   </g>
   <g id="patch_50">
    <path d="M 435.645725 265.12 
L 439.605525 265.12 
L 439.605525 265.12 
L 435.645725 265.12 
z
" clip-path="url(#p2b4968e257)" style="fill: #228833; stroke: #000000; stroke-width: 0.5; stroke-linejoin: miter"/>
   </g>
   <g id="patch_51">
    <path d="M 68.374275 265.12 
L 72.334075 265.12 
L 72.334075 265.12 
L 68.374275 265.12 
z
" clip-path="url(#p2b4968e257)" style="fill: #ccbb44; stroke: #000000; stroke-width: 0.5; stroke-linejoin: miter"/>
   </g>
   <g id="patch_52">
    <path d="M 93.123025 265.12 
L 97.082825 265.12 
L 97.082825 236.409343 
L 93.123025 236.409343 
z
" clip-path="url(#p2b4968e257)" style="fill: #ccbb44; stroke: #000000; stroke-width: 0.5; stroke-linejoin: miter"/>
   </g>
   <g id="patch_53">
    <path d="M 117.871775 265.12 
L 121.831575 265.12 
L 121.831575 257.630263 
L 117.871775 257.630263 
z
" clip-path="url(#p2b4968e257)" style="fill: #ccbb44; stroke: #000000; stroke-width: 0.5; stroke-linejoin: miter"/>
   </g>
   <g id="patch_54">
    <path d="M 142.620525 265.12 
L 146.580325 265.12 
L 146.580325 265.12 
L 142.620525 265.12 
z
" clip-path="url(#p2b4968e257)" style="fill: #ccbb44; stroke: #000000; stroke-width: 0.5; stroke-linejoin: miter"/>
   </g>
   <g id="patch_55">
    <path d="M 167.369275 265.12 
L 171.329075 265.12 
L 171.329075 265.12 
L 167.369275 265.12 
z
" clip-path="url(#p2b4968e257)" style="fill: #ccbb44; stroke: #000000; stroke-width: 0.5; stroke-linejoin: miter"/>
   </g>
   <g id="patch_56">
    <path d="M 192.118025 265.12 
L 196.077825 265.12 
L 196.077825 244.612388 
L 192.118025 244.612388 
z
" clip-path="url(#p2b4968e257)" style="fill: #ccbb44; stroke: #000000; stroke-width: 0.5; stroke-linejoin: miter"/>
   </g>
   <g id="patch_57">
    <path d="M 216.866775 265.12 
L 220.826575 265.12 
L 220.826575 265.12 
L 216.866775 265.12 
z
" clip-path="url(#p2b4968e257)" style="fill: #ccbb44; stroke: #000000; stroke-width: 0.5; stroke-linejoin: miter"/>
   </g>
   <g id="patch_58">
    <path d="M 241.615525 265.12 
L 245.575325 265.12 
L 245.575325 265.12 
L 241.615525 265.12 
z
" clip-path="url(#p2b4968e257)" style="fill: #ccbb44; stroke: #000000; stroke-width: 0.5; stroke-linejoin: miter"/>
   </g>
   <g id="patch_59">
    <path d="M 266.364275 265.12 
L 270.324075 265.12 
L 270.324075 265.12 
L 266.364275 265.12 
z
" clip-path="url(#p2b4968e257)" style="fill: #ccbb44; stroke: #000000; stroke-width: 0.5; stroke-linejoin: miter"/>
   </g>
   <g id="patch_60">
    <path d="M 291.113025 265.12 
L 295.072825 265.12 
L 295.072825 265.12 
L 291.113025 265.12 
z
" clip-path="url(#p2b4968e257)" style="fill: #ccbb44; stroke: #000000; stroke-width: 0.5; stroke-linejoin: miter"/>
   </g>
   <g id="patch_61">
    <path d="M 315.861775 265.12 
L 319.821575 265.12 
L 319.821575 265.12 
L 315.861775 265.12 
z
" clip-path="url(#p2b4968e257)" style="fill: #ccbb44; stroke: #000000; stroke-width: 0.5; stroke-linejoin: miter"/>
   </g>
   <g id="patch_62">
    <path d="M 340.610525 265.12 
L 344.570325 265.12 
L 344.570325 263.515056 
L 340.610525 263.515056 
z
" clip-path="url(#p2b4968e257)" style="fill: #ccbb44; stroke: #000000; stroke-width: 0.5; stroke-linejoin: miter"/>
   </g>
   <g id="patch_63">
    <path d="M 365.359275 265.12 
L 369.319075 265.12 
L 369.319075 252.458779 
L 365.359275 252.458779 
z
" clip-path="url(#p2b4968e257)" style="fill: #ccbb44; stroke: #000000; stroke-width: 0.5; stroke-linejoin: miter"/>
   </g>
   <g id="patch_64">
    <path d="M 390.108025 265.12 
L 394.067825 265.12 
L 394.067825 265.12 
L 390.108025 265.12 
z
" clip-path="url(#p2b4968e257)" style="fill: #ccbb44; stroke: #000000; stroke-width: 0.5; stroke-linejoin: miter"/>
   </g>
   <g id="patch_65">
    <path d="M 414.856775 265.12 
L 418.816575 265.12 
L 418.816575 265.12 
L 414.856775 265.12 
z
" clip-path="url(#p2b4968e257)" style="fill: #ccbb44; stroke: #000000; stroke-width: 0.5; stroke-linejoin: miter"/>
   </g>
   <g id="patch_66">
    <path d="M 439.605525 265.12 
L 443.565325 265.12 
L 443.565325 265.12 
L 439.605525 265.12 
z
" clip-path="url(#p2b4968e257)" style="fill: #ccbb44; stroke: #000000; stroke-width: 0.5; stroke-linejoin: miter"/>
   </g>
   <g id="patch_67">
    <path d="M 72.334075 265.12 
L 76.293875 265.12 
L 76.293875 265.12 
L 72.334075 265.12 
z
" clip-path="url(#p2b4968e257)" style="fill: #66ccee; stroke: #000000; stroke-width: 0.5; stroke-linejoin: miter"/>
   </g>
   <g id="patch_68">
    <path d="M 97.082825 265.12 
L 101.042625 265.12 
L 101.042625 22.910476 
L 97.082825 22.910476 
z
" clip-path="url(#p2b4968e257)" style="fill: #66ccee; stroke: #000000; stroke-width: 0.5; stroke-linejoin: miter"/>
   </g>
   <g id="patch_69">
    <path d="M 121.831575 265.12 
L 125.791375 265.12 
L 125.791375 265.12 
L 121.831575 265.12 
z
" clip-path="url(#p2b4968e257)" style="fill: #66ccee; stroke: #000000; stroke-width: 0.5; stroke-linejoin: miter"/>
   </g>
   <g id="patch_70">
    <path d="M 146.580325 265.12 
L 150.540125 265.12 
L 150.540125 265.12 
L 146.580325 265.12 
z
" clip-path="url(#p2b4968e257)" style="fill: #66ccee; stroke: #000000; stroke-width: 0.5; stroke-linejoin: miter"/>
   </g>
   <g id="patch_71">
    <path d="M 171.329075 265.12 
L 175.288875 265.12 
L 175.288875 265.12 
L 171.329075 265.12 
z
" clip-path="url(#p2b4968e257)" style="fill: #66ccee; stroke: #000000; stroke-width: 0.5; stroke-linejoin: miter"/>
   </g>
   <g id="patch_72">
    <path d="M 196.077825 265.12 
L 200.037625 265.12 
L 200.037625 265.12 
L 196.077825 265.12 
z
" clip-path="url(#p2b4968e257)" style="fill: #66ccee; stroke: #000000; stroke-width: 0.5; stroke-linejoin: miter"/>
   </g>
   <g id="patch_73">
    <path d="M 220.826575 265.12 
L 224.786375 265.12 
L 224.786375 265.12 
L 220.826575 265.12 
z
" clip-path="url(#p2b4968e257)" style="fill: #66ccee; stroke: #000000; stroke-width: 0.5; stroke-linejoin: miter"/>
   </g>
   <g id="patch_74">
    <path d="M 245.575325 265.12 
L 249.535125 265.12 
L 249.535125 265.12 
L 245.575325 265.12 
z
" clip-path="url(#p2b4968e257)" style="fill: #66ccee; stroke: #000000; stroke-width: 0.5; stroke-linejoin: miter"/>
   </g>
   <g id="patch_75">
    <path d="M 270.324075 265.12 
L 274.283875 265.12 
L 274.283875 265.12 
L 270.324075 265.12 
z
" clip-path="url(#p2b4968e257)" style="fill: #66ccee; stroke: #000000; stroke-width: 0.5; stroke-linejoin: miter"/>
   </g>
   <g id="patch_76">
    <path d="M 295.072825 265.12 
L 299.032625 265.12 
L 299.032625 265.12 
L 295.072825 265.12 
z
" clip-path="url(#p2b4968e257)" style="fill: #66ccee; stroke: #000000; stroke-width: 0.5; stroke-linejoin: miter"/>
   </g>
   <g id="patch_77">
    <path d="M 319.821575 265.12 
L 323.781375 265.12 
L 323.781375 265.12 
L 319.821575 265.12 
z
" clip-path="url(#p2b4968e257)" style="fill: #66ccee; stroke: #000000; stroke-width: 0.5; stroke-linejoin: miter"/>
   </g>
   <g id="patch_78">
    <path d="M 344.570325 265.12 
L 348.530125 265.12 
L 348.530125 205.754921 
L 344.570325 205.754921 
z
" clip-path="url(#p2b4968e257)" style="fill: #66ccee; stroke: #000000; stroke-width: 0.5; stroke-linejoin: miter"/>
   </g>
   <g id="patch_79">
    <path d="M 369.319075 265.12 
L 373.278875 265.12 
L 373.278875 250.872381 
L 369.319075 250.872381 
z
" clip-path="url(#p2b4968e257)" style="fill: #66ccee; stroke: #000000; stroke-width: 0.5; stroke-linejoin: miter"/>
   </g>
   <g id="patch_80">
    <path d="M 394.067825 265.12 
L 398.027625 265.12 
L 398.027625 265.12 
L 394.067825 265.12 
z
" clip-path="url(#p2b4968e257)" style="fill: #66ccee; stroke: #000000; stroke-width: 0.5; stroke-linejoin: miter"/>
   </g>
   <g id="patch_81">
    <path d="M 418.816575 265.12 
L 422.776375 265.12 
L 422.776375 265.12 
L 418.816575 265.12 
z
" clip-path="url(#p2b4968e257)" style="fill: #66ccee; stroke: #000000; stroke-width: 0.5; stroke-linejoin: miter"/>
   </g>
   <g id="patch_82">
    <path d="M 443.565325 265.12 
L 447.525125 265.12 
L 447.525125 265.12 
L 443.565325 265.12 
z
" clip-path="url(#p2b4968e257)" style="fill: #66ccee; stroke: #000000; stroke-width: 0.5; stroke-linejoin: miter"/>
   </g>
   <g id="matplotlib.axis_1">
    <g id="xtick_1">
     <g id="line2d_1">
      <defs>
       <path id="m95dc749d9c" d="M 0 0 
L 0 3.5 
" style="stroke: #000000; stroke-width: 0.8"/>
      </defs>
      <g>
       <use xlink:href="#m95dc749d9c" x="66.394375" y="265.12" style="stroke: #000000; stroke-width: 0.8"/>
      </g>
     </g>
     <g id="text_1">
      <text style="font: 10px 'sans-serif'" transform="translate(69.15375 299.974687)rotate(-90)">christ</text>
     </g>
    </g>
    <g id="xtick_2">
     <g id="line2d_2">
      <g>
       <use xlink:href="#m95dc749d9c" x="91.143125" y="265.12" style="stroke: #000000; stroke-width: 0.8"/>
      </g>
     </g>
     <g id="text_2">
      <text style="font: 10px 'sans-serif'" transform="translate(93.9025 296.2075)rotate(-90)">engz</text>
     </g>
    </g>
    <g id="xtick_3">
     <g id="line2d_3">
      <g>
       <use xlink:href="#m95dc749d9c" x="115.891875" y="265.12" style="stroke: #000000; stroke-width: 0.8"/>
      </g>
     </g>
     <g id="text_3">
      <text style="font: 10px 'sans-serif'" transform="translate(118.65125 300.685625)rotate(-90)">gamb</text>
     </g>
    </g>
    <g id="xtick_4">
     <g id="line2d_4">
      <g>
       <use xlink:href="#m95dc749d9c" x="140.640625" y="265.12" style="stroke: #000000; stroke-width: 0.8"/>
      </g>
     </g>
     <g id="text_4">
      <text style="font: 10px 'sans-serif'" transform="translate(143.4 294.137187)rotate(-90)">gqrs</text>
     </g>
    </g>
    <g id="xtick_5">
     <g id="line2d_5">
      <g>
       <use xlink:href="#m95dc749d9c" x="165.389375" y="265.12" style="stroke: #000000; stroke-width: 0.8"/>
      </g>
     </g>
     <g id="text_5">
      <text style="font: 10px 'sans-serif'" transform="translate(168.14875 303.802812)rotate(-90)">hamilt</text>
     </g>
    </g>
    <g id="xtick_6">
     <g id="line2d_6">
      <g>
       <use xlink:href="#m95dc749d9c" x="190.138125" y="265.12" style="stroke: #000000; stroke-width: 0.8"/>
      </g>
     </g>
     <g id="text_6">
      <text style="font: 10px 'sans-serif'" transform="translate(192.8975 290.566875)rotate(-90)">jqrs</text>
     </g>
    </g>
    <g id="xtick_7">
     <g id="line2d_7">
      <g>
       <use xlink:href="#m95dc749d9c" x="214.886875" y="265.12" style="stroke: #000000; stroke-width: 0.8"/>
      </g>
     </g>
     <g id="text_7">
      <text style="font: 10px 'sans-serif'" transform="translate(217.64625 289.42)rotate(-90)">kali</text>
     </g>
    </g>
    <g id="xtick_8">
     <g id="line2d_8">
      <g>
       <use xlink:href="#m95dc749d9c" x="239.635625" y="265.12" style="stroke: #000000; stroke-width: 0.8"/>
      </g>
     </g>
     <g id="text_8">
      <text style="font: 10px 'sans-serif'" transform="translate(242.395 296.02)rotate(-90)">mart</text>
     </g>
    </g>
    <g id="xtick_9">
     <g id="line2d_9">
      <g>
       <use xlink:href="#m95dc749d9c" x="264.384375" y="265.12" style="stroke: #000000; stroke-width: 0.8"/>
      </g>
     </g>
     <g id="text_9">
      <text style="font: 10px 'sans-serif'" transform="translate(267.14375 290.934062)rotate(-90)">nab</text>
     </g>
    </g>
    <g id="xtick_10">
     <g id="line2d_10">
      <g>
       <use xlink:href="#m95dc749d9c" x="289.133125" y="265.12" style="stroke: #000000; stroke-width: 0.8"/>
      </g>
     </g>
     <g id="text_10">
      <text style="font: 10px 'sans-serif'" transform="translate(291.8925 284.248125)rotate(-90)">nk</text>
     </g>
    </g>
    <g id="xtick_11">
     <g id="line2d_11">
      <g>
       <use xlink:href="#m95dc749d9c" x="313.881875" y="265.12" style="stroke: #000000; stroke-width: 0.8"/>
      </g>
     </g>
     <g id="text_11">
      <text style="font: 10px 'sans-serif'" transform="translate(316.64125 320.67)rotate(-90)">pan-tomp</text>
     </g>
    </g>
    <g id="xtick_12">
     <g id="line2d_12">
      <g>
       <use xlink:href="#m95dc749d9c" x="338.630625" y="265.12" style="stroke: #000000; stroke-width: 0.8"/>
      </g>
     </g>
     <g id="text_12">
      <text style="font: 10px 'sans-serif'" transform="translate(341.39 300.174687)rotate(-90)">rdeco</text>
     </g>
    </g>
    <g id="xtick_13">
     <g id="line2d_13">
      <g>
       <use xlink:href="#m95dc749d9c" x="363.379375" y="265.12" style="stroke: #000000; stroke-width: 0.8"/>
      </g>
     </g>
     <g id="text_13">
      <text style="font: 10px 'sans-serif'" transform="translate(366.13875 300.65125)rotate(-90)">rpeak</text>
     </g>
    </g>
    <g id="xtick_14">
     <g id="line2d_14">
      <g>
       <use xlink:href="#m95dc749d9c" x="388.128125" y="265.12" style="stroke: #000000; stroke-width: 0.8"/>
      </g>
     </g>
     <g id="text_14">
      <text style="font: 10px 'sans-serif'" transform="translate(390.8875 312.527812)rotate(-90)">two-avg</text>
     </g>
    </g>
    <g id="xtick_15">
     <g id="line2d_15">
      <g>
       <use xlink:href="#m95dc749d9c" x="412.876875" y="265.12" style="stroke: #000000; stroke-width: 0.8"/>
      </g>
     </g>
     <g id="text_15">
      <text style="font: 10px 'sans-serif'" transform="translate(415.63625 298.1825)rotate(-90)">unsw</text>
     </g>
    </g>
    <g id="xtick_16">
     <g id="line2d_16">
      <g>
       <use xlink:href="#m95dc749d9c" x="437.625625" y="265.12" style="stroke: #000000; stroke-width: 0.8"/>
      </g>
     </g>
     <g id="text_16">
      <text style="font: 10px 'sans-serif'" transform="translate(440.385 295.966875)rotate(-90)">wqrs</text>
     </g>
    </g>
    <g id="text_17">
     <text style="font: 10px 'sans-serif'; text-anchor: middle" x="252.01" y="332.268437" transform="rotate(-0, 252.01, 332.268437)">Detector</text>
    </g>
   </g>
   <g id="matplotlib.axis_2">
    <g id="ytick_1">
     <g id="line2d_17">
      <defs>
       <path id="m7cc21d9e35" d="M 0 0 
L -3.5 0 
" style="stroke: #000000; stroke-width: 0.8"/>
      </defs>
      <g>
       <use xlink:href="#m7cc21d9e35" x="54.02" y="265.12" style="stroke: #000000; stroke-width: 0.8"/>
      </g>
     </g>
     <g id="text_18">
      <text style="font: 10px 'sans-serif'; text-anchor: end" x="47.02" y="268.919219" transform="rotate(-0, 47.02, 268.919219)">0%</text>
     </g>
    </g>
    <g id="ytick_2">
     <g id="line2d_18">
      <g>
       <use xlink:href="#m7cc21d9e35" x="54.02" y="235.43746" style="stroke: #000000; stroke-width: 0.8"/>
      </g>
     </g>
     <g id="text_19">
      <text style="font: 10px 'sans-serif'; text-anchor: end" x="47.02" y="239.236679" transform="rotate(-0, 47.02, 239.236679)">5%</text>
     </g>
    </g>
    <g id="ytick_3">
     <g id="line2d_19">
      <g>
       <use xlink:href="#m7cc21d9e35" x="54.02" y="205.754921" style="stroke: #000000; stroke-width: 0.8"/>
      </g>
     </g>
     <g id="text_20">
      <text style="font: 10px 'sans-serif'; text-anchor: end" x="47.02" y="209.554139" transform="rotate(-0, 47.02, 209.554139)">10%</text>
     </g>
    </g>
    <g id="ytick_4">
     <g id="line2d_20">
      <g>
       <use xlink:href="#m7cc21d9e35" x="54.02" y="176.072381" style="stroke: #000000; stroke-width: 0.8"/>
      </g>
     </g>
     <g id="text_21">
      <text style="font: 10px 'sans-serif'; text-anchor: end" x="47.02" y="179.8716" transform="rotate(-0, 47.02, 179.8716)">15%</text>
     </g>
    </g>
    <g id="ytick_5">
     <g id="line2d_21">
      <g>
       <use xlink:href="#m7cc21d9e35" x="54.02" y="146.389841" style="stroke: #000000; stroke-width: 0.8"/>
      </g>
     </g>
     <g id="text_22">
      <text style="font: 10px 'sans-serif'; text-anchor: end" x="47.02" y="150.18906" transform="rotate(-0, 47.02, 150.18906)">20%</text>
     </g>
    </g>
    <g id="ytick_6">
     <g id="line2d_22">
      <g>
       <use xlink:href="#m7cc21d9e35" x="54.02" y="116.707302" style="stroke: #000000; stroke-width: 0.8"/>
      </g>
     </g>
     <g id="text_23">
      <text style="font: 10px 'sans-serif'; text-anchor: end" x="47.02" y="120.50652" transform="rotate(-0, 47.02, 120.50652)">25%</text>
     </g>
    </g>
    <g id="ytick_7">
     <g id="line2d_23">
      <g>
       <use xlink:href="#m7cc21d9e35" x="54.02" y="87.024762" style="stroke: #000000; stroke-width: 0.8"/>
      </g>
     </g>
     <g id="text_24">
      <text style="font: 10px 'sans-serif'; text-anchor: end" x="47.02" y="90.823981" transform="rotate(-0, 47.02, 90.823981)">30%</text>
     </g>
    </g>
    <g id="ytick_8">
     <g id="line2d_24">
      <g>
       <use xlink:href="#m7cc21d9e35" x="54.02" y="57.342222" style="stroke: #000000; stroke-width: 0.8"/>
      </g>
     </g>
     <g id="text_25">
      <text style="font: 10px 'sans-serif'; text-anchor: end" x="47.02" y="61.141441" transform="rotate(-0, 47.02, 61.141441)">35%</text>
     </g>
    </g>
    <g id="ytick_9">
     <g id="line2d_25">
      <g>
       <use xlink:href="#m7cc21d9e35" x="54.02" y="27.659683" style="stroke: #000000; stroke-width: 0.8"/>
      </g>
     </g>
     <g id="text_26">
      <text style="font: 10px 'sans-serif'; text-anchor: end" x="47.02" y="31.458901" transform="rotate(-0, 47.02, 31.458901)">40%</text>
     </g>
    </g>
    <g id="text_27">
     <text style="font: 10px 'sans-serif'; text-anchor: middle" x="18.71375" y="137.96" transform="rotate(-90, 18.71375, 137.96)">Errorrate</text>
    </g>
   </g>
   <g id="patch_83">
    <path d="M 54.02 265.12 
L 54.02 10.8 
" style="fill: none; stroke: #000000; stroke-width: 0.8; stroke-linejoin: miter; stroke-linecap: square"/>
   </g>
   <g id="patch_84">
    <path d="M 450 265.12 
L 450 10.8 
" style="fill: none; stroke: #000000; stroke-width: 0.8; stroke-linejoin: miter; stroke-linecap: square"/>
   </g>
   <g id="patch_85">
    <path d="M 54.02 265.12 
L 450 265.12 
" style="fill: none; stroke: #000000; stroke-width: 0.8; stroke-linejoin: miter; stroke-linecap: square"/>
   </g>
   <g id="patch_86">
    <path d="M 54.02 10.8 
L 450 10.8 
" style="fill: none; stroke: #000000; stroke-width: 0.8; stroke-linejoin: miter; stroke-linecap: square"/>
   </g>
   <g id="legend_1">
    <g id="text_28">
     <text style="font: 10px 'sans-serif'; text-anchor: start" x="228.152188" y="27.398438" transform="rotate(-0, 228.152188, 27.398438)">Database</text>
    </g>
    <g id="patch_87">
     <path d="M 225.140469 42.076563 
L 245.140469 42.076563 
L 245.140469 35.076563 
L 225.140469 35.076563 
z
" style="fill: #4477aa; stroke: #000000; stroke-width: 0.5; stroke-linejoin: miter"/>
    </g>
    <g id="text_29">
     <text style="font: 10px 'sans-serif'; text-anchor: start" x="253.140469" y="42.076563" transform="rotate(-0, 253.140469, 42.076563)">SIN</text>
    </g>
    <g id="patch_88">
     <path d="M 225.140469 56.754688 
L 245.140469 56.754688 
L 245.140469 49.754688 
L 225.140469 49.754688 
z
" style="fill: #ee6677; stroke: #000000; stroke-width: 0.5; stroke-linejoin: miter"/>
    </g>
    <g id="text_30">
     <text style="font: 10px 'sans-serif'; text-anchor: start" x="253.140469" y="56.754688" transform="rotate(-0, 253.140469, 56.754688)">ARR</text>
    </g>
    <g id="patch_89">
     <path d="M 225.140469 71.432813 
L 245.140469 71.432813 
L 245.140469 64.432813 
L 225.140469 64.432813 
z
" style="fill: #228833; stroke: #000000; stroke-width: 0.5; stroke-linejoin: miter"/>
    </g>
    <g id="text_31">
     <text style="font: 10px 'sans-serif'; text-anchor: start" x="253.140469" y="71.432813" transform="rotate(-0, 253.140469, 71.432813)">HIGH</text>
    </g>
    <g id="patch_90">
     <path d="M 225.140469 86.110938 
L 245.140469 86.110938 
L 245.140469 79.110938 
L 225.140469 79.110938 
z
" style="fill: #ccbb44; stroke: #000000; stroke-width: 0.5; stroke-linejoin: miter"/>
    </g>
    <g id="text_32">
     <text style="font: 10px 'sans-serif'; text-anchor: start" x="253.140469" y="86.110938" transform="rotate(-0, 253.140469, 86.110938)">LOW</text>
    </g>
    <g id="patch_91">
     <path d="M 225.140469 100.789063 
L 245.140469 100.789063 
L 245.140469 93.789063 
L 225.140469 93.789063 
z
" style="fill: #66ccee; stroke: #000000; stroke-width: 0.5; stroke-linejoin: miter"/>
    </g>
    <g id="text_33">
     <text style="font: 10px 'sans-serif'; text-anchor: start" x="253.140469" y="100.789063" transform="rotate(-0, 253.140469, 100.789063)">TELE</text>
    </g>
   </g>
  </g>
 </g>
 <defs>
  <clipPath id="p2b4968e257">
   <rect x="54.02" y="10.8" width="395.98" height="254.32"/>
  </clipPath>
 </defs>
</svg>
