<?xml version="1.0" encoding="utf-8" standalone="no"?>
<!DOCTYPE svg PUBLIC "-//W3C//DTD SVG 1.1//EN"
  "http://www.w3.org/Graphics/SVG/1.1/DTD/svg11.dtd">
<svg xmlns:xlink="http://www.w3.org/1999/xlink" width="720pt" height="540pt" viewBox="0 0 720 540" xmlns="http://www.w3.org/2000/svg" version="1.1">
 <metadata>
  <rdf:RDF xmlns:dc="http://purl.org/dc/elements/1.1/" xmlns:cc="http://creativecommons.org/ns#" xmlns:rdf="http://www.w3.org/1999/02/22-rdf-syntax-ns#">
   <cc:Work>
    <dc:type rdf:resource="http://purl.org/dc/dcmitype/StillImage"/>
    <dc:date>2022-11-29T22:21:10.210472</dc:date>
    <dc:format>image/svg+xml</dc:format>
    <dc:creator>
     <cc:Agent>
      <dc:title>Matplotlib v3.5.3, https://matplotlib.org/</dc:title>
     </cc:Agent>
    </dc:creator>
   </cc:Work>
  </rdf:RDF>
 </metadata>
 <defs>
  <style type="text/css">*{stroke-linejoin: round; stroke-linecap: butt}</style>
 </defs>
 <g id="figure_1">
  <g id="patch_1">
   <path d="M 0 540 
L 720 540 
L 720 0 
L 0 0 
z
" style="fill: #ffffff"/>
  </g>
  <g id="axes_1">
   <g id="patch_2">
    <path d="M 50.87 459.52 
L 709.2 459.52 
L 709.2 10.8 
L 50.87 10.8 
z
" style="fill: #ffffff"/>
   </g>
   <g id="patch_3">
    <path d="M 54.984562 459.52 
L 61.567862 459.52 
L 61.567862 382.667827 
L 54.984562 382.667827 
z
" clip-path="url(#p4f3be9a268)" style="fill: #4477aa; stroke: #000000; stroke-width: 0.5; stroke-linejoin: miter"/>
   </g>
   <g id="patch_4">
    <path d="M 96.130188 459.52 
L 102.713488 459.52 
L 102.713488 428.165903 
L 96.130188 428.165903 
z
" clip-path="url(#p4f3be9a268)" style="fill: #4477aa; stroke: #000000; stroke-width: 0.5; stroke-linejoin: miter"/>
   </g>
   <g id="patch_5">
    <path d="M 137.275813 459.52 
L 143.859113 459.52 
L 143.859113 455.909852 
L 137.275813 455.909852 
z
" clip-path="url(#p4f3be9a268)" style="fill: #4477aa; stroke: #000000; stroke-width: 0.5; stroke-linejoin: miter"/>
   </g>
   <g id="patch_6">
    <path d="M 178.421438 459.52 
L 185.004738 459.52 
L 185.004738 417.752873 
L 178.421438 417.752873 
z
" clip-path="url(#p4f3be9a268)" style="fill: #4477aa; stroke: #000000; stroke-width: 0.5; stroke-linejoin: miter"/>
   </g>
   <g id="patch_7">
    <path d="M 219.567063 459.52 
L 226.150363 459.52 
L 226.150363 452.805379 
L 219.567063 452.805379 
z
" clip-path="url(#p4f3be9a268)" style="fill: #4477aa; stroke: #000000; stroke-width: 0.5; stroke-linejoin: miter"/>
   </g>
   <g id="patch_8">
    <path d="M 260.712688 459.52 
L 267.295988 459.52 
L 267.295988 451.518638 
L 260.712688 451.518638 
z
" clip-path="url(#p4f3be9a268)" style="fill: #4477aa; stroke: #000000; stroke-width: 0.5; stroke-linejoin: miter"/>
   </g>
   <g id="patch_9">
    <path d="M 301.858313 459.52 
L 308.441613 459.52 
L 308.441613 457.281733 
L 301.858313 457.281733 
z
" clip-path="url(#p4f3be9a268)" style="fill: #4477aa; stroke: #000000; stroke-width: 0.5; stroke-linejoin: miter"/>
   </g>
   <g id="patch_10">
    <path d="M 343.003938 459.52 
L 349.587238 459.52 
L 349.587238 456.115528 
L 343.003938 456.115528 
z
" clip-path="url(#p4f3be9a268)" style="fill: #4477aa; stroke: #000000; stroke-width: 0.5; stroke-linejoin: miter"/>
   </g>
   <g id="patch_11">
    <path d="M 384.149563 459.52 
L 390.732863 459.52 
L 390.732863 451.313855 
L 384.149563 451.313855 
z
" clip-path="url(#p4f3be9a268)" style="fill: #4477aa; stroke: #000000; stroke-width: 0.5; stroke-linejoin: miter"/>
   </g>
   <g id="patch_12">
    <path d="M 425.295187 459.52 
L 431.878488 459.52 
L 431.878488 456.52661 
L 425.295187 456.52661 
z
" clip-path="url(#p4f3be9a268)" style="fill: #4477aa; stroke: #000000; stroke-width: 0.5; stroke-linejoin: miter"/>
   </g>
   <g id="patch_13">
    <path d="M 466.440812 459.52 
L 473.024113 459.52 
L 473.024113 457.288152 
L 466.440812 457.288152 
z
" clip-path="url(#p4f3be9a268)" style="fill: #4477aa; stroke: #000000; stroke-width: 0.5; stroke-linejoin: miter"/>
   </g>
   <g id="patch_14">
    <path d="M 507.586437 459.52 
L 514.169737 459.52 
L 514.169737 451.311448 
L 507.586437 451.311448 
z
" clip-path="url(#p4f3be9a268)" style="fill: #4477aa; stroke: #000000; stroke-width: 0.5; stroke-linejoin: miter"/>
   </g>
   <g id="patch_15">
    <path d="M 548.732062 459.52 
L 555.315362 459.52 
L 555.315362 446.657679 
L 548.732062 446.657679 
z
" clip-path="url(#p4f3be9a268)" style="fill: #4477aa; stroke: #000000; stroke-width: 0.5; stroke-linejoin: miter"/>
   </g>
   <g id="patch_16">
    <path d="M 589.877688 459.52 
L 596.460988 459.52 
L 596.460988 456.536952 
L 589.877688 456.536952 
z
" clip-path="url(#p4f3be9a268)" style="fill: #4477aa; stroke: #000000; stroke-width: 0.5; stroke-linejoin: miter"/>
   </g>
   <g id="patch_17">
    <path d="M 631.023312 459.52 
L 637.606612 459.52 
L 637.606612 439.403863 
L 631.023312 439.403863 
z
" clip-path="url(#p4f3be9a268)" style="fill: #4477aa; stroke: #000000; stroke-width: 0.5; stroke-linejoin: miter"/>
   </g>
   <g id="patch_18">
    <path d="M 672.168938 459.52 
L 678.752238 459.52 
L 678.752238 381.545038 
L 672.168938 381.545038 
z
" clip-path="url(#p4f3be9a268)" style="fill: #4477aa; stroke: #000000; stroke-width: 0.5; stroke-linejoin: miter"/>
   </g>
   <g id="patch_19">
    <path d="M 61.567863 459.52 
L 68.151162 459.52 
L 68.151162 254.386073 
L 61.567863 254.386073 
z
" clip-path="url(#p4f3be9a268)" style="fill: #ee6677; stroke: #000000; stroke-width: 0.5; stroke-linejoin: miter"/>
   </g>
   <g id="patch_20">
    <path d="M 102.713487 459.52 
L 109.296787 459.52 
L 109.296787 375.865747 
L 102.713487 375.865747 
z
" clip-path="url(#p4f3be9a268)" style="fill: #ee6677; stroke: #000000; stroke-width: 0.5; stroke-linejoin: miter"/>
   </g>
   <g id="patch_21">
    <path d="M 143.859113 459.52 
L 150.442413 459.52 
L 150.442413 451.780301 
L 143.859113 451.780301 
z
" clip-path="url(#p4f3be9a268)" style="fill: #ee6677; stroke: #000000; stroke-width: 0.5; stroke-linejoin: miter"/>
   </g>
   <g id="patch_22">
    <path d="M 185.004738 459.52 
L 191.588038 459.52 
L 191.588038 353.604597 
L 185.004738 353.604597 
z
" clip-path="url(#p4f3be9a268)" style="fill: #ee6677; stroke: #000000; stroke-width: 0.5; stroke-linejoin: miter"/>
   </g>
   <g id="patch_23">
    <path d="M 226.150362 459.52 
L 232.733663 459.52 
L 232.733663 445.33082 
L 226.150362 445.33082 
z
" clip-path="url(#p4f3be9a268)" style="fill: #ee6677; stroke: #000000; stroke-width: 0.5; stroke-linejoin: miter"/>
   </g>
   <g id="patch_24">
    <path d="M 267.295988 459.52 
L 273.879288 459.52 
L 273.879288 447.67188 
L 267.295988 447.67188 
z
" clip-path="url(#p4f3be9a268)" style="fill: #ee6677; stroke: #000000; stroke-width: 0.5; stroke-linejoin: miter"/>
   </g>
   <g id="patch_25">
    <path d="M 308.441613 459.52 
L 315.024913 459.52 
L 315.024913 457.275671 
L 308.441613 457.275671 
z
" clip-path="url(#p4f3be9a268)" style="fill: #ee6677; stroke: #000000; stroke-width: 0.5; stroke-linejoin: miter"/>
   </g>
   <g id="patch_26">
    <path d="M 349.587238 459.52 
L 356.170538 459.52 
L 356.170538 455.044893 
L 349.587238 455.044893 
z
" clip-path="url(#p4f3be9a268)" style="fill: #ee6677; stroke: #000000; stroke-width: 0.5; stroke-linejoin: miter"/>
   </g>
   <g id="patch_27">
    <path d="M 390.732863 459.52 
L 397.316163 459.52 
L 397.316163 437.14206 
L 390.732863 437.14206 
z
" clip-path="url(#p4f3be9a268)" style="fill: #ee6677; stroke: #000000; stroke-width: 0.5; stroke-linejoin: miter"/>
   </g>
   <g id="patch_28">
    <path d="M 431.878488 459.52 
L 438.461788 459.52 
L 438.461788 455.807238 
L 431.878488 455.807238 
z
" clip-path="url(#p4f3be9a268)" style="fill: #ee6677; stroke: #000000; stroke-width: 0.5; stroke-linejoin: miter"/>
   </g>
   <g id="patch_29">
    <path d="M 473.024113 459.52 
L 479.607413 459.52 
L 479.607413 457.281555 
L 473.024113 457.281555 
z
" clip-path="url(#p4f3be9a268)" style="fill: #ee6677; stroke: #000000; stroke-width: 0.5; stroke-linejoin: miter"/>
   </g>
   <g id="patch_30">
    <path d="M 514.169737 459.52 
L 520.753038 459.52 
L 520.753038 446.44193 
L 514.169737 446.44193 
z
" clip-path="url(#p4f3be9a268)" style="fill: #ee6677; stroke: #000000; stroke-width: 0.5; stroke-linejoin: miter"/>
   </g>
   <g id="patch_31">
    <path d="M 555.315362 459.52 
L 561.898663 459.52 
L 561.898663 443.37285 
L 555.315362 443.37285 
z
" clip-path="url(#p4f3be9a268)" style="fill: #ee6677; stroke: #000000; stroke-width: 0.5; stroke-linejoin: miter"/>
   </g>
   <g id="patch_32">
    <path d="M 596.460988 459.52 
L 603.044288 459.52 
L 603.044288 452.80627 
L 596.460988 452.80627 
z
" clip-path="url(#p4f3be9a268)" style="fill: #ee6677; stroke: #000000; stroke-width: 0.5; stroke-linejoin: miter"/>
   </g>
   <g id="patch_33">
    <path d="M 637.606612 459.52 
L 644.189912 459.52 
L 644.189912 431.147435 
L 637.606612 431.147435 
z
" clip-path="url(#p4f3be9a268)" style="fill: #ee6677; stroke: #000000; stroke-width: 0.5; stroke-linejoin: miter"/>
   </g>
   <g id="patch_34">
    <path d="M 678.752238 459.52 
L 685.335538 459.52 
L 685.335538 240.980278 
L 678.752238 240.980278 
z
" clip-path="url(#p4f3be9a268)" style="fill: #ee6677; stroke: #000000; stroke-width: 0.5; stroke-linejoin: miter"/>
   </g>
   <g id="patch_35">
    <path d="M 68.151162 459.52 
L 74.734462 459.52 
L 74.734462 331.897352 
L 68.151162 331.897352 
z
" clip-path="url(#p4f3be9a268)" style="fill: #228833; stroke: #000000; stroke-width: 0.5; stroke-linejoin: miter"/>
   </g>
   <g id="patch_36">
    <path d="M 109.296788 459.52 
L 115.880088 459.52 
L 115.880088 408.293152 
L 109.296788 408.293152 
z
" clip-path="url(#p4f3be9a268)" style="fill: #228833; stroke: #000000; stroke-width: 0.5; stroke-linejoin: miter"/>
   </g>
   <g id="patch_37">
    <path d="M 150.442412 459.52 
L 157.025712 459.52 
L 157.025712 454.802755 
L 150.442412 454.802755 
z
" clip-path="url(#p4f3be9a268)" style="fill: #228833; stroke: #000000; stroke-width: 0.5; stroke-linejoin: miter"/>
   </g>
   <g id="patch_38">
    <path d="M 191.588038 459.52 
L 198.171338 459.52 
L 198.171338 388.821678 
L 191.588038 388.821678 
z
" clip-path="url(#p4f3be9a268)" style="fill: #228833; stroke: #000000; stroke-width: 0.5; stroke-linejoin: miter"/>
   </g>
   <g id="patch_39">
    <path d="M 232.733663 459.52 
L 239.316963 459.52 
L 239.316963 450.245539 
L 232.733663 450.245539 
z
" clip-path="url(#p4f3be9a268)" style="fill: #228833; stroke: #000000; stroke-width: 0.5; stroke-linejoin: miter"/>
   </g>
   <g id="patch_40">
    <path d="M 273.879288 459.52 
L 280.462588 459.52 
L 280.462588 451.730376 
L 273.879288 451.730376 
z
" clip-path="url(#p4f3be9a268)" style="fill: #228833; stroke: #000000; stroke-width: 0.5; stroke-linejoin: miter"/>
   </g>
   <g id="patch_41">
    <path d="M 315.024913 459.52 
L 321.608213 459.52 
L 321.608213 458.026158 
L 315.024913 458.026158 
z
" clip-path="url(#p4f3be9a268)" style="fill: #228833; stroke: #000000; stroke-width: 0.5; stroke-linejoin: miter"/>
   </g>
   <g id="patch_42">
    <path d="M 356.170538 459.52 
L 362.753838 459.52 
L 362.753838 456.485957 
L 356.170538 456.485957 
z
" clip-path="url(#p4f3be9a268)" style="fill: #228833; stroke: #000000; stroke-width: 0.5; stroke-linejoin: miter"/>
   </g>
   <g id="patch_43">
    <path d="M 397.316163 459.52 
L 403.899463 459.52 
L 403.899463 444.392043 
L 397.316163 444.392043 
z
" clip-path="url(#p4f3be9a268)" style="fill: #228833; stroke: #000000; stroke-width: 0.5; stroke-linejoin: miter"/>
   </g>
   <g id="patch_44">
    <path d="M 438.461788 459.52 
L 445.045088 459.52 
L 445.045088 457.280307 
L 438.461788 457.280307 
z
" clip-path="url(#p4f3be9a268)" style="fill: #228833; stroke: #000000; stroke-width: 0.5; stroke-linejoin: miter"/>
   </g>
   <g id="patch_45">
    <path d="M 479.607413 459.52 
L 486.190713 459.52 
L 486.190713 458.027763 
L 479.607413 458.027763 
z
" clip-path="url(#p4f3be9a268)" style="fill: #228833; stroke: #000000; stroke-width: 0.5; stroke-linejoin: miter"/>
   </g>
   <g id="patch_46">
    <path d="M 520.753038 459.52 
L 527.336338 459.52 
L 527.336338 449.82554 
L 520.753038 449.82554 
z
" clip-path="url(#p4f3be9a268)" style="fill: #228833; stroke: #000000; stroke-width: 0.5; stroke-linejoin: miter"/>
   </g>
   <g id="patch_47">
    <path d="M 561.898663 459.52 
L 568.481963 459.52 
L 568.481963 446.381128 
L 561.898663 446.381128 
z
" clip-path="url(#p4f3be9a268)" style="fill: #228833; stroke: #000000; stroke-width: 0.5; stroke-linejoin: miter"/>
   </g>
   <g id="patch_48">
    <path d="M 603.044288 459.52 
L 609.627588 459.52 
L 609.627588 455.055324 
L 603.044288 455.055324 
z
" clip-path="url(#p4f3be9a268)" style="fill: #228833; stroke: #000000; stroke-width: 0.5; stroke-linejoin: miter"/>
   </g>
   <g id="patch_49">
    <path d="M 644.189912 459.52 
L 650.773212 459.52 
L 650.773212 435.731665 
L 644.189912 435.731665 
z
" clip-path="url(#p4f3be9a268)" style="fill: #228833; stroke: #000000; stroke-width: 0.5; stroke-linejoin: miter"/>
   </g>
   <g id="patch_50">
    <path d="M 685.335538 459.52 
L 691.918838 459.52 
L 691.918838 322.452341 
L 685.335538 322.452341 
z
" clip-path="url(#p4f3be9a268)" style="fill: #228833; stroke: #000000; stroke-width: 0.5; stroke-linejoin: miter"/>
   </g>
   <g id="patch_51">
    <path d="M 74.734463 459.52 
L 81.317763 459.52 
L 81.317763 278.347721 
L 74.734463 278.347721 
z
" clip-path="url(#p4f3be9a268)" style="fill: #ccbb44; stroke: #000000; stroke-width: 0.5; stroke-linejoin: miter"/>
   </g>
   <g id="patch_52">
    <path d="M 115.880088 459.52 
L 122.463387 459.52 
L 122.463387 387.995322 
L 115.880088 387.995322 
z
" clip-path="url(#p4f3be9a268)" style="fill: #ccbb44; stroke: #000000; stroke-width: 0.5; stroke-linejoin: miter"/>
   </g>
   <g id="patch_53">
    <path d="M 157.025712 459.52 
L 163.609013 459.52 
L 163.609013 453.749862 
L 157.025712 453.749862 
z
" clip-path="url(#p4f3be9a268)" style="fill: #ccbb44; stroke: #000000; stroke-width: 0.5; stroke-linejoin: miter"/>
   </g>
   <g id="patch_54">
    <path d="M 198.171337 459.52 
L 204.754638 459.52 
L 204.754638 359.577379 
L 198.171337 359.577379 
z
" clip-path="url(#p4f3be9a268)" style="fill: #ccbb44; stroke: #000000; stroke-width: 0.5; stroke-linejoin: miter"/>
   </g>
   <g id="patch_55">
    <path d="M 239.316963 459.52 
L 245.900263 459.52 
L 245.900263 444.840302 
L 239.316963 444.840302 
z
" clip-path="url(#p4f3be9a268)" style="fill: #ccbb44; stroke: #000000; stroke-width: 0.5; stroke-linejoin: miter"/>
   </g>
   <g id="patch_56">
    <path d="M 280.462588 459.52 
L 287.045888 459.52 
L 287.045888 448.104894 
L 280.462588 448.104894 
z
" clip-path="url(#p4f3be9a268)" style="fill: #ccbb44; stroke: #000000; stroke-width: 0.5; stroke-linejoin: miter"/>
   </g>
   <g id="patch_57">
    <path d="M 321.608213 459.52 
L 328.191513 459.52 
L 328.191513 457.291184 
L 321.608213 457.291184 
z
" clip-path="url(#p4f3be9a268)" style="fill: #ccbb44; stroke: #000000; stroke-width: 0.5; stroke-linejoin: miter"/>
   </g>
   <g id="patch_58">
    <path d="M 362.753838 459.52 
L 369.337138 459.52 
L 369.337138 455.792528 
L 362.753838 455.792528 
z
" clip-path="url(#p4f3be9a268)" style="fill: #ccbb44; stroke: #000000; stroke-width: 0.5; stroke-linejoin: miter"/>
   </g>
   <g id="patch_59">
    <path d="M 403.899463 459.52 
L 410.482763 459.52 
L 410.482763 436.215496 
L 403.899463 436.215496 
z
" clip-path="url(#p4f3be9a268)" style="fill: #ccbb44; stroke: #000000; stroke-width: 0.5; stroke-linejoin: miter"/>
   </g>
   <g id="patch_60">
    <path d="M 445.045088 459.52 
L 451.628388 459.52 
L 451.628388 456.540875 
L 445.045088 456.540875 
z
" clip-path="url(#p4f3be9a268)" style="fill: #ccbb44; stroke: #000000; stroke-width: 0.5; stroke-linejoin: miter"/>
   </g>
   <g id="patch_61">
    <path d="M 486.190713 459.52 
L 492.774013 459.52 
L 492.774013 457.969279 
L 486.190713 457.969279 
z
" clip-path="url(#p4f3be9a268)" style="fill: #ccbb44; stroke: #000000; stroke-width: 0.5; stroke-linejoin: miter"/>
   </g>
   <g id="patch_62">
    <path d="M 527.336338 459.52 
L 533.919638 459.52 
L 533.919638 446.28939 
L 527.336338 446.28939 
z
" clip-path="url(#p4f3be9a268)" style="fill: #ccbb44; stroke: #000000; stroke-width: 0.5; stroke-linejoin: miter"/>
   </g>
   <g id="patch_63">
    <path d="M 568.481963 459.52 
L 575.065263 459.52 
L 575.065263 444.779857 
L 568.481963 444.779857 
z
" clip-path="url(#p4f3be9a268)" style="fill: #ccbb44; stroke: #000000; stroke-width: 0.5; stroke-linejoin: miter"/>
   </g>
   <g id="patch_64">
    <path d="M 609.627588 459.52 
L 616.210888 459.52 
L 616.210888 453.554083 
L 609.627588 453.554083 
z
" clip-path="url(#p4f3be9a268)" style="fill: #ccbb44; stroke: #000000; stroke-width: 0.5; stroke-linejoin: miter"/>
   </g>
   <g id="patch_65">
    <path d="M 650.773212 459.52 
L 657.356513 459.52 
L 657.356513 432.958571 
L 650.773212 432.958571 
z
" clip-path="url(#p4f3be9a268)" style="fill: #ccbb44; stroke: #000000; stroke-width: 0.5; stroke-linejoin: miter"/>
   </g>
   <g id="patch_66">
    <path d="M 691.918838 459.52 
L 698.502138 459.52 
L 698.502138 259.964979 
L 691.918838 259.964979 
z
" clip-path="url(#p4f3be9a268)" style="fill: #ccbb44; stroke: #000000; stroke-width: 0.5; stroke-linejoin: miter"/>
   </g>
   <g id="patch_67">
    <path d="M 81.317763 459.52 
L 87.901062 459.52 
L 87.901062 74.725199 
L 81.317763 74.725199 
z
" clip-path="url(#p4f3be9a268)" style="fill: #66ccee; stroke: #000000; stroke-width: 0.5; stroke-linejoin: miter"/>
   </g>
   <g id="patch_68">
    <path d="M 122.463388 459.52 
L 129.046688 459.52 
L 129.046688 375.546402 
L 122.463388 375.546402 
z
" clip-path="url(#p4f3be9a268)" style="fill: #66ccee; stroke: #000000; stroke-width: 0.5; stroke-linejoin: miter"/>
   </g>
   <g id="patch_69">
    <path d="M 163.609013 459.52 
L 170.192313 459.52 
L 170.192313 416.812937 
L 163.609013 416.812937 
z
" clip-path="url(#p4f3be9a268)" style="fill: #66ccee; stroke: #000000; stroke-width: 0.5; stroke-linejoin: miter"/>
   </g>
   <g id="patch_70">
    <path d="M 204.754638 459.52 
L 211.337938 459.52 
L 211.337938 269.421044 
L 204.754638 269.421044 
z
" clip-path="url(#p4f3be9a268)" style="fill: #66ccee; stroke: #000000; stroke-width: 0.5; stroke-linejoin: miter"/>
   </g>
   <g id="patch_71">
    <path d="M 245.900263 459.52 
L 252.483563 459.52 
L 252.483563 433.478777 
L 245.900263 433.478777 
z
" clip-path="url(#p4f3be9a268)" style="fill: #66ccee; stroke: #000000; stroke-width: 0.5; stroke-linejoin: miter"/>
   </g>
   <g id="patch_72">
    <path d="M 287.045888 459.52 
L 293.629188 459.52 
L 293.629188 425.918276 
L 287.045888 425.918276 
z
" clip-path="url(#p4f3be9a268)" style="fill: #66ccee; stroke: #000000; stroke-width: 0.5; stroke-linejoin: miter"/>
   </g>
   <g id="patch_73">
    <path d="M 328.191513 459.52 
L 334.774813 459.52 
L 334.774813 444.208745 
L 328.191513 444.208745 
z
" clip-path="url(#p4f3be9a268)" style="fill: #66ccee; stroke: #000000; stroke-width: 0.5; stroke-linejoin: miter"/>
   </g>
   <g id="patch_74">
    <path d="M 369.337138 459.52 
L 375.920438 459.52 
L 375.920438 426.260889 
L 369.337138 426.260889 
z
" clip-path="url(#p4f3be9a268)" style="fill: #66ccee; stroke: #000000; stroke-width: 0.5; stroke-linejoin: miter"/>
   </g>
   <g id="patch_75">
    <path d="M 410.482763 459.52 
L 417.066063 459.52 
L 417.066063 423.737245 
L 410.482763 423.737245 
z
" clip-path="url(#p4f3be9a268)" style="fill: #66ccee; stroke: #000000; stroke-width: 0.5; stroke-linejoin: miter"/>
   </g>
   <g id="patch_76">
    <path d="M 451.628388 459.52 
L 458.211688 459.52 
L 458.211688 438.640983 
L 451.628388 438.640983 
z
" clip-path="url(#p4f3be9a268)" style="fill: #66ccee; stroke: #000000; stroke-width: 0.5; stroke-linejoin: miter"/>
   </g>
   <g id="patch_77">
    <path d="M 492.774013 459.52 
L 499.357313 459.52 
L 499.357313 445.453048 
L 492.774013 445.453048 
z
" clip-path="url(#p4f3be9a268)" style="fill: #66ccee; stroke: #000000; stroke-width: 0.5; stroke-linejoin: miter"/>
   </g>
   <g id="patch_78">
    <path d="M 533.919638 459.52 
L 540.502938 459.52 
L 540.502938 428.35767 
L 533.919638 428.35767 
z
" clip-path="url(#p4f3be9a268)" style="fill: #66ccee; stroke: #000000; stroke-width: 0.5; stroke-linejoin: miter"/>
   </g>
   <g id="patch_79">
    <path d="M 575.065263 459.52 
L 581.648563 459.52 
L 581.648563 422.220134 
L 575.065263 422.220134 
z
" clip-path="url(#p4f3be9a268)" style="fill: #66ccee; stroke: #000000; stroke-width: 0.5; stroke-linejoin: miter"/>
   </g>
   <g id="patch_80">
    <path d="M 616.210888 459.52 
L 622.794188 459.52 
L 622.794188 443.58004 
L 616.210888 443.58004 
z
" clip-path="url(#p4f3be9a268)" style="fill: #66ccee; stroke: #000000; stroke-width: 0.5; stroke-linejoin: miter"/>
   </g>
   <g id="patch_81">
    <path d="M 657.356513 459.52 
L 663.939813 459.52 
L 663.939813 402.454189 
L 657.356513 402.454189 
z
" clip-path="url(#p4f3be9a268)" style="fill: #66ccee; stroke: #000000; stroke-width: 0.5; stroke-linejoin: miter"/>
   </g>
   <g id="patch_82">
    <path d="M 698.502138 459.52 
L 705.085438 459.52 
L 705.085438 132.308096 
L 698.502138 132.308096 
z
" clip-path="url(#p4f3be9a268)" style="fill: #66ccee; stroke: #000000; stroke-width: 0.5; stroke-linejoin: miter"/>
   </g>
   <g id="matplotlib.axis_1">
    <g id="xtick_1">
     <g id="line2d_1">
      <defs>
       <path id="mbf0138456c" d="M 0 0 
L 0 3.5 
" style="stroke: #000000; stroke-width: 0.8"/>
      </defs>
      <g>
       <use xlink:href="#mbf0138456c" x="71.442813" y="459.52" style="stroke: #000000; stroke-width: 0.8"/>
      </g>
     </g>
     <g id="text_1">
      <text style="font: 10px 'sans-serif'" transform="translate(74.202188 494.374687)rotate(-90)">christ</text>
     </g>
    </g>
    <g id="xtick_2">
     <g id="line2d_2">
      <g>
       <use xlink:href="#mbf0138456c" x="112.588437" y="459.52" style="stroke: #000000; stroke-width: 0.8"/>
      </g>
     </g>
     <g id="text_2">
      <text style="font: 10px 'sans-serif'" transform="translate(115.347813 490.6075)rotate(-90)">engz</text>
     </g>
    </g>
    <g id="xtick_3">
     <g id="line2d_3">
      <g>
       <use xlink:href="#mbf0138456c" x="153.734062" y="459.52" style="stroke: #000000; stroke-width: 0.8"/>
      </g>
     </g>
     <g id="text_3">
      <text style="font: 10px 'sans-serif'" transform="translate(156.493437 495.085625)rotate(-90)">gamb</text>
     </g>
    </g>
    <g id="xtick_4">
     <g id="line2d_4">
      <g>
       <use xlink:href="#mbf0138456c" x="194.879688" y="459.52" style="stroke: #000000; stroke-width: 0.8"/>
      </g>
     </g>
     <g id="text_4">
      <text style="font: 10px 'sans-serif'" transform="translate(197.639063 488.537187)rotate(-90)">gqrs</text>
     </g>
    </g>
    <g id="xtick_5">
     <g id="line2d_5">
      <g>
       <use xlink:href="#mbf0138456c" x="236.025313" y="459.52" style="stroke: #000000; stroke-width: 0.8"/>
      </g>
     </g>
     <g id="text_5">
      <text style="font: 10px 'sans-serif'" transform="translate(238.784688 498.202812)rotate(-90)">hamilt</text>
     </g>
    </g>
    <g id="xtick_6">
     <g id="line2d_6">
      <g>
       <use xlink:href="#mbf0138456c" x="277.170938" y="459.52" style="stroke: #000000; stroke-width: 0.8"/>
      </g>
     </g>
     <g id="text_6">
      <text style="font: 10px 'sans-serif'" transform="translate(279.930313 484.966875)rotate(-90)">jqrs</text>
     </g>
    </g>
    <g id="xtick_7">
     <g id="line2d_7">
      <g>
       <use xlink:href="#mbf0138456c" x="318.316563" y="459.52" style="stroke: #000000; stroke-width: 0.8"/>
      </g>
     </g>
     <g id="text_7">
      <text style="font: 10px 'sans-serif'" transform="translate(321.075938 483.82)rotate(-90)">kali</text>
     </g>
    </g>
    <g id="xtick_8">
     <g id="line2d_8">
      <g>
       <use xlink:href="#mbf0138456c" x="359.462188" y="459.52" style="stroke: #000000; stroke-width: 0.8"/>
      </g>
     </g>
     <g id="text_8">
      <text style="font: 10px 'sans-serif'" transform="translate(362.221563 490.42)rotate(-90)">mart</text>
     </g>
    </g>
    <g id="xtick_9">
     <g id="line2d_9">
      <g>
       <use xlink:href="#mbf0138456c" x="400.607813" y="459.52" style="stroke: #000000; stroke-width: 0.8"/>
      </g>
     </g>
     <g id="text_9">
      <text style="font: 10px 'sans-serif'" transform="translate(403.367188 485.334062)rotate(-90)">nab</text>
     </g>
    </g>
    <g id="xtick_10">
     <g id="line2d_10">
      <g>
       <use xlink:href="#mbf0138456c" x="441.753438" y="459.52" style="stroke: #000000; stroke-width: 0.8"/>
      </g>
     </g>
     <g id="text_10">
      <text style="font: 10px 'sans-serif'" transform="translate(444.512812 478.648125)rotate(-90)">nk</text>
     </g>
    </g>
    <g id="xtick_11">
     <g id="line2d_11">
      <g>
       <use xlink:href="#mbf0138456c" x="482.899063" y="459.52" style="stroke: #000000; stroke-width: 0.8"/>
      </g>
     </g>
     <g id="text_11">
      <text style="font: 10px 'sans-serif'" transform="translate(485.658437 515.07)rotate(-90)">pan-tomp</text>
     </g>
    </g>
    <g id="xtick_12">
     <g id="line2d_12">
      <g>
       <use xlink:href="#mbf0138456c" x="524.044688" y="459.52" style="stroke: #000000; stroke-width: 0.8"/>
      </g>
     </g>
     <g id="text_12">
      <text style="font: 10px 'sans-serif'" transform="translate(526.804062 494.574687)rotate(-90)">rdeco</text>
     </g>
    </g>
    <g id="xtick_13">
     <g id="line2d_13">
      <g>
       <use xlink:href="#mbf0138456c" x="565.190313" y="459.52" style="stroke: #000000; stroke-width: 0.8"/>
      </g>
     </g>
     <g id="text_13">
      <text style="font: 10px 'sans-serif'" transform="translate(567.949688 495.05125)rotate(-90)">rpeak</text>
     </g>
    </g>
    <g id="xtick_14">
     <g id="line2d_14">
      <g>
       <use xlink:href="#mbf0138456c" x="606.335938" y="459.52" style="stroke: #000000; stroke-width: 0.8"/>
      </g>
     </g>
     <g id="text_14">
      <text style="font: 10px 'sans-serif'" transform="translate(609.095312 506.927812)rotate(-90)">two-avg</text>
     </g>
    </g>
    <g id="xtick_15">
     <g id="line2d_15">
      <g>
       <use xlink:href="#mbf0138456c" x="647.481563" y="459.52" style="stroke: #000000; stroke-width: 0.8"/>
      </g>
     </g>
     <g id="text_15">
      <text style="font: 10px 'sans-serif'" transform="translate(650.240938 492.5825)rotate(-90)">unsw</text>
     </g>
    </g>
    <g id="xtick_16">
     <g id="line2d_16">
      <g>
       <use xlink:href="#mbf0138456c" x="688.627187" y="459.52" style="stroke: #000000; stroke-width: 0.8"/>
      </g>
     </g>
     <g id="text_16">
      <text style="font: 10px 'sans-serif'" transform="translate(691.386562 490.366875)rotate(-90)">wqrs</text>
     </g>
    </g>
    <g id="text_17">
     <text style="font: 10px 'sans-serif'; text-anchor: middle" x="380.035" y="526.668437" transform="rotate(-0, 380.035, 526.668437)">Detector</text>
    </g>
   </g>
   <g id="matplotlib.axis_2">
    <g id="ytick_1">
     <g id="line2d_17">
      <defs>
       <path id="md7688419f6" d="M 0 0 
L -3.5 0 
" style="stroke: #000000; stroke-width: 0.8"/>
      </defs>
      <g>
       <use xlink:href="#md7688419f6" x="50.87" y="459.52" style="stroke: #000000; stroke-width: 0.8"/>
      </g>
     </g>
     <g id="text_18">
      <text style="font: 10px 'sans-serif'; text-anchor: end" x="43.87" y="463.319219" transform="rotate(-0, 43.87, 463.319219)">0</text>
     </g>
    </g>
    <g id="ytick_2">
     <g id="line2d_18">
      <g>
       <use xlink:href="#md7688419f6" x="50.87" y="384.733333" style="stroke: #000000; stroke-width: 0.8"/>
      </g>
     </g>
     <g id="text_19">
      <text style="font: 10px 'sans-serif'; text-anchor: end" x="43.87" y="388.532552" transform="rotate(-0, 43.87, 388.532552)">100</text>
     </g>
    </g>
    <g id="ytick_3">
     <g id="line2d_19">
      <g>
       <use xlink:href="#md7688419f6" x="50.87" y="309.946667" style="stroke: #000000; stroke-width: 0.8"/>
      </g>
     </g>
     <g id="text_20">
      <text style="font: 10px 'sans-serif'; text-anchor: end" x="43.87" y="313.745885" transform="rotate(-0, 43.87, 313.745885)">200</text>
     </g>
    </g>
    <g id="ytick_4">
     <g id="line2d_20">
      <g>
       <use xlink:href="#md7688419f6" x="50.87" y="235.16" style="stroke: #000000; stroke-width: 0.8"/>
      </g>
     </g>
     <g id="text_21">
      <text style="font: 10px 'sans-serif'; text-anchor: end" x="43.87" y="238.959219" transform="rotate(-0, 43.87, 238.959219)">300</text>
     </g>
    </g>
    <g id="ytick_5">
     <g id="line2d_21">
      <g>
       <use xlink:href="#md7688419f6" x="50.87" y="160.373333" style="stroke: #000000; stroke-width: 0.8"/>
      </g>
     </g>
     <g id="text_22">
      <text style="font: 10px 'sans-serif'; text-anchor: end" x="43.87" y="164.172552" transform="rotate(-0, 43.87, 164.172552)">400</text>
     </g>
    </g>
    <g id="ytick_6">
     <g id="line2d_22">
      <g>
       <use xlink:href="#md7688419f6" x="50.87" y="85.586667" style="stroke: #000000; stroke-width: 0.8"/>
      </g>
     </g>
     <g id="text_23">
      <text style="font: 10px 'sans-serif'; text-anchor: end" x="43.87" y="89.385885" transform="rotate(-0, 43.87, 89.385885)">500</text>
     </g>
    </g>
    <g id="ytick_7">
     <g id="line2d_23">
      <g>
       <use xlink:href="#md7688419f6" x="50.87" y="10.8" style="stroke: #000000; stroke-width: 0.8"/>
      </g>
     </g>
     <g id="text_24">
      <text style="font: 10px 'sans-serif'; text-anchor: end" x="43.87" y="14.599219" transform="rotate(-0, 43.87, 14.599219)">600</text>
     </g>
    </g>
    <g id="text_25">
     <text style="font: 10px 'sans-serif'; text-anchor: middle" x="18.702813" y="235.16" transform="rotate(-90, 18.702813, 235.16)">Runtime (ms)</text>
    </g>
   </g>
   <g id="patch_83">
    <path d="M 50.87 459.52 
L 50.87 10.8 
" style="fill: none; stroke: #000000; stroke-width: 0.8; stroke-linejoin: miter; stroke-linecap: square"/>
   </g>
   <g id="patch_84">
    <path d="M 709.2 459.52 
L 709.2 10.8 
" style="fill: none; stroke: #000000; stroke-width: 0.8; stroke-linejoin: miter; stroke-linecap: square"/>
   </g>
   <g id="patch_85">
    <path d="M 50.87 459.52 
L 709.2 459.52 
" style="fill: none; stroke: #000000; stroke-width: 0.8; stroke-linejoin: miter; stroke-linecap: square"/>
   </g>
   <g id="patch_86">
    <path d="M 50.87 10.8 
L 709.2 10.8 
" style="fill: none; stroke: #000000; stroke-width: 0.8; stroke-linejoin: miter; stroke-linecap: square"/>
   </g>
   <g id="text_26">
    <text style="font: 4px 'sans-serif'" transform="translate(59.379962 378.667827)rotate(-90)">102.8</text>
   </g>
   <g id="text_27">
    <text style="font: 4px 'sans-serif'" transform="translate(100.525588 424.165903)rotate(-90)">41.9</text>
   </g>
   <g id="text_28">
    <text style="font: 4px 'sans-serif'" transform="translate(141.671212 451.909852)rotate(-90)">4.8</text>
   </g>
   <g id="text_29">
    <text style="font: 4px 'sans-serif'" transform="translate(182.816838 413.752873)rotate(-90)">55.8</text>
   </g>
   <g id="text_30">
    <text style="font: 4px 'sans-serif'" transform="translate(223.962463 448.805379)rotate(-90)">9.0</text>
   </g>
   <g id="text_31">
    <text style="font: 4px 'sans-serif'" transform="translate(265.108088 447.518638)rotate(-90)">10.7</text>
   </g>
   <g id="text_32">
    <text style="font: 4px 'sans-serif'" transform="translate(306.253713 453.281733)rotate(-90)">3.0</text>
   </g>
   <g id="text_33">
    <text style="font: 4px 'sans-serif'" transform="translate(347.399338 452.115528)rotate(-90)">4.6</text>
   </g>
   <g id="text_34">
    <text style="font: 4px 'sans-serif'" transform="translate(388.544962 447.313855)rotate(-90)">11.0</text>
   </g>
   <g id="text_35">
    <text style="font: 4px 'sans-serif'" transform="translate(429.690587 452.52661)rotate(-90)">4.0</text>
   </g>
   <g id="text_36">
    <text style="font: 4px 'sans-serif'" transform="translate(470.836212 453.288152)rotate(-90)">3.0</text>
   </g>
   <g id="text_37">
    <text style="font: 4px 'sans-serif'" transform="translate(511.981837 447.311448)rotate(-90)">11.0</text>
   </g>
   <g id="text_38">
    <text style="font: 4px 'sans-serif'" transform="translate(553.127463 442.657679)rotate(-90)">17.2</text>
   </g>
   <g id="text_39">
    <text style="font: 4px 'sans-serif'" transform="translate(594.273087 452.536952)rotate(-90)">4.0</text>
   </g>
   <g id="text_40">
    <text style="font: 4px 'sans-serif'" transform="translate(635.418713 435.403863)rotate(-90)">26.9</text>
   </g>
   <g id="text_41">
    <text style="font: 4px 'sans-serif'" transform="translate(676.564337 377.545038)rotate(-90)">104.3</text>
   </g>
   <g id="text_42">
    <text style="font: 4px 'sans-serif'" transform="translate(65.963263 250.386073)rotate(-90)">274.3</text>
   </g>
   <g id="text_43">
    <text style="font: 4px 'sans-serif'" transform="translate(107.108888 371.865747)rotate(-90)">111.9</text>
   </g>
   <g id="text_44">
    <text style="font: 4px 'sans-serif'" transform="translate(148.254512 447.780301)rotate(-90)">10.3</text>
   </g>
   <g id="text_45">
    <text style="font: 4px 'sans-serif'" transform="translate(189.400137 349.604597)rotate(-90)">141.6</text>
   </g>
   <g id="text_46">
    <text style="font: 4px 'sans-serif'" transform="translate(230.545762 441.33082)rotate(-90)">19.0</text>
   </g>
   <g id="text_47">
    <text style="font: 4px 'sans-serif'" transform="translate(271.691388 443.67188)rotate(-90)">15.8</text>
   </g>
   <g id="text_48">
    <text style="font: 4px 'sans-serif'" transform="translate(312.837013 453.275671)rotate(-90)">3.0</text>
   </g>
   <g id="text_49">
    <text style="font: 4px 'sans-serif'" transform="translate(353.982638 451.044893)rotate(-90)">6.0</text>
   </g>
   <g id="text_50">
    <text style="font: 4px 'sans-serif'" transform="translate(395.128263 433.14206)rotate(-90)">29.9</text>
   </g>
   <g id="text_51">
    <text style="font: 4px 'sans-serif'" transform="translate(436.273888 451.807238)rotate(-90)">5.0</text>
   </g>
   <g id="text_52">
    <text style="font: 4px 'sans-serif'" transform="translate(477.419512 453.281555)rotate(-90)">3.0</text>
   </g>
   <g id="text_53">
    <text style="font: 4px 'sans-serif'" transform="translate(518.565137 442.44193)rotate(-90)">17.5</text>
   </g>
   <g id="text_54">
    <text style="font: 4px 'sans-serif'" transform="translate(559.710763 439.37285)rotate(-90)">21.6</text>
   </g>
   <g id="text_55">
    <text style="font: 4px 'sans-serif'" transform="translate(600.856387 448.80627)rotate(-90)">9.0</text>
   </g>
   <g id="text_56">
    <text style="font: 4px 'sans-serif'" transform="translate(642.002013 427.147435)rotate(-90)">37.9</text>
   </g>
   <g id="text_57">
    <text style="font: 4px 'sans-serif'" transform="translate(683.147637 236.980278)rotate(-90)">292.2</text>
   </g>
   <g id="text_58">
    <text style="font: 4px 'sans-serif'" transform="translate(72.546563 327.897352)rotate(-90)">170.6</text>
   </g>
   <g id="text_59">
    <text style="font: 4px 'sans-serif'" transform="translate(113.692188 404.293152)rotate(-90)">68.5</text>
   </g>
   <g id="text_60">
    <text style="font: 4px 'sans-serif'" transform="translate(154.837812 450.802755)rotate(-90)">6.3</text>
   </g>
   <g id="text_61">
    <text style="font: 4px 'sans-serif'" transform="translate(195.983438 384.821678)rotate(-90)">94.5</text>
   </g>
   <g id="text_62">
    <text style="font: 4px 'sans-serif'" transform="translate(237.129063 446.245539)rotate(-90)">12.4</text>
   </g>
   <g id="text_63">
    <text style="font: 4px 'sans-serif'" transform="translate(278.274688 447.730376)rotate(-90)">10.4</text>
   </g>
   <g id="text_64">
    <text style="font: 4px 'sans-serif'" transform="translate(319.420313 454.026158)rotate(-90)">2.0</text>
   </g>
   <g id="text_65">
    <text style="font: 4px 'sans-serif'" transform="translate(360.565938 452.485957)rotate(-90)">4.1</text>
   </g>
   <g id="text_66">
    <text style="font: 4px 'sans-serif'" transform="translate(401.711563 440.392043)rotate(-90)">20.2</text>
   </g>
   <g id="text_67">
    <text style="font: 4px 'sans-serif'" transform="translate(442.857188 453.280307)rotate(-90)">3.0</text>
   </g>
   <g id="text_68">
    <text style="font: 4px 'sans-serif'" transform="translate(484.002813 454.027763)rotate(-90)">2.0</text>
   </g>
   <g id="text_69">
    <text style="font: 4px 'sans-serif'" transform="translate(525.148438 445.82554)rotate(-90)">13.0</text>
   </g>
   <g id="text_70">
    <text style="font: 4px 'sans-serif'" transform="translate(566.294063 442.381128)rotate(-90)">17.6</text>
   </g>
   <g id="text_71">
    <text style="font: 4px 'sans-serif'" transform="translate(607.439687 451.055324)rotate(-90)">6.0</text>
   </g>
   <g id="text_72">
    <text style="font: 4px 'sans-serif'" transform="translate(648.585313 431.731665)rotate(-90)">31.8</text>
   </g>
   <g id="text_73">
    <text style="font: 4px 'sans-serif'" transform="translate(689.730937 318.452341)rotate(-90)">183.3</text>
   </g>
   <g id="text_74">
    <text style="font: 4px 'sans-serif'" transform="translate(79.129863 274.347721)rotate(-90)">242.3</text>
   </g>
   <g id="text_75">
    <text style="font: 4px 'sans-serif'" transform="translate(120.275487 383.995322)rotate(-90)">95.6</text>
   </g>
   <g id="text_76">
    <text style="font: 4px 'sans-serif'" transform="translate(161.421112 449.749862)rotate(-90)">7.7</text>
   </g>
   <g id="text_77">
    <text style="font: 4px 'sans-serif'" transform="translate(202.566738 355.577379)rotate(-90)">133.6</text>
   </g>
   <g id="text_78">
    <text style="font: 4px 'sans-serif'" transform="translate(243.712363 440.840302)rotate(-90)">19.6</text>
   </g>
   <g id="text_79">
    <text style="font: 4px 'sans-serif'" transform="translate(284.857988 444.104894)rotate(-90)">15.3</text>
   </g>
   <g id="text_80">
    <text style="font: 4px 'sans-serif'" transform="translate(326.003613 453.291184)rotate(-90)">3.0</text>
   </g>
   <g id="text_81">
    <text style="font: 4px 'sans-serif'" transform="translate(367.149238 451.792528)rotate(-90)">5.0</text>
   </g>
   <g id="text_82">
    <text style="font: 4px 'sans-serif'" transform="translate(408.294863 432.215496)rotate(-90)">31.2</text>
   </g>
   <g id="text_83">
    <text style="font: 4px 'sans-serif'" transform="translate(449.440488 452.540875)rotate(-90)">4.0</text>
   </g>
   <g id="text_84">
    <text style="font: 4px 'sans-serif'" transform="translate(490.586113 453.969279)rotate(-90)">2.1</text>
   </g>
   <g id="text_85">
    <text style="font: 4px 'sans-serif'" transform="translate(531.731738 442.28939)rotate(-90)">17.7</text>
   </g>
   <g id="text_86">
    <text style="font: 4px 'sans-serif'" transform="translate(572.877363 440.779857)rotate(-90)">19.7</text>
   </g>
   <g id="text_87">
    <text style="font: 4px 'sans-serif'" transform="translate(614.022987 449.554083)rotate(-90)">8.0</text>
   </g>
   <g id="text_88">
    <text style="font: 4px 'sans-serif'" transform="translate(655.168613 428.958571)rotate(-90)">35.5</text>
   </g>
   <g id="text_89">
    <text style="font: 4px 'sans-serif'" transform="translate(696.314237 255.964979)rotate(-90)">266.8</text>
   </g>
   <g id="text_90">
    <text style="font: 4px 'sans-serif'" transform="translate(85.713163 70.725199)rotate(-90)">514.5</text>
   </g>
   <g id="text_91">
    <text style="font: 4px 'sans-serif'" transform="translate(126.858788 371.546402)rotate(-90)">112.3</text>
   </g>
   <g id="text_92">
    <text style="font: 4px 'sans-serif'" transform="translate(168.004413 412.812937)rotate(-90)">57.1</text>
   </g>
   <g id="text_93">
    <text style="font: 4px 'sans-serif'" transform="translate(209.150037 265.421044)rotate(-90)">254.2</text>
   </g>
   <g id="text_94">
    <text style="font: 4px 'sans-serif'" transform="translate(250.295663 429.478777)rotate(-90)">34.8</text>
   </g>
   <g id="text_95">
    <text style="font: 4px 'sans-serif'" transform="translate(291.441288 421.918276)rotate(-90)">44.9</text>
   </g>
   <g id="text_96">
    <text style="font: 4px 'sans-serif'" transform="translate(332.586913 440.208745)rotate(-90)">20.5</text>
   </g>
   <g id="text_97">
    <text style="font: 4px 'sans-serif'" transform="translate(373.732538 422.260889)rotate(-90)">44.5</text>
   </g>
   <g id="text_98">
    <text style="font: 4px 'sans-serif'" transform="translate(414.878163 419.737245)rotate(-90)">47.8</text>
   </g>
   <g id="text_99">
    <text style="font: 4px 'sans-serif'" transform="translate(456.023788 434.640983)rotate(-90)">27.9</text>
   </g>
   <g id="text_100">
    <text style="font: 4px 'sans-serif'" transform="translate(497.169413 441.453048)rotate(-90)">18.8</text>
   </g>
   <g id="text_101">
    <text style="font: 4px 'sans-serif'" transform="translate(538.315038 424.35767)rotate(-90)">41.7</text>
   </g>
   <g id="text_102">
    <text style="font: 4px 'sans-serif'" transform="translate(579.460663 418.220134)rotate(-90)">49.9</text>
   </g>
   <g id="text_103">
    <text style="font: 4px 'sans-serif'" transform="translate(620.606288 439.58004)rotate(-90)">21.3</text>
   </g>
   <g id="text_104">
    <text style="font: 4px 'sans-serif'" transform="translate(661.751913 398.454189)rotate(-90)">76.3</text>
   </g>
   <g id="text_105">
    <text style="font: 4px 'sans-serif'" transform="translate(702.897537 128.308096)rotate(-90)">437.5</text>
   </g>
   <g id="legend_1">
    <g id="text_106">
     <text style="font: 10px 'sans-serif'; text-anchor: start" x="356.177188" y="27.398438" transform="rotate(-0, 356.177188, 27.398438)">Database</text>
    </g>
    <g id="patch_87">
     <path d="M 353.165469 42.076563 
L 373.165469 42.076563 
L 373.165469 35.076563 
L 353.165469 35.076563 
z
" style="fill: #4477aa; stroke: #000000; stroke-width: 0.5; stroke-linejoin: miter"/>
    </g>
    <g id="text_107">
     <text style="font: 10px 'sans-serif'; text-anchor: start" x="381.165469" y="42.076563" transform="rotate(-0, 381.165469, 42.076563)">SIN</text>
    </g>
    <g id="patch_88">
     <path d="M 353.165469 56.754688 
L 373.165469 56.754688 
L 373.165469 49.754688 
L 353.165469 49.754688 
z
" style="fill: #ee6677; stroke: #000000; stroke-width: 0.5; stroke-linejoin: miter"/>
    </g>
    <g id="text_108">
     <text style="font: 10px 'sans-serif'; text-anchor: start" x="381.165469" y="56.754688" transform="rotate(-0, 381.165469, 56.754688)">ARR</text>
    </g>
    <g id="patch_89">
     <path d="M 353.165469 71.432813 
L 373.165469 71.432813 
L 373.165469 64.432813 
L 353.165469 64.432813 
z
" style="fill: #228833; stroke: #000000; stroke-width: 0.5; stroke-linejoin: miter"/>
    </g>
    <g id="text_109">
     <text style="font: 10px 'sans-serif'; text-anchor: start" x="381.165469" y="71.432813" transform="rotate(-0, 381.165469, 71.432813)">HIGH</text>
    </g>
    <g id="patch_90">
     <path d="M 353.165469 86.110938 
L 373.165469 86.110938 
L 373.165469 79.110938 
L 353.165469 79.110938 
z
" style="fill: #ccbb44; stroke: #000000; stroke-width: 0.5; stroke-linejoin: miter"/>
    </g>
    <g id="text_110">
     <text style="font: 10px 'sans-serif'; text-anchor: start" x="381.165469" y="86.110938" transform="rotate(-0, 381.165469, 86.110938)">LOW</text>
    </g>
    <g id="patch_91">
     <path d="M 353.165469 100.789062 
L 373.165469 100.789062 
L 373.165469 93.789062 
L 353.165469 93.789062 
z
" style="fill: #66ccee; stroke: #000000; stroke-width: 0.5; stroke-linejoin: miter"/>
    </g>
    <g id="text_111">
     <text style="font: 10px 'sans-serif'; text-anchor: start" x="381.165469" y="100.789062" transform="rotate(-0, 381.165469, 100.789062)">TELE</text>
    </g>
   </g>
  </g>
 </g>
 <defs>
  <clipPath id="p4f3be9a268">
   <rect x="50.87" y="10.8" width="658.33" height="448.72"/>
  </clipPath>
 </defs>
</svg>
