<?xml version="1.0" encoding="utf-8" standalone="no"?>
<!DOCTYPE svg PUBLIC "-//W3C//DTD SVG 1.1//EN"
  "http://www.w3.org/Graphics/SVG/1.1/DTD/svg11.dtd">
<svg xmlns:xlink="http://www.w3.org/1999/xlink" width="460.8pt" height="345.6pt" viewBox="0 0 460.8 345.6" xmlns="http://www.w3.org/2000/svg" version="1.1">
 <metadata>
  <rdf:RDF xmlns:dc="http://purl.org/dc/elements/1.1/" xmlns:cc="http://creativecommons.org/ns#" xmlns:rdf="http://www.w3.org/1999/02/22-rdf-syntax-ns#">
   <cc:Work>
    <dc:type rdf:resource="http://purl.org/dc/dcmitype/StillImage"/>
    <dc:date>2023-02-13T23:42:14.580730</dc:date>
    <dc:format>image/svg+xml</dc:format>
    <dc:creator>
     <cc:Agent>
      <dc:title>Matplotlib v3.5.3, https://matplotlib.org/</dc:title>
     </cc:Agent>
    </dc:creator>
   </cc:Work>
  </rdf:RDF>
 </metadata>
 <defs>
  <style type="text/css">*{stroke-linejoin: round; stroke-linecap: butt}</style>
 </defs>
 <g id="figure_1">
  <g id="patch_1">
   <path d="M 0 345.6 
L 460.8 345.6 
L 460.8 0 
L 0 0 
z
" style="fill: #ffffff"/>
  </g>
  <g id="axes_1">
   <g id="patch_2">
    <path d="M 54.02 303.64 
L 447.300294 303.64 
L 447.300294 10.8 
L 54.02 10.8 
z
" style="fill: #ffffff"/>
   </g>
   <g id="PathCollection_1">
    <defs>
     <path id="C0_0_ed847f1496" d="M 0 3 
C 0.795609 3 1.55874 2.683901 2.12132 2.12132 
C 2.683901 1.55874 3 0.795609 3 -0 
C 3 -0.795609 2.683901 -1.55874 2.12132 -2.12132 
C 1.55874 -2.683901 0.795609 -3 0 -3 
C -0.795609 -3 -1.55874 -2.683901 -2.12132 -2.12132 
C -2.683901 -1.55874 -3 -0.795609 -3 0 
C -3 0.795609 -2.683901 1.55874 -2.12132 2.12132 
C -1.55874 2.683901 -0.795609 3 0 3 
z
"/>
    </defs>
    <g clip-path="url(#p7c583abbed)">
     <use xlink:href="#C0_0_ed847f1496" x="393.561464" y="290.329091" style="fill: #4477aa; stroke: #ffffff; stroke-width: 0.48"/>
    </g>
    <g clip-path="url(#p7c583abbed)">
     <use xlink:href="#C0_0_ed847f1496" x="181.500765" y="24.110909" style="fill: #ee6677; stroke: #ffffff; stroke-width: 0.48"/>
    </g>
    <g clip-path="url(#p7c583abbed)">
     <use xlink:href="#C0_0_ed847f1496" x="88.932741" y="284.193901" style="fill: #228833; stroke: #ffffff; stroke-width: 0.48"/>
    </g>
    <g clip-path="url(#p7c583abbed)">
     <use xlink:href="#C0_0_ed847f1496" x="251.211354" y="290.329091" style="fill: #ccbb44; stroke: #ffffff; stroke-width: 0.48"/>
    </g>
    <g clip-path="url(#p7c583abbed)">
     <use xlink:href="#C0_0_ed847f1496" x="92.89722" y="290.329091" style="fill: #66ccee; stroke: #ffffff; stroke-width: 0.48"/>
    </g>
    <g clip-path="url(#p7c583abbed)">
     <use xlink:href="#C0_0_ed847f1496" x="91.066198" y="247.689518" style="fill: #aa3377; stroke: #ffffff; stroke-width: 0.48"/>
    </g>
    <g clip-path="url(#p7c583abbed)">
     <use xlink:href="#C0_0_ed847f1496" x="71.896377" y="290.329091" style="fill: #bbbbbb; stroke: #ffffff; stroke-width: 0.48"/>
    </g>
    <g clip-path="url(#p7c583abbed)">
     <use xlink:href="#C0_0_ed847f1496" x="75.225333" y="290.329091" style="fill: #77aadd; stroke: #ffffff; stroke-width: 0.48"/>
    </g>
    <g clip-path="url(#p7c583abbed)">
     <use xlink:href="#C0_0_ed847f1496" x="106.878683" y="290.329091" style="fill: #ee8866; stroke: #ffffff; stroke-width: 0.48"/>
    </g>
    <g clip-path="url(#p7c583abbed)">
     <use xlink:href="#C0_0_ed847f1496" x="73.714791" y="290.329091" style="fill: #eedd88; stroke: #ffffff; stroke-width: 0.48"/>
    </g>
    <g clip-path="url(#p7c583abbed)">
     <use xlink:href="#C0_0_ed847f1496" x="71.921211" y="290.329091" style="fill: #ffaabb; stroke: #ffffff; stroke-width: 0.48"/>
    </g>
    <g clip-path="url(#p7c583abbed)">
     <use xlink:href="#C0_0_ed847f1496" x="93.309123" y="229.590706" style="fill: #99ddff; stroke: #ffffff; stroke-width: 0.48"/>
    </g>
    <g clip-path="url(#p7c583abbed)">
     <use xlink:href="#C0_0_ed847f1496" x="97.858247" y="269.616688" style="fill: #44bb99; stroke: #ffffff; stroke-width: 0.48"/>
    </g>
    <g clip-path="url(#p7c583abbed)">
     <use xlink:href="#C0_0_ed847f1496" x="78.805712" y="290.329091" style="fill: #bbcc33; stroke: #ffffff; stroke-width: 0.48"/>
    </g>
    <g clip-path="url(#p7c583abbed)">
     <use xlink:href="#C0_0_ed847f1496" x="125.93992" y="290.329091" style="fill: #aaaa00; stroke: #ffffff; stroke-width: 0.48"/>
    </g>
    <g clip-path="url(#p7c583abbed)">
     <use xlink:href="#C0_0_ed847f1496" x="429.423917" y="290.329091" style="fill: #dddddd; stroke: #ffffff; stroke-width: 0.48"/>
    </g>
   </g>
   <g id="PathCollection_2"/>
   <g id="PathCollection_3"/>
   <g id="PathCollection_4"/>
   <g id="PathCollection_5"/>
   <g id="PathCollection_6"/>
   <g id="PathCollection_7"/>
   <g id="PathCollection_8"/>
   <g id="PathCollection_9"/>
   <g id="PathCollection_10"/>
   <g id="PathCollection_11"/>
   <g id="PathCollection_12"/>
   <g id="PathCollection_13"/>
   <g id="PathCollection_14"/>
   <g id="PathCollection_15"/>
   <g id="PathCollection_16"/>
   <g id="PathCollection_17"/>
   <g id="matplotlib.axis_1">
    <g id="xtick_1">
     <g id="line2d_1">
      <defs>
       <path id="me880378b5d" d="M 0 0 
L 0 3.5 
" style="stroke: #000000; stroke-width: 0.8"/>
      </defs>
      <g>
       <use xlink:href="#me880378b5d" x="67.809157" y="303.64" style="stroke: #000000; stroke-width: 0.8"/>
      </g>
     </g>
     <g id="text_1">
      <text style="font: 10px 'sans-serif'; text-anchor: middle" x="67.809157" y="318.238437" transform="rotate(-0, 67.809157, 318.238437)">0</text>
     </g>
    </g>
    <g id="xtick_2">
     <g id="line2d_2">
      <g>
       <use xlink:href="#me880378b5d" x="142.220625" y="303.64" style="stroke: #000000; stroke-width: 0.8"/>
      </g>
     </g>
     <g id="text_2">
      <text style="font: 10px 'sans-serif'; text-anchor: middle" x="142.220625" y="318.238437" transform="rotate(-0, 142.220625, 318.238437)">50</text>
     </g>
    </g>
    <g id="xtick_3">
     <g id="line2d_3">
      <g>
       <use xlink:href="#me880378b5d" x="216.632093" y="303.64" style="stroke: #000000; stroke-width: 0.8"/>
      </g>
     </g>
     <g id="text_3">
      <text style="font: 10px 'sans-serif'; text-anchor: middle" x="216.632093" y="318.238437" transform="rotate(-0, 216.632093, 318.238437)">100</text>
     </g>
    </g>
    <g id="xtick_4">
     <g id="line2d_4">
      <g>
       <use xlink:href="#me880378b5d" x="291.043561" y="303.64" style="stroke: #000000; stroke-width: 0.8"/>
      </g>
     </g>
     <g id="text_4">
      <text style="font: 10px 'sans-serif'; text-anchor: middle" x="291.043561" y="318.238437" transform="rotate(-0, 291.043561, 318.238437)">150</text>
     </g>
    </g>
    <g id="xtick_5">
     <g id="line2d_5">
      <g>
       <use xlink:href="#me880378b5d" x="365.455029" y="303.64" style="stroke: #000000; stroke-width: 0.8"/>
      </g>
     </g>
     <g id="text_5">
      <text style="font: 10px 'sans-serif'; text-anchor: middle" x="365.455029" y="318.238437" transform="rotate(-0, 365.455029, 318.238437)">200</text>
     </g>
    </g>
    <g id="xtick_6">
     <g id="line2d_6">
      <g>
       <use xlink:href="#me880378b5d" x="439.866497" y="303.64" style="stroke: #000000; stroke-width: 0.8"/>
      </g>
     </g>
     <g id="text_6">
      <text style="font: 10px 'sans-serif'; text-anchor: middle" x="439.866497" y="318.238437" transform="rotate(-0, 439.866497, 318.238437)">250</text>
     </g>
    </g>
    <g id="text_7">
     <text style="font: 10px 'sans-serif'; text-anchor: middle" x="250.660147" y="331.916562" transform="rotate(-0, 250.660147, 331.916562)">runtime</text>
    </g>
   </g>
   <g id="matplotlib.axis_2">
    <g id="ytick_1">
     <g id="line2d_7">
      <defs>
       <path id="m8f23e39a93" d="M 0 0 
L -3.5 0 
" style="stroke: #000000; stroke-width: 0.8"/>
      </defs>
      <g>
       <use xlink:href="#m8f23e39a93" x="54.02" y="290.329091" style="stroke: #000000; stroke-width: 0.8"/>
      </g>
     </g>
     <g id="text_8">
      <text style="font: 10px 'sans-serif'; text-anchor: end" x="47.02" y="294.12831" transform="rotate(-0, 47.02, 294.12831)">0.00</text>
     </g>
    </g>
    <g id="ytick_2">
     <g id="line2d_8">
      <g>
       <use xlink:href="#m8f23e39a93" x="54.02" y="229.590706" style="stroke: #000000; stroke-width: 0.8"/>
      </g>
     </g>
     <g id="text_9">
      <text style="font: 10px 'sans-serif'; text-anchor: end" x="47.02" y="233.389925" transform="rotate(-0, 47.02, 233.389925)">0.02</text>
     </g>
    </g>
    <g id="ytick_3">
     <g id="line2d_9">
      <g>
       <use xlink:href="#m8f23e39a93" x="54.02" y="168.852321" style="stroke: #000000; stroke-width: 0.8"/>
      </g>
     </g>
     <g id="text_10">
      <text style="font: 10px 'sans-serif'; text-anchor: end" x="47.02" y="172.65154" transform="rotate(-0, 47.02, 172.65154)">0.04</text>
     </g>
    </g>
    <g id="ytick_4">
     <g id="line2d_10">
      <g>
       <use xlink:href="#m8f23e39a93" x="54.02" y="108.113936" style="stroke: #000000; stroke-width: 0.8"/>
      </g>
     </g>
     <g id="text_11">
      <text style="font: 10px 'sans-serif'; text-anchor: end" x="47.02" y="111.913155" transform="rotate(-0, 47.02, 111.913155)">0.06</text>
     </g>
    </g>
    <g id="ytick_5">
     <g id="line2d_11">
      <g>
       <use xlink:href="#m8f23e39a93" x="54.02" y="47.375551" style="stroke: #000000; stroke-width: 0.8"/>
      </g>
     </g>
     <g id="text_12">
      <text style="font: 10px 'sans-serif'; text-anchor: end" x="47.02" y="51.17477" transform="rotate(-0, 47.02, 51.17477)">0.08</text>
     </g>
    </g>
    <g id="text_13">
     <text style="font: 10px 'sans-serif'; text-anchor: middle" x="18.674688" y="157.22" transform="rotate(-90, 18.674688, 157.22)">failed</text>
    </g>
   </g>
   <g id="patch_3">
    <path d="M 54.02 303.64 
L 54.02 10.8 
" style="fill: none; stroke: #000000; stroke-width: 0.8; stroke-linejoin: miter; stroke-linecap: square"/>
   </g>
   <g id="patch_4">
    <path d="M 447.300294 303.64 
L 447.300294 10.8 
" style="fill: none; stroke: #000000; stroke-width: 0.8; stroke-linejoin: miter; stroke-linecap: square"/>
   </g>
   <g id="patch_5">
    <path d="M 54.02 303.64 
L 447.300294 303.64 
" style="fill: none; stroke: #000000; stroke-width: 0.8; stroke-linejoin: miter; stroke-linecap: square"/>
   </g>
   <g id="patch_6">
    <path d="M 54.02 10.8 
L 447.300294 10.8 
" style="fill: none; stroke: #000000; stroke-width: 0.8; stroke-linejoin: miter; stroke-linecap: square"/>
   </g>
   <g id="legend_1">
    <g id="patch_7">
     <path d="M 359.750294 268.328125 
L 440.300294 268.328125 
Q 442.300294 268.328125 442.300294 266.328125 
L 442.300294 17.8 
Q 442.300294 15.8 440.300294 15.8 
L 359.750294 15.8 
Q 357.750294 15.8 357.750294 17.8 
L 357.750294 266.328125 
Q 357.750294 268.328125 359.750294 268.328125 
z
" style="fill: #ffffff; opacity: 0.8; stroke: #cccccc; stroke-linejoin: miter"/>
    </g>
    <g id="text_14">
     <text style="font: 10px 'sans-serif'; text-anchor: start" x="378.913575" y="27.398438" transform="rotate(-0, 378.913575, 27.398438)">detector</text>
    </g>
    <g id="PathCollection_18">
     <defs>
      <path id="m80a1cc4160" d="M 0 3 
C 0.795609 3 1.55874 2.683901 2.12132 2.12132 
C 2.683901 1.55874 3 0.795609 3 0 
C 3 -0.795609 2.683901 -1.55874 2.12132 -2.12132 
C 1.55874 -2.683901 0.795609 -3 0 -3 
C -0.795609 -3 -1.55874 -2.683901 -2.12132 -2.12132 
C -2.683901 -1.55874 -3 -0.795609 -3 0 
C -3 0.795609 -2.683901 1.55874 -2.12132 2.12132 
C -1.55874 2.683901 -0.795609 3 0 3 
z
" style="stroke: #4477aa"/>
     </defs>
     <g>
      <use xlink:href="#m80a1cc4160" x="371.750294" y="39.451563" style="fill: #4477aa; stroke: #4477aa"/>
     </g>
    </g>
    <g id="text_15">
     <text style="font: 10px 'sans-serif'; text-anchor: start" x="389.750294" y="42.076563" transform="rotate(-0, 389.750294, 42.076563)">christ</text>
    </g>
    <g id="PathCollection_19">
     <defs>
      <path id="mdbd7cc58f5" d="M 0 3 
C 0.795609 3 1.55874 2.683901 2.12132 2.12132 
C 2.683901 1.55874 3 0.795609 3 0 
C 3 -0.795609 2.683901 -1.55874 2.12132 -2.12132 
C 1.55874 -2.683901 0.795609 -3 0 -3 
C -0.795609 -3 -1.55874 -2.683901 -2.12132 -2.12132 
C -2.683901 -1.55874 -3 -0.795609 -3 0 
C -3 0.795609 -2.683901 1.55874 -2.12132 2.12132 
C -1.55874 2.683901 -0.795609 3 0 3 
z
" style="stroke: #ee6677"/>
     </defs>
     <g>
      <use xlink:href="#mdbd7cc58f5" x="371.750294" y="54.129688" style="fill: #ee6677; stroke: #ee6677"/>
     </g>
    </g>
    <g id="text_16">
     <text style="font: 10px 'sans-serif'; text-anchor: start" x="389.750294" y="56.754688" transform="rotate(-0, 389.750294, 56.754688)">engz</text>
    </g>
    <g id="PathCollection_20">
     <defs>
      <path id="m9bc043c133" d="M 0 3 
C 0.795609 3 1.55874 2.683901 2.12132 2.12132 
C 2.683901 1.55874 3 0.795609 3 0 
C 3 -0.795609 2.683901 -1.55874 2.12132 -2.12132 
C 1.55874 -2.683901 0.795609 -3 0 -3 
C -0.795609 -3 -1.55874 -2.683901 -2.12132 -2.12132 
C -2.683901 -1.55874 -3 -0.795609 -3 0 
C -3 0.795609 -2.683901 1.55874 -2.12132 2.12132 
C -1.55874 2.683901 -0.795609 3 0 3 
z
" style="stroke: #228833"/>
     </defs>
     <g>
      <use xlink:href="#m9bc043c133" x="371.750294" y="68.807813" style="fill: #228833; stroke: #228833"/>
     </g>
    </g>
    <g id="text_17">
     <text style="font: 10px 'sans-serif'; text-anchor: start" x="389.750294" y="71.432813" transform="rotate(-0, 389.750294, 71.432813)">gamb</text>
    </g>
    <g id="PathCollection_21">
     <defs>
      <path id="m4f8afa74d8" d="M 0 3 
C 0.795609 3 1.55874 2.683901 2.12132 2.12132 
C 2.683901 1.55874 3 0.795609 3 0 
C 3 -0.795609 2.683901 -1.55874 2.12132 -2.12132 
C 1.55874 -2.683901 0.795609 -3 0 -3 
C -0.795609 -3 -1.55874 -2.683901 -2.12132 -2.12132 
C -2.683901 -1.55874 -3 -0.795609 -3 0 
C -3 0.795609 -2.683901 1.55874 -2.12132 2.12132 
C -1.55874 2.683901 -0.795609 3 0 3 
z
" style="stroke: #ccbb44"/>
     </defs>
     <g>
      <use xlink:href="#m4f8afa74d8" x="371.750294" y="83.485938" style="fill: #ccbb44; stroke: #ccbb44"/>
     </g>
    </g>
    <g id="text_18">
     <text style="font: 10px 'sans-serif'; text-anchor: start" x="389.750294" y="86.110938" transform="rotate(-0, 389.750294, 86.110938)">gqrs</text>
    </g>
    <g id="PathCollection_22">
     <defs>
      <path id="m3a29496a10" d="M 0 3 
C 0.795609 3 1.55874 2.683901 2.12132 2.12132 
C 2.683901 1.55874 3 0.795609 3 0 
C 3 -0.795609 2.683901 -1.55874 2.12132 -2.12132 
C 1.55874 -2.683901 0.795609 -3 0 -3 
C -0.795609 -3 -1.55874 -2.683901 -2.12132 -2.12132 
C -2.683901 -1.55874 -3 -0.795609 -3 0 
C -3 0.795609 -2.683901 1.55874 -2.12132 2.12132 
C -1.55874 2.683901 -0.795609 3 0 3 
z
" style="stroke: #66ccee"/>
     </defs>
     <g>
      <use xlink:href="#m3a29496a10" x="371.750294" y="98.164063" style="fill: #66ccee; stroke: #66ccee"/>
     </g>
    </g>
    <g id="text_19">
     <text style="font: 10px 'sans-serif'; text-anchor: start" x="389.750294" y="100.789063" transform="rotate(-0, 389.750294, 100.789063)">hamilt</text>
    </g>
    <g id="PathCollection_23">
     <defs>
      <path id="m0e93928a40" d="M 0 3 
C 0.795609 3 1.55874 2.683901 2.12132 2.12132 
C 2.683901 1.55874 3 0.795609 3 0 
C 3 -0.795609 2.683901 -1.55874 2.12132 -2.12132 
C 1.55874 -2.683901 0.795609 -3 0 -3 
C -0.795609 -3 -1.55874 -2.683901 -2.12132 -2.12132 
C -2.683901 -1.55874 -3 -0.795609 -3 0 
C -3 0.795609 -2.683901 1.55874 -2.12132 2.12132 
C -1.55874 2.683901 -0.795609 3 0 3 
z
" style="stroke: #aa3377"/>
     </defs>
     <g>
      <use xlink:href="#m0e93928a40" x="371.750294" y="112.842188" style="fill: #aa3377; stroke: #aa3377"/>
     </g>
    </g>
    <g id="text_20">
     <text style="font: 10px 'sans-serif'; text-anchor: start" x="389.750294" y="115.467188" transform="rotate(-0, 389.750294, 115.467188)">jqrs</text>
    </g>
    <g id="PathCollection_24">
     <defs>
      <path id="m456119961e" d="M 0 3 
C 0.795609 3 1.55874 2.683901 2.12132 2.12132 
C 2.683901 1.55874 3 0.795609 3 0 
C 3 -0.795609 2.683901 -1.55874 2.12132 -2.12132 
C 1.55874 -2.683901 0.795609 -3 0 -3 
C -0.795609 -3 -1.55874 -2.683901 -2.12132 -2.12132 
C -2.683901 -1.55874 -3 -0.795609 -3 0 
C -3 0.795609 -2.683901 1.55874 -2.12132 2.12132 
C -1.55874 2.683901 -0.795609 3 0 3 
z
" style="stroke: #bbbbbb"/>
     </defs>
     <g>
      <use xlink:href="#m456119961e" x="371.750294" y="127.520313" style="fill: #bbbbbb; stroke: #bbbbbb"/>
     </g>
    </g>
    <g id="text_21">
     <text style="font: 10px 'sans-serif'; text-anchor: start" x="389.750294" y="130.145313" transform="rotate(-0, 389.750294, 130.145313)">kali</text>
    </g>
    <g id="PathCollection_25">
     <defs>
      <path id="mb0d392ca1e" d="M 0 3 
C 0.795609 3 1.55874 2.683901 2.12132 2.12132 
C 2.683901 1.55874 3 0.795609 3 0 
C 3 -0.795609 2.683901 -1.55874 2.12132 -2.12132 
C 1.55874 -2.683901 0.795609 -3 0 -3 
C -0.795609 -3 -1.55874 -2.683901 -2.12132 -2.12132 
C -2.683901 -1.55874 -3 -0.795609 -3 0 
C -3 0.795609 -2.683901 1.55874 -2.12132 2.12132 
C -1.55874 2.683901 -0.795609 3 0 3 
z
" style="stroke: #77aadd"/>
     </defs>
     <g>
      <use xlink:href="#mb0d392ca1e" x="371.750294" y="142.198438" style="fill: #77aadd; stroke: #77aadd"/>
     </g>
    </g>
    <g id="text_22">
     <text style="font: 10px 'sans-serif'; text-anchor: start" x="389.750294" y="144.823438" transform="rotate(-0, 389.750294, 144.823438)">mart</text>
    </g>
    <g id="PathCollection_26">
     <defs>
      <path id="m9c102dd168" d="M 0 3 
C 0.795609 3 1.55874 2.683901 2.12132 2.12132 
C 2.683901 1.55874 3 0.795609 3 0 
C 3 -0.795609 2.683901 -1.55874 2.12132 -2.12132 
C 1.55874 -2.683901 0.795609 -3 0 -3 
C -0.795609 -3 -1.55874 -2.683901 -2.12132 -2.12132 
C -2.683901 -1.55874 -3 -0.795609 -3 0 
C -3 0.795609 -2.683901 1.55874 -2.12132 2.12132 
C -1.55874 2.683901 -0.795609 3 0 3 
z
" style="stroke: #ee8866"/>
     </defs>
     <g>
      <use xlink:href="#m9c102dd168" x="371.750294" y="156.876563" style="fill: #ee8866; stroke: #ee8866"/>
     </g>
    </g>
    <g id="text_23">
     <text style="font: 10px 'sans-serif'; text-anchor: start" x="389.750294" y="159.501563" transform="rotate(-0, 389.750294, 159.501563)">nab</text>
    </g>
    <g id="PathCollection_27">
     <defs>
      <path id="mbe5cc502ed" d="M 0 3 
C 0.795609 3 1.55874 2.683901 2.12132 2.12132 
C 2.683901 1.55874 3 0.795609 3 0 
C 3 -0.795609 2.683901 -1.55874 2.12132 -2.12132 
C 1.55874 -2.683901 0.795609 -3 0 -3 
C -0.795609 -3 -1.55874 -2.683901 -2.12132 -2.12132 
C -2.683901 -1.55874 -3 -0.795609 -3 0 
C -3 0.795609 -2.683901 1.55874 -2.12132 2.12132 
C -1.55874 2.683901 -0.795609 3 0 3 
z
" style="stroke: #eedd88"/>
     </defs>
     <g>
      <use xlink:href="#mbe5cc502ed" x="371.750294" y="171.554688" style="fill: #eedd88; stroke: #eedd88"/>
     </g>
    </g>
    <g id="text_24">
     <text style="font: 10px 'sans-serif'; text-anchor: start" x="389.750294" y="174.179688" transform="rotate(-0, 389.750294, 174.179688)">nk</text>
    </g>
    <g id="PathCollection_28">
     <defs>
      <path id="m065bea87db" d="M 0 3 
C 0.795609 3 1.55874 2.683901 2.12132 2.12132 
C 2.683901 1.55874 3 0.795609 3 0 
C 3 -0.795609 2.683901 -1.55874 2.12132 -2.12132 
C 1.55874 -2.683901 0.795609 -3 0 -3 
C -0.795609 -3 -1.55874 -2.683901 -2.12132 -2.12132 
C -2.683901 -1.55874 -3 -0.795609 -3 0 
C -3 0.795609 -2.683901 1.55874 -2.12132 2.12132 
C -1.55874 2.683901 -0.795609 3 0 3 
z
" style="stroke: #ffaabb"/>
     </defs>
     <g>
      <use xlink:href="#m065bea87db" x="371.750294" y="186.232813" style="fill: #ffaabb; stroke: #ffaabb"/>
     </g>
    </g>
    <g id="text_25">
     <text style="font: 10px 'sans-serif'; text-anchor: start" x="389.750294" y="188.857813" transform="rotate(-0, 389.750294, 188.857813)">pan-tomp</text>
    </g>
    <g id="PathCollection_29">
     <defs>
      <path id="m57e47f948a" d="M 0 3 
C 0.795609 3 1.55874 2.683901 2.12132 2.12132 
C 2.683901 1.55874 3 0.795609 3 0 
C 3 -0.795609 2.683901 -1.55874 2.12132 -2.12132 
C 1.55874 -2.683901 0.795609 -3 0 -3 
C -0.795609 -3 -1.55874 -2.683901 -2.12132 -2.12132 
C -2.683901 -1.55874 -3 -0.795609 -3 0 
C -3 0.795609 -2.683901 1.55874 -2.12132 2.12132 
C -1.55874 2.683901 -0.795609 3 0 3 
z
" style="stroke: #99ddff"/>
     </defs>
     <g>
      <use xlink:href="#m57e47f948a" x="371.750294" y="200.910938" style="fill: #99ddff; stroke: #99ddff"/>
     </g>
    </g>
    <g id="text_26">
     <text style="font: 10px 'sans-serif'; text-anchor: start" x="389.750294" y="203.535938" transform="rotate(-0, 389.750294, 203.535938)">rdeco</text>
    </g>
    <g id="PathCollection_30">
     <defs>
      <path id="mb3997a9321" d="M 0 3 
C 0.795609 3 1.55874 2.683901 2.12132 2.12132 
C 2.683901 1.55874 3 0.795609 3 0 
C 3 -0.795609 2.683901 -1.55874 2.12132 -2.12132 
C 1.55874 -2.683901 0.795609 -3 0 -3 
C -0.795609 -3 -1.55874 -2.683901 -2.12132 -2.12132 
C -2.683901 -1.55874 -3 -0.795609 -3 0 
C -3 0.795609 -2.683901 1.55874 -2.12132 2.12132 
C -1.55874 2.683901 -0.795609 3 0 3 
z
" style="stroke: #44bb99"/>
     </defs>
     <g>
      <use xlink:href="#mb3997a9321" x="371.750294" y="215.589063" style="fill: #44bb99; stroke: #44bb99"/>
     </g>
    </g>
    <g id="text_27">
     <text style="font: 10px 'sans-serif'; text-anchor: start" x="389.750294" y="218.214063" transform="rotate(-0, 389.750294, 218.214063)">rpeak</text>
    </g>
    <g id="PathCollection_31">
     <defs>
      <path id="mcfcb173e11" d="M 0 3 
C 0.795609 3 1.55874 2.683901 2.12132 2.12132 
C 2.683901 1.55874 3 0.795609 3 0 
C 3 -0.795609 2.683901 -1.55874 2.12132 -2.12132 
C 1.55874 -2.683901 0.795609 -3 0 -3 
C -0.795609 -3 -1.55874 -2.683901 -2.12132 -2.12132 
C -2.683901 -1.55874 -3 -0.795609 -3 0 
C -3 0.795609 -2.683901 1.55874 -2.12132 2.12132 
C -1.55874 2.683901 -0.795609 3 0 3 
z
" style="stroke: #bbcc33"/>
     </defs>
     <g>
      <use xlink:href="#mcfcb173e11" x="371.750294" y="230.267188" style="fill: #bbcc33; stroke: #bbcc33"/>
     </g>
    </g>
    <g id="text_28">
     <text style="font: 10px 'sans-serif'; text-anchor: start" x="389.750294" y="232.892188" transform="rotate(-0, 389.750294, 232.892188)">two-avg</text>
    </g>
    <g id="PathCollection_32">
     <defs>
      <path id="mc2fef7a689" d="M 0 3 
C 0.795609 3 1.55874 2.683901 2.12132 2.12132 
C 2.683901 1.55874 3 0.795609 3 0 
C 3 -0.795609 2.683901 -1.55874 2.12132 -2.12132 
C 1.55874 -2.683901 0.795609 -3 0 -3 
C -0.795609 -3 -1.55874 -2.683901 -2.12132 -2.12132 
C -2.683901 -1.55874 -3 -0.795609 -3 0 
C -3 0.795609 -2.683901 1.55874 -2.12132 2.12132 
C -1.55874 2.683901 -0.795609 3 0 3 
z
" style="stroke: #aaaa00"/>
     </defs>
     <g>
      <use xlink:href="#mc2fef7a689" x="371.750294" y="244.945313" style="fill: #aaaa00; stroke: #aaaa00"/>
     </g>
    </g>
    <g id="text_29">
     <text style="font: 10px 'sans-serif'; text-anchor: start" x="389.750294" y="247.570313" transform="rotate(-0, 389.750294, 247.570313)">unsw</text>
    </g>
    <g id="PathCollection_33">
     <defs>
      <path id="mb0a9d75515" d="M 0 3 
C 0.795609 3 1.55874 2.683901 2.12132 2.12132 
C 2.683901 1.55874 3 0.795609 3 0 
C 3 -0.795609 2.683901 -1.55874 2.12132 -2.12132 
C 1.55874 -2.683901 0.795609 -3 0 -3 
C -0.795609 -3 -1.55874 -2.683901 -2.12132 -2.12132 
C -2.683901 -1.55874 -3 -0.795609 -3 0 
C -3 0.795609 -2.683901 1.55874 -2.12132 2.12132 
C -1.55874 2.683901 -0.795609 3 0 3 
z
" style="stroke: #dddddd"/>
     </defs>
     <g>
      <use xlink:href="#mb0a9d75515" x="371.750294" y="259.623438" style="fill: #dddddd; stroke: #dddddd"/>
     </g>
    </g>
    <g id="text_30">
     <text style="font: 10px 'sans-serif'; text-anchor: start" x="389.750294" y="262.248438" transform="rotate(-0, 389.750294, 262.248438)">wqrs</text>
    </g>
   </g>
  </g>
 </g>
 <defs>
  <clipPath id="p7c583abbed">
   <rect x="54.02" y="10.8" width="393.280294" height="292.84"/>
  </clipPath>
 </defs>
</svg>
