<?xml version="1.0" encoding="utf-8" standalone="no"?>
<!DOCTYPE svg PUBLIC "-//W3C//DTD SVG 1.1//EN"
  "http://www.w3.org/Graphics/SVG/1.1/DTD/svg11.dtd">
<svg xmlns:xlink="http://www.w3.org/1999/xlink" width="460.8pt" height="345.6pt" viewBox="0 0 460.8 345.6" xmlns="http://www.w3.org/2000/svg" version="1.1">
 <metadata>
  <rdf:RDF xmlns:dc="http://purl.org/dc/elements/1.1/" xmlns:cc="http://creativecommons.org/ns#" xmlns:rdf="http://www.w3.org/1999/02/22-rdf-syntax-ns#">
   <cc:Work>
    <dc:type rdf:resource="http://purl.org/dc/dcmitype/StillImage"/>
    <dc:date>2024-01-09T21:38:57.308357</dc:date>
    <dc:format>image/svg+xml</dc:format>
    <dc:creator>
     <cc:Agent>
      <dc:title>Matplotlib v3.5.3, https://matplotlib.org/</dc:title>
     </cc:Agent>
    </dc:creator>
   </cc:Work>
  </rdf:RDF>
 </metadata>
 <defs>
  <style type="text/css">*{stroke-linejoin: round; stroke-linecap: butt}</style>
 </defs>
 <g id="figure_1">
  <g id="patch_1">
   <path d="M 0 345.6 
L 460.8 345.6 
L 460.8 0 
L 0 0 
z
" style="fill: #ffffff"/>
  </g>
  <g id="axes_1">
   <g id="patch_2">
    <path d="M 54.02 303.64 
L 444.54566 303.64 
L 444.54566 39.208 
L 54.02 39.208 
z
" style="fill: #ffffff"/>
   </g>
   <g id="PathCollection_1">
    <defs>
     <path id="C0_0_e3ac81098e" d="M 0 3 
C 0.795609 3 1.55874 2.683901 2.12132 2.12132 
C 2.683901 1.55874 3 0.795609 3 -0 
C 3 -0.795609 2.683901 -1.55874 2.12132 -2.12132 
C 1.55874 -2.683901 0.795609 -3 0 -3 
C -0.795609 -3 -1.55874 -2.683901 -2.12132 -2.12132 
C -2.683901 -1.55874 -3 -0.795609 -3 0 
C -3 0.795609 -2.683901 1.55874 -2.12132 2.12132 
C -1.55874 2.683901 -0.795609 3 0 3 
z
"/>
    </defs>
    <g clip-path="url(#pe66d20829f)">
     <use xlink:href="#C0_0_e3ac81098e" x="426.794494" y="291.620364" style="fill: #4477aa; stroke: #ffffff; stroke-width: 0.48"/>
    </g>
    <g clip-path="url(#pe66d20829f)">
     <use xlink:href="#C0_0_e3ac81098e" x="159.449862" y="219.040146" style="fill: #ee6677; stroke: #ffffff; stroke-width: 0.48"/>
    </g>
    <g clip-path="url(#pe66d20829f)">
     <use xlink:href="#C0_0_e3ac81098e" x="216.55794" y="291.620364" style="fill: #228833; stroke: #ffffff; stroke-width: 0.48"/>
    </g>
    <g clip-path="url(#pe66d20829f)">
     <use xlink:href="#C0_0_e3ac81098e" x="397.509746" y="291.620364" style="fill: #ccbb44; stroke: #ffffff; stroke-width: 0.48"/>
    </g>
    <g clip-path="url(#pe66d20829f)">
     <use xlink:href="#C0_0_e3ac81098e" x="72.044915" y="51.227636" style="fill: #66ccee; stroke: #ffffff; stroke-width: 0.48"/>
    </g>
    <g clip-path="url(#pe66d20829f)">
     <use xlink:href="#C0_0_e3ac81098e" x="106.271066" y="279.141283" style="fill: #aa3377; stroke: #ffffff; stroke-width: 0.48"/>
    </g>
    <g clip-path="url(#pe66d20829f)">
     <use xlink:href="#C0_0_e3ac81098e" x="76.275318" y="291.620364" style="fill: #bbbbbb; stroke: #ffffff; stroke-width: 0.48"/>
    </g>
    <g clip-path="url(#pe66d20829f)">
     <use xlink:href="#C0_0_e3ac81098e" x="72.362013" y="285.984355" style="fill: #77aadd; stroke: #ffffff; stroke-width: 0.48"/>
    </g>
    <g clip-path="url(#pe66d20829f)">
     <use xlink:href="#C0_0_e3ac81098e" x="72.185818" y="291.620364" style="fill: #ee8866; stroke: #ffffff; stroke-width: 0.48"/>
    </g>
    <g clip-path="url(#pe66d20829f)">
     <use xlink:href="#C0_0_e3ac81098e" x="72.585717" y="291.620364" style="fill: #eedd88; stroke: #ffffff; stroke-width: 0.48"/>
    </g>
    <g clip-path="url(#pe66d20829f)">
     <use xlink:href="#C0_0_e3ac81098e" x="78.439446" y="291.620364" style="fill: #ffaabb; stroke: #ffffff; stroke-width: 0.48"/>
    </g>
    <g clip-path="url(#pe66d20829f)">
     <use xlink:href="#C0_0_e3ac81098e" x="72.347665" y="291.620364" style="fill: #99ddff; stroke: #ffffff; stroke-width: 0.48"/>
    </g>
    <g clip-path="url(#pe66d20829f)">
     <use xlink:href="#C0_0_e3ac81098e" x="72.091254" y="291.620364" style="fill: #44bb99; stroke: #ffffff; stroke-width: 0.48"/>
    </g>
    <g clip-path="url(#pe66d20829f)">
     <use xlink:href="#C0_0_e3ac81098e" x="72.299842" y="281.936778" style="fill: #bbcc33; stroke: #ffffff; stroke-width: 0.48"/>
    </g>
    <g clip-path="url(#pe66d20829f)">
     <use xlink:href="#C0_0_e3ac81098e" x="71.771166" y="276.289585" style="fill: #aaaa00; stroke: #ffffff; stroke-width: 0.48"/>
    </g>
    <g clip-path="url(#pe66d20829f)">
     <use xlink:href="#C0_0_e3ac81098e" x="73.906851" y="291.620364" style="fill: #dddddd; stroke: #ffffff; stroke-width: 0.48"/>
    </g>
    <g clip-path="url(#pe66d20829f)">
     <use xlink:href="#C0_0_e3ac81098e" x="81.03441" y="291.620364" style="stroke: #ffffff; stroke-width: 0.48"/>
    </g>
    <g clip-path="url(#pe66d20829f)">
     <use xlink:href="#C0_0_e3ac81098e" x="353.269145" y="291.620364" style="fill: #4477aa; stroke: #ffffff; stroke-width: 0.48"/>
    </g>
   </g>
   <g id="PathCollection_2"/>
   <g id="PathCollection_3"/>
   <g id="PathCollection_4"/>
   <g id="PathCollection_5"/>
   <g id="PathCollection_6"/>
   <g id="PathCollection_7"/>
   <g id="PathCollection_8"/>
   <g id="PathCollection_9"/>
   <g id="PathCollection_10"/>
   <g id="PathCollection_11"/>
   <g id="PathCollection_12"/>
   <g id="PathCollection_13"/>
   <g id="PathCollection_14"/>
   <g id="PathCollection_15"/>
   <g id="PathCollection_16"/>
   <g id="PathCollection_17"/>
   <g id="PathCollection_18"/>
   <g id="PathCollection_19"/>
   <g id="matplotlib.axis_1">
    <g id="xtick_1">
     <g id="line2d_1">
      <defs>
       <path id="m2e4c1c2110" d="M 0 0 
L 0 3.5 
" style="stroke: #000000; stroke-width: 0.8"/>
      </defs>
      <g>
       <use xlink:href="#m2e4c1c2110" x="71.409728" y="303.64" style="stroke: #000000; stroke-width: 0.8"/>
      </g>
     </g>
     <g id="text_1">
      <text style="font: 10px 'sans-serif'; text-anchor: middle" x="71.409728" y="318.238437" transform="rotate(-0, 71.409728, 318.238437)">0</text>
     </g>
    </g>
    <g id="xtick_2">
     <g id="line2d_2">
      <g>
       <use xlink:href="#m2e4c1c2110" x="144.464257" y="303.64" style="stroke: #000000; stroke-width: 0.8"/>
      </g>
     </g>
     <g id="text_2">
      <text style="font: 10px 'sans-serif'; text-anchor: middle" x="144.464257" y="318.238437" transform="rotate(-0, 144.464257, 318.238437)">200</text>
     </g>
    </g>
    <g id="xtick_3">
     <g id="line2d_3">
      <g>
       <use xlink:href="#m2e4c1c2110" x="217.518786" y="303.64" style="stroke: #000000; stroke-width: 0.8"/>
      </g>
     </g>
     <g id="text_3">
      <text style="font: 10px 'sans-serif'; text-anchor: middle" x="217.518786" y="318.238437" transform="rotate(-0, 217.518786, 318.238437)">400</text>
     </g>
    </g>
    <g id="xtick_4">
     <g id="line2d_4">
      <g>
       <use xlink:href="#m2e4c1c2110" x="290.573315" y="303.64" style="stroke: #000000; stroke-width: 0.8"/>
      </g>
     </g>
     <g id="text_4">
      <text style="font: 10px 'sans-serif'; text-anchor: middle" x="290.573315" y="318.238437" transform="rotate(-0, 290.573315, 318.238437)">600</text>
     </g>
    </g>
    <g id="xtick_5">
     <g id="line2d_5">
      <g>
       <use xlink:href="#m2e4c1c2110" x="363.627844" y="303.64" style="stroke: #000000; stroke-width: 0.8"/>
      </g>
     </g>
     <g id="text_5">
      <text style="font: 10px 'sans-serif'; text-anchor: middle" x="363.627844" y="318.238437" transform="rotate(-0, 363.627844, 318.238437)">800</text>
     </g>
    </g>
    <g id="xtick_6">
     <g id="line2d_6">
      <g>
       <use xlink:href="#m2e4c1c2110" x="436.682372" y="303.64" style="stroke: #000000; stroke-width: 0.8"/>
      </g>
     </g>
     <g id="text_6">
      <text style="font: 10px 'sans-serif'; text-anchor: middle" x="436.682372" y="318.238437" transform="rotate(-0, 436.682372, 318.238437)">1000</text>
     </g>
    </g>
    <g id="text_7">
     <text style="font: 10px 'sans-serif'; text-anchor: middle" x="249.28283" y="331.916562" transform="rotate(-0, 249.28283, 331.916562)">runtime</text>
    </g>
   </g>
   <g id="matplotlib.axis_2">
    <g id="ytick_1">
     <g id="line2d_7">
      <defs>
       <path id="m7a7d33571e" d="M 0 0 
L -3.5 0 
" style="stroke: #000000; stroke-width: 0.8"/>
      </defs>
      <g>
       <use xlink:href="#m7a7d33571e" x="54.02" y="291.620364" style="stroke: #000000; stroke-width: 0.8"/>
      </g>
     </g>
     <g id="text_8">
      <text style="font: 10px 'sans-serif'; text-anchor: end" x="47.02" y="295.419582" transform="rotate(-0, 47.02, 295.419582)">0.00</text>
     </g>
    </g>
    <g id="ytick_2">
     <g id="line2d_8">
      <g>
       <use xlink:href="#m7a7d33571e" x="54.02" y="259.507277" style="stroke: #000000; stroke-width: 0.8"/>
      </g>
     </g>
     <g id="text_9">
      <text style="font: 10px 'sans-serif'; text-anchor: end" x="47.02" y="263.306496" transform="rotate(-0, 47.02, 263.306496)">0.05</text>
     </g>
    </g>
    <g id="ytick_3">
     <g id="line2d_9">
      <g>
       <use xlink:href="#m7a7d33571e" x="54.02" y="227.39419" style="stroke: #000000; stroke-width: 0.8"/>
      </g>
     </g>
     <g id="text_10">
      <text style="font: 10px 'sans-serif'; text-anchor: end" x="47.02" y="231.193409" transform="rotate(-0, 47.02, 231.193409)">0.10</text>
     </g>
    </g>
    <g id="ytick_4">
     <g id="line2d_10">
      <g>
       <use xlink:href="#m7a7d33571e" x="54.02" y="195.281103" style="stroke: #000000; stroke-width: 0.8"/>
      </g>
     </g>
     <g id="text_11">
      <text style="font: 10px 'sans-serif'; text-anchor: end" x="47.02" y="199.080322" transform="rotate(-0, 47.02, 199.080322)">0.15</text>
     </g>
    </g>
    <g id="ytick_5">
     <g id="line2d_11">
      <g>
       <use xlink:href="#m7a7d33571e" x="54.02" y="163.168016" style="stroke: #000000; stroke-width: 0.8"/>
      </g>
     </g>
     <g id="text_12">
      <text style="font: 10px 'sans-serif'; text-anchor: end" x="47.02" y="166.967235" transform="rotate(-0, 47.02, 166.967235)">0.20</text>
     </g>
    </g>
    <g id="ytick_6">
     <g id="line2d_12">
      <g>
       <use xlink:href="#m7a7d33571e" x="54.02" y="131.05493" style="stroke: #000000; stroke-width: 0.8"/>
      </g>
     </g>
     <g id="text_13">
      <text style="font: 10px 'sans-serif'; text-anchor: end" x="47.02" y="134.854148" transform="rotate(-0, 47.02, 134.854148)">0.25</text>
     </g>
    </g>
    <g id="ytick_7">
     <g id="line2d_13">
      <g>
       <use xlink:href="#m7a7d33571e" x="54.02" y="98.941843" style="stroke: #000000; stroke-width: 0.8"/>
      </g>
     </g>
     <g id="text_14">
      <text style="font: 10px 'sans-serif'; text-anchor: end" x="47.02" y="102.741062" transform="rotate(-0, 47.02, 102.741062)">0.30</text>
     </g>
    </g>
    <g id="ytick_8">
     <g id="line2d_14">
      <g>
       <use xlink:href="#m7a7d33571e" x="54.02" y="66.828756" style="stroke: #000000; stroke-width: 0.8"/>
      </g>
     </g>
     <g id="text_15">
      <text style="font: 10px 'sans-serif'; text-anchor: end" x="47.02" y="70.627975" transform="rotate(-0, 47.02, 70.627975)">0.35</text>
     </g>
    </g>
    <g id="text_16">
     <text style="font: 10px 'sans-serif'; text-anchor: middle" x="18.674688" y="171.424" transform="rotate(-90, 18.674688, 171.424)">failed</text>
    </g>
   </g>
   <g id="patch_3">
    <path d="M 54.02 303.64 
L 54.02 39.208 
" style="fill: none; stroke: #000000; stroke-width: 0.8; stroke-linejoin: miter; stroke-linecap: square"/>
   </g>
   <g id="patch_4">
    <path d="M 444.54566 303.64 
L 444.54566 39.208 
" style="fill: none; stroke: #000000; stroke-width: 0.8; stroke-linejoin: miter; stroke-linecap: square"/>
   </g>
   <g id="patch_5">
    <path d="M 54.02 303.64 
L 444.54566 303.64 
" style="fill: none; stroke: #000000; stroke-width: 0.8; stroke-linejoin: miter; stroke-linecap: square"/>
   </g>
   <g id="patch_6">
    <path d="M 54.02 39.208 
L 444.54566 39.208 
" style="fill: none; stroke: #000000; stroke-width: 0.8; stroke-linejoin: miter; stroke-linecap: square"/>
   </g>
   <g id="legend_1">
    <g id="patch_7">
     <path d="M 209.00783 298.64 
L 289.55783 298.64 
Q 291.55783 298.64 291.55783 296.64 
L 291.55783 18.755625 
Q 291.55783 16.755625 289.55783 16.755625 
L 209.00783 16.755625 
Q 207.00783 16.755625 207.00783 18.755625 
L 207.00783 296.64 
Q 207.00783 298.64 209.00783 298.64 
z
" style="fill: #ffffff; opacity: 0.8; stroke: #cccccc; stroke-linejoin: miter"/>
    </g>
    <g id="text_17">
     <text style="font: 10px 'sans-serif'; text-anchor: start" x="228.171111" y="28.354062" transform="rotate(-0, 228.171111, 28.354062)">detector</text>
    </g>
    <g id="PathCollection_20">
     <defs>
      <path id="m9fc0f1a431" d="M 0 3 
C 0.795609 3 1.55874 2.683901 2.12132 2.12132 
C 2.683901 1.55874 3 0.795609 3 0 
C 3 -0.795609 2.683901 -1.55874 2.12132 -2.12132 
C 1.55874 -2.683901 0.795609 -3 0 -3 
C -0.795609 -3 -1.55874 -2.683901 -2.12132 -2.12132 
C -2.683901 -1.55874 -3 -0.795609 -3 0 
C -3 0.795609 -2.683901 1.55874 -2.12132 2.12132 
C -1.55874 2.683901 -0.795609 3 0 3 
z
" style="stroke: #4477aa"/>
     </defs>
     <g>
      <use xlink:href="#m9fc0f1a431" x="221.00783" y="40.407188" style="fill: #4477aa; stroke: #4477aa"/>
     </g>
    </g>
    <g id="text_18">
     <text style="font: 10px 'sans-serif'; text-anchor: start" x="239.00783" y="43.032188" transform="rotate(-0, 239.00783, 43.032188)">christ</text>
    </g>
    <g id="PathCollection_21">
     <defs>
      <path id="m8f6b10d027" d="M 0 3 
C 0.795609 3 1.55874 2.683901 2.12132 2.12132 
C 2.683901 1.55874 3 0.795609 3 0 
C 3 -0.795609 2.683901 -1.55874 2.12132 -2.12132 
C 1.55874 -2.683901 0.795609 -3 0 -3 
C -0.795609 -3 -1.55874 -2.683901 -2.12132 -2.12132 
C -2.683901 -1.55874 -3 -0.795609 -3 0 
C -3 0.795609 -2.683901 1.55874 -2.12132 2.12132 
C -1.55874 2.683901 -0.795609 3 0 3 
z
" style="stroke: #ee6677"/>
     </defs>
     <g>
      <use xlink:href="#m8f6b10d027" x="221.00783" y="55.085313" style="fill: #ee6677; stroke: #ee6677"/>
     </g>
    </g>
    <g id="text_19">
     <text style="font: 10px 'sans-serif'; text-anchor: start" x="239.00783" y="57.710313" transform="rotate(-0, 239.00783, 57.710313)">engz</text>
    </g>
    <g id="PathCollection_22">
     <defs>
      <path id="md14543cdc6" d="M 0 3 
C 0.795609 3 1.55874 2.683901 2.12132 2.12132 
C 2.683901 1.55874 3 0.795609 3 0 
C 3 -0.795609 2.683901 -1.55874 2.12132 -2.12132 
C 1.55874 -2.683901 0.795609 -3 0 -3 
C -0.795609 -3 -1.55874 -2.683901 -2.12132 -2.12132 
C -2.683901 -1.55874 -3 -0.795609 -3 0 
C -3 0.795609 -2.683901 1.55874 -2.12132 2.12132 
C -1.55874 2.683901 -0.795609 3 0 3 
z
" style="stroke: #228833"/>
     </defs>
     <g>
      <use xlink:href="#md14543cdc6" x="221.00783" y="69.763438" style="fill: #228833; stroke: #228833"/>
     </g>
    </g>
    <g id="text_20">
     <text style="font: 10px 'sans-serif'; text-anchor: start" x="239.00783" y="72.388438" transform="rotate(-0, 239.00783, 72.388438)">fnvg</text>
    </g>
    <g id="PathCollection_23">
     <defs>
      <path id="m90c534605f" d="M 0 3 
C 0.795609 3 1.55874 2.683901 2.12132 2.12132 
C 2.683901 1.55874 3 0.795609 3 0 
C 3 -0.795609 2.683901 -1.55874 2.12132 -2.12132 
C 1.55874 -2.683901 0.795609 -3 0 -3 
C -0.795609 -3 -1.55874 -2.683901 -2.12132 -2.12132 
C -2.683901 -1.55874 -3 -0.795609 -3 0 
C -3 0.795609 -2.683901 1.55874 -2.12132 2.12132 
C -1.55874 2.683901 -0.795609 3 0 3 
z
" style="stroke: #ccbb44"/>
     </defs>
     <g>
      <use xlink:href="#m90c534605f" x="221.00783" y="84.441563" style="fill: #ccbb44; stroke: #ccbb44"/>
     </g>
    </g>
    <g id="text_21">
     <text style="font: 10px 'sans-serif'; text-anchor: start" x="239.00783" y="87.066563" transform="rotate(-0, 239.00783, 87.066563)">fwhvg</text>
    </g>
    <g id="PathCollection_24">
     <defs>
      <path id="m7eac123de3" d="M 0 3 
C 0.795609 3 1.55874 2.683901 2.12132 2.12132 
C 2.683901 1.55874 3 0.795609 3 0 
C 3 -0.795609 2.683901 -1.55874 2.12132 -2.12132 
C 1.55874 -2.683901 0.795609 -3 0 -3 
C -0.795609 -3 -1.55874 -2.683901 -2.12132 -2.12132 
C -2.683901 -1.55874 -3 -0.795609 -3 0 
C -3 0.795609 -2.683901 1.55874 -2.12132 2.12132 
C -1.55874 2.683901 -0.795609 3 0 3 
z
" style="stroke: #66ccee"/>
     </defs>
     <g>
      <use xlink:href="#m7eac123de3" x="221.00783" y="99.119688" style="fill: #66ccee; stroke: #66ccee"/>
     </g>
    </g>
    <g id="text_22">
     <text style="font: 10px 'sans-serif'; text-anchor: start" x="239.00783" y="101.744688" transform="rotate(-0, 239.00783, 101.744688)">gamb</text>
    </g>
    <g id="PathCollection_25">
     <defs>
      <path id="mea83ff6f55" d="M 0 3 
C 0.795609 3 1.55874 2.683901 2.12132 2.12132 
C 2.683901 1.55874 3 0.795609 3 0 
C 3 -0.795609 2.683901 -1.55874 2.12132 -2.12132 
C 1.55874 -2.683901 0.795609 -3 0 -3 
C -0.795609 -3 -1.55874 -2.683901 -2.12132 -2.12132 
C -2.683901 -1.55874 -3 -0.795609 -3 0 
C -3 0.795609 -2.683901 1.55874 -2.12132 2.12132 
C -1.55874 2.683901 -0.795609 3 0 3 
z
" style="stroke: #aa3377"/>
     </defs>
     <g>
      <use xlink:href="#mea83ff6f55" x="221.00783" y="113.797813" style="fill: #aa3377; stroke: #aa3377"/>
     </g>
    </g>
    <g id="text_23">
     <text style="font: 10px 'sans-serif'; text-anchor: start" x="239.00783" y="116.422813" transform="rotate(-0, 239.00783, 116.422813)">gqrs</text>
    </g>
    <g id="PathCollection_26">
     <defs>
      <path id="m3d9d9bf63e" d="M 0 3 
C 0.795609 3 1.55874 2.683901 2.12132 2.12132 
C 2.683901 1.55874 3 0.795609 3 0 
C 3 -0.795609 2.683901 -1.55874 2.12132 -2.12132 
C 1.55874 -2.683901 0.795609 -3 0 -3 
C -0.795609 -3 -1.55874 -2.683901 -2.12132 -2.12132 
C -2.683901 -1.55874 -3 -0.795609 -3 0 
C -3 0.795609 -2.683901 1.55874 -2.12132 2.12132 
C -1.55874 2.683901 -0.795609 3 0 3 
z
" style="stroke: #bbbbbb"/>
     </defs>
     <g>
      <use xlink:href="#m3d9d9bf63e" x="221.00783" y="128.475938" style="fill: #bbbbbb; stroke: #bbbbbb"/>
     </g>
    </g>
    <g id="text_24">
     <text style="font: 10px 'sans-serif'; text-anchor: start" x="239.00783" y="131.100938" transform="rotate(-0, 239.00783, 131.100938)">hamilt</text>
    </g>
    <g id="PathCollection_27">
     <defs>
      <path id="m2f04dc33e6" d="M 0 3 
C 0.795609 3 1.55874 2.683901 2.12132 2.12132 
C 2.683901 1.55874 3 0.795609 3 0 
C 3 -0.795609 2.683901 -1.55874 2.12132 -2.12132 
C 1.55874 -2.683901 0.795609 -3 0 -3 
C -0.795609 -3 -1.55874 -2.683901 -2.12132 -2.12132 
C -2.683901 -1.55874 -3 -0.795609 -3 0 
C -3 0.795609 -2.683901 1.55874 -2.12132 2.12132 
C -1.55874 2.683901 -0.795609 3 0 3 
z
" style="stroke: #77aadd"/>
     </defs>
     <g>
      <use xlink:href="#m2f04dc33e6" x="221.00783" y="143.154063" style="fill: #77aadd; stroke: #77aadd"/>
     </g>
    </g>
    <g id="text_25">
     <text style="font: 10px 'sans-serif'; text-anchor: start" x="239.00783" y="145.779063" transform="rotate(-0, 239.00783, 145.779063)">jqrs</text>
    </g>
    <g id="PathCollection_28">
     <defs>
      <path id="mec2d6233df" d="M 0 3 
C 0.795609 3 1.55874 2.683901 2.12132 2.12132 
C 2.683901 1.55874 3 0.795609 3 0 
C 3 -0.795609 2.683901 -1.55874 2.12132 -2.12132 
C 1.55874 -2.683901 0.795609 -3 0 -3 
C -0.795609 -3 -1.55874 -2.683901 -2.12132 -2.12132 
C -2.683901 -1.55874 -3 -0.795609 -3 0 
C -3 0.795609 -2.683901 1.55874 -2.12132 2.12132 
C -1.55874 2.683901 -0.795609 3 0 3 
z
" style="stroke: #ee8866"/>
     </defs>
     <g>
      <use xlink:href="#mec2d6233df" x="221.00783" y="157.832188" style="fill: #ee8866; stroke: #ee8866"/>
     </g>
    </g>
    <g id="text_26">
     <text style="font: 10px 'sans-serif'; text-anchor: start" x="239.00783" y="160.457188" transform="rotate(-0, 239.00783, 160.457188)">kali</text>
    </g>
    <g id="PathCollection_29">
     <defs>
      <path id="m5a5bd3a6ee" d="M 0 3 
C 0.795609 3 1.55874 2.683901 2.12132 2.12132 
C 2.683901 1.55874 3 0.795609 3 0 
C 3 -0.795609 2.683901 -1.55874 2.12132 -2.12132 
C 1.55874 -2.683901 0.795609 -3 0 -3 
C -0.795609 -3 -1.55874 -2.683901 -2.12132 -2.12132 
C -2.683901 -1.55874 -3 -0.795609 -3 0 
C -3 0.795609 -2.683901 1.55874 -2.12132 2.12132 
C -1.55874 2.683901 -0.795609 3 0 3 
z
" style="stroke: #eedd88"/>
     </defs>
     <g>
      <use xlink:href="#m5a5bd3a6ee" x="221.00783" y="172.510312" style="fill: #eedd88; stroke: #eedd88"/>
     </g>
    </g>
    <g id="text_27">
     <text style="font: 10px 'sans-serif'; text-anchor: start" x="239.00783" y="175.135312" transform="rotate(-0, 239.00783, 175.135312)">mart</text>
    </g>
    <g id="PathCollection_30">
     <defs>
      <path id="mea3b2a4fc8" d="M 0 3 
C 0.795609 3 1.55874 2.683901 2.12132 2.12132 
C 2.683901 1.55874 3 0.795609 3 0 
C 3 -0.795609 2.683901 -1.55874 2.12132 -2.12132 
C 1.55874 -2.683901 0.795609 -3 0 -3 
C -0.795609 -3 -1.55874 -2.683901 -2.12132 -2.12132 
C -2.683901 -1.55874 -3 -0.795609 -3 0 
C -3 0.795609 -2.683901 1.55874 -2.12132 2.12132 
C -1.55874 2.683901 -0.795609 3 0 3 
z
" style="stroke: #ffaabb"/>
     </defs>
     <g>
      <use xlink:href="#mea3b2a4fc8" x="221.00783" y="187.188437" style="fill: #ffaabb; stroke: #ffaabb"/>
     </g>
    </g>
    <g id="text_28">
     <text style="font: 10px 'sans-serif'; text-anchor: start" x="239.00783" y="189.813437" transform="rotate(-0, 239.00783, 189.813437)">nab</text>
    </g>
    <g id="PathCollection_31">
     <defs>
      <path id="m1586178a5a" d="M 0 3 
C 0.795609 3 1.55874 2.683901 2.12132 2.12132 
C 2.683901 1.55874 3 0.795609 3 0 
C 3 -0.795609 2.683901 -1.55874 2.12132 -2.12132 
C 1.55874 -2.683901 0.795609 -3 0 -3 
C -0.795609 -3 -1.55874 -2.683901 -2.12132 -2.12132 
C -2.683901 -1.55874 -3 -0.795609 -3 0 
C -3 0.795609 -2.683901 1.55874 -2.12132 2.12132 
C -1.55874 2.683901 -0.795609 3 0 3 
z
" style="stroke: #99ddff"/>
     </defs>
     <g>
      <use xlink:href="#m1586178a5a" x="221.00783" y="201.866562" style="fill: #99ddff; stroke: #99ddff"/>
     </g>
    </g>
    <g id="text_29">
     <text style="font: 10px 'sans-serif'; text-anchor: start" x="239.00783" y="204.491562" transform="rotate(-0, 239.00783, 204.491562)">nk</text>
    </g>
    <g id="PathCollection_32">
     <defs>
      <path id="ma84618187e" d="M 0 3 
C 0.795609 3 1.55874 2.683901 2.12132 2.12132 
C 2.683901 1.55874 3 0.795609 3 0 
C 3 -0.795609 2.683901 -1.55874 2.12132 -2.12132 
C 1.55874 -2.683901 0.795609 -3 0 -3 
C -0.795609 -3 -1.55874 -2.683901 -2.12132 -2.12132 
C -2.683901 -1.55874 -3 -0.795609 -3 0 
C -3 0.795609 -2.683901 1.55874 -2.12132 2.12132 
C -1.55874 2.683901 -0.795609 3 0 3 
z
" style="stroke: #44bb99"/>
     </defs>
     <g>
      <use xlink:href="#ma84618187e" x="221.00783" y="216.544687" style="fill: #44bb99; stroke: #44bb99"/>
     </g>
    </g>
    <g id="text_30">
     <text style="font: 10px 'sans-serif'; text-anchor: start" x="239.00783" y="219.169687" transform="rotate(-0, 239.00783, 219.169687)">pan-tomp</text>
    </g>
    <g id="PathCollection_33">
     <defs>
      <path id="me84d31f791" d="M 0 3 
C 0.795609 3 1.55874 2.683901 2.12132 2.12132 
C 2.683901 1.55874 3 0.795609 3 0 
C 3 -0.795609 2.683901 -1.55874 2.12132 -2.12132 
C 1.55874 -2.683901 0.795609 -3 0 -3 
C -0.795609 -3 -1.55874 -2.683901 -2.12132 -2.12132 
C -2.683901 -1.55874 -3 -0.795609 -3 0 
C -3 0.795609 -2.683901 1.55874 -2.12132 2.12132 
C -1.55874 2.683901 -0.795609 3 0 3 
z
" style="stroke: #bbcc33"/>
     </defs>
     <g>
      <use xlink:href="#me84d31f791" x="221.00783" y="231.222812" style="fill: #bbcc33; stroke: #bbcc33"/>
     </g>
    </g>
    <g id="text_31">
     <text style="font: 10px 'sans-serif'; text-anchor: start" x="239.00783" y="233.847812" transform="rotate(-0, 239.00783, 233.847812)">rdeco</text>
    </g>
    <g id="PathCollection_34">
     <defs>
      <path id="mc9b2afe3b7" d="M 0 3 
C 0.795609 3 1.55874 2.683901 2.12132 2.12132 
C 2.683901 1.55874 3 0.795609 3 0 
C 3 -0.795609 2.683901 -1.55874 2.12132 -2.12132 
C 1.55874 -2.683901 0.795609 -3 0 -3 
C -0.795609 -3 -1.55874 -2.683901 -2.12132 -2.12132 
C -2.683901 -1.55874 -3 -0.795609 -3 0 
C -3 0.795609 -2.683901 1.55874 -2.12132 2.12132 
C -1.55874 2.683901 -0.795609 3 0 3 
z
" style="stroke: #aaaa00"/>
     </defs>
     <g>
      <use xlink:href="#mc9b2afe3b7" x="221.00783" y="245.900937" style="fill: #aaaa00; stroke: #aaaa00"/>
     </g>
    </g>
    <g id="text_32">
     <text style="font: 10px 'sans-serif'; text-anchor: start" x="239.00783" y="248.525937" transform="rotate(-0, 239.00783, 248.525937)">rpeak</text>
    </g>
    <g id="PathCollection_35">
     <defs>
      <path id="mcf3ac894dd" d="M 0 3 
C 0.795609 3 1.55874 2.683901 2.12132 2.12132 
C 2.683901 1.55874 3 0.795609 3 0 
C 3 -0.795609 2.683901 -1.55874 2.12132 -2.12132 
C 1.55874 -2.683901 0.795609 -3 0 -3 
C -0.795609 -3 -1.55874 -2.683901 -2.12132 -2.12132 
C -2.683901 -1.55874 -3 -0.795609 -3 0 
C -3 0.795609 -2.683901 1.55874 -2.12132 2.12132 
C -1.55874 2.683901 -0.795609 3 0 3 
z
" style="stroke: #dddddd"/>
     </defs>
     <g>
      <use xlink:href="#mcf3ac894dd" x="221.00783" y="260.579062" style="fill: #dddddd; stroke: #dddddd"/>
     </g>
    </g>
    <g id="text_33">
     <text style="font: 10px 'sans-serif'; text-anchor: start" x="239.00783" y="263.204062" transform="rotate(-0, 239.00783, 263.204062)">two-avg</text>
    </g>
    <g id="PathCollection_36">
     <defs>
      <path id="mf170abc42e" d="M 0 3 
C 0.795609 3 1.55874 2.683901 2.12132 2.12132 
C 2.683901 1.55874 3 0.795609 3 0 
C 3 -0.795609 2.683901 -1.55874 2.12132 -2.12132 
C 1.55874 -2.683901 0.795609 -3 0 -3 
C -0.795609 -3 -1.55874 -2.683901 -2.12132 -2.12132 
C -2.683901 -1.55874 -3 -0.795609 -3 0 
C -3 0.795609 -2.683901 1.55874 -2.12132 2.12132 
C -1.55874 2.683901 -0.795609 3 0 3 
z
" style="stroke: #000000"/>
     </defs>
     <g>
      <use xlink:href="#mf170abc42e" x="221.00783" y="275.257187" style="stroke: #000000"/>
     </g>
    </g>
    <g id="text_34">
     <text style="font: 10px 'sans-serif'; text-anchor: start" x="239.00783" y="277.882187" transform="rotate(-0, 239.00783, 277.882187)">unsw</text>
    </g>
    <g id="PathCollection_37">
     <g>
      <use xlink:href="#m9fc0f1a431" x="221.00783" y="289.935312" style="fill: #4477aa; stroke: #4477aa"/>
     </g>
    </g>
    <g id="text_35">
     <text style="font: 10px 'sans-serif'; text-anchor: start" x="239.00783" y="292.560312" transform="rotate(-0, 239.00783, 292.560312)">wqrs</text>
    </g>
   </g>
  </g>
 </g>
 <defs>
  <clipPath id="pe66d20829f">
   <rect x="54.02" y="39.208" width="390.52566" height="264.432"/>
  </clipPath>
 </defs>
</svg>
