<?xml version="1.0" encoding="utf-8" standalone="no"?>
<!DOCTYPE svg PUBLIC "-//W3C//DTD SVG 1.1//EN"
  "http://www.w3.org/Graphics/SVG/1.1/DTD/svg11.dtd">
<svg xmlns:xlink="http://www.w3.org/1999/xlink" width="720pt" height="540pt" viewBox="0 0 720 540" xmlns="http://www.w3.org/2000/svg" version="1.1">
 <metadata>
  <rdf:RDF xmlns:dc="http://purl.org/dc/elements/1.1/" xmlns:cc="http://creativecommons.org/ns#" xmlns:rdf="http://www.w3.org/1999/02/22-rdf-syntax-ns#">
   <cc:Work>
    <dc:type rdf:resource="http://purl.org/dc/dcmitype/StillImage"/>
    <dc:date>2022-11-30T17:07:00.033572</dc:date>
    <dc:format>image/svg+xml</dc:format>
    <dc:creator>
     <cc:Agent>
      <dc:title>Matplotlib v3.5.3, https://matplotlib.org/</dc:title>
     </cc:Agent>
    </dc:creator>
   </cc:Work>
  </rdf:RDF>
 </metadata>
 <defs>
  <style type="text/css">*{stroke-linejoin: round; stroke-linecap: butt}</style>
 </defs>
 <g id="figure_1">
  <g id="patch_1">
   <path d="M 0 540 
L 720 540 
L 720 0 
L 0 0 
z
" style="fill: #ffffff"/>
  </g>
  <g id="axes_1">
   <g id="patch_2">
    <path d="M 50.87 459.52 
L 709.2 459.52 
L 709.2 10.8 
L 50.87 10.8 
z
" style="fill: #ffffff"/>
   </g>
   <g id="patch_3">
    <path d="M 54.984562 459.52 
L 61.567862 459.52 
L 61.567862 344.24174 
L 54.984562 344.24174 
z
" clip-path="url(#pf0a5f81963)" style="fill: #4477aa; stroke: #000000; stroke-width: 0.5; stroke-linejoin: miter"/>
   </g>
   <g id="patch_4">
    <path d="M 96.130188 459.52 
L 102.713488 459.52 
L 102.713488 412.488855 
L 96.130188 412.488855 
z
" clip-path="url(#pf0a5f81963)" style="fill: #4477aa; stroke: #000000; stroke-width: 0.5; stroke-linejoin: miter"/>
   </g>
   <g id="patch_5">
    <path d="M 137.275813 459.52 
L 143.859113 459.52 
L 143.859113 454.104779 
L 137.275813 454.104779 
z
" clip-path="url(#pf0a5f81963)" style="fill: #4477aa; stroke: #000000; stroke-width: 0.5; stroke-linejoin: miter"/>
   </g>
   <g id="patch_6">
    <path d="M 178.421438 459.52 
L 185.004738 459.52 
L 185.004738 396.86931 
L 178.421438 396.86931 
z
" clip-path="url(#pf0a5f81963)" style="fill: #4477aa; stroke: #000000; stroke-width: 0.5; stroke-linejoin: miter"/>
   </g>
   <g id="patch_7">
    <path d="M 219.567063 459.52 
L 226.150363 459.52 
L 226.150363 449.448068 
L 219.567063 449.448068 
z
" clip-path="url(#pf0a5f81963)" style="fill: #4477aa; stroke: #000000; stroke-width: 0.5; stroke-linejoin: miter"/>
   </g>
   <g id="patch_8">
    <path d="M 260.712688 459.52 
L 267.295988 459.52 
L 267.295988 447.517958 
L 260.712688 447.517958 
z
" clip-path="url(#pf0a5f81963)" style="fill: #4477aa; stroke: #000000; stroke-width: 0.5; stroke-linejoin: miter"/>
   </g>
   <g id="patch_9">
    <path d="M 301.858313 459.52 
L 308.441613 459.52 
L 308.441613 456.1626 
L 301.858313 456.1626 
z
" clip-path="url(#pf0a5f81963)" style="fill: #4477aa; stroke: #000000; stroke-width: 0.5; stroke-linejoin: miter"/>
   </g>
   <g id="patch_10">
    <path d="M 343.003938 459.52 
L 349.587238 459.52 
L 349.587238 454.413291 
L 343.003938 454.413291 
z
" clip-path="url(#pf0a5f81963)" style="fill: #4477aa; stroke: #000000; stroke-width: 0.5; stroke-linejoin: miter"/>
   </g>
   <g id="patch_11">
    <path d="M 384.149563 459.52 
L 390.732863 459.52 
L 390.732863 447.210782 
L 384.149563 447.210782 
z
" clip-path="url(#pf0a5f81963)" style="fill: #4477aa; stroke: #000000; stroke-width: 0.5; stroke-linejoin: miter"/>
   </g>
   <g id="patch_12">
    <path d="M 425.295187 459.52 
L 431.878488 459.52 
L 431.878488 455.029916 
L 425.295187 455.029916 
z
" clip-path="url(#pf0a5f81963)" style="fill: #4477aa; stroke: #000000; stroke-width: 0.5; stroke-linejoin: miter"/>
   </g>
   <g id="patch_13">
    <path d="M 466.440812 459.52 
L 473.024113 459.52 
L 473.024113 456.172229 
L 466.440812 456.172229 
z
" clip-path="url(#pf0a5f81963)" style="fill: #4477aa; stroke: #000000; stroke-width: 0.5; stroke-linejoin: miter"/>
   </g>
   <g id="patch_14">
    <path d="M 507.586437 459.52 
L 514.169737 459.52 
L 514.169737 447.207172 
L 507.586437 447.207172 
z
" clip-path="url(#pf0a5f81963)" style="fill: #4477aa; stroke: #000000; stroke-width: 0.5; stroke-linejoin: miter"/>
   </g>
   <g id="patch_15">
    <path d="M 548.732062 459.52 
L 555.315362 459.52 
L 555.315362 440.226519 
L 548.732062 440.226519 
z
" clip-path="url(#pf0a5f81963)" style="fill: #4477aa; stroke: #000000; stroke-width: 0.5; stroke-linejoin: miter"/>
   </g>
   <g id="patch_16">
    <path d="M 589.877688 459.52 
L 596.460988 459.52 
L 596.460988 455.045428 
L 589.877688 455.045428 
z
" clip-path="url(#pf0a5f81963)" style="fill: #4477aa; stroke: #000000; stroke-width: 0.5; stroke-linejoin: miter"/>
   </g>
   <g id="patch_17">
    <path d="M 631.023312 459.52 
L 637.606612 459.52 
L 637.606612 429.345794 
L 631.023312 429.345794 
z
" clip-path="url(#pf0a5f81963)" style="fill: #4477aa; stroke: #000000; stroke-width: 0.5; stroke-linejoin: miter"/>
   </g>
   <g id="patch_18">
    <path d="M 672.168938 459.52 
L 678.752238 459.52 
L 678.752238 342.557557 
L 672.168938 342.557557 
z
" clip-path="url(#pf0a5f81963)" style="fill: #4477aa; stroke: #000000; stroke-width: 0.5; stroke-linejoin: miter"/>
   </g>
   <g id="patch_19">
    <path d="M 61.567863 459.52 
L 68.151162 459.52 
L 68.151162 151.819109 
L 61.567863 151.819109 
z
" clip-path="url(#pf0a5f81963)" style="fill: #ee6677; stroke: #000000; stroke-width: 0.5; stroke-linejoin: miter"/>
   </g>
   <g id="patch_20">
    <path d="M 102.713487 459.52 
L 109.296787 459.52 
L 109.296787 334.03862 
L 102.713487 334.03862 
z
" clip-path="url(#pf0a5f81963)" style="fill: #ee6677; stroke: #000000; stroke-width: 0.5; stroke-linejoin: miter"/>
   </g>
   <g id="patch_21">
    <path d="M 143.859113 459.52 
L 150.442413 459.52 
L 150.442413 447.910452 
L 143.859113 447.910452 
z
" clip-path="url(#pf0a5f81963)" style="fill: #ee6677; stroke: #000000; stroke-width: 0.5; stroke-linejoin: miter"/>
   </g>
   <g id="patch_22">
    <path d="M 185.004738 459.52 
L 191.588038 459.52 
L 191.588038 300.646895 
L 185.004738 300.646895 
z
" clip-path="url(#pf0a5f81963)" style="fill: #ee6677; stroke: #000000; stroke-width: 0.5; stroke-linejoin: miter"/>
   </g>
   <g id="patch_23">
    <path d="M 226.150362 459.52 
L 232.733663 459.52 
L 232.733663 438.23623 
L 226.150362 438.23623 
z
" clip-path="url(#pf0a5f81963)" style="fill: #ee6677; stroke: #000000; stroke-width: 0.5; stroke-linejoin: miter"/>
   </g>
   <g id="patch_24">
    <path d="M 267.295988 459.52 
L 273.879288 459.52 
L 273.879288 441.74782 
L 267.295988 441.74782 
z
" clip-path="url(#pf0a5f81963)" style="fill: #ee6677; stroke: #000000; stroke-width: 0.5; stroke-linejoin: miter"/>
   </g>
   <g id="patch_25">
    <path d="M 308.441613 459.52 
L 315.024913 459.52 
L 315.024913 456.153507 
L 308.441613 456.153507 
z
" clip-path="url(#pf0a5f81963)" style="fill: #ee6677; stroke: #000000; stroke-width: 0.5; stroke-linejoin: miter"/>
   </g>
   <g id="patch_26">
    <path d="M 349.587238 459.52 
L 356.170538 459.52 
L 356.170538 452.80734 
L 349.587238 452.80734 
z
" clip-path="url(#pf0a5f81963)" style="fill: #ee6677; stroke: #000000; stroke-width: 0.5; stroke-linejoin: miter"/>
   </g>
   <g id="patch_27">
    <path d="M 390.732863 459.52 
L 397.316163 459.52 
L 397.316163 425.95309 
L 390.732863 425.95309 
z
" clip-path="url(#pf0a5f81963)" style="fill: #ee6677; stroke: #000000; stroke-width: 0.5; stroke-linejoin: miter"/>
   </g>
   <g id="patch_28">
    <path d="M 431.878488 459.52 
L 438.461788 459.52 
L 438.461788 453.950857 
L 431.878488 453.950857 
z
" clip-path="url(#pf0a5f81963)" style="fill: #ee6677; stroke: #000000; stroke-width: 0.5; stroke-linejoin: miter"/>
   </g>
   <g id="patch_29">
    <path d="M 473.024113 459.52 
L 479.607413 459.52 
L 479.607413 456.162333 
L 473.024113 456.162333 
z
" clip-path="url(#pf0a5f81963)" style="fill: #ee6677; stroke: #000000; stroke-width: 0.5; stroke-linejoin: miter"/>
   </g>
   <g id="patch_30">
    <path d="M 514.169737 459.52 
L 520.753038 459.52 
L 520.753038 439.902895 
L 514.169737 439.902895 
z
" clip-path="url(#pf0a5f81963)" style="fill: #ee6677; stroke: #000000; stroke-width: 0.5; stroke-linejoin: miter"/>
   </g>
   <g id="patch_31">
    <path d="M 555.315362 459.52 
L 561.898663 459.52 
L 561.898663 435.299274 
L 555.315362 435.299274 
z
" clip-path="url(#pf0a5f81963)" style="fill: #ee6677; stroke: #000000; stroke-width: 0.5; stroke-linejoin: miter"/>
   </g>
   <g id="patch_32">
    <path d="M 596.460988 459.52 
L 603.044288 459.52 
L 603.044288 449.449405 
L 596.460988 449.449405 
z
" clip-path="url(#pf0a5f81963)" style="fill: #ee6677; stroke: #000000; stroke-width: 0.5; stroke-linejoin: miter"/>
   </g>
   <g id="patch_33">
    <path d="M 637.606612 459.52 
L 644.189912 459.52 
L 644.189912 416.961153 
L 637.606612 416.961153 
z
" clip-path="url(#pf0a5f81963)" style="fill: #ee6677; stroke: #000000; stroke-width: 0.5; stroke-linejoin: miter"/>
   </g>
   <g id="patch_34">
    <path d="M 678.752238 459.52 
L 685.335538 459.52 
L 685.335538 131.710416 
L 678.752238 131.710416 
z
" clip-path="url(#pf0a5f81963)" style="fill: #ee6677; stroke: #000000; stroke-width: 0.5; stroke-linejoin: miter"/>
   </g>
   <g id="patch_35">
    <path d="M 68.151162 459.52 
L 74.734462 459.52 
L 74.734462 268.086028 
L 68.151162 268.086028 
z
" clip-path="url(#pf0a5f81963)" style="fill: #228833; stroke: #000000; stroke-width: 0.5; stroke-linejoin: miter"/>
   </g>
   <g id="patch_36">
    <path d="M 109.296788 459.52 
L 115.880088 459.52 
L 115.880088 382.679729 
L 109.296788 382.679729 
z
" clip-path="url(#pf0a5f81963)" style="fill: #228833; stroke: #000000; stroke-width: 0.5; stroke-linejoin: miter"/>
   </g>
   <g id="patch_37">
    <path d="M 150.442412 459.52 
L 157.025712 459.52 
L 157.025712 452.444132 
L 150.442412 452.444132 
z
" clip-path="url(#pf0a5f81963)" style="fill: #228833; stroke: #000000; stroke-width: 0.5; stroke-linejoin: miter"/>
   </g>
   <g id="patch_38">
    <path d="M 191.588038 459.52 
L 198.171338 459.52 
L 198.171338 353.472517 
L 191.588038 353.472517 
z
" clip-path="url(#pf0a5f81963)" style="fill: #228833; stroke: #000000; stroke-width: 0.5; stroke-linejoin: miter"/>
   </g>
   <g id="patch_39">
    <path d="M 232.733663 459.52 
L 239.316963 459.52 
L 239.316963 445.608308 
L 232.733663 445.608308 
z
" clip-path="url(#pf0a5f81963)" style="fill: #228833; stroke: #000000; stroke-width: 0.5; stroke-linejoin: miter"/>
   </g>
   <g id="patch_40">
    <path d="M 273.879288 459.52 
L 280.462588 459.52 
L 280.462588 447.835564 
L 273.879288 447.835564 
z
" clip-path="url(#pf0a5f81963)" style="fill: #228833; stroke: #000000; stroke-width: 0.5; stroke-linejoin: miter"/>
   </g>
   <g id="patch_41">
    <path d="M 315.024913 459.52 
L 321.608213 459.52 
L 321.608213 457.279237 
L 315.024913 457.279237 
z
" clip-path="url(#pf0a5f81963)" style="fill: #228833; stroke: #000000; stroke-width: 0.5; stroke-linejoin: miter"/>
   </g>
   <g id="patch_42">
    <path d="M 356.170538 459.52 
L 362.753838 459.52 
L 362.753838 454.968935 
L 356.170538 454.968935 
z
" clip-path="url(#pf0a5f81963)" style="fill: #228833; stroke: #000000; stroke-width: 0.5; stroke-linejoin: miter"/>
   </g>
   <g id="patch_43">
    <path d="M 397.316163 459.52 
L 403.899463 459.52 
L 403.899463 436.828064 
L 397.316163 436.828064 
z
" clip-path="url(#pf0a5f81963)" style="fill: #228833; stroke: #000000; stroke-width: 0.5; stroke-linejoin: miter"/>
   </g>
   <g id="patch_44">
    <path d="M 438.461788 459.52 
L 445.045088 459.52 
L 445.045088 456.160461 
L 438.461788 456.160461 
z
" clip-path="url(#pf0a5f81963)" style="fill: #228833; stroke: #000000; stroke-width: 0.5; stroke-linejoin: miter"/>
   </g>
   <g id="patch_45">
    <path d="M 479.607413 459.52 
L 486.190713 459.52 
L 486.190713 457.281644 
L 479.607413 457.281644 
z
" clip-path="url(#pf0a5f81963)" style="fill: #228833; stroke: #000000; stroke-width: 0.5; stroke-linejoin: miter"/>
   </g>
   <g id="patch_46">
    <path d="M 520.753038 459.52 
L 527.336338 459.52 
L 527.336338 444.978311 
L 520.753038 444.978311 
z
" clip-path="url(#pf0a5f81963)" style="fill: #228833; stroke: #000000; stroke-width: 0.5; stroke-linejoin: miter"/>
   </g>
   <g id="patch_47">
    <path d="M 561.898663 459.52 
L 568.481963 459.52 
L 568.481963 439.811691 
L 561.898663 439.811691 
z
" clip-path="url(#pf0a5f81963)" style="fill: #228833; stroke: #000000; stroke-width: 0.5; stroke-linejoin: miter"/>
   </g>
   <g id="patch_48">
    <path d="M 603.044288 459.52 
L 609.627588 459.52 
L 609.627588 452.822986 
L 603.044288 452.822986 
z
" clip-path="url(#pf0a5f81963)" style="fill: #228833; stroke: #000000; stroke-width: 0.5; stroke-linejoin: miter"/>
   </g>
   <g id="patch_49">
    <path d="M 644.189912 459.52 
L 650.773212 459.52 
L 650.773212 423.837497 
L 644.189912 423.837497 
z
" clip-path="url(#pf0a5f81963)" style="fill: #228833; stroke: #000000; stroke-width: 0.5; stroke-linejoin: miter"/>
   </g>
   <g id="patch_50">
    <path d="M 685.335538 459.52 
L 691.918838 459.52 
L 691.918838 253.918512 
L 685.335538 253.918512 
z
" clip-path="url(#pf0a5f81963)" style="fill: #228833; stroke: #000000; stroke-width: 0.5; stroke-linejoin: miter"/>
   </g>
   <g id="patch_51">
    <path d="M 74.734463 459.52 
L 81.317763 459.52 
L 81.317763 187.761581 
L 74.734463 187.761581 
z
" clip-path="url(#pf0a5f81963)" style="fill: #ccbb44; stroke: #000000; stroke-width: 0.5; stroke-linejoin: miter"/>
   </g>
   <g id="patch_52">
    <path d="M 115.880088 459.52 
L 122.463387 459.52 
L 122.463387 352.232983 
L 115.880088 352.232983 
z
" clip-path="url(#pf0a5f81963)" style="fill: #ccbb44; stroke: #000000; stroke-width: 0.5; stroke-linejoin: miter"/>
   </g>
   <g id="patch_53">
    <path d="M 157.025712 459.52 
L 163.609013 459.52 
L 163.609013 450.864793 
L 157.025712 450.864793 
z
" clip-path="url(#pf0a5f81963)" style="fill: #ccbb44; stroke: #000000; stroke-width: 0.5; stroke-linejoin: miter"/>
   </g>
   <g id="patch_54">
    <path d="M 198.171337 459.52 
L 204.754638 459.52 
L 204.754638 309.606068 
L 198.171337 309.606068 
z
" clip-path="url(#pf0a5f81963)" style="fill: #ccbb44; stroke: #000000; stroke-width: 0.5; stroke-linejoin: miter"/>
   </g>
   <g id="patch_55">
    <path d="M 239.316963 459.52 
L 245.900263 459.52 
L 245.900263 437.500453 
L 239.316963 437.500453 
z
" clip-path="url(#pf0a5f81963)" style="fill: #ccbb44; stroke: #000000; stroke-width: 0.5; stroke-linejoin: miter"/>
   </g>
   <g id="patch_56">
    <path d="M 280.462588 459.52 
L 287.045888 459.52 
L 287.045888 442.397341 
L 280.462588 442.397341 
z
" clip-path="url(#pf0a5f81963)" style="fill: #ccbb44; stroke: #000000; stroke-width: 0.5; stroke-linejoin: miter"/>
   </g>
   <g id="patch_57">
    <path d="M 321.608213 459.52 
L 328.191513 459.52 
L 328.191513 456.176775 
L 321.608213 456.176775 
z
" clip-path="url(#pf0a5f81963)" style="fill: #ccbb44; stroke: #000000; stroke-width: 0.5; stroke-linejoin: miter"/>
   </g>
   <g id="patch_58">
    <path d="M 362.753838 459.52 
L 369.337138 459.52 
L 369.337138 453.928791 
L 362.753838 453.928791 
z
" clip-path="url(#pf0a5f81963)" style="fill: #ccbb44; stroke: #000000; stroke-width: 0.5; stroke-linejoin: miter"/>
   </g>
   <g id="patch_59">
    <path d="M 403.899463 459.52 
L 410.482763 459.52 
L 410.482763 424.563244 
L 403.899463 424.563244 
z
" clip-path="url(#pf0a5f81963)" style="fill: #ccbb44; stroke: #000000; stroke-width: 0.5; stroke-linejoin: miter"/>
   </g>
   <g id="patch_60">
    <path d="M 445.045088 459.52 
L 451.628388 459.52 
L 451.628388 455.051312 
L 445.045088 455.051312 
z
" clip-path="url(#pf0a5f81963)" style="fill: #ccbb44; stroke: #000000; stroke-width: 0.5; stroke-linejoin: miter"/>
   </g>
   <g id="patch_61">
    <path d="M 486.190713 459.52 
L 492.774013 459.52 
L 492.774013 457.193918 
L 486.190713 457.193918 
z
" clip-path="url(#pf0a5f81963)" style="fill: #ccbb44; stroke: #000000; stroke-width: 0.5; stroke-linejoin: miter"/>
   </g>
   <g id="patch_62">
    <path d="M 527.336338 459.52 
L 533.919638 459.52 
L 533.919638 439.674084 
L 527.336338 439.674084 
z
" clip-path="url(#pf0a5f81963)" style="fill: #ccbb44; stroke: #000000; stroke-width: 0.5; stroke-linejoin: miter"/>
   </g>
   <g id="patch_63">
    <path d="M 568.481963 459.52 
L 575.065263 459.52 
L 575.065263 437.409785 
L 568.481963 437.409785 
z
" clip-path="url(#pf0a5f81963)" style="fill: #ccbb44; stroke: #000000; stroke-width: 0.5; stroke-linejoin: miter"/>
   </g>
   <g id="patch_64">
    <path d="M 609.627588 459.52 
L 616.210888 459.52 
L 616.210888 450.571124 
L 609.627588 450.571124 
z
" clip-path="url(#pf0a5f81963)" style="fill: #ccbb44; stroke: #000000; stroke-width: 0.5; stroke-linejoin: miter"/>
   </g>
   <g id="patch_65">
    <path d="M 650.773212 459.52 
L 657.356513 459.52 
L 657.356513 419.677857 
L 650.773212 419.677857 
z
" clip-path="url(#pf0a5f81963)" style="fill: #ccbb44; stroke: #000000; stroke-width: 0.5; stroke-linejoin: miter"/>
   </g>
   <g id="patch_66">
    <path d="M 691.918838 459.52 
L 698.502138 459.52 
L 698.502138 160.187468 
L 691.918838 160.187468 
z
" clip-path="url(#pf0a5f81963)" style="fill: #ccbb44; stroke: #000000; stroke-width: 0.5; stroke-linejoin: miter"/>
   </g>
   <g id="patch_67">
    <path d="M 81.317763 459.52 
L 87.901062 459.52 
L 87.901062 134.709957 
L 81.317763 134.709957 
z
" clip-path="url(#pf0a5f81963)" style="fill: #66ccee; stroke: #000000; stroke-width: 0.5; stroke-linejoin: miter"/>
   </g>
   <g id="patch_68">
    <path d="M 122.463388 459.52 
L 129.046688 459.52 
L 129.046688 372.290057 
L 122.463388 372.290057 
z
" clip-path="url(#pf0a5f81963)" style="fill: #66ccee; stroke: #000000; stroke-width: 0.5; stroke-linejoin: miter"/>
   </g>
   <g id="patch_69">
    <path d="M 163.609013 459.52 
L 170.192313 459.52 
L 170.192313 439.130743 
L 163.609013 439.130743 
z
" clip-path="url(#pf0a5f81963)" style="fill: #66ccee; stroke: #000000; stroke-width: 0.5; stroke-linejoin: miter"/>
   </g>
   <g id="patch_70">
    <path d="M 204.754638 459.52 
L 211.337938 459.52 
L 211.337938 265.949707 
L 204.754638 265.949707 
z
" clip-path="url(#pf0a5f81963)" style="fill: #66ccee; stroke: #000000; stroke-width: 0.5; stroke-linejoin: miter"/>
   </g>
   <g id="patch_71">
    <path d="M 245.900263 459.52 
L 252.483563 459.52 
L 252.483563 434.906512 
L 245.900263 434.906512 
z
" clip-path="url(#pf0a5f81963)" style="fill: #66ccee; stroke: #000000; stroke-width: 0.5; stroke-linejoin: miter"/>
   </g>
   <g id="patch_72">
    <path d="M 287.045888 459.52 
L 293.629188 459.52 
L 293.629188 439.38202 
L 287.045888 439.38202 
z
" clip-path="url(#pf0a5f81963)" style="fill: #66ccee; stroke: #000000; stroke-width: 0.5; stroke-linejoin: miter"/>
   </g>
   <g id="patch_73">
    <path d="M 328.191513 459.52 
L 334.774813 459.52 
L 334.774813 456.162868 
L 328.191513 456.162868 
z
" clip-path="url(#pf0a5f81963)" style="fill: #66ccee; stroke: #000000; stroke-width: 0.5; stroke-linejoin: miter"/>
   </g>
   <g id="patch_74">
    <path d="M 369.337138 459.52 
L 375.920438 459.52 
L 375.920438 453.92625 
L 369.337138 453.92625 
z
" clip-path="url(#pf0a5f81963)" style="fill: #66ccee; stroke: #000000; stroke-width: 0.5; stroke-linejoin: miter"/>
   </g>
   <g id="patch_75">
    <path d="M 410.482763 459.52 
L 417.066063 459.52 
L 417.066063 418.301385 
L 410.482763 418.301385 
z
" clip-path="url(#pf0a5f81963)" style="fill: #66ccee; stroke: #000000; stroke-width: 0.5; stroke-linejoin: miter"/>
   </g>
   <g id="patch_76">
    <path d="M 451.628388 459.52 
L 458.211688 459.52 
L 458.211688 455.011327 
L 451.628388 455.011327 
z
" clip-path="url(#pf0a5f81963)" style="fill: #66ccee; stroke: #000000; stroke-width: 0.5; stroke-linejoin: miter"/>
   </g>
   <g id="patch_77">
    <path d="M 492.774013 459.52 
L 499.357313 459.52 
L 499.357313 456.089852 
L 492.774013 456.089852 
z
" clip-path="url(#pf0a5f81963)" style="fill: #66ccee; stroke: #000000; stroke-width: 0.5; stroke-linejoin: miter"/>
   </g>
   <g id="patch_78">
    <path d="M 533.919638 459.52 
L 540.502938 459.52 
L 540.502938 438.261906 
L 533.919638 438.261906 
z
" clip-path="url(#pf0a5f81963)" style="fill: #66ccee; stroke: #000000; stroke-width: 0.5; stroke-linejoin: miter"/>
   </g>
   <g id="patch_79">
    <path d="M 575.065263 459.52 
L 581.648563 459.52 
L 581.648563 433.757379 
L 575.065263 433.757379 
z
" clip-path="url(#pf0a5f81963)" style="fill: #66ccee; stroke: #000000; stroke-width: 0.5; stroke-linejoin: miter"/>
   </g>
   <g id="patch_80">
    <path d="M 616.210888 459.52 
L 622.794188 459.52 
L 622.794188 448.287033 
L 616.210888 448.287033 
z
" clip-path="url(#pf0a5f81963)" style="fill: #66ccee; stroke: #000000; stroke-width: 0.5; stroke-linejoin: miter"/>
   </g>
   <g id="patch_81">
    <path d="M 657.356513 459.52 
L 663.939813 459.52 
L 663.939813 398.294861 
L 657.356513 398.294861 
z
" clip-path="url(#pf0a5f81963)" style="fill: #66ccee; stroke: #000000; stroke-width: 0.5; stroke-linejoin: miter"/>
   </g>
   <g id="patch_82">
    <path d="M 698.502138 459.52 
L 705.085438 459.52 
L 705.085438 55.270396 
L 698.502138 55.270396 
z
" clip-path="url(#pf0a5f81963)" style="fill: #66ccee; stroke: #000000; stroke-width: 0.5; stroke-linejoin: miter"/>
   </g>
   <g id="matplotlib.axis_1">
    <g id="xtick_1">
     <g id="line2d_1">
      <defs>
       <path id="meffaac99f2" d="M 0 0 
L 0 3.5 
" style="stroke: #000000; stroke-width: 0.8"/>
      </defs>
      <g>
       <use xlink:href="#meffaac99f2" x="71.442813" y="459.52" style="stroke: #000000; stroke-width: 0.8"/>
      </g>
     </g>
     <g id="text_1">
      <text style="font: 10px 'sans-serif'" transform="translate(74.202188 494.374687)rotate(-90)">christ</text>
     </g>
    </g>
    <g id="xtick_2">
     <g id="line2d_2">
      <g>
       <use xlink:href="#meffaac99f2" x="112.588437" y="459.52" style="stroke: #000000; stroke-width: 0.8"/>
      </g>
     </g>
     <g id="text_2">
      <text style="font: 10px 'sans-serif'" transform="translate(115.347813 490.6075)rotate(-90)">engz</text>
     </g>
    </g>
    <g id="xtick_3">
     <g id="line2d_3">
      <g>
       <use xlink:href="#meffaac99f2" x="153.734062" y="459.52" style="stroke: #000000; stroke-width: 0.8"/>
      </g>
     </g>
     <g id="text_3">
      <text style="font: 10px 'sans-serif'" transform="translate(156.493437 495.085625)rotate(-90)">gamb</text>
     </g>
    </g>
    <g id="xtick_4">
     <g id="line2d_4">
      <g>
       <use xlink:href="#meffaac99f2" x="194.879688" y="459.52" style="stroke: #000000; stroke-width: 0.8"/>
      </g>
     </g>
     <g id="text_4">
      <text style="font: 10px 'sans-serif'" transform="translate(197.639063 488.537187)rotate(-90)">gqrs</text>
     </g>
    </g>
    <g id="xtick_5">
     <g id="line2d_5">
      <g>
       <use xlink:href="#meffaac99f2" x="236.025313" y="459.52" style="stroke: #000000; stroke-width: 0.8"/>
      </g>
     </g>
     <g id="text_5">
      <text style="font: 10px 'sans-serif'" transform="translate(238.784688 498.202812)rotate(-90)">hamilt</text>
     </g>
    </g>
    <g id="xtick_6">
     <g id="line2d_6">
      <g>
       <use xlink:href="#meffaac99f2" x="277.170938" y="459.52" style="stroke: #000000; stroke-width: 0.8"/>
      </g>
     </g>
     <g id="text_6">
      <text style="font: 10px 'sans-serif'" transform="translate(279.930313 484.966875)rotate(-90)">jqrs</text>
     </g>
    </g>
    <g id="xtick_7">
     <g id="line2d_7">
      <g>
       <use xlink:href="#meffaac99f2" x="318.316563" y="459.52" style="stroke: #000000; stroke-width: 0.8"/>
      </g>
     </g>
     <g id="text_7">
      <text style="font: 10px 'sans-serif'" transform="translate(321.075938 483.82)rotate(-90)">kali</text>
     </g>
    </g>
    <g id="xtick_8">
     <g id="line2d_8">
      <g>
       <use xlink:href="#meffaac99f2" x="359.462188" y="459.52" style="stroke: #000000; stroke-width: 0.8"/>
      </g>
     </g>
     <g id="text_8">
      <text style="font: 10px 'sans-serif'" transform="translate(362.221563 490.42)rotate(-90)">mart</text>
     </g>
    </g>
    <g id="xtick_9">
     <g id="line2d_9">
      <g>
       <use xlink:href="#meffaac99f2" x="400.607813" y="459.52" style="stroke: #000000; stroke-width: 0.8"/>
      </g>
     </g>
     <g id="text_9">
      <text style="font: 10px 'sans-serif'" transform="translate(403.367188 485.334062)rotate(-90)">nab</text>
     </g>
    </g>
    <g id="xtick_10">
     <g id="line2d_10">
      <g>
       <use xlink:href="#meffaac99f2" x="441.753438" y="459.52" style="stroke: #000000; stroke-width: 0.8"/>
      </g>
     </g>
     <g id="text_10">
      <text style="font: 10px 'sans-serif'" transform="translate(444.512812 478.648125)rotate(-90)">nk</text>
     </g>
    </g>
    <g id="xtick_11">
     <g id="line2d_11">
      <g>
       <use xlink:href="#meffaac99f2" x="482.899063" y="459.52" style="stroke: #000000; stroke-width: 0.8"/>
      </g>
     </g>
     <g id="text_11">
      <text style="font: 10px 'sans-serif'" transform="translate(485.658437 515.07)rotate(-90)">pan-tomp</text>
     </g>
    </g>
    <g id="xtick_12">
     <g id="line2d_12">
      <g>
       <use xlink:href="#meffaac99f2" x="524.044688" y="459.52" style="stroke: #000000; stroke-width: 0.8"/>
      </g>
     </g>
     <g id="text_12">
      <text style="font: 10px 'sans-serif'" transform="translate(526.804062 494.574687)rotate(-90)">rdeco</text>
     </g>
    </g>
    <g id="xtick_13">
     <g id="line2d_13">
      <g>
       <use xlink:href="#meffaac99f2" x="565.190313" y="459.52" style="stroke: #000000; stroke-width: 0.8"/>
      </g>
     </g>
     <g id="text_13">
      <text style="font: 10px 'sans-serif'" transform="translate(567.949688 495.05125)rotate(-90)">rpeak</text>
     </g>
    </g>
    <g id="xtick_14">
     <g id="line2d_14">
      <g>
       <use xlink:href="#meffaac99f2" x="606.335938" y="459.52" style="stroke: #000000; stroke-width: 0.8"/>
      </g>
     </g>
     <g id="text_14">
      <text style="font: 10px 'sans-serif'" transform="translate(609.095312 506.927812)rotate(-90)">two-avg</text>
     </g>
    </g>
    <g id="xtick_15">
     <g id="line2d_15">
      <g>
       <use xlink:href="#meffaac99f2" x="647.481563" y="459.52" style="stroke: #000000; stroke-width: 0.8"/>
      </g>
     </g>
     <g id="text_15">
      <text style="font: 10px 'sans-serif'" transform="translate(650.240938 492.5825)rotate(-90)">unsw</text>
     </g>
    </g>
    <g id="xtick_16">
     <g id="line2d_16">
      <g>
       <use xlink:href="#meffaac99f2" x="688.627187" y="459.52" style="stroke: #000000; stroke-width: 0.8"/>
      </g>
     </g>
     <g id="text_16">
      <text style="font: 10px 'sans-serif'" transform="translate(691.386562 490.366875)rotate(-90)">wqrs</text>
     </g>
    </g>
    <g id="text_17">
     <text style="font: 10px 'sans-serif'; text-anchor: middle" x="380.035" y="526.668437" transform="rotate(-0, 380.035, 526.668437)">Detector</text>
    </g>
   </g>
   <g id="matplotlib.axis_2">
    <g id="ytick_1">
     <g id="line2d_17">
      <defs>
       <path id="md77d9a3b3f" d="M 0 0 
L -3.5 0 
" style="stroke: #000000; stroke-width: 0.8"/>
      </defs>
      <g>
       <use xlink:href="#md77d9a3b3f" x="50.87" y="459.52" style="stroke: #000000; stroke-width: 0.8"/>
      </g>
     </g>
     <g id="text_18">
      <text style="font: 10px 'sans-serif'; text-anchor: end" x="43.87" y="463.319219" transform="rotate(-0, 43.87, 463.319219)">0</text>
     </g>
    </g>
    <g id="ytick_2">
     <g id="line2d_18">
      <g>
       <use xlink:href="#md77d9a3b3f" x="50.87" y="403.43" style="stroke: #000000; stroke-width: 0.8"/>
      </g>
     </g>
     <g id="text_19">
      <text style="font: 10px 'sans-serif'; text-anchor: end" x="43.87" y="407.229219" transform="rotate(-0, 43.87, 407.229219)">50</text>
     </g>
    </g>
    <g id="ytick_3">
     <g id="line2d_19">
      <g>
       <use xlink:href="#md77d9a3b3f" x="50.87" y="347.34" style="stroke: #000000; stroke-width: 0.8"/>
      </g>
     </g>
     <g id="text_20">
      <text style="font: 10px 'sans-serif'; text-anchor: end" x="43.87" y="351.139219" transform="rotate(-0, 43.87, 351.139219)">100</text>
     </g>
    </g>
    <g id="ytick_4">
     <g id="line2d_20">
      <g>
       <use xlink:href="#md77d9a3b3f" x="50.87" y="291.25" style="stroke: #000000; stroke-width: 0.8"/>
      </g>
     </g>
     <g id="text_21">
      <text style="font: 10px 'sans-serif'; text-anchor: end" x="43.87" y="295.049219" transform="rotate(-0, 43.87, 295.049219)">150</text>
     </g>
    </g>
    <g id="ytick_5">
     <g id="line2d_21">
      <g>
       <use xlink:href="#md77d9a3b3f" x="50.87" y="235.16" style="stroke: #000000; stroke-width: 0.8"/>
      </g>
     </g>
     <g id="text_22">
      <text style="font: 10px 'sans-serif'; text-anchor: end" x="43.87" y="238.959219" transform="rotate(-0, 43.87, 238.959219)">200</text>
     </g>
    </g>
    <g id="ytick_6">
     <g id="line2d_22">
      <g>
       <use xlink:href="#md77d9a3b3f" x="50.87" y="179.07" style="stroke: #000000; stroke-width: 0.8"/>
      </g>
     </g>
     <g id="text_23">
      <text style="font: 10px 'sans-serif'; text-anchor: end" x="43.87" y="182.869219" transform="rotate(-0, 43.87, 182.869219)">250</text>
     </g>
    </g>
    <g id="ytick_7">
     <g id="line2d_23">
      <g>
       <use xlink:href="#md77d9a3b3f" x="50.87" y="122.98" style="stroke: #000000; stroke-width: 0.8"/>
      </g>
     </g>
     <g id="text_24">
      <text style="font: 10px 'sans-serif'; text-anchor: end" x="43.87" y="126.779219" transform="rotate(-0, 43.87, 126.779219)">300</text>
     </g>
    </g>
    <g id="ytick_8">
     <g id="line2d_24">
      <g>
       <use xlink:href="#md77d9a3b3f" x="50.87" y="66.89" style="stroke: #000000; stroke-width: 0.8"/>
      </g>
     </g>
     <g id="text_25">
      <text style="font: 10px 'sans-serif'; text-anchor: end" x="43.87" y="70.689219" transform="rotate(-0, 43.87, 70.689219)">350</text>
     </g>
    </g>
    <g id="ytick_9">
     <g id="line2d_25">
      <g>
       <use xlink:href="#md77d9a3b3f" x="50.87" y="10.8" style="stroke: #000000; stroke-width: 0.8"/>
      </g>
     </g>
     <g id="text_26">
      <text style="font: 10px 'sans-serif'; text-anchor: end" x="43.87" y="14.599219" transform="rotate(-0, 43.87, 14.599219)">400</text>
     </g>
    </g>
    <g id="text_27">
     <text style="font: 10px 'sans-serif'; text-anchor: middle" x="18.702813" y="235.16" transform="rotate(-90, 18.702813, 235.16)">Runtime (ms)</text>
    </g>
   </g>
   <g id="patch_83">
    <path d="M 50.87 459.52 
L 50.87 10.8 
" style="fill: none; stroke: #000000; stroke-width: 0.8; stroke-linejoin: miter; stroke-linecap: square"/>
   </g>
   <g id="patch_84">
    <path d="M 709.2 459.52 
L 709.2 10.8 
" style="fill: none; stroke: #000000; stroke-width: 0.8; stroke-linejoin: miter; stroke-linecap: square"/>
   </g>
   <g id="patch_85">
    <path d="M 50.87 459.52 
L 709.2 459.52 
" style="fill: none; stroke: #000000; stroke-width: 0.8; stroke-linejoin: miter; stroke-linecap: square"/>
   </g>
   <g id="patch_86">
    <path d="M 50.87 10.8 
L 709.2 10.8 
" style="fill: none; stroke: #000000; stroke-width: 0.8; stroke-linejoin: miter; stroke-linecap: square"/>
   </g>
   <g id="text_28">
    <text style="font: 6px 'sans-serif'" transform="translate(59.931838 340.24174)rotate(-90)">102.8</text>
   </g>
   <g id="text_29">
    <text style="font: 6px 'sans-serif'" transform="translate(101.077463 408.488855)rotate(-90)">41.9</text>
   </g>
   <g id="text_30">
    <text style="font: 6px 'sans-serif'" transform="translate(142.223087 450.104779)rotate(-90)">4.8</text>
   </g>
   <g id="text_31">
    <text style="font: 6px 'sans-serif'" transform="translate(183.368713 392.86931)rotate(-90)">55.8</text>
   </g>
   <g id="text_32">
    <text style="font: 6px 'sans-serif'" transform="translate(224.514338 445.448068)rotate(-90)">9.0</text>
   </g>
   <g id="text_33">
    <text style="font: 6px 'sans-serif'" transform="translate(265.659963 443.517958)rotate(-90)">10.7</text>
   </g>
   <g id="text_34">
    <text style="font: 6px 'sans-serif'" transform="translate(306.805588 452.1626)rotate(-90)">3.0</text>
   </g>
   <g id="text_35">
    <text style="font: 6px 'sans-serif'" transform="translate(347.951212 450.413291)rotate(-90)">4.6</text>
   </g>
   <g id="text_36">
    <text style="font: 6px 'sans-serif'" transform="translate(389.096837 443.210782)rotate(-90)">11.0</text>
   </g>
   <g id="text_37">
    <text style="font: 6px 'sans-serif'" transform="translate(430.242462 451.029916)rotate(-90)">4.0</text>
   </g>
   <g id="text_38">
    <text style="font: 6px 'sans-serif'" transform="translate(471.388087 452.172229)rotate(-90)">3.0</text>
   </g>
   <g id="text_39">
    <text style="font: 6px 'sans-serif'" transform="translate(512.533712 443.207172)rotate(-90)">11.0</text>
   </g>
   <g id="text_40">
    <text style="font: 6px 'sans-serif'" transform="translate(553.679338 436.226519)rotate(-90)">17.2</text>
   </g>
   <g id="text_41">
    <text style="font: 6px 'sans-serif'" transform="translate(594.824962 451.045428)rotate(-90)">4.0</text>
   </g>
   <g id="text_42">
    <text style="font: 6px 'sans-serif'" transform="translate(635.970588 425.345794)rotate(-90)">26.9</text>
   </g>
   <g id="text_43">
    <text style="font: 6px 'sans-serif'" transform="translate(677.116212 338.557557)rotate(-90)">104.3</text>
   </g>
   <g id="text_44">
    <text style="font: 6px 'sans-serif'" transform="translate(66.515138 147.819109)rotate(-90)">274.3</text>
   </g>
   <g id="text_45">
    <text style="font: 6px 'sans-serif'" transform="translate(107.660763 330.03862)rotate(-90)">111.9</text>
   </g>
   <g id="text_46">
    <text style="font: 6px 'sans-serif'" transform="translate(148.806387 443.910452)rotate(-90)">10.3</text>
   </g>
   <g id="text_47">
    <text style="font: 6px 'sans-serif'" transform="translate(189.952012 296.646895)rotate(-90)">141.6</text>
   </g>
   <g id="text_48">
    <text style="font: 6px 'sans-serif'" transform="translate(231.097637 434.23623)rotate(-90)">19.0</text>
   </g>
   <g id="text_49">
    <text style="font: 6px 'sans-serif'" transform="translate(272.243263 437.74782)rotate(-90)">15.8</text>
   </g>
   <g id="text_50">
    <text style="font: 6px 'sans-serif'" transform="translate(313.388888 452.153507)rotate(-90)">3.0</text>
   </g>
   <g id="text_51">
    <text style="font: 6px 'sans-serif'" transform="translate(354.534513 448.80734)rotate(-90)">6.0</text>
   </g>
   <g id="text_52">
    <text style="font: 6px 'sans-serif'" transform="translate(395.680138 421.95309)rotate(-90)">29.9</text>
   </g>
   <g id="text_53">
    <text style="font: 6px 'sans-serif'" transform="translate(436.825762 449.950857)rotate(-90)">5.0</text>
   </g>
   <g id="text_54">
    <text style="font: 6px 'sans-serif'" transform="translate(477.971387 452.162333)rotate(-90)">3.0</text>
   </g>
   <g id="text_55">
    <text style="font: 6px 'sans-serif'" transform="translate(519.117012 435.902895)rotate(-90)">17.5</text>
   </g>
   <g id="text_56">
    <text style="font: 6px 'sans-serif'" transform="translate(560.262638 431.299274)rotate(-90)">21.6</text>
   </g>
   <g id="text_57">
    <text style="font: 6px 'sans-serif'" transform="translate(601.408262 445.449405)rotate(-90)">9.0</text>
   </g>
   <g id="text_58">
    <text style="font: 6px 'sans-serif'" transform="translate(642.553888 412.961153)rotate(-90)">37.9</text>
   </g>
   <g id="text_59">
    <text style="font: 6px 'sans-serif'" transform="translate(683.699512 127.710416)rotate(-90)">292.2</text>
   </g>
   <g id="text_60">
    <text style="font: 6px 'sans-serif'" transform="translate(73.098438 264.086028)rotate(-90)">170.6</text>
   </g>
   <g id="text_61">
    <text style="font: 6px 'sans-serif'" transform="translate(114.244062 378.679729)rotate(-90)">68.5</text>
   </g>
   <g id="text_62">
    <text style="font: 6px 'sans-serif'" transform="translate(155.389687 448.444132)rotate(-90)">6.3</text>
   </g>
   <g id="text_63">
    <text style="font: 6px 'sans-serif'" transform="translate(196.535313 349.472517)rotate(-90)">94.5</text>
   </g>
   <g id="text_64">
    <text style="font: 6px 'sans-serif'" transform="translate(237.680937 441.608308)rotate(-90)">12.4</text>
   </g>
   <g id="text_65">
    <text style="font: 6px 'sans-serif'" transform="translate(278.826563 443.835564)rotate(-90)">10.4</text>
   </g>
   <g id="text_66">
    <text style="font: 6px 'sans-serif'" transform="translate(319.972188 453.279237)rotate(-90)">2.0</text>
   </g>
   <g id="text_67">
    <text style="font: 6px 'sans-serif'" transform="translate(361.117813 450.968935)rotate(-90)">4.1</text>
   </g>
   <g id="text_68">
    <text style="font: 6px 'sans-serif'" transform="translate(402.263438 432.828064)rotate(-90)">20.2</text>
   </g>
   <g id="text_69">
    <text style="font: 6px 'sans-serif'" transform="translate(443.409063 452.160461)rotate(-90)">3.0</text>
   </g>
   <g id="text_70">
    <text style="font: 6px 'sans-serif'" transform="translate(484.554688 453.281644)rotate(-90)">2.0</text>
   </g>
   <g id="text_71">
    <text style="font: 6px 'sans-serif'" transform="translate(525.700312 440.978311)rotate(-90)">13.0</text>
   </g>
   <g id="text_72">
    <text style="font: 6px 'sans-serif'" transform="translate(566.845938 435.811691)rotate(-90)">17.6</text>
   </g>
   <g id="text_73">
    <text style="font: 6px 'sans-serif'" transform="translate(607.991562 448.822986)rotate(-90)">6.0</text>
   </g>
   <g id="text_74">
    <text style="font: 6px 'sans-serif'" transform="translate(649.137188 419.837497)rotate(-90)">31.8</text>
   </g>
   <g id="text_75">
    <text style="font: 6px 'sans-serif'" transform="translate(690.282812 249.918512)rotate(-90)">183.3</text>
   </g>
   <g id="text_76">
    <text style="font: 6px 'sans-serif'" transform="translate(79.681737 183.761581)rotate(-90)">242.3</text>
   </g>
   <g id="text_77">
    <text style="font: 6px 'sans-serif'" transform="translate(120.827362 348.232983)rotate(-90)">95.6</text>
   </g>
   <g id="text_78">
    <text style="font: 6px 'sans-serif'" transform="translate(161.972987 446.864793)rotate(-90)">7.7</text>
   </g>
   <g id="text_79">
    <text style="font: 6px 'sans-serif'" transform="translate(203.118613 305.606068)rotate(-90)">133.6</text>
   </g>
   <g id="text_80">
    <text style="font: 6px 'sans-serif'" transform="translate(244.264238 433.500453)rotate(-90)">19.6</text>
   </g>
   <g id="text_81">
    <text style="font: 6px 'sans-serif'" transform="translate(285.409863 438.397341)rotate(-90)">15.3</text>
   </g>
   <g id="text_82">
    <text style="font: 6px 'sans-serif'" transform="translate(326.555488 452.176775)rotate(-90)">3.0</text>
   </g>
   <g id="text_83">
    <text style="font: 6px 'sans-serif'" transform="translate(367.701113 449.928791)rotate(-90)">5.0</text>
   </g>
   <g id="text_84">
    <text style="font: 6px 'sans-serif'" transform="translate(408.846738 420.563244)rotate(-90)">31.2</text>
   </g>
   <g id="text_85">
    <text style="font: 6px 'sans-serif'" transform="translate(449.992363 451.051312)rotate(-90)">4.0</text>
   </g>
   <g id="text_86">
    <text style="font: 6px 'sans-serif'" transform="translate(491.137988 453.193918)rotate(-90)">2.1</text>
   </g>
   <g id="text_87">
    <text style="font: 6px 'sans-serif'" transform="translate(532.283613 435.674084)rotate(-90)">17.7</text>
   </g>
   <g id="text_88">
    <text style="font: 6px 'sans-serif'" transform="translate(573.429237 433.409785)rotate(-90)">19.7</text>
   </g>
   <g id="text_89">
    <text style="font: 6px 'sans-serif'" transform="translate(614.574862 446.571124)rotate(-90)">8.0</text>
   </g>
   <g id="text_90">
    <text style="font: 6px 'sans-serif'" transform="translate(655.720488 415.677857)rotate(-90)">35.5</text>
   </g>
   <g id="text_91">
    <text style="font: 6px 'sans-serif'" transform="translate(696.866112 156.187468)rotate(-90)">266.8</text>
   </g>
   <g id="text_92">
    <text style="font: 6px 'sans-serif'" transform="translate(86.265038 130.709957)rotate(-90)">289.5</text>
   </g>
   <g id="text_93">
    <text style="font: 6px 'sans-serif'" transform="translate(127.410663 368.290057)rotate(-90)">77.8</text>
   </g>
   <g id="text_94">
    <text style="font: 6px 'sans-serif'" transform="translate(168.556287 435.130743)rotate(-90)">18.2</text>
   </g>
   <g id="text_95">
    <text style="font: 6px 'sans-serif'" transform="translate(209.701912 261.949707)rotate(-90)">172.6</text>
   </g>
   <g id="text_96">
    <text style="font: 6px 'sans-serif'" transform="translate(250.847538 430.906512)rotate(-90)">21.9</text>
   </g>
   <g id="text_97">
    <text style="font: 6px 'sans-serif'" transform="translate(291.993163 435.38202)rotate(-90)">18.0</text>
   </g>
   <g id="text_98">
    <text style="font: 6px 'sans-serif'" transform="translate(333.138788 452.162868)rotate(-90)">3.0</text>
   </g>
   <g id="text_99">
    <text style="font: 6px 'sans-serif'" transform="translate(374.284413 449.92625)rotate(-90)">5.0</text>
   </g>
   <g id="text_100">
    <text style="font: 6px 'sans-serif'" transform="translate(415.430038 414.301385)rotate(-90)">36.7</text>
   </g>
   <g id="text_101">
    <text style="font: 6px 'sans-serif'" transform="translate(456.575663 451.011327)rotate(-90)">4.0</text>
   </g>
   <g id="text_102">
    <text style="font: 6px 'sans-serif'" transform="translate(497.721288 452.089852)rotate(-90)">3.1</text>
   </g>
   <g id="text_103">
    <text style="font: 6px 'sans-serif'" transform="translate(538.866913 434.261906)rotate(-90)">18.9</text>
   </g>
   <g id="text_104">
    <text style="font: 6px 'sans-serif'" transform="translate(580.012538 429.757379)rotate(-90)">23.0</text>
   </g>
   <g id="text_105">
    <text style="font: 6px 'sans-serif'" transform="translate(621.158163 444.287033)rotate(-90)">10.0</text>
   </g>
   <g id="text_106">
    <text style="font: 6px 'sans-serif'" transform="translate(662.303788 394.294861)rotate(-90)">54.6</text>
   </g>
   <g id="text_107">
    <text style="font: 6px 'sans-serif'" transform="translate(703.449412 51.270396)rotate(-90)">360.4</text>
   </g>
   <g id="legend_1">
    <g id="text_108">
     <text style="font: 10px 'sans-serif'; text-anchor: start" x="356.177188" y="27.398438" transform="rotate(-0, 356.177188, 27.398438)">Database</text>
    </g>
    <g id="patch_87">
     <path d="M 353.165469 42.076563 
L 373.165469 42.076563 
L 373.165469 35.076563 
L 353.165469 35.076563 
z
" style="fill: #4477aa; stroke: #000000; stroke-width: 0.5; stroke-linejoin: miter"/>
    </g>
    <g id="text_109">
     <text style="font: 10px 'sans-serif'; text-anchor: start" x="381.165469" y="42.076563" transform="rotate(-0, 381.165469, 42.076563)">SIN</text>
    </g>
    <g id="patch_88">
     <path d="M 353.165469 56.754688 
L 373.165469 56.754688 
L 373.165469 49.754688 
L 353.165469 49.754688 
z
" style="fill: #ee6677; stroke: #000000; stroke-width: 0.5; stroke-linejoin: miter"/>
    </g>
    <g id="text_110">
     <text style="font: 10px 'sans-serif'; text-anchor: start" x="381.165469" y="56.754688" transform="rotate(-0, 381.165469, 56.754688)">ARR</text>
    </g>
    <g id="patch_89">
     <path d="M 353.165469 71.432813 
L 373.165469 71.432813 
L 373.165469 64.432813 
L 353.165469 64.432813 
z
" style="fill: #228833; stroke: #000000; stroke-width: 0.5; stroke-linejoin: miter"/>
    </g>
    <g id="text_111">
     <text style="font: 10px 'sans-serif'; text-anchor: start" x="381.165469" y="71.432813" transform="rotate(-0, 381.165469, 71.432813)">HIGH</text>
    </g>
    <g id="patch_90">
     <path d="M 353.165469 86.110938 
L 373.165469 86.110938 
L 373.165469 79.110938 
L 353.165469 79.110938 
z
" style="fill: #ccbb44; stroke: #000000; stroke-width: 0.5; stroke-linejoin: miter"/>
    </g>
    <g id="text_112">
     <text style="font: 10px 'sans-serif'; text-anchor: start" x="381.165469" y="86.110938" transform="rotate(-0, 381.165469, 86.110938)">LOW</text>
    </g>
    <g id="patch_91">
     <path d="M 353.165469 100.789062 
L 373.165469 100.789062 
L 373.165469 93.789062 
L 353.165469 93.789062 
z
" style="fill: #66ccee; stroke: #000000; stroke-width: 0.5; stroke-linejoin: miter"/>
    </g>
    <g id="text_113">
     <text style="font: 10px 'sans-serif'; text-anchor: start" x="381.165469" y="100.789062" transform="rotate(-0, 381.165469, 100.789062)">TELE</text>
    </g>
   </g>
  </g>
 </g>
 <defs>
  <clipPath id="pf0a5f81963">
   <rect x="50.87" y="10.8" width="658.33" height="448.72"/>
  </clipPath>
 </defs>
</svg>
