<?xml version="1.0" encoding="utf-8" standalone="no"?>
<!DOCTYPE svg PUBLIC "-//W3C//DTD SVG 1.1//EN"
  "http://www.w3.org/Graphics/SVG/1.1/DTD/svg11.dtd">
<svg xmlns:xlink="http://www.w3.org/1999/xlink" width="460.8pt" height="345.6pt" viewBox="0 0 460.8 345.6" xmlns="http://www.w3.org/2000/svg" version="1.1">
 <metadata>
  <rdf:RDF xmlns:dc="http://purl.org/dc/elements/1.1/" xmlns:cc="http://creativecommons.org/ns#" xmlns:rdf="http://www.w3.org/1999/02/22-rdf-syntax-ns#">
   <cc:Work>
    <dc:type rdf:resource="http://purl.org/dc/dcmitype/StillImage"/>
    <dc:date>2024-01-06T21:39:09.782486</dc:date>
    <dc:format>image/svg+xml</dc:format>
    <dc:creator>
     <cc:Agent>
      <dc:title>Matplotlib v3.5.3, https://matplotlib.org/</dc:title>
     </cc:Agent>
    </dc:creator>
   </cc:Work>
  </rdf:RDF>
 </metadata>
 <defs>
  <style type="text/css">*{stroke-linejoin: round; stroke-linecap: butt}</style>
 </defs>
 <g id="figure_1">
  <g id="patch_1">
   <path d="M 0 345.6 
L 460.8 345.6 
L 460.8 0 
L 0 0 
z
" style="fill: #ffffff"/>
  </g>
  <g id="axes_1">
   <g id="patch_2">
    <path d="M 54.02 303.64 
L 450 303.64 
L 450 10.8 
L 54.02 10.8 
z
" style="fill: #ffffff"/>
   </g>
   <g id="PathCollection_1">
    <defs>
     <path id="C0_0_35ece9e21a" d="M 0 3 
C 0.795609 3 1.55874 2.683901 2.12132 2.12132 
C 2.683901 1.55874 3 0.795609 3 -0 
C 3 -0.795609 2.683901 -1.55874 2.12132 -2.12132 
C 1.55874 -2.683901 0.795609 -3 0 -3 
C -0.795609 -3 -1.55874 -2.683901 -2.12132 -2.12132 
C -2.683901 -1.55874 -3 -0.795609 -3 0 
C -3 0.795609 -2.683901 1.55874 -2.12132 2.12132 
C -1.55874 2.683901 -0.795609 3 0 3 
z
"/>
    </defs>
    <g clip-path="url(#pe0ae3f64f3)">
     <use xlink:href="#C0_0_35ece9e21a" x="265.325123" y="290.329091" style="fill: #4477aa; stroke: #ffffff; stroke-width: 0.48"/>
    </g>
    <g clip-path="url(#pe0ae3f64f3)">
     <use xlink:href="#C0_0_35ece9e21a" x="250.718361" y="209.951562" style="fill: #ee6677; stroke: #ffffff; stroke-width: 0.48"/>
    </g>
    <g clip-path="url(#pe0ae3f64f3)">
     <use xlink:href="#C0_0_35ece9e21a" x="76.779286" y="290.329091" style="fill: #228833; stroke: #ffffff; stroke-width: 0.48"/>
    </g>
    <g clip-path="url(#pe0ae3f64f3)">
     <use xlink:href="#C0_0_35ece9e21a" x="242.767256" y="290.329091" style="fill: #ccbb44; stroke: #ffffff; stroke-width: 0.48"/>
    </g>
    <g clip-path="url(#pe0ae3f64f3)">
     <use xlink:href="#C0_0_35ece9e21a" x="72.269063" y="24.110909" style="fill: #66ccee; stroke: #ffffff; stroke-width: 0.48"/>
    </g>
    <g clip-path="url(#pe0ae3f64f3)">
     <use xlink:href="#C0_0_35ece9e21a" x="95.906491" y="276.50938" style="fill: #aa3377; stroke: #ffffff; stroke-width: 0.48"/>
    </g>
    <g clip-path="url(#pe0ae3f64f3)">
     <use xlink:href="#C0_0_35ece9e21a" x="75.254921" y="290.329091" style="fill: #bbbbbb; stroke: #ffffff; stroke-width: 0.48"/>
    </g>
    <g clip-path="url(#pe0ae3f64f3)">
     <use xlink:href="#C0_0_35ece9e21a" x="72.4215" y="284.087604" style="fill: #77aadd; stroke: #ffffff; stroke-width: 0.48"/>
    </g>
    <g clip-path="url(#pe0ae3f64f3)">
     <use xlink:href="#C0_0_35ece9e21a" x="72.296702" y="290.329091" style="fill: #ee8866; stroke: #ffffff; stroke-width: 0.48"/>
    </g>
    <g clip-path="url(#pe0ae3f64f3)">
     <use xlink:href="#C0_0_35ece9e21a" x="72.607071" y="290.329091" style="fill: #eedd88; stroke: #ffffff; stroke-width: 0.48"/>
    </g>
    <g clip-path="url(#pe0ae3f64f3)">
     <use xlink:href="#C0_0_35ece9e21a" x="76.814166" y="290.329091" style="fill: #ffaabb; stroke: #ffffff; stroke-width: 0.48"/>
    </g>
    <g clip-path="url(#pe0ae3f64f3)">
     <use xlink:href="#C0_0_35ece9e21a" x="72.430989" y="290.329091" style="fill: #99ddff; stroke: #ffffff; stroke-width: 0.48"/>
    </g>
    <g clip-path="url(#pe0ae3f64f3)">
     <use xlink:href="#C0_0_35ece9e21a" x="72.235889" y="290.329091" style="fill: #44bb99; stroke: #ffffff; stroke-width: 0.48"/>
    </g>
    <g clip-path="url(#pe0ae3f64f3)">
     <use xlink:href="#C0_0_35ece9e21a" x="72.39634" y="279.605195" style="fill: #bbcc33; stroke: #ffffff; stroke-width: 0.48"/>
    </g>
    <g clip-path="url(#pe0ae3f64f3)">
     <use xlink:href="#C0_0_35ece9e21a" x="72.019091" y="273.351322" style="fill: #aaaa00; stroke: #ffffff; stroke-width: 0.48"/>
    </g>
    <g clip-path="url(#pe0ae3f64f3)">
     <use xlink:href="#C0_0_35ece9e21a" x="73.591316" y="290.329091" style="fill: #dddddd; stroke: #ffffff; stroke-width: 0.48"/>
    </g>
    <g clip-path="url(#pe0ae3f64f3)">
     <use xlink:href="#C0_0_35ece9e21a" x="78.666326" y="290.329091" style="stroke: #ffffff; stroke-width: 0.48"/>
    </g>
    <g clip-path="url(#pe0ae3f64f3)">
     <use xlink:href="#C0_0_35ece9e21a" x="432.000909" y="290.329091" style="fill: #4477aa; stroke: #ffffff; stroke-width: 0.48"/>
    </g>
   </g>
   <g id="PathCollection_2"/>
   <g id="PathCollection_3"/>
   <g id="PathCollection_4"/>
   <g id="PathCollection_5"/>
   <g id="PathCollection_6"/>
   <g id="PathCollection_7"/>
   <g id="PathCollection_8"/>
   <g id="PathCollection_9"/>
   <g id="PathCollection_10"/>
   <g id="PathCollection_11"/>
   <g id="PathCollection_12"/>
   <g id="PathCollection_13"/>
   <g id="PathCollection_14"/>
   <g id="PathCollection_15"/>
   <g id="PathCollection_16"/>
   <g id="PathCollection_17"/>
   <g id="PathCollection_18"/>
   <g id="PathCollection_19"/>
   <g id="matplotlib.axis_1">
    <g id="xtick_1">
     <g id="line2d_1">
      <defs>
       <path id="m5ddad317a0" d="M 0 0 
L 0 3.5 
" style="stroke: #000000; stroke-width: 0.8"/>
      </defs>
      <g>
       <use xlink:href="#m5ddad317a0" x="71.765704" y="303.64" style="stroke: #000000; stroke-width: 0.8"/>
      </g>
     </g>
     <g id="text_1">
      <text style="font: 10px 'sans-serif'; text-anchor: middle" x="71.765704" y="318.238437" transform="rotate(-0, 71.765704, 318.238437)">0</text>
     </g>
    </g>
    <g id="xtick_2">
     <g id="line2d_2">
      <g>
       <use xlink:href="#m5ddad317a0" x="122.723275" y="303.64" style="stroke: #000000; stroke-width: 0.8"/>
      </g>
     </g>
     <g id="text_2">
      <text style="font: 10px 'sans-serif'; text-anchor: middle" x="122.723275" y="318.238437" transform="rotate(-0, 122.723275, 318.238437)">200</text>
     </g>
    </g>
    <g id="xtick_3">
     <g id="line2d_3">
      <g>
       <use xlink:href="#m5ddad317a0" x="173.680847" y="303.64" style="stroke: #000000; stroke-width: 0.8"/>
      </g>
     </g>
     <g id="text_3">
      <text style="font: 10px 'sans-serif'; text-anchor: middle" x="173.680847" y="318.238437" transform="rotate(-0, 173.680847, 318.238437)">400</text>
     </g>
    </g>
    <g id="xtick_4">
     <g id="line2d_4">
      <g>
       <use xlink:href="#m5ddad317a0" x="224.638419" y="303.64" style="stroke: #000000; stroke-width: 0.8"/>
      </g>
     </g>
     <g id="text_4">
      <text style="font: 10px 'sans-serif'; text-anchor: middle" x="224.638419" y="318.238437" transform="rotate(-0, 224.638419, 318.238437)">600</text>
     </g>
    </g>
    <g id="xtick_5">
     <g id="line2d_5">
      <g>
       <use xlink:href="#m5ddad317a0" x="275.59599" y="303.64" style="stroke: #000000; stroke-width: 0.8"/>
      </g>
     </g>
     <g id="text_5">
      <text style="font: 10px 'sans-serif'; text-anchor: middle" x="275.59599" y="318.238437" transform="rotate(-0, 275.59599, 318.238437)">800</text>
     </g>
    </g>
    <g id="xtick_6">
     <g id="line2d_6">
      <g>
       <use xlink:href="#m5ddad317a0" x="326.553562" y="303.64" style="stroke: #000000; stroke-width: 0.8"/>
      </g>
     </g>
     <g id="text_6">
      <text style="font: 10px 'sans-serif'; text-anchor: middle" x="326.553562" y="318.238437" transform="rotate(-0, 326.553562, 318.238437)">1000</text>
     </g>
    </g>
    <g id="xtick_7">
     <g id="line2d_7">
      <g>
       <use xlink:href="#m5ddad317a0" x="377.511133" y="303.64" style="stroke: #000000; stroke-width: 0.8"/>
      </g>
     </g>
     <g id="text_7">
      <text style="font: 10px 'sans-serif'; text-anchor: middle" x="377.511133" y="318.238437" transform="rotate(-0, 377.511133, 318.238437)">1200</text>
     </g>
    </g>
    <g id="xtick_8">
     <g id="line2d_8">
      <g>
       <use xlink:href="#m5ddad317a0" x="428.468705" y="303.64" style="stroke: #000000; stroke-width: 0.8"/>
      </g>
     </g>
     <g id="text_8">
      <text style="font: 10px 'sans-serif'; text-anchor: middle" x="428.468705" y="318.238437" transform="rotate(-0, 428.468705, 318.238437)">1400</text>
     </g>
    </g>
    <g id="text_9">
     <text style="font: 10px 'sans-serif'; text-anchor: middle" x="252.01" y="331.916562" transform="rotate(-0, 252.01, 331.916562)">runtime</text>
    </g>
   </g>
   <g id="matplotlib.axis_2">
    <g id="ytick_1">
     <g id="line2d_9">
      <defs>
       <path id="m2f4cdd0755" d="M 0 0 
L -3.5 0 
" style="stroke: #000000; stroke-width: 0.8"/>
      </defs>
      <g>
       <use xlink:href="#m2f4cdd0755" x="54.02" y="290.329091" style="stroke: #000000; stroke-width: 0.8"/>
      </g>
     </g>
     <g id="text_10">
      <text style="font: 10px 'sans-serif'; text-anchor: end" x="47.02" y="294.12831" transform="rotate(-0, 47.02, 294.12831)">0.00</text>
     </g>
    </g>
    <g id="ytick_2">
     <g id="line2d_10">
      <g>
       <use xlink:href="#m2f4cdd0755" x="54.02" y="254.766087" style="stroke: #000000; stroke-width: 0.8"/>
      </g>
     </g>
     <g id="text_11">
      <text style="font: 10px 'sans-serif'; text-anchor: end" x="47.02" y="258.565305" transform="rotate(-0, 47.02, 258.565305)">0.05</text>
     </g>
    </g>
    <g id="ytick_3">
     <g id="line2d_11">
      <g>
       <use xlink:href="#m2f4cdd0755" x="54.02" y="219.203082" style="stroke: #000000; stroke-width: 0.8"/>
      </g>
     </g>
     <g id="text_12">
      <text style="font: 10px 'sans-serif'; text-anchor: end" x="47.02" y="223.002301" transform="rotate(-0, 47.02, 223.002301)">0.10</text>
     </g>
    </g>
    <g id="ytick_4">
     <g id="line2d_12">
      <g>
       <use xlink:href="#m2f4cdd0755" x="54.02" y="183.640078" style="stroke: #000000; stroke-width: 0.8"/>
      </g>
     </g>
     <g id="text_13">
      <text style="font: 10px 'sans-serif'; text-anchor: end" x="47.02" y="187.439297" transform="rotate(-0, 47.02, 187.439297)">0.15</text>
     </g>
    </g>
    <g id="ytick_5">
     <g id="line2d_13">
      <g>
       <use xlink:href="#m2f4cdd0755" x="54.02" y="148.077074" style="stroke: #000000; stroke-width: 0.8"/>
      </g>
     </g>
     <g id="text_14">
      <text style="font: 10px 'sans-serif'; text-anchor: end" x="47.02" y="151.876293" transform="rotate(-0, 47.02, 151.876293)">0.20</text>
     </g>
    </g>
    <g id="ytick_6">
     <g id="line2d_14">
      <g>
       <use xlink:href="#m2f4cdd0755" x="54.02" y="112.51407" style="stroke: #000000; stroke-width: 0.8"/>
      </g>
     </g>
     <g id="text_15">
      <text style="font: 10px 'sans-serif'; text-anchor: end" x="47.02" y="116.313288" transform="rotate(-0, 47.02, 116.313288)">0.25</text>
     </g>
    </g>
    <g id="ytick_7">
     <g id="line2d_15">
      <g>
       <use xlink:href="#m2f4cdd0755" x="54.02" y="76.951065" style="stroke: #000000; stroke-width: 0.8"/>
      </g>
     </g>
     <g id="text_16">
      <text style="font: 10px 'sans-serif'; text-anchor: end" x="47.02" y="80.750284" transform="rotate(-0, 47.02, 80.750284)">0.30</text>
     </g>
    </g>
    <g id="ytick_8">
     <g id="line2d_16">
      <g>
       <use xlink:href="#m2f4cdd0755" x="54.02" y="41.388061" style="stroke: #000000; stroke-width: 0.8"/>
      </g>
     </g>
     <g id="text_17">
      <text style="font: 10px 'sans-serif'; text-anchor: end" x="47.02" y="45.18728" transform="rotate(-0, 47.02, 45.18728)">0.35</text>
     </g>
    </g>
    <g id="text_18">
     <text style="font: 10px 'sans-serif'; text-anchor: middle" x="18.674688" y="157.22" transform="rotate(-90, 18.674688, 157.22)">failed</text>
    </g>
   </g>
   <g id="patch_3">
    <path d="M 54.02 303.64 
L 54.02 10.8 
" style="fill: none; stroke: #000000; stroke-width: 0.8; stroke-linejoin: miter; stroke-linecap: square"/>
   </g>
   <g id="patch_4">
    <path d="M 450 303.64 
L 450 10.8 
" style="fill: none; stroke: #000000; stroke-width: 0.8; stroke-linejoin: miter; stroke-linecap: square"/>
   </g>
   <g id="patch_5">
    <path d="M 54.02 303.64 
L 450 303.64 
" style="fill: none; stroke: #000000; stroke-width: 0.8; stroke-linejoin: miter; stroke-linecap: square"/>
   </g>
   <g id="patch_6">
    <path d="M 54.02 10.8 
L 450 10.8 
" style="fill: none; stroke: #000000; stroke-width: 0.8; stroke-linejoin: miter; stroke-linecap: square"/>
   </g>
   <g id="legend_1">
    <g id="patch_7">
     <path d="M 362.45 297.684375 
L 443 297.684375 
Q 445 297.684375 445 295.684375 
L 445 17.8 
Q 445 15.8 443 15.8 
L 362.45 15.8 
Q 360.45 15.8 360.45 17.8 
L 360.45 295.684375 
Q 360.45 297.684375 362.45 297.684375 
z
" style="fill: #ffffff; opacity: 0.8; stroke: #cccccc; stroke-linejoin: miter"/>
    </g>
    <g id="text_19">
     <text style="font: 10px 'sans-serif'; text-anchor: start" x="381.613281" y="27.398438" transform="rotate(-0, 381.613281, 27.398438)">detector</text>
    </g>
    <g id="PathCollection_20">
     <defs>
      <path id="m2893cfbe06" d="M 0 3 
C 0.795609 3 1.55874 2.683901 2.12132 2.12132 
C 2.683901 1.55874 3 0.795609 3 0 
C 3 -0.795609 2.683901 -1.55874 2.12132 -2.12132 
C 1.55874 -2.683901 0.795609 -3 0 -3 
C -0.795609 -3 -1.55874 -2.683901 -2.12132 -2.12132 
C -2.683901 -1.55874 -3 -0.795609 -3 0 
C -3 0.795609 -2.683901 1.55874 -2.12132 2.12132 
C -1.55874 2.683901 -0.795609 3 0 3 
z
" style="stroke: #4477aa"/>
     </defs>
     <g>
      <use xlink:href="#m2893cfbe06" x="374.45" y="39.451563" style="fill: #4477aa; stroke: #4477aa"/>
     </g>
    </g>
    <g id="text_20">
     <text style="font: 10px 'sans-serif'; text-anchor: start" x="392.45" y="42.076563" transform="rotate(-0, 392.45, 42.076563)">christ</text>
    </g>
    <g id="PathCollection_21">
     <defs>
      <path id="m619f08cfbc" d="M 0 3 
C 0.795609 3 1.55874 2.683901 2.12132 2.12132 
C 2.683901 1.55874 3 0.795609 3 0 
C 3 -0.795609 2.683901 -1.55874 2.12132 -2.12132 
C 1.55874 -2.683901 0.795609 -3 0 -3 
C -0.795609 -3 -1.55874 -2.683901 -2.12132 -2.12132 
C -2.683901 -1.55874 -3 -0.795609 -3 0 
C -3 0.795609 -2.683901 1.55874 -2.12132 2.12132 
C -1.55874 2.683901 -0.795609 3 0 3 
z
" style="stroke: #ee6677"/>
     </defs>
     <g>
      <use xlink:href="#m619f08cfbc" x="374.45" y="54.129688" style="fill: #ee6677; stroke: #ee6677"/>
     </g>
    </g>
    <g id="text_21">
     <text style="font: 10px 'sans-serif'; text-anchor: start" x="392.45" y="56.754688" transform="rotate(-0, 392.45, 56.754688)">engz</text>
    </g>
    <g id="PathCollection_22">
     <defs>
      <path id="m00abfbcaac" d="M 0 3 
C 0.795609 3 1.55874 2.683901 2.12132 2.12132 
C 2.683901 1.55874 3 0.795609 3 0 
C 3 -0.795609 2.683901 -1.55874 2.12132 -2.12132 
C 1.55874 -2.683901 0.795609 -3 0 -3 
C -0.795609 -3 -1.55874 -2.683901 -2.12132 -2.12132 
C -2.683901 -1.55874 -3 -0.795609 -3 0 
C -3 0.795609 -2.683901 1.55874 -2.12132 2.12132 
C -1.55874 2.683901 -0.795609 3 0 3 
z
" style="stroke: #228833"/>
     </defs>
     <g>
      <use xlink:href="#m00abfbcaac" x="374.45" y="68.807813" style="fill: #228833; stroke: #228833"/>
     </g>
    </g>
    <g id="text_22">
     <text style="font: 10px 'sans-serif'; text-anchor: start" x="392.45" y="71.432813" transform="rotate(-0, 392.45, 71.432813)">fnvg</text>
    </g>
    <g id="PathCollection_23">
     <defs>
      <path id="m443d76ed8b" d="M 0 3 
C 0.795609 3 1.55874 2.683901 2.12132 2.12132 
C 2.683901 1.55874 3 0.795609 3 0 
C 3 -0.795609 2.683901 -1.55874 2.12132 -2.12132 
C 1.55874 -2.683901 0.795609 -3 0 -3 
C -0.795609 -3 -1.55874 -2.683901 -2.12132 -2.12132 
C -2.683901 -1.55874 -3 -0.795609 -3 0 
C -3 0.795609 -2.683901 1.55874 -2.12132 2.12132 
C -1.55874 2.683901 -0.795609 3 0 3 
z
" style="stroke: #ccbb44"/>
     </defs>
     <g>
      <use xlink:href="#m443d76ed8b" x="374.45" y="83.485938" style="fill: #ccbb44; stroke: #ccbb44"/>
     </g>
    </g>
    <g id="text_23">
     <text style="font: 10px 'sans-serif'; text-anchor: start" x="392.45" y="86.110938" transform="rotate(-0, 392.45, 86.110938)">fwhvg</text>
    </g>
    <g id="PathCollection_24">
     <defs>
      <path id="md2307d906f" d="M 0 3 
C 0.795609 3 1.55874 2.683901 2.12132 2.12132 
C 2.683901 1.55874 3 0.795609 3 0 
C 3 -0.795609 2.683901 -1.55874 2.12132 -2.12132 
C 1.55874 -2.683901 0.795609 -3 0 -3 
C -0.795609 -3 -1.55874 -2.683901 -2.12132 -2.12132 
C -2.683901 -1.55874 -3 -0.795609 -3 0 
C -3 0.795609 -2.683901 1.55874 -2.12132 2.12132 
C -1.55874 2.683901 -0.795609 3 0 3 
z
" style="stroke: #66ccee"/>
     </defs>
     <g>
      <use xlink:href="#md2307d906f" x="374.45" y="98.164063" style="fill: #66ccee; stroke: #66ccee"/>
     </g>
    </g>
    <g id="text_24">
     <text style="font: 10px 'sans-serif'; text-anchor: start" x="392.45" y="100.789063" transform="rotate(-0, 392.45, 100.789063)">gamb</text>
    </g>
    <g id="PathCollection_25">
     <defs>
      <path id="m1b05e38549" d="M 0 3 
C 0.795609 3 1.55874 2.683901 2.12132 2.12132 
C 2.683901 1.55874 3 0.795609 3 0 
C 3 -0.795609 2.683901 -1.55874 2.12132 -2.12132 
C 1.55874 -2.683901 0.795609 -3 0 -3 
C -0.795609 -3 -1.55874 -2.683901 -2.12132 -2.12132 
C -2.683901 -1.55874 -3 -0.795609 -3 0 
C -3 0.795609 -2.683901 1.55874 -2.12132 2.12132 
C -1.55874 2.683901 -0.795609 3 0 3 
z
" style="stroke: #aa3377"/>
     </defs>
     <g>
      <use xlink:href="#m1b05e38549" x="374.45" y="112.842188" style="fill: #aa3377; stroke: #aa3377"/>
     </g>
    </g>
    <g id="text_25">
     <text style="font: 10px 'sans-serif'; text-anchor: start" x="392.45" y="115.467188" transform="rotate(-0, 392.45, 115.467188)">gqrs</text>
    </g>
    <g id="PathCollection_26">
     <defs>
      <path id="m8a9877b7ef" d="M 0 3 
C 0.795609 3 1.55874 2.683901 2.12132 2.12132 
C 2.683901 1.55874 3 0.795609 3 0 
C 3 -0.795609 2.683901 -1.55874 2.12132 -2.12132 
C 1.55874 -2.683901 0.795609 -3 0 -3 
C -0.795609 -3 -1.55874 -2.683901 -2.12132 -2.12132 
C -2.683901 -1.55874 -3 -0.795609 -3 0 
C -3 0.795609 -2.683901 1.55874 -2.12132 2.12132 
C -1.55874 2.683901 -0.795609 3 0 3 
z
" style="stroke: #bbbbbb"/>
     </defs>
     <g>
      <use xlink:href="#m8a9877b7ef" x="374.45" y="127.520313" style="fill: #bbbbbb; stroke: #bbbbbb"/>
     </g>
    </g>
    <g id="text_26">
     <text style="font: 10px 'sans-serif'; text-anchor: start" x="392.45" y="130.145313" transform="rotate(-0, 392.45, 130.145313)">hamilt</text>
    </g>
    <g id="PathCollection_27">
     <defs>
      <path id="m1113b98d87" d="M 0 3 
C 0.795609 3 1.55874 2.683901 2.12132 2.12132 
C 2.683901 1.55874 3 0.795609 3 0 
C 3 -0.795609 2.683901 -1.55874 2.12132 -2.12132 
C 1.55874 -2.683901 0.795609 -3 0 -3 
C -0.795609 -3 -1.55874 -2.683901 -2.12132 -2.12132 
C -2.683901 -1.55874 -3 -0.795609 -3 0 
C -3 0.795609 -2.683901 1.55874 -2.12132 2.12132 
C -1.55874 2.683901 -0.795609 3 0 3 
z
" style="stroke: #77aadd"/>
     </defs>
     <g>
      <use xlink:href="#m1113b98d87" x="374.45" y="142.198438" style="fill: #77aadd; stroke: #77aadd"/>
     </g>
    </g>
    <g id="text_27">
     <text style="font: 10px 'sans-serif'; text-anchor: start" x="392.45" y="144.823438" transform="rotate(-0, 392.45, 144.823438)">jqrs</text>
    </g>
    <g id="PathCollection_28">
     <defs>
      <path id="m29197c6fda" d="M 0 3 
C 0.795609 3 1.55874 2.683901 2.12132 2.12132 
C 2.683901 1.55874 3 0.795609 3 0 
C 3 -0.795609 2.683901 -1.55874 2.12132 -2.12132 
C 1.55874 -2.683901 0.795609 -3 0 -3 
C -0.795609 -3 -1.55874 -2.683901 -2.12132 -2.12132 
C -2.683901 -1.55874 -3 -0.795609 -3 0 
C -3 0.795609 -2.683901 1.55874 -2.12132 2.12132 
C -1.55874 2.683901 -0.795609 3 0 3 
z
" style="stroke: #ee8866"/>
     </defs>
     <g>
      <use xlink:href="#m29197c6fda" x="374.45" y="156.876563" style="fill: #ee8866; stroke: #ee8866"/>
     </g>
    </g>
    <g id="text_28">
     <text style="font: 10px 'sans-serif'; text-anchor: start" x="392.45" y="159.501563" transform="rotate(-0, 392.45, 159.501563)">kali</text>
    </g>
    <g id="PathCollection_29">
     <defs>
      <path id="m1dee0b5af5" d="M 0 3 
C 0.795609 3 1.55874 2.683901 2.12132 2.12132 
C 2.683901 1.55874 3 0.795609 3 0 
C 3 -0.795609 2.683901 -1.55874 2.12132 -2.12132 
C 1.55874 -2.683901 0.795609 -3 0 -3 
C -0.795609 -3 -1.55874 -2.683901 -2.12132 -2.12132 
C -2.683901 -1.55874 -3 -0.795609 -3 0 
C -3 0.795609 -2.683901 1.55874 -2.12132 2.12132 
C -1.55874 2.683901 -0.795609 3 0 3 
z
" style="stroke: #eedd88"/>
     </defs>
     <g>
      <use xlink:href="#m1dee0b5af5" x="374.45" y="171.554688" style="fill: #eedd88; stroke: #eedd88"/>
     </g>
    </g>
    <g id="text_29">
     <text style="font: 10px 'sans-serif'; text-anchor: start" x="392.45" y="174.179688" transform="rotate(-0, 392.45, 174.179688)">mart</text>
    </g>
    <g id="PathCollection_30">
     <defs>
      <path id="m93f9e77270" d="M 0 3 
C 0.795609 3 1.55874 2.683901 2.12132 2.12132 
C 2.683901 1.55874 3 0.795609 3 0 
C 3 -0.795609 2.683901 -1.55874 2.12132 -2.12132 
C 1.55874 -2.683901 0.795609 -3 0 -3 
C -0.795609 -3 -1.55874 -2.683901 -2.12132 -2.12132 
C -2.683901 -1.55874 -3 -0.795609 -3 0 
C -3 0.795609 -2.683901 1.55874 -2.12132 2.12132 
C -1.55874 2.683901 -0.795609 3 0 3 
z
" style="stroke: #ffaabb"/>
     </defs>
     <g>
      <use xlink:href="#m93f9e77270" x="374.45" y="186.232813" style="fill: #ffaabb; stroke: #ffaabb"/>
     </g>
    </g>
    <g id="text_30">
     <text style="font: 10px 'sans-serif'; text-anchor: start" x="392.45" y="188.857813" transform="rotate(-0, 392.45, 188.857813)">nab</text>
    </g>
    <g id="PathCollection_31">
     <defs>
      <path id="mfddaee0e5d" d="M 0 3 
C 0.795609 3 1.55874 2.683901 2.12132 2.12132 
C 2.683901 1.55874 3 0.795609 3 0 
C 3 -0.795609 2.683901 -1.55874 2.12132 -2.12132 
C 1.55874 -2.683901 0.795609 -3 0 -3 
C -0.795609 -3 -1.55874 -2.683901 -2.12132 -2.12132 
C -2.683901 -1.55874 -3 -0.795609 -3 0 
C -3 0.795609 -2.683901 1.55874 -2.12132 2.12132 
C -1.55874 2.683901 -0.795609 3 0 3 
z
" style="stroke: #99ddff"/>
     </defs>
     <g>
      <use xlink:href="#mfddaee0e5d" x="374.45" y="200.910938" style="fill: #99ddff; stroke: #99ddff"/>
     </g>
    </g>
    <g id="text_31">
     <text style="font: 10px 'sans-serif'; text-anchor: start" x="392.45" y="203.535938" transform="rotate(-0, 392.45, 203.535938)">nk</text>
    </g>
    <g id="PathCollection_32">
     <defs>
      <path id="m7044f1b46b" d="M 0 3 
C 0.795609 3 1.55874 2.683901 2.12132 2.12132 
C 2.683901 1.55874 3 0.795609 3 0 
C 3 -0.795609 2.683901 -1.55874 2.12132 -2.12132 
C 1.55874 -2.683901 0.795609 -3 0 -3 
C -0.795609 -3 -1.55874 -2.683901 -2.12132 -2.12132 
C -2.683901 -1.55874 -3 -0.795609 -3 0 
C -3 0.795609 -2.683901 1.55874 -2.12132 2.12132 
C -1.55874 2.683901 -0.795609 3 0 3 
z
" style="stroke: #44bb99"/>
     </defs>
     <g>
      <use xlink:href="#m7044f1b46b" x="374.45" y="215.589063" style="fill: #44bb99; stroke: #44bb99"/>
     </g>
    </g>
    <g id="text_32">
     <text style="font: 10px 'sans-serif'; text-anchor: start" x="392.45" y="218.214063" transform="rotate(-0, 392.45, 218.214063)">pan-tomp</text>
    </g>
    <g id="PathCollection_33">
     <defs>
      <path id="m51d534d4d5" d="M 0 3 
C 0.795609 3 1.55874 2.683901 2.12132 2.12132 
C 2.683901 1.55874 3 0.795609 3 0 
C 3 -0.795609 2.683901 -1.55874 2.12132 -2.12132 
C 1.55874 -2.683901 0.795609 -3 0 -3 
C -0.795609 -3 -1.55874 -2.683901 -2.12132 -2.12132 
C -2.683901 -1.55874 -3 -0.795609 -3 0 
C -3 0.795609 -2.683901 1.55874 -2.12132 2.12132 
C -1.55874 2.683901 -0.795609 3 0 3 
z
" style="stroke: #bbcc33"/>
     </defs>
     <g>
      <use xlink:href="#m51d534d4d5" x="374.45" y="230.267188" style="fill: #bbcc33; stroke: #bbcc33"/>
     </g>
    </g>
    <g id="text_33">
     <text style="font: 10px 'sans-serif'; text-anchor: start" x="392.45" y="232.892188" transform="rotate(-0, 392.45, 232.892188)">rdeco</text>
    </g>
    <g id="PathCollection_34">
     <defs>
      <path id="m7281049752" d="M 0 3 
C 0.795609 3 1.55874 2.683901 2.12132 2.12132 
C 2.683901 1.55874 3 0.795609 3 0 
C 3 -0.795609 2.683901 -1.55874 2.12132 -2.12132 
C 1.55874 -2.683901 0.795609 -3 0 -3 
C -0.795609 -3 -1.55874 -2.683901 -2.12132 -2.12132 
C -2.683901 -1.55874 -3 -0.795609 -3 0 
C -3 0.795609 -2.683901 1.55874 -2.12132 2.12132 
C -1.55874 2.683901 -0.795609 3 0 3 
z
" style="stroke: #aaaa00"/>
     </defs>
     <g>
      <use xlink:href="#m7281049752" x="374.45" y="244.945313" style="fill: #aaaa00; stroke: #aaaa00"/>
     </g>
    </g>
    <g id="text_34">
     <text style="font: 10px 'sans-serif'; text-anchor: start" x="392.45" y="247.570313" transform="rotate(-0, 392.45, 247.570313)">rpeak</text>
    </g>
    <g id="PathCollection_35">
     <defs>
      <path id="m7a0b3325d5" d="M 0 3 
C 0.795609 3 1.55874 2.683901 2.12132 2.12132 
C 2.683901 1.55874 3 0.795609 3 0 
C 3 -0.795609 2.683901 -1.55874 2.12132 -2.12132 
C 1.55874 -2.683901 0.795609 -3 0 -3 
C -0.795609 -3 -1.55874 -2.683901 -2.12132 -2.12132 
C -2.683901 -1.55874 -3 -0.795609 -3 0 
C -3 0.795609 -2.683901 1.55874 -2.12132 2.12132 
C -1.55874 2.683901 -0.795609 3 0 3 
z
" style="stroke: #dddddd"/>
     </defs>
     <g>
      <use xlink:href="#m7a0b3325d5" x="374.45" y="259.623438" style="fill: #dddddd; stroke: #dddddd"/>
     </g>
    </g>
    <g id="text_35">
     <text style="font: 10px 'sans-serif'; text-anchor: start" x="392.45" y="262.248438" transform="rotate(-0, 392.45, 262.248438)">two-avg</text>
    </g>
    <g id="PathCollection_36">
     <defs>
      <path id="mec4dfbb6fc" d="M 0 3 
C 0.795609 3 1.55874 2.683901 2.12132 2.12132 
C 2.683901 1.55874 3 0.795609 3 0 
C 3 -0.795609 2.683901 -1.55874 2.12132 -2.12132 
C 1.55874 -2.683901 0.795609 -3 0 -3 
C -0.795609 -3 -1.55874 -2.683901 -2.12132 -2.12132 
C -2.683901 -1.55874 -3 -0.795609 -3 0 
C -3 0.795609 -2.683901 1.55874 -2.12132 2.12132 
C -1.55874 2.683901 -0.795609 3 0 3 
z
" style="stroke: #000000"/>
     </defs>
     <g>
      <use xlink:href="#mec4dfbb6fc" x="374.45" y="274.301563" style="stroke: #000000"/>
     </g>
    </g>
    <g id="text_36">
     <text style="font: 10px 'sans-serif'; text-anchor: start" x="392.45" y="276.926563" transform="rotate(-0, 392.45, 276.926563)">unsw</text>
    </g>
    <g id="PathCollection_37">
     <g>
      <use xlink:href="#m2893cfbe06" x="374.45" y="288.979688" style="fill: #4477aa; stroke: #4477aa"/>
     </g>
    </g>
    <g id="text_37">
     <text style="font: 10px 'sans-serif'; text-anchor: start" x="392.45" y="291.604688" transform="rotate(-0, 392.45, 291.604688)">wqrs</text>
    </g>
   </g>
  </g>
 </g>
 <defs>
  <clipPath id="pe0ae3f64f3">
   <rect x="54.02" y="10.8" width="395.98" height="292.84"/>
  </clipPath>
 </defs>
</svg>
