<?xml version="1.0" encoding="utf-8" standalone="no"?>
<!DOCTYPE svg PUBLIC "-//W3C//DTD SVG 1.1//EN"
  "http://www.w3.org/Graphics/SVG/1.1/DTD/svg11.dtd">
<svg xmlns:xlink="http://www.w3.org/1999/xlink" width="460.8pt" height="345.6pt" viewBox="0 0 460.8 345.6" xmlns="http://www.w3.org/2000/svg" version="1.1">
 <metadata>
  <rdf:RDF xmlns:dc="http://purl.org/dc/elements/1.1/" xmlns:cc="http://creativecommons.org/ns#" xmlns:rdf="http://www.w3.org/1999/02/22-rdf-syntax-ns#">
   <cc:Work>
    <dc:type rdf:resource="http://purl.org/dc/dcmitype/StillImage"/>
    <dc:date>2022-11-30T17:03:27.022337</dc:date>
    <dc:format>image/svg+xml</dc:format>
    <dc:creator>
     <cc:Agent>
      <dc:title>Matplotlib v3.5.3, https://matplotlib.org/</dc:title>
     </cc:Agent>
    </dc:creator>
   </cc:Work>
  </rdf:RDF>
 </metadata>
 <defs>
  <style type="text/css">*{stroke-linejoin: round; stroke-linecap: butt}</style>
 </defs>
 <g id="figure_1">
  <g id="patch_1">
   <path d="M 0 345.6 
L 460.8 345.6 
L 460.8 0 
L 0 0 
z
" style="fill: #ffffff"/>
  </g>
  <g id="axes_1">
   <g id="patch_2">
    <path d="M 57.17 265.12 
L 450 265.12 
L 450 10.8 
L 57.17 10.8 
z
" style="fill: #ffffff"/>
   </g>
   <g id="patch_3">
    <path d="M 59.625187 265.12 
L 62.080375 265.12 
L 62.080375 265.12 
L 59.625187 265.12 
z
" clip-path="url(#p3e3134fe39)" style="fill: #4477aa; stroke: #000000; stroke-width: 0.5; stroke-linejoin: miter"/>
   </g>
   <g id="patch_4">
    <path d="M 84.177062 265.12 
L 86.63225 265.12 
L 86.63225 265.12 
L 84.177062 265.12 
z
" clip-path="url(#p3e3134fe39)" style="fill: #4477aa; stroke: #000000; stroke-width: 0.5; stroke-linejoin: miter"/>
   </g>
   <g id="patch_5">
    <path d="M 108.728938 265.12 
L 111.184125 265.12 
L 111.184125 265.12 
L 108.728938 265.12 
z
" clip-path="url(#p3e3134fe39)" style="fill: #4477aa; stroke: #000000; stroke-width: 0.5; stroke-linejoin: miter"/>
   </g>
   <g id="patch_6">
    <path d="M 133.280812 265.12 
L 135.736 265.12 
L 135.736 265.12 
L 133.280812 265.12 
z
" clip-path="url(#p3e3134fe39)" style="fill: #4477aa; stroke: #000000; stroke-width: 0.5; stroke-linejoin: miter"/>
   </g>
   <g id="patch_7">
    <path d="M 157.832687 265.12 
L 160.287875 265.12 
L 160.287875 265.12 
L 157.832687 265.12 
z
" clip-path="url(#p3e3134fe39)" style="fill: #4477aa; stroke: #000000; stroke-width: 0.5; stroke-linejoin: miter"/>
   </g>
   <g id="patch_8">
    <path d="M 182.384563 265.12 
L 184.83975 265.12 
L 184.83975 214.128521 
L 182.384563 214.128521 
z
" clip-path="url(#p3e3134fe39)" style="fill: #4477aa; stroke: #000000; stroke-width: 0.5; stroke-linejoin: miter"/>
   </g>
   <g id="patch_9">
    <path d="M 206.936438 265.12 
L 209.391625 265.12 
L 209.391625 265.12 
L 206.936438 265.12 
z
" clip-path="url(#p3e3134fe39)" style="fill: #4477aa; stroke: #000000; stroke-width: 0.5; stroke-linejoin: miter"/>
   </g>
   <g id="patch_10">
    <path d="M 231.488313 265.12 
L 233.9435 265.12 
L 233.9435 265.12 
L 231.488313 265.12 
z
" clip-path="url(#p3e3134fe39)" style="fill: #4477aa; stroke: #000000; stroke-width: 0.5; stroke-linejoin: miter"/>
   </g>
   <g id="patch_11">
    <path d="M 256.040188 265.12 
L 258.495375 265.12 
L 258.495375 265.12 
L 256.040188 265.12 
z
" clip-path="url(#p3e3134fe39)" style="fill: #4477aa; stroke: #000000; stroke-width: 0.5; stroke-linejoin: miter"/>
   </g>
   <g id="patch_12">
    <path d="M 280.592062 265.12 
L 283.04725 265.12 
L 283.04725 265.12 
L 280.592062 265.12 
z
" clip-path="url(#p3e3134fe39)" style="fill: #4477aa; stroke: #000000; stroke-width: 0.5; stroke-linejoin: miter"/>
   </g>
   <g id="patch_13">
    <path d="M 305.143937 265.12 
L 307.599125 265.12 
L 307.599125 265.12 
L 305.143937 265.12 
z
" clip-path="url(#p3e3134fe39)" style="fill: #4477aa; stroke: #000000; stroke-width: 0.5; stroke-linejoin: miter"/>
   </g>
   <g id="patch_14">
    <path d="M 329.695812 265.12 
L 332.151 265.12 
L 332.151 86.649825 
L 329.695812 86.649825 
z
" clip-path="url(#p3e3134fe39)" style="fill: #4477aa; stroke: #000000; stroke-width: 0.5; stroke-linejoin: miter"/>
   </g>
   <g id="patch_15">
    <path d="M 354.247687 265.12 
L 356.702875 265.12 
L 356.702875 265.12 
L 354.247687 265.12 
z
" clip-path="url(#p3e3134fe39)" style="fill: #4477aa; stroke: #000000; stroke-width: 0.5; stroke-linejoin: miter"/>
   </g>
   <g id="patch_16">
    <path d="M 378.799562 265.12 
L 381.25475 265.12 
L 381.25475 265.12 
L 378.799562 265.12 
z
" clip-path="url(#p3e3134fe39)" style="fill: #4477aa; stroke: #000000; stroke-width: 0.5; stroke-linejoin: miter"/>
   </g>
   <g id="patch_17">
    <path d="M 403.351437 265.12 
L 405.806625 265.12 
L 405.806625 265.12 
L 403.351437 265.12 
z
" clip-path="url(#p3e3134fe39)" style="fill: #4477aa; stroke: #000000; stroke-width: 0.5; stroke-linejoin: miter"/>
   </g>
   <g id="patch_18">
    <path d="M 427.903312 265.12 
L 430.3585 265.12 
L 430.3585 265.12 
L 427.903312 265.12 
z
" clip-path="url(#p3e3134fe39)" style="fill: #4477aa; stroke: #000000; stroke-width: 0.5; stroke-linejoin: miter"/>
   </g>
   <g id="patch_19">
    <path d="M 62.080375 265.12 
L 64.535562 265.12 
L 64.535562 265.12 
L 62.080375 265.12 
z
" clip-path="url(#p3e3134fe39)" style="fill: #ee6677; stroke: #000000; stroke-width: 0.5; stroke-linejoin: miter"/>
   </g>
   <g id="patch_20">
    <path d="M 86.63225 265.12 
L 89.087437 265.12 
L 89.087437 265.12 
L 86.63225 265.12 
z
" clip-path="url(#p3e3134fe39)" style="fill: #ee6677; stroke: #000000; stroke-width: 0.5; stroke-linejoin: miter"/>
   </g>
   <g id="patch_21">
    <path d="M 111.184125 265.12 
L 113.639313 265.12 
L 113.639313 265.12 
L 111.184125 265.12 
z
" clip-path="url(#p3e3134fe39)" style="fill: #ee6677; stroke: #000000; stroke-width: 0.5; stroke-linejoin: miter"/>
   </g>
   <g id="patch_22">
    <path d="M 135.736 265.12 
L 138.191187 265.12 
L 138.191187 265.12 
L 135.736 265.12 
z
" clip-path="url(#p3e3134fe39)" style="fill: #ee6677; stroke: #000000; stroke-width: 0.5; stroke-linejoin: miter"/>
   </g>
   <g id="patch_23">
    <path d="M 160.287875 265.12 
L 162.743062 265.12 
L 162.743062 265.12 
L 160.287875 265.12 
z
" clip-path="url(#p3e3134fe39)" style="fill: #ee6677; stroke: #000000; stroke-width: 0.5; stroke-linejoin: miter"/>
   </g>
   <g id="patch_24">
    <path d="M 184.83975 265.12 
L 187.294937 265.12 
L 187.294937 265.12 
L 184.83975 265.12 
z
" clip-path="url(#p3e3134fe39)" style="fill: #ee6677; stroke: #000000; stroke-width: 0.5; stroke-linejoin: miter"/>
   </g>
   <g id="patch_25">
    <path d="M 209.391625 265.12 
L 211.846812 265.12 
L 211.846812 265.12 
L 209.391625 265.12 
z
" clip-path="url(#p3e3134fe39)" style="fill: #ee6677; stroke: #000000; stroke-width: 0.5; stroke-linejoin: miter"/>
   </g>
   <g id="patch_26">
    <path d="M 233.9435 265.12 
L 236.398687 265.12 
L 236.398687 265.12 
L 233.9435 265.12 
z
" clip-path="url(#p3e3134fe39)" style="fill: #ee6677; stroke: #000000; stroke-width: 0.5; stroke-linejoin: miter"/>
   </g>
   <g id="patch_27">
    <path d="M 258.495375 265.12 
L 260.950562 265.12 
L 260.950562 265.12 
L 258.495375 265.12 
z
" clip-path="url(#p3e3134fe39)" style="fill: #ee6677; stroke: #000000; stroke-width: 0.5; stroke-linejoin: miter"/>
   </g>
   <g id="patch_28">
    <path d="M 283.04725 265.12 
L 285.502437 265.12 
L 285.502437 265.12 
L 283.04725 265.12 
z
" clip-path="url(#p3e3134fe39)" style="fill: #ee6677; stroke: #000000; stroke-width: 0.5; stroke-linejoin: miter"/>
   </g>
   <g id="patch_29">
    <path d="M 307.599125 265.12 
L 310.054312 265.12 
L 310.054312 265.12 
L 307.599125 265.12 
z
" clip-path="url(#p3e3134fe39)" style="fill: #ee6677; stroke: #000000; stroke-width: 0.5; stroke-linejoin: miter"/>
   </g>
   <g id="patch_30">
    <path d="M 332.151 265.12 
L 334.606187 265.12 
L 334.606187 214.128521 
L 332.151 214.128521 
z
" clip-path="url(#p3e3134fe39)" style="fill: #ee6677; stroke: #000000; stroke-width: 0.5; stroke-linejoin: miter"/>
   </g>
   <g id="patch_31">
    <path d="M 356.702875 265.12 
L 359.158062 265.12 
L 359.158062 265.12 
L 356.702875 265.12 
z
" clip-path="url(#p3e3134fe39)" style="fill: #ee6677; stroke: #000000; stroke-width: 0.5; stroke-linejoin: miter"/>
   </g>
   <g id="patch_32">
    <path d="M 381.25475 265.12 
L 383.709937 265.12 
L 383.709937 265.12 
L 381.25475 265.12 
z
" clip-path="url(#p3e3134fe39)" style="fill: #ee6677; stroke: #000000; stroke-width: 0.5; stroke-linejoin: miter"/>
   </g>
   <g id="patch_33">
    <path d="M 405.806625 265.12 
L 408.261812 265.12 
L 408.261812 265.12 
L 405.806625 265.12 
z
" clip-path="url(#p3e3134fe39)" style="fill: #ee6677; stroke: #000000; stroke-width: 0.5; stroke-linejoin: miter"/>
   </g>
   <g id="patch_34">
    <path d="M 430.3585 265.12 
L 432.813687 265.12 
L 432.813687 265.12 
L 430.3585 265.12 
z
" clip-path="url(#p3e3134fe39)" style="fill: #ee6677; stroke: #000000; stroke-width: 0.5; stroke-linejoin: miter"/>
   </g>
   <g id="patch_35">
    <path d="M 64.535562 265.12 
L 66.99075 265.12 
L 66.99075 265.12 
L 64.535562 265.12 
z
" clip-path="url(#p3e3134fe39)" style="fill: #228833; stroke: #000000; stroke-width: 0.5; stroke-linejoin: miter"/>
   </g>
   <g id="patch_36">
    <path d="M 89.087437 265.12 
L 91.542625 265.12 
L 91.542625 265.12 
L 89.087437 265.12 
z
" clip-path="url(#p3e3134fe39)" style="fill: #228833; stroke: #000000; stroke-width: 0.5; stroke-linejoin: miter"/>
   </g>
   <g id="patch_37">
    <path d="M 113.639312 265.12 
L 116.0945 265.12 
L 116.0945 265.12 
L 113.639312 265.12 
z
" clip-path="url(#p3e3134fe39)" style="fill: #228833; stroke: #000000; stroke-width: 0.5; stroke-linejoin: miter"/>
   </g>
   <g id="patch_38">
    <path d="M 138.191188 265.12 
L 140.646375 265.12 
L 140.646375 265.12 
L 138.191188 265.12 
z
" clip-path="url(#p3e3134fe39)" style="fill: #228833; stroke: #000000; stroke-width: 0.5; stroke-linejoin: miter"/>
   </g>
   <g id="patch_39">
    <path d="M 162.743063 265.12 
L 165.19825 265.12 
L 165.19825 265.12 
L 162.743063 265.12 
z
" clip-path="url(#p3e3134fe39)" style="fill: #228833; stroke: #000000; stroke-width: 0.5; stroke-linejoin: miter"/>
   </g>
   <g id="patch_40">
    <path d="M 187.294938 265.12 
L 189.750125 265.12 
L 189.750125 265.12 
L 187.294938 265.12 
z
" clip-path="url(#p3e3134fe39)" style="fill: #228833; stroke: #000000; stroke-width: 0.5; stroke-linejoin: miter"/>
   </g>
   <g id="patch_41">
    <path d="M 211.846812 265.12 
L 214.302 265.12 
L 214.302 265.12 
L 211.846812 265.12 
z
" clip-path="url(#p3e3134fe39)" style="fill: #228833; stroke: #000000; stroke-width: 0.5; stroke-linejoin: miter"/>
   </g>
   <g id="patch_42">
    <path d="M 236.398687 265.12 
L 238.853875 265.12 
L 238.853875 265.12 
L 236.398687 265.12 
z
" clip-path="url(#p3e3134fe39)" style="fill: #228833; stroke: #000000; stroke-width: 0.5; stroke-linejoin: miter"/>
   </g>
   <g id="patch_43">
    <path d="M 260.950562 265.12 
L 263.40575 265.12 
L 263.40575 265.12 
L 260.950562 265.12 
z
" clip-path="url(#p3e3134fe39)" style="fill: #228833; stroke: #000000; stroke-width: 0.5; stroke-linejoin: miter"/>
   </g>
   <g id="patch_44">
    <path d="M 285.502437 265.12 
L 287.957625 265.12 
L 287.957625 265.12 
L 285.502437 265.12 
z
" clip-path="url(#p3e3134fe39)" style="fill: #228833; stroke: #000000; stroke-width: 0.5; stroke-linejoin: miter"/>
   </g>
   <g id="patch_45">
    <path d="M 310.054312 265.12 
L 312.5095 265.12 
L 312.5095 265.12 
L 310.054312 265.12 
z
" clip-path="url(#p3e3134fe39)" style="fill: #228833; stroke: #000000; stroke-width: 0.5; stroke-linejoin: miter"/>
   </g>
   <g id="patch_46">
    <path d="M 334.606187 265.12 
L 337.061375 265.12 
L 337.061375 265.12 
L 334.606187 265.12 
z
" clip-path="url(#p3e3134fe39)" style="fill: #228833; stroke: #000000; stroke-width: 0.5; stroke-linejoin: miter"/>
   </g>
   <g id="patch_47">
    <path d="M 359.158062 265.12 
L 361.61325 265.12 
L 361.61325 239.624261 
L 359.158062 239.624261 
z
" clip-path="url(#p3e3134fe39)" style="fill: #228833; stroke: #000000; stroke-width: 0.5; stroke-linejoin: miter"/>
   </g>
   <g id="patch_48">
    <path d="M 383.709937 265.12 
L 386.165125 265.12 
L 386.165125 265.12 
L 383.709937 265.12 
z
" clip-path="url(#p3e3134fe39)" style="fill: #228833; stroke: #000000; stroke-width: 0.5; stroke-linejoin: miter"/>
   </g>
   <g id="patch_49">
    <path d="M 408.261812 265.12 
L 410.717 265.12 
L 410.717 265.12 
L 408.261812 265.12 
z
" clip-path="url(#p3e3134fe39)" style="fill: #228833; stroke: #000000; stroke-width: 0.5; stroke-linejoin: miter"/>
   </g>
   <g id="patch_50">
    <path d="M 432.813687 265.12 
L 435.268875 265.12 
L 435.268875 265.12 
L 432.813687 265.12 
z
" clip-path="url(#p3e3134fe39)" style="fill: #228833; stroke: #000000; stroke-width: 0.5; stroke-linejoin: miter"/>
   </g>
   <g id="patch_51">
    <path d="M 66.99075 265.12 
L 69.445937 265.12 
L 69.445937 265.12 
L 66.99075 265.12 
z
" clip-path="url(#p3e3134fe39)" style="fill: #ccbb44; stroke: #000000; stroke-width: 0.5; stroke-linejoin: miter"/>
   </g>
   <g id="patch_52">
    <path d="M 91.542625 265.12 
L 93.997812 265.12 
L 93.997812 265.12 
L 91.542625 265.12 
z
" clip-path="url(#p3e3134fe39)" style="fill: #ccbb44; stroke: #000000; stroke-width: 0.5; stroke-linejoin: miter"/>
   </g>
   <g id="patch_53">
    <path d="M 116.0945 265.12 
L 118.549688 265.12 
L 118.549688 265.12 
L 116.0945 265.12 
z
" clip-path="url(#p3e3134fe39)" style="fill: #ccbb44; stroke: #000000; stroke-width: 0.5; stroke-linejoin: miter"/>
   </g>
   <g id="patch_54">
    <path d="M 140.646375 265.12 
L 143.101562 265.12 
L 143.101562 265.12 
L 140.646375 265.12 
z
" clip-path="url(#p3e3134fe39)" style="fill: #ccbb44; stroke: #000000; stroke-width: 0.5; stroke-linejoin: miter"/>
   </g>
   <g id="patch_55">
    <path d="M 165.19825 265.12 
L 167.653437 265.12 
L 167.653437 265.12 
L 165.19825 265.12 
z
" clip-path="url(#p3e3134fe39)" style="fill: #ccbb44; stroke: #000000; stroke-width: 0.5; stroke-linejoin: miter"/>
   </g>
   <g id="patch_56">
    <path d="M 189.750125 265.12 
L 192.205312 265.12 
L 192.205312 265.12 
L 189.750125 265.12 
z
" clip-path="url(#p3e3134fe39)" style="fill: #ccbb44; stroke: #000000; stroke-width: 0.5; stroke-linejoin: miter"/>
   </g>
   <g id="patch_57">
    <path d="M 214.302 265.12 
L 216.757188 265.12 
L 216.757188 265.12 
L 214.302 265.12 
z
" clip-path="url(#p3e3134fe39)" style="fill: #ccbb44; stroke: #000000; stroke-width: 0.5; stroke-linejoin: miter"/>
   </g>
   <g id="patch_58">
    <path d="M 238.853875 265.12 
L 241.309063 265.12 
L 241.309063 265.12 
L 238.853875 265.12 
z
" clip-path="url(#p3e3134fe39)" style="fill: #ccbb44; stroke: #000000; stroke-width: 0.5; stroke-linejoin: miter"/>
   </g>
   <g id="patch_59">
    <path d="M 263.40575 265.12 
L 265.860937 265.12 
L 265.860937 265.12 
L 263.40575 265.12 
z
" clip-path="url(#p3e3134fe39)" style="fill: #ccbb44; stroke: #000000; stroke-width: 0.5; stroke-linejoin: miter"/>
   </g>
   <g id="patch_60">
    <path d="M 287.957625 265.12 
L 290.412812 265.12 
L 290.412812 265.12 
L 287.957625 265.12 
z
" clip-path="url(#p3e3134fe39)" style="fill: #ccbb44; stroke: #000000; stroke-width: 0.5; stroke-linejoin: miter"/>
   </g>
   <g id="patch_61">
    <path d="M 312.5095 265.12 
L 314.964687 265.12 
L 314.964687 265.12 
L 312.5095 265.12 
z
" clip-path="url(#p3e3134fe39)" style="fill: #ccbb44; stroke: #000000; stroke-width: 0.5; stroke-linejoin: miter"/>
   </g>
   <g id="patch_62">
    <path d="M 337.061375 265.12 
L 339.516562 265.12 
L 339.516562 265.12 
L 337.061375 265.12 
z
" clip-path="url(#p3e3134fe39)" style="fill: #ccbb44; stroke: #000000; stroke-width: 0.5; stroke-linejoin: miter"/>
   </g>
   <g id="patch_63">
    <path d="M 361.61325 265.12 
L 364.068437 265.12 
L 364.068437 265.12 
L 361.61325 265.12 
z
" clip-path="url(#p3e3134fe39)" style="fill: #ccbb44; stroke: #000000; stroke-width: 0.5; stroke-linejoin: miter"/>
   </g>
   <g id="patch_64">
    <path d="M 386.165125 265.12 
L 388.620312 265.12 
L 388.620312 265.12 
L 386.165125 265.12 
z
" clip-path="url(#p3e3134fe39)" style="fill: #ccbb44; stroke: #000000; stroke-width: 0.5; stroke-linejoin: miter"/>
   </g>
   <g id="patch_65">
    <path d="M 410.717 265.12 
L 413.172187 265.12 
L 413.172187 265.12 
L 410.717 265.12 
z
" clip-path="url(#p3e3134fe39)" style="fill: #ccbb44; stroke: #000000; stroke-width: 0.5; stroke-linejoin: miter"/>
   </g>
   <g id="patch_66">
    <path d="M 435.268875 265.12 
L 437.724062 265.12 
L 437.724062 265.12 
L 435.268875 265.12 
z
" clip-path="url(#p3e3134fe39)" style="fill: #ccbb44; stroke: #000000; stroke-width: 0.5; stroke-linejoin: miter"/>
   </g>
   <g id="patch_67">
    <path d="M 69.445937 265.12 
L 71.901125 265.12 
L 71.901125 265.12 
L 69.445937 265.12 
z
" clip-path="url(#p3e3134fe39)" style="fill: #66ccee; stroke: #000000; stroke-width: 0.5; stroke-linejoin: miter"/>
   </g>
   <g id="patch_68">
    <path d="M 93.997812 265.12 
L 96.453 265.12 
L 96.453 239.624261 
L 93.997812 239.624261 
z
" clip-path="url(#p3e3134fe39)" style="fill: #66ccee; stroke: #000000; stroke-width: 0.5; stroke-linejoin: miter"/>
   </g>
   <g id="patch_69">
    <path d="M 118.549687 265.12 
L 121.004875 265.12 
L 121.004875 265.12 
L 118.549687 265.12 
z
" clip-path="url(#p3e3134fe39)" style="fill: #66ccee; stroke: #000000; stroke-width: 0.5; stroke-linejoin: miter"/>
   </g>
   <g id="patch_70">
    <path d="M 143.101562 265.12 
L 145.55675 265.12 
L 145.55675 265.12 
L 143.101562 265.12 
z
" clip-path="url(#p3e3134fe39)" style="fill: #66ccee; stroke: #000000; stroke-width: 0.5; stroke-linejoin: miter"/>
   </g>
   <g id="patch_71">
    <path d="M 167.653437 265.12 
L 170.108625 265.12 
L 170.108625 265.12 
L 167.653437 265.12 
z
" clip-path="url(#p3e3134fe39)" style="fill: #66ccee; stroke: #000000; stroke-width: 0.5; stroke-linejoin: miter"/>
   </g>
   <g id="patch_72">
    <path d="M 192.205312 265.12 
L 194.6605 265.12 
L 194.6605 214.128521 
L 192.205312 214.128521 
z
" clip-path="url(#p3e3134fe39)" style="fill: #66ccee; stroke: #000000; stroke-width: 0.5; stroke-linejoin: miter"/>
   </g>
   <g id="patch_73">
    <path d="M 216.757187 265.12 
L 219.212375 265.12 
L 219.212375 265.12 
L 216.757187 265.12 
z
" clip-path="url(#p3e3134fe39)" style="fill: #66ccee; stroke: #000000; stroke-width: 0.5; stroke-linejoin: miter"/>
   </g>
   <g id="patch_74">
    <path d="M 241.309062 265.12 
L 243.76425 265.12 
L 243.76425 265.12 
L 241.309062 265.12 
z
" clip-path="url(#p3e3134fe39)" style="fill: #66ccee; stroke: #000000; stroke-width: 0.5; stroke-linejoin: miter"/>
   </g>
   <g id="patch_75">
    <path d="M 265.860937 265.12 
L 268.316125 265.12 
L 268.316125 265.12 
L 265.860937 265.12 
z
" clip-path="url(#p3e3134fe39)" style="fill: #66ccee; stroke: #000000; stroke-width: 0.5; stroke-linejoin: miter"/>
   </g>
   <g id="patch_76">
    <path d="M 290.412812 265.12 
L 292.868 265.12 
L 292.868 265.12 
L 290.412812 265.12 
z
" clip-path="url(#p3e3134fe39)" style="fill: #66ccee; stroke: #000000; stroke-width: 0.5; stroke-linejoin: miter"/>
   </g>
   <g id="patch_77">
    <path d="M 314.964687 265.12 
L 317.419875 265.12 
L 317.419875 265.12 
L 314.964687 265.12 
z
" clip-path="url(#p3e3134fe39)" style="fill: #66ccee; stroke: #000000; stroke-width: 0.5; stroke-linejoin: miter"/>
   </g>
   <g id="patch_78">
    <path d="M 339.516563 265.12 
L 341.97175 265.12 
L 341.97175 22.910476 
L 339.516563 22.910476 
z
" clip-path="url(#p3e3134fe39)" style="fill: #66ccee; stroke: #000000; stroke-width: 0.5; stroke-linejoin: miter"/>
   </g>
   <g id="patch_79">
    <path d="M 364.068438 265.12 
L 366.523625 265.12 
L 366.523625 265.12 
L 364.068438 265.12 
z
" clip-path="url(#p3e3134fe39)" style="fill: #66ccee; stroke: #000000; stroke-width: 0.5; stroke-linejoin: miter"/>
   </g>
   <g id="patch_80">
    <path d="M 388.620313 265.12 
L 391.0755 265.12 
L 391.0755 265.12 
L 388.620313 265.12 
z
" clip-path="url(#p3e3134fe39)" style="fill: #66ccee; stroke: #000000; stroke-width: 0.5; stroke-linejoin: miter"/>
   </g>
   <g id="patch_81">
    <path d="M 413.172188 265.12 
L 415.627375 265.12 
L 415.627375 265.12 
L 413.172188 265.12 
z
" clip-path="url(#p3e3134fe39)" style="fill: #66ccee; stroke: #000000; stroke-width: 0.5; stroke-linejoin: miter"/>
   </g>
   <g id="patch_82">
    <path d="M 437.724063 265.12 
L 440.17925 265.12 
L 440.17925 265.12 
L 437.724063 265.12 
z
" clip-path="url(#p3e3134fe39)" style="fill: #66ccee; stroke: #000000; stroke-width: 0.5; stroke-linejoin: miter"/>
   </g>
   <g id="patch_83">
    <path d="M 71.901125 265.12 
L 74.356312 265.12 
L 74.356312 265.12 
L 71.901125 265.12 
z
" clip-path="url(#p3e3134fe39)" style="fill: #aa3377; stroke: #000000; stroke-width: 0.5; stroke-linejoin: miter"/>
   </g>
   <g id="patch_84">
    <path d="M 96.453 265.12 
L 98.908188 265.12 
L 98.908188 265.12 
L 96.453 265.12 
z
" clip-path="url(#p3e3134fe39)" style="fill: #aa3377; stroke: #000000; stroke-width: 0.5; stroke-linejoin: miter"/>
   </g>
   <g id="patch_85">
    <path d="M 121.004875 265.12 
L 123.460063 265.12 
L 123.460063 265.12 
L 121.004875 265.12 
z
" clip-path="url(#p3e3134fe39)" style="fill: #aa3377; stroke: #000000; stroke-width: 0.5; stroke-linejoin: miter"/>
   </g>
   <g id="patch_86">
    <path d="M 145.55675 265.12 
L 148.011937 265.12 
L 148.011937 265.12 
L 145.55675 265.12 
z
" clip-path="url(#p3e3134fe39)" style="fill: #aa3377; stroke: #000000; stroke-width: 0.5; stroke-linejoin: miter"/>
   </g>
   <g id="patch_87">
    <path d="M 170.108625 265.12 
L 172.563813 265.12 
L 172.563813 265.12 
L 170.108625 265.12 
z
" clip-path="url(#p3e3134fe39)" style="fill: #aa3377; stroke: #000000; stroke-width: 0.5; stroke-linejoin: miter"/>
   </g>
   <g id="patch_88">
    <path d="M 194.6605 265.12 
L 197.115688 265.12 
L 197.115688 265.12 
L 194.6605 265.12 
z
" clip-path="url(#p3e3134fe39)" style="fill: #aa3377; stroke: #000000; stroke-width: 0.5; stroke-linejoin: miter"/>
   </g>
   <g id="patch_89">
    <path d="M 219.212375 265.12 
L 221.667563 265.12 
L 221.667563 265.12 
L 219.212375 265.12 
z
" clip-path="url(#p3e3134fe39)" style="fill: #aa3377; stroke: #000000; stroke-width: 0.5; stroke-linejoin: miter"/>
   </g>
   <g id="patch_90">
    <path d="M 243.76425 265.12 
L 246.219437 265.12 
L 246.219437 265.12 
L 243.76425 265.12 
z
" clip-path="url(#p3e3134fe39)" style="fill: #aa3377; stroke: #000000; stroke-width: 0.5; stroke-linejoin: miter"/>
   </g>
   <g id="patch_91">
    <path d="M 268.316125 265.12 
L 270.771312 265.12 
L 270.771312 265.12 
L 268.316125 265.12 
z
" clip-path="url(#p3e3134fe39)" style="fill: #aa3377; stroke: #000000; stroke-width: 0.5; stroke-linejoin: miter"/>
   </g>
   <g id="patch_92">
    <path d="M 292.868 265.12 
L 295.323187 265.12 
L 295.323187 265.12 
L 292.868 265.12 
z
" clip-path="url(#p3e3134fe39)" style="fill: #aa3377; stroke: #000000; stroke-width: 0.5; stroke-linejoin: miter"/>
   </g>
   <g id="patch_93">
    <path d="M 317.419875 265.12 
L 319.875062 265.12 
L 319.875062 265.12 
L 317.419875 265.12 
z
" clip-path="url(#p3e3134fe39)" style="fill: #aa3377; stroke: #000000; stroke-width: 0.5; stroke-linejoin: miter"/>
   </g>
   <g id="patch_94">
    <path d="M 341.97175 265.12 
L 344.426937 265.12 
L 344.426937 252.37213 
L 341.97175 252.37213 
z
" clip-path="url(#p3e3134fe39)" style="fill: #aa3377; stroke: #000000; stroke-width: 0.5; stroke-linejoin: miter"/>
   </g>
   <g id="patch_95">
    <path d="M 366.523625 265.12 
L 368.978812 265.12 
L 368.978812 265.12 
L 366.523625 265.12 
z
" clip-path="url(#p3e3134fe39)" style="fill: #aa3377; stroke: #000000; stroke-width: 0.5; stroke-linejoin: miter"/>
   </g>
   <g id="patch_96">
    <path d="M 391.0755 265.12 
L 393.530687 265.12 
L 393.530687 265.12 
L 391.0755 265.12 
z
" clip-path="url(#p3e3134fe39)" style="fill: #aa3377; stroke: #000000; stroke-width: 0.5; stroke-linejoin: miter"/>
   </g>
   <g id="patch_97">
    <path d="M 415.627375 265.12 
L 418.082562 265.12 
L 418.082562 265.12 
L 415.627375 265.12 
z
" clip-path="url(#p3e3134fe39)" style="fill: #aa3377; stroke: #000000; stroke-width: 0.5; stroke-linejoin: miter"/>
   </g>
   <g id="patch_98">
    <path d="M 440.17925 265.12 
L 442.634437 265.12 
L 442.634437 265.12 
L 440.17925 265.12 
z
" clip-path="url(#p3e3134fe39)" style="fill: #aa3377; stroke: #000000; stroke-width: 0.5; stroke-linejoin: miter"/>
   </g>
   <g id="patch_99">
    <path d="M 74.356313 265.12 
L 76.8115 265.12 
L 76.8115 265.12 
L 74.356313 265.12 
z
" clip-path="url(#p3e3134fe39)" style="fill: #bbbbbb; stroke: #000000; stroke-width: 0.5; stroke-linejoin: miter"/>
   </g>
   <g id="patch_100">
    <path d="M 98.908187 265.12 
L 101.363375 265.12 
L 101.363375 265.12 
L 98.908187 265.12 
z
" clip-path="url(#p3e3134fe39)" style="fill: #bbbbbb; stroke: #000000; stroke-width: 0.5; stroke-linejoin: miter"/>
   </g>
   <g id="patch_101">
    <path d="M 123.460062 265.12 
L 125.91525 265.12 
L 125.91525 265.12 
L 123.460062 265.12 
z
" clip-path="url(#p3e3134fe39)" style="fill: #bbbbbb; stroke: #000000; stroke-width: 0.5; stroke-linejoin: miter"/>
   </g>
   <g id="patch_102">
    <path d="M 148.011937 265.12 
L 150.467125 265.12 
L 150.467125 265.12 
L 148.011937 265.12 
z
" clip-path="url(#p3e3134fe39)" style="fill: #bbbbbb; stroke: #000000; stroke-width: 0.5; stroke-linejoin: miter"/>
   </g>
   <g id="patch_103">
    <path d="M 172.563812 265.12 
L 175.019 265.12 
L 175.019 265.12 
L 172.563812 265.12 
z
" clip-path="url(#p3e3134fe39)" style="fill: #bbbbbb; stroke: #000000; stroke-width: 0.5; stroke-linejoin: miter"/>
   </g>
   <g id="patch_104">
    <path d="M 197.115687 265.12 
L 199.570875 265.12 
L 199.570875 265.12 
L 197.115687 265.12 
z
" clip-path="url(#p3e3134fe39)" style="fill: #bbbbbb; stroke: #000000; stroke-width: 0.5; stroke-linejoin: miter"/>
   </g>
   <g id="patch_105">
    <path d="M 221.667562 265.12 
L 224.12275 265.12 
L 224.12275 265.12 
L 221.667562 265.12 
z
" clip-path="url(#p3e3134fe39)" style="fill: #bbbbbb; stroke: #000000; stroke-width: 0.5; stroke-linejoin: miter"/>
   </g>
   <g id="patch_106">
    <path d="M 246.219437 265.12 
L 248.674625 265.12 
L 248.674625 265.12 
L 246.219437 265.12 
z
" clip-path="url(#p3e3134fe39)" style="fill: #bbbbbb; stroke: #000000; stroke-width: 0.5; stroke-linejoin: miter"/>
   </g>
   <g id="patch_107">
    <path d="M 270.771312 265.12 
L 273.2265 265.12 
L 273.2265 265.12 
L 270.771312 265.12 
z
" clip-path="url(#p3e3134fe39)" style="fill: #bbbbbb; stroke: #000000; stroke-width: 0.5; stroke-linejoin: miter"/>
   </g>
   <g id="patch_108">
    <path d="M 295.323187 265.12 
L 297.778375 265.12 
L 297.778375 265.12 
L 295.323187 265.12 
z
" clip-path="url(#p3e3134fe39)" style="fill: #bbbbbb; stroke: #000000; stroke-width: 0.5; stroke-linejoin: miter"/>
   </g>
   <g id="patch_109">
    <path d="M 319.875062 265.12 
L 322.33025 265.12 
L 322.33025 265.12 
L 319.875062 265.12 
z
" clip-path="url(#p3e3134fe39)" style="fill: #bbbbbb; stroke: #000000; stroke-width: 0.5; stroke-linejoin: miter"/>
   </g>
   <g id="patch_110">
    <path d="M 344.426938 265.12 
L 346.882125 265.12 
L 346.882125 265.12 
L 344.426938 265.12 
z
" clip-path="url(#p3e3134fe39)" style="fill: #bbbbbb; stroke: #000000; stroke-width: 0.5; stroke-linejoin: miter"/>
   </g>
   <g id="patch_111">
    <path d="M 368.978813 265.12 
L 371.434 265.12 
L 371.434 239.624261 
L 368.978813 239.624261 
z
" clip-path="url(#p3e3134fe39)" style="fill: #bbbbbb; stroke: #000000; stroke-width: 0.5; stroke-linejoin: miter"/>
   </g>
   <g id="patch_112">
    <path d="M 393.530687 265.12 
L 395.985875 265.12 
L 395.985875 265.12 
L 393.530687 265.12 
z
" clip-path="url(#p3e3134fe39)" style="fill: #bbbbbb; stroke: #000000; stroke-width: 0.5; stroke-linejoin: miter"/>
   </g>
   <g id="patch_113">
    <path d="M 418.082562 265.12 
L 420.53775 265.12 
L 420.53775 265.12 
L 418.082562 265.12 
z
" clip-path="url(#p3e3134fe39)" style="fill: #bbbbbb; stroke: #000000; stroke-width: 0.5; stroke-linejoin: miter"/>
   </g>
   <g id="patch_114">
    <path d="M 442.634437 265.12 
L 445.089625 265.12 
L 445.089625 265.12 
L 442.634437 265.12 
z
" clip-path="url(#p3e3134fe39)" style="fill: #bbbbbb; stroke: #000000; stroke-width: 0.5; stroke-linejoin: miter"/>
   </g>
   <g id="patch_115">
    <path d="M 76.8115 265.12 
L 79.266687 265.12 
L 79.266687 265.12 
L 76.8115 265.12 
z
" clip-path="url(#p3e3134fe39)" style="fill: #77aadd; stroke: #000000; stroke-width: 0.5; stroke-linejoin: miter"/>
   </g>
   <g id="patch_116">
    <path d="M 101.363375 265.12 
L 103.818562 265.12 
L 103.818562 265.12 
L 101.363375 265.12 
z
" clip-path="url(#p3e3134fe39)" style="fill: #77aadd; stroke: #000000; stroke-width: 0.5; stroke-linejoin: miter"/>
   </g>
   <g id="patch_117">
    <path d="M 125.91525 265.12 
L 128.370438 265.12 
L 128.370438 265.12 
L 125.91525 265.12 
z
" clip-path="url(#p3e3134fe39)" style="fill: #77aadd; stroke: #000000; stroke-width: 0.5; stroke-linejoin: miter"/>
   </g>
   <g id="patch_118">
    <path d="M 150.467125 265.12 
L 152.922313 265.12 
L 152.922313 265.12 
L 150.467125 265.12 
z
" clip-path="url(#p3e3134fe39)" style="fill: #77aadd; stroke: #000000; stroke-width: 0.5; stroke-linejoin: miter"/>
   </g>
   <g id="patch_119">
    <path d="M 175.019 265.12 
L 177.474187 265.12 
L 177.474187 265.12 
L 175.019 265.12 
z
" clip-path="url(#p3e3134fe39)" style="fill: #77aadd; stroke: #000000; stroke-width: 0.5; stroke-linejoin: miter"/>
   </g>
   <g id="patch_120">
    <path d="M 199.570875 265.12 
L 202.026062 265.12 
L 202.026062 265.12 
L 199.570875 265.12 
z
" clip-path="url(#p3e3134fe39)" style="fill: #77aadd; stroke: #000000; stroke-width: 0.5; stroke-linejoin: miter"/>
   </g>
   <g id="patch_121">
    <path d="M 224.12275 265.12 
L 226.577937 265.12 
L 226.577937 265.12 
L 224.12275 265.12 
z
" clip-path="url(#p3e3134fe39)" style="fill: #77aadd; stroke: #000000; stroke-width: 0.5; stroke-linejoin: miter"/>
   </g>
   <g id="patch_122">
    <path d="M 248.674625 265.12 
L 251.129812 265.12 
L 251.129812 265.12 
L 248.674625 265.12 
z
" clip-path="url(#p3e3134fe39)" style="fill: #77aadd; stroke: #000000; stroke-width: 0.5; stroke-linejoin: miter"/>
   </g>
   <g id="patch_123">
    <path d="M 273.2265 265.12 
L 275.681687 265.12 
L 275.681687 265.12 
L 273.2265 265.12 
z
" clip-path="url(#p3e3134fe39)" style="fill: #77aadd; stroke: #000000; stroke-width: 0.5; stroke-linejoin: miter"/>
   </g>
   <g id="patch_124">
    <path d="M 297.778375 265.12 
L 300.233562 265.12 
L 300.233562 265.12 
L 297.778375 265.12 
z
" clip-path="url(#p3e3134fe39)" style="fill: #77aadd; stroke: #000000; stroke-width: 0.5; stroke-linejoin: miter"/>
   </g>
   <g id="patch_125">
    <path d="M 322.33025 265.12 
L 324.785437 265.12 
L 324.785437 265.12 
L 322.33025 265.12 
z
" clip-path="url(#p3e3134fe39)" style="fill: #77aadd; stroke: #000000; stroke-width: 0.5; stroke-linejoin: miter"/>
   </g>
   <g id="patch_126">
    <path d="M 346.882125 265.12 
L 349.337312 265.12 
L 349.337312 265.12 
L 346.882125 265.12 
z
" clip-path="url(#p3e3134fe39)" style="fill: #77aadd; stroke: #000000; stroke-width: 0.5; stroke-linejoin: miter"/>
   </g>
   <g id="patch_127">
    <path d="M 371.434 265.12 
L 373.889187 265.12 
L 373.889187 265.12 
L 371.434 265.12 
z
" clip-path="url(#p3e3134fe39)" style="fill: #77aadd; stroke: #000000; stroke-width: 0.5; stroke-linejoin: miter"/>
   </g>
   <g id="patch_128">
    <path d="M 395.985875 265.12 
L 398.441062 265.12 
L 398.441062 265.12 
L 395.985875 265.12 
z
" clip-path="url(#p3e3134fe39)" style="fill: #77aadd; stroke: #000000; stroke-width: 0.5; stroke-linejoin: miter"/>
   </g>
   <g id="patch_129">
    <path d="M 420.53775 265.12 
L 422.992937 265.12 
L 422.992937 265.12 
L 420.53775 265.12 
z
" clip-path="url(#p3e3134fe39)" style="fill: #77aadd; stroke: #000000; stroke-width: 0.5; stroke-linejoin: miter"/>
   </g>
   <g id="patch_130">
    <path d="M 445.089625 265.12 
L 447.544812 265.12 
L 447.544812 265.12 
L 445.089625 265.12 
z
" clip-path="url(#p3e3134fe39)" style="fill: #77aadd; stroke: #000000; stroke-width: 0.5; stroke-linejoin: miter"/>
   </g>
   <g id="matplotlib.axis_1">
    <g id="xtick_1">
     <g id="line2d_1">
      <defs>
       <path id="m2b34ed4acd" d="M 0 0 
L 0 3.5 
" style="stroke: #000000; stroke-width: 0.8"/>
      </defs>
      <g>
       <use xlink:href="#m2b34ed4acd" x="69.445937" y="265.12" style="stroke: #000000; stroke-width: 0.8"/>
      </g>
     </g>
     <g id="text_1">
      <text style="font: 10px 'sans-serif'" transform="translate(72.205313 299.974687)rotate(-90)">christ</text>
     </g>
    </g>
    <g id="xtick_2">
     <g id="line2d_2">
      <g>
       <use xlink:href="#m2b34ed4acd" x="93.997812" y="265.12" style="stroke: #000000; stroke-width: 0.8"/>
      </g>
     </g>
     <g id="text_2">
      <text style="font: 10px 'sans-serif'" transform="translate(96.757188 296.2075)rotate(-90)">engz</text>
     </g>
    </g>
    <g id="xtick_3">
     <g id="line2d_3">
      <g>
       <use xlink:href="#m2b34ed4acd" x="118.549688" y="265.12" style="stroke: #000000; stroke-width: 0.8"/>
      </g>
     </g>
     <g id="text_3">
      <text style="font: 10px 'sans-serif'" transform="translate(121.309063 300.685625)rotate(-90)">gamb</text>
     </g>
    </g>
    <g id="xtick_4">
     <g id="line2d_4">
      <g>
       <use xlink:href="#m2b34ed4acd" x="143.101562" y="265.12" style="stroke: #000000; stroke-width: 0.8"/>
      </g>
     </g>
     <g id="text_4">
      <text style="font: 10px 'sans-serif'" transform="translate(145.860938 294.137187)rotate(-90)">gqrs</text>
     </g>
    </g>
    <g id="xtick_5">
     <g id="line2d_5">
      <g>
       <use xlink:href="#m2b34ed4acd" x="167.653437" y="265.12" style="stroke: #000000; stroke-width: 0.8"/>
      </g>
     </g>
     <g id="text_5">
      <text style="font: 10px 'sans-serif'" transform="translate(170.412813 303.802812)rotate(-90)">hamilt</text>
     </g>
    </g>
    <g id="xtick_6">
     <g id="line2d_6">
      <g>
       <use xlink:href="#m2b34ed4acd" x="192.205312" y="265.12" style="stroke: #000000; stroke-width: 0.8"/>
      </g>
     </g>
     <g id="text_6">
      <text style="font: 10px 'sans-serif'" transform="translate(194.964687 290.566875)rotate(-90)">jqrs</text>
     </g>
    </g>
    <g id="xtick_7">
     <g id="line2d_7">
      <g>
       <use xlink:href="#m2b34ed4acd" x="216.757187" y="265.12" style="stroke: #000000; stroke-width: 0.8"/>
      </g>
     </g>
     <g id="text_7">
      <text style="font: 10px 'sans-serif'" transform="translate(219.516562 289.42)rotate(-90)">kali</text>
     </g>
    </g>
    <g id="xtick_8">
     <g id="line2d_8">
      <g>
       <use xlink:href="#m2b34ed4acd" x="241.309062" y="265.12" style="stroke: #000000; stroke-width: 0.8"/>
      </g>
     </g>
     <g id="text_8">
      <text style="font: 10px 'sans-serif'" transform="translate(244.068437 296.02)rotate(-90)">mart</text>
     </g>
    </g>
    <g id="xtick_9">
     <g id="line2d_9">
      <g>
       <use xlink:href="#m2b34ed4acd" x="265.860937" y="265.12" style="stroke: #000000; stroke-width: 0.8"/>
      </g>
     </g>
     <g id="text_9">
      <text style="font: 10px 'sans-serif'" transform="translate(268.620312 290.934062)rotate(-90)">nab</text>
     </g>
    </g>
    <g id="xtick_10">
     <g id="line2d_10">
      <g>
       <use xlink:href="#m2b34ed4acd" x="290.412812" y="265.12" style="stroke: #000000; stroke-width: 0.8"/>
      </g>
     </g>
     <g id="text_10">
      <text style="font: 10px 'sans-serif'" transform="translate(293.172187 284.248125)rotate(-90)">nk</text>
     </g>
    </g>
    <g id="xtick_11">
     <g id="line2d_11">
      <g>
       <use xlink:href="#m2b34ed4acd" x="314.964687" y="265.12" style="stroke: #000000; stroke-width: 0.8"/>
      </g>
     </g>
     <g id="text_11">
      <text style="font: 10px 'sans-serif'" transform="translate(317.724062 320.67)rotate(-90)">pan-tomp</text>
     </g>
    </g>
    <g id="xtick_12">
     <g id="line2d_12">
      <g>
       <use xlink:href="#m2b34ed4acd" x="339.516563" y="265.12" style="stroke: #000000; stroke-width: 0.8"/>
      </g>
     </g>
     <g id="text_12">
      <text style="font: 10px 'sans-serif'" transform="translate(342.275937 300.174687)rotate(-90)">rdeco</text>
     </g>
    </g>
    <g id="xtick_13">
     <g id="line2d_13">
      <g>
       <use xlink:href="#m2b34ed4acd" x="364.068438" y="265.12" style="stroke: #000000; stroke-width: 0.8"/>
      </g>
     </g>
     <g id="text_13">
      <text style="font: 10px 'sans-serif'" transform="translate(366.827812 300.65125)rotate(-90)">rpeak</text>
     </g>
    </g>
    <g id="xtick_14">
     <g id="line2d_14">
      <g>
       <use xlink:href="#m2b34ed4acd" x="388.620313" y="265.12" style="stroke: #000000; stroke-width: 0.8"/>
      </g>
     </g>
     <g id="text_14">
      <text style="font: 10px 'sans-serif'" transform="translate(391.379687 312.527812)rotate(-90)">two-avg</text>
     </g>
    </g>
    <g id="xtick_15">
     <g id="line2d_15">
      <g>
       <use xlink:href="#m2b34ed4acd" x="413.172188" y="265.12" style="stroke: #000000; stroke-width: 0.8"/>
      </g>
     </g>
     <g id="text_15">
      <text style="font: 10px 'sans-serif'" transform="translate(415.931562 298.1825)rotate(-90)">unsw</text>
     </g>
    </g>
    <g id="xtick_16">
     <g id="line2d_16">
      <g>
       <use xlink:href="#m2b34ed4acd" x="437.724063" y="265.12" style="stroke: #000000; stroke-width: 0.8"/>
      </g>
     </g>
     <g id="text_16">
      <text style="font: 10px 'sans-serif'" transform="translate(440.483437 295.966875)rotate(-90)">wqrs</text>
     </g>
    </g>
    <g id="text_17">
     <text style="font: 10px 'sans-serif'; text-anchor: middle" x="253.585" y="332.268437" transform="rotate(-0, 253.585, 332.268437)">Detector</text>
    </g>
   </g>
   <g id="matplotlib.axis_2">
    <g id="ytick_1">
     <g id="line2d_17">
      <defs>
       <path id="m8d9ce15475" d="M 0 0 
L -3.5 0 
" style="stroke: #000000; stroke-width: 0.8"/>
      </defs>
      <g>
       <use xlink:href="#m8d9ce15475" x="57.17" y="265.12" style="stroke: #000000; stroke-width: 0.8"/>
      </g>
     </g>
     <g id="text_18">
      <text style="font: 10px 'sans-serif'; text-anchor: end" x="50.17" y="268.919219" transform="rotate(-0, 50.17, 268.919219)">0.0%</text>
     </g>
    </g>
    <g id="ytick_2">
     <g id="line2d_18">
      <g>
       <use xlink:href="#m8d9ce15475" x="57.17" y="214.128521" style="stroke: #000000; stroke-width: 0.8"/>
      </g>
     </g>
     <g id="text_19">
      <text style="font: 10px 'sans-serif'; text-anchor: end" x="50.17" y="217.92774" transform="rotate(-0, 50.17, 217.92774)">2.0%</text>
     </g>
    </g>
    <g id="ytick_3">
     <g id="line2d_19">
      <g>
       <use xlink:href="#m8d9ce15475" x="57.17" y="163.137043" style="stroke: #000000; stroke-width: 0.8"/>
      </g>
     </g>
     <g id="text_20">
      <text style="font: 10px 'sans-serif'; text-anchor: end" x="50.17" y="166.936261" transform="rotate(-0, 50.17, 166.936261)">4.0%</text>
     </g>
    </g>
    <g id="ytick_4">
     <g id="line2d_20">
      <g>
       <use xlink:href="#m8d9ce15475" x="57.17" y="112.145564" style="stroke: #000000; stroke-width: 0.8"/>
      </g>
     </g>
     <g id="text_21">
      <text style="font: 10px 'sans-serif'; text-anchor: end" x="50.17" y="115.944783" transform="rotate(-0, 50.17, 115.944783)">6.0%</text>
     </g>
    </g>
    <g id="ytick_5">
     <g id="line2d_21">
      <g>
       <use xlink:href="#m8d9ce15475" x="57.17" y="61.154085" style="stroke: #000000; stroke-width: 0.8"/>
      </g>
     </g>
     <g id="text_22">
      <text style="font: 10px 'sans-serif'; text-anchor: end" x="50.17" y="64.953304" transform="rotate(-0, 50.17, 64.953304)">8.0%</text>
     </g>
    </g>
    <g id="text_23">
     <text style="font: 10px 'sans-serif'; text-anchor: middle" x="18.685625" y="137.96" transform="rotate(-90, 18.685625, 137.96)">Errorrate</text>
    </g>
   </g>
   <g id="patch_131">
    <path d="M 57.17 265.12 
L 57.17 10.8 
" style="fill: none; stroke: #000000; stroke-width: 0.8; stroke-linejoin: miter; stroke-linecap: square"/>
   </g>
   <g id="patch_132">
    <path d="M 450 265.12 
L 450 10.8 
" style="fill: none; stroke: #000000; stroke-width: 0.8; stroke-linejoin: miter; stroke-linecap: square"/>
   </g>
   <g id="patch_133">
    <path d="M 57.17 265.12 
L 450 265.12 
" style="fill: none; stroke: #000000; stroke-width: 0.8; stroke-linejoin: miter; stroke-linecap: square"/>
   </g>
   <g id="patch_134">
    <path d="M 57.17 10.8 
L 450 10.8 
" style="fill: none; stroke: #000000; stroke-width: 0.8; stroke-linejoin: miter; stroke-linecap: square"/>
   </g>
   <g id="legend_1">
    <g id="text_24">
     <text style="font: 10px 'sans-serif'; text-anchor: start" x="225.15375" y="27.398438" transform="rotate(-0, 225.15375, 27.398438)">Signal Type</text>
    </g>
    <g id="patch_135">
     <path d="M 177.623281 42.076563 
L 197.623281 42.076563 
L 197.623281 35.076563 
L 177.623281 35.076563 
z
" style="fill: #4477aa; stroke: #000000; stroke-width: 0.5; stroke-linejoin: miter"/>
    </g>
    <g id="text_25">
     <text style="font: 10px 'sans-serif'; text-anchor: start" x="205.623281" y="42.076563" transform="rotate(-0, 205.623281, 42.076563)">SR, no noise</text>
    </g>
    <g id="patch_136">
     <path d="M 177.623281 56.754688 
L 197.623281 56.754688 
L 197.623281 49.754688 
L 177.623281 49.754688 
z
" style="fill: #ee6677; stroke: #000000; stroke-width: 0.5; stroke-linejoin: miter"/>
    </g>
    <g id="text_26">
     <text style="font: 10px 'sans-serif'; text-anchor: start" x="205.623281" y="56.754688" transform="rotate(-0, 205.623281, 56.754688)">SR, baseline wander</text>
    </g>
    <g id="patch_137">
     <path d="M 177.623281 71.432813 
L 197.623281 71.432813 
L 197.623281 64.432813 
L 177.623281 64.432813 
z
" style="fill: #228833; stroke: #000000; stroke-width: 0.5; stroke-linejoin: miter"/>
    </g>
    <g id="text_27">
     <text style="font: 10px 'sans-serif'; text-anchor: start" x="205.623281" y="71.432813" transform="rotate(-0, 205.623281, 71.432813)">SR, electrode movement</text>
    </g>
    <g id="patch_138">
     <path d="M 177.623281 86.110938 
L 197.623281 86.110938 
L 197.623281 79.110938 
L 177.623281 79.110938 
z
" style="fill: #ccbb44; stroke: #000000; stroke-width: 0.5; stroke-linejoin: miter"/>
    </g>
    <g id="text_28">
     <text style="font: 10px 'sans-serif'; text-anchor: start" x="205.623281" y="86.110938" transform="rotate(-0, 205.623281, 86.110938)">SR, motion artefacts</text>
    </g>
    <g id="patch_139">
     <path d="M 177.623281 100.789063 
L 197.623281 100.789063 
L 197.623281 93.789063 
L 177.623281 93.789063 
z
" style="fill: #66ccee; stroke: #000000; stroke-width: 0.5; stroke-linejoin: miter"/>
    </g>
    <g id="text_29">
     <text style="font: 10px 'sans-serif'; text-anchor: start" x="205.623281" y="100.789063" transform="rotate(-0, 205.623281, 100.789063)">AF, no noise</text>
    </g>
    <g id="patch_140">
     <path d="M 177.623281 115.467188 
L 197.623281 115.467188 
L 197.623281 108.467188 
L 177.623281 108.467188 
z
" style="fill: #aa3377; stroke: #000000; stroke-width: 0.5; stroke-linejoin: miter"/>
    </g>
    <g id="text_30">
     <text style="font: 10px 'sans-serif'; text-anchor: start" x="205.623281" y="115.467188" transform="rotate(-0, 205.623281, 115.467188)">AF, baseline wander</text>
    </g>
    <g id="patch_141">
     <path d="M 177.623281 130.145313 
L 197.623281 130.145313 
L 197.623281 123.145313 
L 177.623281 123.145313 
z
" style="fill: #bbbbbb; stroke: #000000; stroke-width: 0.5; stroke-linejoin: miter"/>
    </g>
    <g id="text_31">
     <text style="font: 10px 'sans-serif'; text-anchor: start" x="205.623281" y="130.145313" transform="rotate(-0, 205.623281, 130.145313)">AF, electrode movement</text>
    </g>
    <g id="patch_142">
     <path d="M 177.623281 144.823438 
L 197.623281 144.823438 
L 197.623281 137.823438 
L 177.623281 137.823438 
z
" style="fill: #77aadd; stroke: #000000; stroke-width: 0.5; stroke-linejoin: miter"/>
    </g>
    <g id="text_32">
     <text style="font: 10px 'sans-serif'; text-anchor: start" x="205.623281" y="144.823438" transform="rotate(-0, 205.623281, 144.823438)">AF, motion artefacts</text>
    </g>
   </g>
  </g>
 </g>
 <defs>
  <clipPath id="p3e3134fe39">
   <rect x="57.17" y="10.8" width="392.83" height="254.32"/>
  </clipPath>
 </defs>
</svg>
