<?xml version="1.0" encoding="utf-8" standalone="no"?>
<!DOCTYPE svg PUBLIC "-//W3C//DTD SVG 1.1//EN"
  "http://www.w3.org/Graphics/SVG/1.1/DTD/svg11.dtd">
<svg xmlns:xlink="http://www.w3.org/1999/xlink" width="453.284688pt" height="337.948125pt" viewBox="0 0 453.284688 337.948125" xmlns="http://www.w3.org/2000/svg" version="1.1">
 <metadata>
  <rdf:RDF xmlns:dc="http://purl.org/dc/elements/1.1/" xmlns:cc="http://creativecommons.org/ns#" xmlns:rdf="http://www.w3.org/1999/02/22-rdf-syntax-ns#">
   <cc:Work>
    <dc:type rdf:resource="http://purl.org/dc/dcmitype/StillImage"/>
    <dc:date>2022-11-02T14:33:34.161268</dc:date>
    <dc:format>image/svg+xml</dc:format>
    <dc:creator>
     <cc:Agent>
      <dc:title>Matplotlib v3.5.3, https://matplotlib.org/</dc:title>
     </cc:Agent>
    </dc:creator>
   </cc:Work>
  </rdf:RDF>
 </metadata>
 <defs>
  <style type="text/css">*{stroke-linejoin: round; stroke-linecap: butt}</style>
 </defs>
 <g id="figure_1">
  <g id="patch_1">
   <path d="M 0 337.948125 
L 453.284688 337.948125 
L 453.284688 0 
L 0 0 
z
" style="fill: #ffffff"/>
  </g>
  <g id="axes_1">
   <g id="patch_2">
    <path d="M 50.104688 261.52 
L 446.084687 261.52 
L 446.084687 7.2 
L 50.104688 7.2 
z
" style="fill: #ffffff"/>
   </g>
   <g id="patch_3">
    <path d="M 52.579563 261.52 
L 56.539363 261.52 
L 56.539363 261.52 
L 52.579563 261.52 
z
" clip-path="url(#p92712d5b2c)" style="fill: #4477aa; stroke: #000000; stroke-width: 0.5; stroke-linejoin: miter"/>
   </g>
   <g id="patch_4">
    <path d="M 77.328313 261.52 
L 81.288113 261.52 
L 81.288113 261.313441 
L 77.328313 261.313441 
z
" clip-path="url(#p92712d5b2c)" style="fill: #4477aa; stroke: #000000; stroke-width: 0.5; stroke-linejoin: miter"/>
   </g>
   <g id="patch_5">
    <path d="M 102.077062 261.52 
L 106.036862 261.52 
L 106.036862 261.52 
L 102.077062 261.52 
z
" clip-path="url(#p92712d5b2c)" style="fill: #4477aa; stroke: #000000; stroke-width: 0.5; stroke-linejoin: miter"/>
   </g>
   <g id="patch_6">
    <path d="M 126.825813 261.52 
L 130.785613 261.52 
L 130.785613 261.52 
L 126.825813 261.52 
z
" clip-path="url(#p92712d5b2c)" style="fill: #4477aa; stroke: #000000; stroke-width: 0.5; stroke-linejoin: miter"/>
   </g>
   <g id="patch_7">
    <path d="M 151.574562 261.52 
L 155.534362 261.52 
L 155.534362 261.52 
L 151.574562 261.52 
z
" clip-path="url(#p92712d5b2c)" style="fill: #4477aa; stroke: #000000; stroke-width: 0.5; stroke-linejoin: miter"/>
   </g>
   <g id="patch_8">
    <path d="M 176.323312 261.52 
L 180.283112 261.52 
L 180.283112 261.52 
L 176.323312 261.52 
z
" clip-path="url(#p92712d5b2c)" style="fill: #4477aa; stroke: #000000; stroke-width: 0.5; stroke-linejoin: miter"/>
   </g>
   <g id="patch_9">
    <path d="M 201.072062 261.52 
L 205.031862 261.52 
L 205.031862 261.52 
L 201.072062 261.52 
z
" clip-path="url(#p92712d5b2c)" style="fill: #4477aa; stroke: #000000; stroke-width: 0.5; stroke-linejoin: miter"/>
   </g>
   <g id="patch_10">
    <path d="M 225.820812 261.52 
L 229.780612 261.52 
L 229.780612 261.52 
L 225.820812 261.52 
z
" clip-path="url(#p92712d5b2c)" style="fill: #4477aa; stroke: #000000; stroke-width: 0.5; stroke-linejoin: miter"/>
   </g>
   <g id="patch_11">
    <path d="M 250.569562 261.52 
L 254.529362 261.52 
L 254.529362 261.52 
L 250.569562 261.52 
z
" clip-path="url(#p92712d5b2c)" style="fill: #4477aa; stroke: #000000; stroke-width: 0.5; stroke-linejoin: miter"/>
   </g>
   <g id="patch_12">
    <path d="M 275.318312 261.52 
L 279.278113 261.52 
L 279.278113 261.52 
L 275.318312 261.52 
z
" clip-path="url(#p92712d5b2c)" style="fill: #4477aa; stroke: #000000; stroke-width: 0.5; stroke-linejoin: miter"/>
   </g>
   <g id="patch_13">
    <path d="M 300.067062 261.52 
L 304.026862 261.52 
L 304.026862 261.52 
L 300.067062 261.52 
z
" clip-path="url(#p92712d5b2c)" style="fill: #4477aa; stroke: #000000; stroke-width: 0.5; stroke-linejoin: miter"/>
   </g>
   <g id="patch_14">
    <path d="M 324.815812 261.52 
L 328.775612 261.52 
L 328.775612 261.52 
L 324.815812 261.52 
z
" clip-path="url(#p92712d5b2c)" style="fill: #4477aa; stroke: #000000; stroke-width: 0.5; stroke-linejoin: miter"/>
   </g>
   <g id="patch_15">
    <path d="M 349.564562 261.52 
L 353.524362 261.52 
L 353.524362 261.382294 
L 349.564562 261.382294 
z
" clip-path="url(#p92712d5b2c)" style="fill: #4477aa; stroke: #000000; stroke-width: 0.5; stroke-linejoin: miter"/>
   </g>
   <g id="patch_16">
    <path d="M 374.313312 261.52 
L 378.273112 261.52 
L 378.273112 261.52 
L 374.313312 261.52 
z
" clip-path="url(#p92712d5b2c)" style="fill: #4477aa; stroke: #000000; stroke-width: 0.5; stroke-linejoin: miter"/>
   </g>
   <g id="patch_17">
    <path d="M 399.062062 261.52 
L 403.021862 261.52 
L 403.021862 261.52 
L 399.062062 261.52 
z
" clip-path="url(#p92712d5b2c)" style="fill: #4477aa; stroke: #000000; stroke-width: 0.5; stroke-linejoin: miter"/>
   </g>
   <g id="patch_18">
    <path d="M 423.810812 261.52 
L 427.770612 261.52 
L 427.770612 261.52 
L 423.810812 261.52 
z
" clip-path="url(#p92712d5b2c)" style="fill: #4477aa; stroke: #000000; stroke-width: 0.5; stroke-linejoin: miter"/>
   </g>
   <g id="patch_19">
    <path d="M 56.539363 261.52 
L 60.499163 261.52 
L 60.499163 261.52 
L 56.539363 261.52 
z
" clip-path="url(#p92712d5b2c)" style="fill: #ee6677; stroke: #000000; stroke-width: 0.5; stroke-linejoin: miter"/>
   </g>
   <g id="patch_20">
    <path d="M 81.288113 261.52 
L 85.247913 261.52 
L 85.247913 257.570642 
L 81.288113 257.570642 
z
" clip-path="url(#p92712d5b2c)" style="fill: #ee6677; stroke: #000000; stroke-width: 0.5; stroke-linejoin: miter"/>
   </g>
   <g id="patch_21">
    <path d="M 106.036862 261.52 
L 109.996662 261.52 
L 109.996662 261.52 
L 106.036862 261.52 
z
" clip-path="url(#p92712d5b2c)" style="fill: #ee6677; stroke: #000000; stroke-width: 0.5; stroke-linejoin: miter"/>
   </g>
   <g id="patch_22">
    <path d="M 130.785612 261.52 
L 134.745412 261.52 
L 134.745412 261.52 
L 130.785612 261.52 
z
" clip-path="url(#p92712d5b2c)" style="fill: #ee6677; stroke: #000000; stroke-width: 0.5; stroke-linejoin: miter"/>
   </g>
   <g id="patch_23">
    <path d="M 155.534362 261.52 
L 159.494162 261.52 
L 159.494162 261.52 
L 155.534362 261.52 
z
" clip-path="url(#p92712d5b2c)" style="fill: #ee6677; stroke: #000000; stroke-width: 0.5; stroke-linejoin: miter"/>
   </g>
   <g id="patch_24">
    <path d="M 180.283112 261.52 
L 184.242912 261.52 
L 184.242912 261.52 
L 180.283112 261.52 
z
" clip-path="url(#p92712d5b2c)" style="fill: #ee6677; stroke: #000000; stroke-width: 0.5; stroke-linejoin: miter"/>
   </g>
   <g id="patch_25">
    <path d="M 205.031862 261.52 
L 208.991662 261.52 
L 208.991662 261.52 
L 205.031862 261.52 
z
" clip-path="url(#p92712d5b2c)" style="fill: #ee6677; stroke: #000000; stroke-width: 0.5; stroke-linejoin: miter"/>
   </g>
   <g id="patch_26">
    <path d="M 229.780612 261.52 
L 233.740412 261.52 
L 233.740412 261.52 
L 229.780612 261.52 
z
" clip-path="url(#p92712d5b2c)" style="fill: #ee6677; stroke: #000000; stroke-width: 0.5; stroke-linejoin: miter"/>
   </g>
   <g id="patch_27">
    <path d="M 254.529362 261.52 
L 258.489162 261.52 
L 258.489162 261.52 
L 254.529362 261.52 
z
" clip-path="url(#p92712d5b2c)" style="fill: #ee6677; stroke: #000000; stroke-width: 0.5; stroke-linejoin: miter"/>
   </g>
   <g id="patch_28">
    <path d="M 279.278112 261.52 
L 283.237912 261.52 
L 283.237912 261.52 
L 279.278112 261.52 
z
" clip-path="url(#p92712d5b2c)" style="fill: #ee6677; stroke: #000000; stroke-width: 0.5; stroke-linejoin: miter"/>
   </g>
   <g id="patch_29">
    <path d="M 304.026862 261.52 
L 307.986663 261.52 
L 307.986663 261.52 
L 304.026862 261.52 
z
" clip-path="url(#p92712d5b2c)" style="fill: #ee6677; stroke: #000000; stroke-width: 0.5; stroke-linejoin: miter"/>
   </g>
   <g id="patch_30">
    <path d="M 328.775612 261.52 
L 332.735412 261.52 
L 332.735412 261.52 
L 328.775612 261.52 
z
" clip-path="url(#p92712d5b2c)" style="fill: #ee6677; stroke: #000000; stroke-width: 0.5; stroke-linejoin: miter"/>
   </g>
   <g id="patch_31">
    <path d="M 353.524362 261.52 
L 357.484162 261.52 
L 357.484162 261.52 
L 353.524362 261.52 
z
" clip-path="url(#p92712d5b2c)" style="fill: #ee6677; stroke: #000000; stroke-width: 0.5; stroke-linejoin: miter"/>
   </g>
   <g id="patch_32">
    <path d="M 378.273112 261.52 
L 382.232912 261.52 
L 382.232912 261.52 
L 378.273112 261.52 
z
" clip-path="url(#p92712d5b2c)" style="fill: #ee6677; stroke: #000000; stroke-width: 0.5; stroke-linejoin: miter"/>
   </g>
   <g id="patch_33">
    <path d="M 403.021862 261.52 
L 406.981662 261.52 
L 406.981662 261.52 
L 403.021862 261.52 
z
" clip-path="url(#p92712d5b2c)" style="fill: #ee6677; stroke: #000000; stroke-width: 0.5; stroke-linejoin: miter"/>
   </g>
   <g id="patch_34">
    <path d="M 427.770612 261.52 
L 431.730412 261.52 
L 431.730412 261.52 
L 427.770612 261.52 
z
" clip-path="url(#p92712d5b2c)" style="fill: #ee6677; stroke: #000000; stroke-width: 0.5; stroke-linejoin: miter"/>
   </g>
   <g id="patch_35">
    <path d="M 60.499163 261.52 
L 64.458962 261.52 
L 64.458962 261.52 
L 60.499163 261.52 
z
" clip-path="url(#p92712d5b2c)" style="fill: #228833; stroke: #000000; stroke-width: 0.5; stroke-linejoin: miter"/>
   </g>
   <g id="patch_36">
    <path d="M 85.247913 261.52 
L 89.207713 261.52 
L 89.207713 261.52 
L 85.247913 261.52 
z
" clip-path="url(#p92712d5b2c)" style="fill: #228833; stroke: #000000; stroke-width: 0.5; stroke-linejoin: miter"/>
   </g>
   <g id="patch_37">
    <path d="M 109.996662 261.52 
L 113.956463 261.52 
L 113.956463 261.52 
L 109.996662 261.52 
z
" clip-path="url(#p92712d5b2c)" style="fill: #228833; stroke: #000000; stroke-width: 0.5; stroke-linejoin: miter"/>
   </g>
   <g id="patch_38">
    <path d="M 134.745412 261.52 
L 138.705212 261.52 
L 138.705212 261.52 
L 134.745412 261.52 
z
" clip-path="url(#p92712d5b2c)" style="fill: #228833; stroke: #000000; stroke-width: 0.5; stroke-linejoin: miter"/>
   </g>
   <g id="patch_39">
    <path d="M 159.494162 261.52 
L 163.453962 261.52 
L 163.453962 261.52 
L 159.494162 261.52 
z
" clip-path="url(#p92712d5b2c)" style="fill: #228833; stroke: #000000; stroke-width: 0.5; stroke-linejoin: miter"/>
   </g>
   <g id="patch_40">
    <path d="M 184.242912 261.52 
L 188.202712 261.52 
L 188.202712 233.998735 
L 184.242912 233.998735 
z
" clip-path="url(#p92712d5b2c)" style="fill: #228833; stroke: #000000; stroke-width: 0.5; stroke-linejoin: miter"/>
   </g>
   <g id="patch_41">
    <path d="M 208.991662 261.52 
L 212.951462 261.52 
L 212.951462 261.52 
L 208.991662 261.52 
z
" clip-path="url(#p92712d5b2c)" style="fill: #228833; stroke: #000000; stroke-width: 0.5; stroke-linejoin: miter"/>
   </g>
   <g id="patch_42">
    <path d="M 233.740412 261.52 
L 237.700212 261.52 
L 237.700212 261.52 
L 233.740412 261.52 
z
" clip-path="url(#p92712d5b2c)" style="fill: #228833; stroke: #000000; stroke-width: 0.5; stroke-linejoin: miter"/>
   </g>
   <g id="patch_43">
    <path d="M 258.489162 261.52 
L 262.448962 261.52 
L 262.448962 261.52 
L 258.489162 261.52 
z
" clip-path="url(#p92712d5b2c)" style="fill: #228833; stroke: #000000; stroke-width: 0.5; stroke-linejoin: miter"/>
   </g>
   <g id="patch_44">
    <path d="M 283.237912 261.52 
L 287.197713 261.52 
L 287.197713 261.52 
L 283.237912 261.52 
z
" clip-path="url(#p92712d5b2c)" style="fill: #228833; stroke: #000000; stroke-width: 0.5; stroke-linejoin: miter"/>
   </g>
   <g id="patch_45">
    <path d="M 307.986662 261.52 
L 311.946462 261.52 
L 311.946462 261.52 
L 307.986662 261.52 
z
" clip-path="url(#p92712d5b2c)" style="fill: #228833; stroke: #000000; stroke-width: 0.5; stroke-linejoin: miter"/>
   </g>
   <g id="patch_46">
    <path d="M 332.735412 261.52 
L 336.695213 261.52 
L 336.695213 261.52 
L 332.735412 261.52 
z
" clip-path="url(#p92712d5b2c)" style="fill: #228833; stroke: #000000; stroke-width: 0.5; stroke-linejoin: miter"/>
   </g>
   <g id="patch_47">
    <path d="M 357.484162 261.52 
L 361.443962 261.52 
L 361.443962 260.898051 
L 357.484162 260.898051 
z
" clip-path="url(#p92712d5b2c)" style="fill: #228833; stroke: #000000; stroke-width: 0.5; stroke-linejoin: miter"/>
   </g>
   <g id="patch_48">
    <path d="M 382.232912 261.52 
L 386.192712 261.52 
L 386.192712 261.52 
L 382.232912 261.52 
z
" clip-path="url(#p92712d5b2c)" style="fill: #228833; stroke: #000000; stroke-width: 0.5; stroke-linejoin: miter"/>
   </g>
   <g id="patch_49">
    <path d="M 406.981662 261.52 
L 410.941463 261.52 
L 410.941463 261.52 
L 406.981662 261.52 
z
" clip-path="url(#p92712d5b2c)" style="fill: #228833; stroke: #000000; stroke-width: 0.5; stroke-linejoin: miter"/>
   </g>
   <g id="patch_50">
    <path d="M 431.730412 261.52 
L 435.690212 261.52 
L 435.690212 261.52 
L 431.730412 261.52 
z
" clip-path="url(#p92712d5b2c)" style="fill: #228833; stroke: #000000; stroke-width: 0.5; stroke-linejoin: miter"/>
   </g>
   <g id="patch_51">
    <path d="M 64.458962 261.52 
L 68.418762 261.52 
L 68.418762 261.52 
L 64.458962 261.52 
z
" clip-path="url(#p92712d5b2c)" style="fill: #ccbb44; stroke: #000000; stroke-width: 0.5; stroke-linejoin: miter"/>
   </g>
   <g id="patch_52">
    <path d="M 89.207712 261.52 
L 93.167513 261.52 
L 93.167513 232.809343 
L 89.207712 232.809343 
z
" clip-path="url(#p92712d5b2c)" style="fill: #ccbb44; stroke: #000000; stroke-width: 0.5; stroke-linejoin: miter"/>
   </g>
   <g id="patch_53">
    <path d="M 113.956463 261.52 
L 117.916263 261.52 
L 117.916263 254.030263 
L 113.956463 254.030263 
z
" clip-path="url(#p92712d5b2c)" style="fill: #ccbb44; stroke: #000000; stroke-width: 0.5; stroke-linejoin: miter"/>
   </g>
   <g id="patch_54">
    <path d="M 138.705212 261.52 
L 142.665012 261.52 
L 142.665012 261.52 
L 138.705212 261.52 
z
" clip-path="url(#p92712d5b2c)" style="fill: #ccbb44; stroke: #000000; stroke-width: 0.5; stroke-linejoin: miter"/>
   </g>
   <g id="patch_55">
    <path d="M 163.453962 261.52 
L 167.413762 261.52 
L 167.413762 261.52 
L 163.453962 261.52 
z
" clip-path="url(#p92712d5b2c)" style="fill: #ccbb44; stroke: #000000; stroke-width: 0.5; stroke-linejoin: miter"/>
   </g>
   <g id="patch_56">
    <path d="M 188.202712 261.52 
L 192.162512 261.52 
L 192.162512 241.012388 
L 188.202712 241.012388 
z
" clip-path="url(#p92712d5b2c)" style="fill: #ccbb44; stroke: #000000; stroke-width: 0.5; stroke-linejoin: miter"/>
   </g>
   <g id="patch_57">
    <path d="M 212.951462 261.52 
L 216.911262 261.52 
L 216.911262 261.52 
L 212.951462 261.52 
z
" clip-path="url(#p92712d5b2c)" style="fill: #ccbb44; stroke: #000000; stroke-width: 0.5; stroke-linejoin: miter"/>
   </g>
   <g id="patch_58">
    <path d="M 237.700212 261.52 
L 241.660012 261.52 
L 241.660012 261.52 
L 237.700212 261.52 
z
" clip-path="url(#p92712d5b2c)" style="fill: #ccbb44; stroke: #000000; stroke-width: 0.5; stroke-linejoin: miter"/>
   </g>
   <g id="patch_59">
    <path d="M 262.448962 261.52 
L 266.408763 261.52 
L 266.408763 261.52 
L 262.448962 261.52 
z
" clip-path="url(#p92712d5b2c)" style="fill: #ccbb44; stroke: #000000; stroke-width: 0.5; stroke-linejoin: miter"/>
   </g>
   <g id="patch_60">
    <path d="M 287.197712 261.52 
L 291.157512 261.52 
L 291.157512 261.52 
L 287.197712 261.52 
z
" clip-path="url(#p92712d5b2c)" style="fill: #ccbb44; stroke: #000000; stroke-width: 0.5; stroke-linejoin: miter"/>
   </g>
   <g id="patch_61">
    <path d="M 311.946462 261.52 
L 315.906263 261.52 
L 315.906263 261.52 
L 311.946462 261.52 
z
" clip-path="url(#p92712d5b2c)" style="fill: #ccbb44; stroke: #000000; stroke-width: 0.5; stroke-linejoin: miter"/>
   </g>
   <g id="patch_62">
    <path d="M 336.695212 261.52 
L 340.655012 261.52 
L 340.655012 259.915056 
L 336.695212 259.915056 
z
" clip-path="url(#p92712d5b2c)" style="fill: #ccbb44; stroke: #000000; stroke-width: 0.5; stroke-linejoin: miter"/>
   </g>
   <g id="patch_63">
    <path d="M 361.443962 261.52 
L 365.403763 261.52 
L 365.403763 248.858779 
L 361.443962 248.858779 
z
" clip-path="url(#p92712d5b2c)" style="fill: #ccbb44; stroke: #000000; stroke-width: 0.5; stroke-linejoin: miter"/>
   </g>
   <g id="patch_64">
    <path d="M 386.192712 261.52 
L 390.152513 261.52 
L 390.152513 261.52 
L 386.192712 261.52 
z
" clip-path="url(#p92712d5b2c)" style="fill: #ccbb44; stroke: #000000; stroke-width: 0.5; stroke-linejoin: miter"/>
   </g>
   <g id="patch_65">
    <path d="M 410.941462 261.52 
L 414.901262 261.52 
L 414.901262 261.52 
L 410.941462 261.52 
z
" clip-path="url(#p92712d5b2c)" style="fill: #ccbb44; stroke: #000000; stroke-width: 0.5; stroke-linejoin: miter"/>
   </g>
   <g id="patch_66">
    <path d="M 435.690212 261.52 
L 439.650013 261.52 
L 439.650013 261.52 
L 435.690212 261.52 
z
" clip-path="url(#p92712d5b2c)" style="fill: #ccbb44; stroke: #000000; stroke-width: 0.5; stroke-linejoin: miter"/>
   </g>
   <g id="patch_67">
    <path d="M 68.418762 261.52 
L 72.378563 261.52 
L 72.378563 261.52 
L 68.418762 261.52 
z
" clip-path="url(#p92712d5b2c)" style="fill: #66ccee; stroke: #000000; stroke-width: 0.5; stroke-linejoin: miter"/>
   </g>
   <g id="patch_68">
    <path d="M 93.167513 261.52 
L 97.127313 261.52 
L 97.127313 19.310476 
L 93.167513 19.310476 
z
" clip-path="url(#p92712d5b2c)" style="fill: #66ccee; stroke: #000000; stroke-width: 0.5; stroke-linejoin: miter"/>
   </g>
   <g id="patch_69">
    <path d="M 117.916262 261.52 
L 121.876062 261.52 
L 121.876062 261.52 
L 117.916262 261.52 
z
" clip-path="url(#p92712d5b2c)" style="fill: #66ccee; stroke: #000000; stroke-width: 0.5; stroke-linejoin: miter"/>
   </g>
   <g id="patch_70">
    <path d="M 142.665012 261.52 
L 146.624812 261.52 
L 146.624812 261.52 
L 142.665012 261.52 
z
" clip-path="url(#p92712d5b2c)" style="fill: #66ccee; stroke: #000000; stroke-width: 0.5; stroke-linejoin: miter"/>
   </g>
   <g id="patch_71">
    <path d="M 167.413762 261.52 
L 171.373562 261.52 
L 171.373562 261.52 
L 167.413762 261.52 
z
" clip-path="url(#p92712d5b2c)" style="fill: #66ccee; stroke: #000000; stroke-width: 0.5; stroke-linejoin: miter"/>
   </g>
   <g id="patch_72">
    <path d="M 192.162512 261.52 
L 196.122312 261.52 
L 196.122312 261.52 
L 192.162512 261.52 
z
" clip-path="url(#p92712d5b2c)" style="fill: #66ccee; stroke: #000000; stroke-width: 0.5; stroke-linejoin: miter"/>
   </g>
   <g id="patch_73">
    <path d="M 216.911262 261.52 
L 220.871062 261.52 
L 220.871062 261.52 
L 216.911262 261.52 
z
" clip-path="url(#p92712d5b2c)" style="fill: #66ccee; stroke: #000000; stroke-width: 0.5; stroke-linejoin: miter"/>
   </g>
   <g id="patch_74">
    <path d="M 241.660012 261.52 
L 245.619812 261.52 
L 245.619812 261.52 
L 241.660012 261.52 
z
" clip-path="url(#p92712d5b2c)" style="fill: #66ccee; stroke: #000000; stroke-width: 0.5; stroke-linejoin: miter"/>
   </g>
   <g id="patch_75">
    <path d="M 266.408763 261.52 
L 270.368563 261.52 
L 270.368563 261.52 
L 266.408763 261.52 
z
" clip-path="url(#p92712d5b2c)" style="fill: #66ccee; stroke: #000000; stroke-width: 0.5; stroke-linejoin: miter"/>
   </g>
   <g id="patch_76">
    <path d="M 291.157512 261.52 
L 295.117313 261.52 
L 295.117313 261.52 
L 291.157512 261.52 
z
" clip-path="url(#p92712d5b2c)" style="fill: #66ccee; stroke: #000000; stroke-width: 0.5; stroke-linejoin: miter"/>
   </g>
   <g id="patch_77">
    <path d="M 315.906262 261.52 
L 319.866062 261.52 
L 319.866062 261.52 
L 315.906262 261.52 
z
" clip-path="url(#p92712d5b2c)" style="fill: #66ccee; stroke: #000000; stroke-width: 0.5; stroke-linejoin: miter"/>
   </g>
   <g id="patch_78">
    <path d="M 340.655012 261.52 
L 344.614813 261.52 
L 344.614813 202.154921 
L 340.655012 202.154921 
z
" clip-path="url(#p92712d5b2c)" style="fill: #66ccee; stroke: #000000; stroke-width: 0.5; stroke-linejoin: miter"/>
   </g>
   <g id="patch_79">
    <path d="M 365.403762 261.52 
L 369.363563 261.52 
L 369.363563 247.272381 
L 365.403762 247.272381 
z
" clip-path="url(#p92712d5b2c)" style="fill: #66ccee; stroke: #000000; stroke-width: 0.5; stroke-linejoin: miter"/>
   </g>
   <g id="patch_80">
    <path d="M 390.152512 261.52 
L 394.112312 261.52 
L 394.112312 261.52 
L 390.152512 261.52 
z
" clip-path="url(#p92712d5b2c)" style="fill: #66ccee; stroke: #000000; stroke-width: 0.5; stroke-linejoin: miter"/>
   </g>
   <g id="patch_81">
    <path d="M 414.901262 261.52 
L 418.861063 261.52 
L 418.861063 261.52 
L 414.901262 261.52 
z
" clip-path="url(#p92712d5b2c)" style="fill: #66ccee; stroke: #000000; stroke-width: 0.5; stroke-linejoin: miter"/>
   </g>
   <g id="patch_82">
    <path d="M 439.650012 261.52 
L 443.609812 261.52 
L 443.609812 261.52 
L 439.650012 261.52 
z
" clip-path="url(#p92712d5b2c)" style="fill: #66ccee; stroke: #000000; stroke-width: 0.5; stroke-linejoin: miter"/>
   </g>
   <g id="matplotlib.axis_1">
    <g id="xtick_1">
     <g id="line2d_1">
      <defs>
       <path id="m1c7e21f789" d="M 0 0 
L 0 3.5 
" style="stroke: #000000; stroke-width: 0.8"/>
      </defs>
      <g>
       <use xlink:href="#m1c7e21f789" x="62.479063" y="261.52" style="stroke: #000000; stroke-width: 0.8"/>
      </g>
     </g>
     <g id="text_1">
      <text style="font: 10px 'sans-serif'" transform="translate(65.238438 296.374687)rotate(-90)">christ</text>
     </g>
    </g>
    <g id="xtick_2">
     <g id="line2d_2">
      <g>
       <use xlink:href="#m1c7e21f789" x="87.227812" y="261.52" style="stroke: #000000; stroke-width: 0.8"/>
      </g>
     </g>
     <g id="text_2">
      <text style="font: 10px 'sans-serif'" transform="translate(89.987188 292.6075)rotate(-90)">engz</text>
     </g>
    </g>
    <g id="xtick_3">
     <g id="line2d_3">
      <g>
       <use xlink:href="#m1c7e21f789" x="111.976562" y="261.52" style="stroke: #000000; stroke-width: 0.8"/>
      </g>
     </g>
     <g id="text_3">
      <text style="font: 10px 'sans-serif'" transform="translate(114.735938 297.085625)rotate(-90)">gamb</text>
     </g>
    </g>
    <g id="xtick_4">
     <g id="line2d_4">
      <g>
       <use xlink:href="#m1c7e21f789" x="136.725313" y="261.52" style="stroke: #000000; stroke-width: 0.8"/>
      </g>
     </g>
     <g id="text_4">
      <text style="font: 10px 'sans-serif'" transform="translate(139.484688 290.537187)rotate(-90)">gqrs</text>
     </g>
    </g>
    <g id="xtick_5">
     <g id="line2d_5">
      <g>
       <use xlink:href="#m1c7e21f789" x="161.474063" y="261.52" style="stroke: #000000; stroke-width: 0.8"/>
      </g>
     </g>
     <g id="text_5">
      <text style="font: 10px 'sans-serif'" transform="translate(164.233438 300.202812)rotate(-90)">hamilt</text>
     </g>
    </g>
    <g id="xtick_6">
     <g id="line2d_6">
      <g>
       <use xlink:href="#m1c7e21f789" x="186.222813" y="261.52" style="stroke: #000000; stroke-width: 0.8"/>
      </g>
     </g>
     <g id="text_6">
      <text style="font: 10px 'sans-serif'" transform="translate(188.982188 286.966875)rotate(-90)">jqrs</text>
     </g>
    </g>
    <g id="xtick_7">
     <g id="line2d_7">
      <g>
       <use xlink:href="#m1c7e21f789" x="210.971562" y="261.52" style="stroke: #000000; stroke-width: 0.8"/>
      </g>
     </g>
     <g id="text_7">
      <text style="font: 10px 'sans-serif'" transform="translate(213.730937 285.82)rotate(-90)">kali</text>
     </g>
    </g>
    <g id="xtick_8">
     <g id="line2d_8">
      <g>
       <use xlink:href="#m1c7e21f789" x="235.720312" y="261.52" style="stroke: #000000; stroke-width: 0.8"/>
      </g>
     </g>
     <g id="text_8">
      <text style="font: 10px 'sans-serif'" transform="translate(238.479687 292.42)rotate(-90)">mart</text>
     </g>
    </g>
    <g id="xtick_9">
     <g id="line2d_9">
      <g>
       <use xlink:href="#m1c7e21f789" x="260.469063" y="261.52" style="stroke: #000000; stroke-width: 0.8"/>
      </g>
     </g>
     <g id="text_9">
      <text style="font: 10px 'sans-serif'" transform="translate(263.228437 287.334062)rotate(-90)">nab</text>
     </g>
    </g>
    <g id="xtick_10">
     <g id="line2d_10">
      <g>
       <use xlink:href="#m1c7e21f789" x="285.217812" y="261.52" style="stroke: #000000; stroke-width: 0.8"/>
      </g>
     </g>
     <g id="text_10">
      <text style="font: 10px 'sans-serif'" transform="translate(287.977187 280.648125)rotate(-90)">nk</text>
     </g>
    </g>
    <g id="xtick_11">
     <g id="line2d_11">
      <g>
       <use xlink:href="#m1c7e21f789" x="309.966563" y="261.52" style="stroke: #000000; stroke-width: 0.8"/>
      </g>
     </g>
     <g id="text_11">
      <text style="font: 10px 'sans-serif'" transform="translate(312.725937 317.07)rotate(-90)">pan-tomp</text>
     </g>
    </g>
    <g id="xtick_12">
     <g id="line2d_12">
      <g>
       <use xlink:href="#m1c7e21f789" x="334.715312" y="261.52" style="stroke: #000000; stroke-width: 0.8"/>
      </g>
     </g>
     <g id="text_12">
      <text style="font: 10px 'sans-serif'" transform="translate(337.474687 296.574687)rotate(-90)">rdeco</text>
     </g>
    </g>
    <g id="xtick_13">
     <g id="line2d_13">
      <g>
       <use xlink:href="#m1c7e21f789" x="359.464062" y="261.52" style="stroke: #000000; stroke-width: 0.8"/>
      </g>
     </g>
     <g id="text_13">
      <text style="font: 10px 'sans-serif'" transform="translate(362.223437 297.05125)rotate(-90)">rpeak</text>
     </g>
    </g>
    <g id="xtick_14">
     <g id="line2d_14">
      <g>
       <use xlink:href="#m1c7e21f789" x="384.212812" y="261.52" style="stroke: #000000; stroke-width: 0.8"/>
      </g>
     </g>
     <g id="text_14">
      <text style="font: 10px 'sans-serif'" transform="translate(386.972187 308.927812)rotate(-90)">two-avg</text>
     </g>
    </g>
    <g id="xtick_15">
     <g id="line2d_15">
      <g>
       <use xlink:href="#m1c7e21f789" x="408.961562" y="261.52" style="stroke: #000000; stroke-width: 0.8"/>
      </g>
     </g>
     <g id="text_15">
      <text style="font: 10px 'sans-serif'" transform="translate(411.720937 294.5825)rotate(-90)">unsw</text>
     </g>
    </g>
    <g id="xtick_16">
     <g id="line2d_16">
      <g>
       <use xlink:href="#m1c7e21f789" x="433.710312" y="261.52" style="stroke: #000000; stroke-width: 0.8"/>
      </g>
     </g>
     <g id="text_16">
      <text style="font: 10px 'sans-serif'" transform="translate(436.469687 292.366875)rotate(-90)">wqrs</text>
     </g>
    </g>
    <g id="text_17">
     <text style="font: 10px 'sans-serif'; text-anchor: middle" x="248.094687" y="328.668437" transform="rotate(-0, 248.094687, 328.668437)">Detector</text>
    </g>
   </g>
   <g id="matplotlib.axis_2">
    <g id="ytick_1">
     <g id="line2d_17">
      <defs>
       <path id="mc3cd1d3950" d="M 0 0 
L -3.5 0 
" style="stroke: #000000; stroke-width: 0.8"/>
      </defs>
      <g>
       <use xlink:href="#mc3cd1d3950" x="50.104688" y="261.52" style="stroke: #000000; stroke-width: 0.8"/>
      </g>
     </g>
     <g id="text_18">
      <text style="font: 10px 'sans-serif'; text-anchor: end" x="43.104688" y="265.319219" transform="rotate(-0, 43.104688, 265.319219)">0%</text>
     </g>
    </g>
    <g id="ytick_2">
     <g id="line2d_18">
      <g>
       <use xlink:href="#mc3cd1d3950" x="50.104688" y="231.83746" style="stroke: #000000; stroke-width: 0.8"/>
      </g>
     </g>
     <g id="text_19">
      <text style="font: 10px 'sans-serif'; text-anchor: end" x="43.104688" y="235.636679" transform="rotate(-0, 43.104688, 235.636679)">5%</text>
     </g>
    </g>
    <g id="ytick_3">
     <g id="line2d_19">
      <g>
       <use xlink:href="#mc3cd1d3950" x="50.104688" y="202.154921" style="stroke: #000000; stroke-width: 0.8"/>
      </g>
     </g>
     <g id="text_20">
      <text style="font: 10px 'sans-serif'; text-anchor: end" x="43.104688" y="205.954139" transform="rotate(-0, 43.104688, 205.954139)">10%</text>
     </g>
    </g>
    <g id="ytick_4">
     <g id="line2d_20">
      <g>
       <use xlink:href="#mc3cd1d3950" x="50.104688" y="172.472381" style="stroke: #000000; stroke-width: 0.8"/>
      </g>
     </g>
     <g id="text_21">
      <text style="font: 10px 'sans-serif'; text-anchor: end" x="43.104688" y="176.2716" transform="rotate(-0, 43.104688, 176.2716)">15%</text>
     </g>
    </g>
    <g id="ytick_5">
     <g id="line2d_21">
      <g>
       <use xlink:href="#mc3cd1d3950" x="50.104688" y="142.789841" style="stroke: #000000; stroke-width: 0.8"/>
      </g>
     </g>
     <g id="text_22">
      <text style="font: 10px 'sans-serif'; text-anchor: end" x="43.104688" y="146.58906" transform="rotate(-0, 43.104688, 146.58906)">20%</text>
     </g>
    </g>
    <g id="ytick_6">
     <g id="line2d_22">
      <g>
       <use xlink:href="#mc3cd1d3950" x="50.104688" y="113.107302" style="stroke: #000000; stroke-width: 0.8"/>
      </g>
     </g>
     <g id="text_23">
      <text style="font: 10px 'sans-serif'; text-anchor: end" x="43.104688" y="116.90652" transform="rotate(-0, 43.104688, 116.90652)">25%</text>
     </g>
    </g>
    <g id="ytick_7">
     <g id="line2d_23">
      <g>
       <use xlink:href="#mc3cd1d3950" x="50.104688" y="83.424762" style="stroke: #000000; stroke-width: 0.8"/>
      </g>
     </g>
     <g id="text_24">
      <text style="font: 10px 'sans-serif'; text-anchor: end" x="43.104688" y="87.223981" transform="rotate(-0, 43.104688, 87.223981)">30%</text>
     </g>
    </g>
    <g id="ytick_8">
     <g id="line2d_24">
      <g>
       <use xlink:href="#mc3cd1d3950" x="50.104688" y="53.742222" style="stroke: #000000; stroke-width: 0.8"/>
      </g>
     </g>
     <g id="text_25">
      <text style="font: 10px 'sans-serif'; text-anchor: end" x="43.104688" y="57.541441" transform="rotate(-0, 43.104688, 57.541441)">35%</text>
     </g>
    </g>
    <g id="ytick_9">
     <g id="line2d_25">
      <g>
       <use xlink:href="#mc3cd1d3950" x="50.104688" y="24.059683" style="stroke: #000000; stroke-width: 0.8"/>
      </g>
     </g>
     <g id="text_26">
      <text style="font: 10px 'sans-serif'; text-anchor: end" x="43.104688" y="27.858901" transform="rotate(-0, 43.104688, 27.858901)">40%</text>
     </g>
    </g>
    <g id="text_27">
     <text style="font: 10px 'sans-serif'; text-anchor: middle" x="14.798438" y="134.36" transform="rotate(-90, 14.798438, 134.36)">Errorrate</text>
    </g>
   </g>
   <g id="patch_83">
    <path d="M 50.104688 261.52 
L 50.104688 7.2 
" style="fill: none; stroke: #000000; stroke-width: 0.8; stroke-linejoin: miter; stroke-linecap: square"/>
   </g>
   <g id="patch_84">
    <path d="M 446.084687 261.52 
L 446.084687 7.2 
" style="fill: none; stroke: #000000; stroke-width: 0.8; stroke-linejoin: miter; stroke-linecap: square"/>
   </g>
   <g id="patch_85">
    <path d="M 50.104688 261.52 
L 446.084687 261.52 
" style="fill: none; stroke: #000000; stroke-width: 0.8; stroke-linejoin: miter; stroke-linecap: square"/>
   </g>
   <g id="patch_86">
    <path d="M 50.104688 7.2 
L 446.084687 7.2 
" style="fill: none; stroke: #000000; stroke-width: 0.8; stroke-linejoin: miter; stroke-linecap: square"/>
   </g>
   <g id="legend_1">
    <g id="text_28">
     <text style="font: 10px 'sans-serif'; text-anchor: start" x="386.357344" y="23.798437" transform="rotate(-0, 386.357344, 23.798437)">Database</text>
    </g>
    <g id="patch_87">
     <path d="M 383.345625 38.476562 
L 403.345625 38.476562 
L 403.345625 31.476562 
L 383.345625 31.476562 
z
" style="fill: #4477aa; stroke: #000000; stroke-width: 0.5; stroke-linejoin: miter"/>
    </g>
    <g id="text_29">
     <text style="font: 10px 'sans-serif'; text-anchor: start" x="411.345625" y="38.476562" transform="rotate(-0, 411.345625, 38.476562)">SIN</text>
    </g>
    <g id="patch_88">
     <path d="M 383.345625 53.154688 
L 403.345625 53.154688 
L 403.345625 46.154688 
L 383.345625 46.154688 
z
" style="fill: #ee6677; stroke: #000000; stroke-width: 0.5; stroke-linejoin: miter"/>
    </g>
    <g id="text_30">
     <text style="font: 10px 'sans-serif'; text-anchor: start" x="411.345625" y="53.154688" transform="rotate(-0, 411.345625, 53.154688)">ARR</text>
    </g>
    <g id="patch_89">
     <path d="M 383.345625 67.832812 
L 403.345625 67.832812 
L 403.345625 60.832812 
L 383.345625 60.832812 
z
" style="fill: #228833; stroke: #000000; stroke-width: 0.5; stroke-linejoin: miter"/>
    </g>
    <g id="text_31">
     <text style="font: 10px 'sans-serif'; text-anchor: start" x="411.345625" y="67.832812" transform="rotate(-0, 411.345625, 67.832812)">HIGH</text>
    </g>
    <g id="patch_90">
     <path d="M 383.345625 82.510938 
L 403.345625 82.510938 
L 403.345625 75.510938 
L 383.345625 75.510938 
z
" style="fill: #ccbb44; stroke: #000000; stroke-width: 0.5; stroke-linejoin: miter"/>
    </g>
    <g id="text_32">
     <text style="font: 10px 'sans-serif'; text-anchor: start" x="411.345625" y="82.510938" transform="rotate(-0, 411.345625, 82.510938)">LOW</text>
    </g>
    <g id="patch_91">
     <path d="M 383.345625 97.189063 
L 403.345625 97.189063 
L 403.345625 90.189063 
L 383.345625 90.189063 
z
" style="fill: #66ccee; stroke: #000000; stroke-width: 0.5; stroke-linejoin: miter"/>
    </g>
    <g id="text_33">
     <text style="font: 10px 'sans-serif'; text-anchor: start" x="411.345625" y="97.189063" transform="rotate(-0, 411.345625, 97.189063)">TELE</text>
    </g>
   </g>
  </g>
 </g>
 <defs>
  <clipPath id="p92712d5b2c">
   <rect x="50.104688" y="7.2" width="395.98" height="254.32"/>
  </clipPath>
 </defs>
</svg>
